
<svg viewBox="755.016 6083.563 189.968 125.0991" xmlns="http://www.w3.org/2000/svg">
  <g id="MXpKb4_00000052065513177776897870000007184302870840751281_" transform="matrix(1, 0, 0, 1, 5.684341886080802e-14, 0)">
    <g>
      <path style="fill:#666666;" d="M944.984,6208.662c-63.358,0-126.597,0-189.968,0c0-41.663,0-83.316,0-125.099&#10;&#9;&#9;&#9;c63.247,0,126.547,0,189.968,0C944.984,6125.197,944.984,6166.851,944.984,6208.662z M762,6206c56.545,0,123.101,0,179.585,0&#10;&#9;&#9;&#9;c-17.781-11.562-37.261-25.055-54.834-36.481c0.564-0.592-3.094-1.967-2.651-2.419c1.873-1.912,0.968-1.005,3.26,0.482&#10;&#9;&#9;&#9;c15.245,9.894,30.487,19.791,45.73,29.686c2.365,1.536,6.734,4.065,9.163,5.638c0-37.309,0-79.635,0-116.906&#10;&#9;&#9;&#9;c-15.321,9.958-32.469,24.024-47.676,33.909c-1.051-1.289-2.02-2.477-2.994-3.672c14.334-9.322,28.539-20.561,42.967-29.943&#10;&#9;&#9;&#9;c-56.509,0-112.654,0-169.127,0c13.995,9.095,27.693,19.996,41.463,28.944c-1.132,1.214-2.159,2.315-3.268,3.505&#10;&#9;&#9;&#9;c-14.623-9.505-31.213-21.988-45.88-31.521c0,37.336-0.5,79.941-0.5,117.207c11.162-7.26,26.155-15.408,37.145-22.559&#10;&#9;&#9;&#9;c6.506-4.234,13.004-8.48,19.528-12.688c0.317-0.204,1.021-0.278,1.243-0.078c1.003,0.902,0.397,0.426,1.416,1.496&#10;&#9;&#9;&#9;C799.506,6181.698,779.189,6194.822,762,6206z"/>
      <path style="fill:#666666;" d="M848.585,6195.256c-1.44-1.467-2.834-2.91-4.252-4.329c-9.715-9.726-19.445-19.436-29.144-29.177&#10;&#9;&#9;&#9;c-2.112-2.121-4.341-4.177-6.137-6.55c-7.653-10.112-7.499-23.709,0.215-33.816c9.189-12.04,27.028-14.318,38.957-4.977&#10;&#9;&#9;&#9;c0.114,0.09,0.249,0.153,0.037,0.025c3.285-1.569,6.246-3.382,9.456-4.448c17.121-5.686,35.116,6.702,36.115,24.734&#10;&#9;&#9;&#9;c0.467,8.421-2.321,15.641-8.254,21.6c-11.941,11.995-23.928,23.944-35.897,35.911&#10;&#9;&#9;&#9;C849.37,6194.539,849.04,6194.83,848.585,6195.256z M848.384,6189.745c0.688-0.637,1.044-0.945,1.376-1.277&#10;&#9;&#9;&#9;c10.535-10.531,21.083-21.048,31.588-31.609c1.891-1.901,3.811-3.832,5.362-6.003c7.043-9.854,5.218-23.584-4.051-31.435&#10;&#9;&#9;&#9;c-9.218-7.807-23.141-7.298-31.73,1.155c-0.734,0.722-1.499,1.412-2.434,2.29c-0.711-0.807-1.269-1.511-1.898-2.144&#10;&#9;&#9;&#9;c-8.402-8.461-22.445-9.139-31.627-1.539c-10.844,8.976-11.519,25.293-1.53,35.202c9.178,9.104,18.294,18.271,27.406,27.442&#10;&#9;&#9;&#9;C843.405,6184.398,845.853,6187.079,848.384,6189.745z"/>
    </g>
  </g>
</svg>