<svg viewBox="709.936 2315.6062 226.0441 332.5278" xmlns="http://www.w3.org/2000/svg">
  <g id="aeZbiq.tif" transform="matrix(1, 0, 0, 1, 0, 2.2737367544323206e-13)">
    <g>
      <path style="fill:#422925;" d="M709.936,2603.848c0.84-0.159,0.446-1.492,1.434-1.51c0.309,0.273,0.516,0.637,0.503,1.026 c-0.188,5.658,3.513,9.029,7.369,12.152c5.527,4.475,11.915,7.471,18.501,10.043c7.697,3.007,15.658,5.039,23.882,5.767 c5.78,0.512,11.591,0.483,17.059-2.025c0.5-0.229,1.017-0.413,1.585-0.362c0.391,0.091,0.725,0.239,0.711,0.727 c-5.359,3.578-11.463,4.107-17.568,3.722c-15.25-0.961-29.368-5.639-42.291-13.837c-4.872-3.091-9.034-6.845-11.184-12.405 C709.936,2606.047,709.936,2604.947,709.936,2603.848z"/>
      <path style="fill:#D0CAC9;" d="M888.329,2648.134c0.023-0.138,0.017-0.275-0.02-0.411c3.151-1.213,6.302-1.128,9.453,0 c-0.037,0.136-0.043,0.273-0.02,0.411C894.605,2648.134,891.467,2648.134,888.329,2648.134z"/>
      <path style="fill:#402723;" d="M849.65,2326.875c-1.407,2.684-1.387,5.703-1.975,8.575c-1.598,7.812-3.795,15.464-6.103,23.084 c-0.472,1.557-0.295,2.333,1.223,3.104c5.54,2.817,10.405,6.495,13.96,11.709c0.942,0.563,0.903,1.25,0.255,2.015 c-0.217,0.129-0.429,0.117-0.639-0.018c-3.011-6.535-8.844-9.928-14.73-13.268c-1.345-0.763-1.18,0.42-1.382,1.054 c-2.492,7.822-4.89,15.674-7.464,23.468c-4.365,13.221-9.162,26.274-15.62,38.651c-0.849,0.008-0.643-0.447-0.401-0.917 c8.114-19.786,14.232-40.216,19.527-60.905c0.325-1.27,1.875-2.882-0.208-4.138c-0.045-0.5,0.147-0.705,0.65-0.521 c1.236,0.062,1.025-1.009,1.172-1.65c2.081-9.062,4.105-18.137,6.172-27.203c0.379-1.661,0.884-3.294,1.331-4.94 c0.057-0.297,0.315-0.324,0.537-0.4c1.344,0.762,3.177,0.401,4.225,1.843C850.232,2326.836,850.172,2327.125,849.65,2326.875z"/>
      <path style="fill:#402723;" d="M911.875,2327.795c0.559,8.646,1.277,17.285,1.016,25.964c-0.07,2.342,0.039,4.693-0.121,7.027 c-0.097,1.409,0.443,1.874,1.727,2.115c1.985,0.374,3.964,0.834,5.822,1.679c-0.013,0.849-0.485,0.653-0.97,0.426 c-1.666-0.419-3.342-0.801-4.993-1.271c-1.171-0.333-1.633-0.175-1.66,1.24c-0.202,10.731-0.59,21.457-1.312,32.167 c-0.765,11.342-1.863,22.644-4.312,33.772c-1.078-0.242-0.47-0.988-0.464-1.553c1.003-10.293,1.949-20.59,2.27-30.933 c0.358-11.527,0.247-23.055,0.169-34.584c-0.005-0.69-0.063-1.255-0.93-1.275c-0.27-0.823,0.807-0.471,0.872-1.001 c-0.458-9.784-0.916-19.568-1.373-29.352c-0.069-1.486-0.203-2.973,0.097-4.451c0.778-1.15,2.103-0.951,3.205-1.302 c0.44-0.2,0.779-0.142,0.943,0.367C912.144,2327.149,912.143,2327.47,911.875,2327.795z"/>
      <path style="fill:#412925;" d="M915.155,2483.702c-9.356,8.375-21.014,8.716-36.27,0.857c2.359,4.815,3.978,9.56,5.193,14.445 c2.698,10.848,3.954,21.907,4.614,33.029c0.739,12.455,0.842,24.925,0.021,37.389c-1.233-0.506-0.521-1.564-0.567-2.333 c-0.076-1.267-0.243-2.569,0.144-3.832c0.086-11.22,0.054-22.438-0.91-33.628c-1.206-13.997-2.752-27.935-7.968-41.154 c-1.212-3.072-2.727-5.886-5.203-8.254c-2.878-2.752-5.349-5.923-7.115-9.562c-0.201-0.285-0.163-0.532,0.114-0.744 c1.37,0.905,2.602,1.928,3.414,3.412c7.001,12.806,27.901,22.245,43.531,10.051c0.119-0.093,0.278-0.134,0.418-0.2 C915.076,2483.007,915.209,2483.25,915.155,2483.702z"/>
      <path style="fill:#422925;" d="M811.341,2479.002c0.198-0.239,0.603-0.532,0.557-0.706c-0.159-0.602-0.622-0.206-0.881-0.084 c-3.813,1.802-7.828,2.533-12.034,2.687c-1.667,0.061-3.157-0.625-4.77-0.534c-0.442-0.39-1.074,0.049-1.515-0.348 c-6.648-1.656-12.074-5.295-16.708-10.393c1.035,6.292,1.103,12.52,0.694,18.737c-0.855,12.989-2.992,25.776-6.45,38.333 c-0.451-0.218-0.506-0.643-0.559-1.069c1.61-6.76,3.016-13.563,4.033-20.438c1.7-11.498,3.104-23.01,1.205-34.638 c-0.331-2.024-0.963-3.895-1.984-5.708c-2.384-4.231-4.372-8.644-5.145-13.505c-0.118-0.46-0.472-1.02,0.442-1.042l0.156-0.074 c0.638,0.543,0.878,1.258,0.893,2.068c-0.115,0.531,0.127,1.053,0.044,1.829c0.198-0.613-0.089-1.071,0.222-1.419 c0.159-0.162,0.338-0.196,0.539-0.083c1.428,13.341,13.985,25.245,26.249,26.667c7.728,0.896,14.511-1.195,20.601-5.882 c0.678-0.521,1.363-1.033,2.045-1.55c0.544-0.216,0.647,0.085,0.626,0.533c-1.586,1.223-2.621,3.117-4.64,3.811 c-0.595,0.387-0.948,1.023-1.498,1.458C812.851,2478.253,812.632,2479.472,811.341,2479.002z"/>
      <path style="fill:#422A26;" d="M918.395,2479.351c8.195-10.656,11.419-23.203,13.564-36.118 c1.931-11.622,2.959-23.345,2.852-35.129c-0.099-10.826-0.909-21.62-2.327-32.359c-0.141-1.066-0.589-2.092-0.895-3.137 c-0.311-0.583,0.023-1.057,0.259-1.548c0.097-0.372-0.1-0.96,0.632-0.868c4.882,28.35,4.987,56.605-1.79,84.7 c-1.919,7.956-4.765,15.558-9.516,22.321c-0.293,0.417-0.4,0.83-0.399,1.306c-0.387,0.532-0.951,0.904-1.314,1.458l-0.137,0.032 l-0.071-0.122C918.605,2480.287,918.308,2480.127,918.395,2479.351z"/>
      <path style="fill:#422A26;" d="M852.629,2629.89c-0.08,3.785,2.012,6.321,4.904,8.317c5.058,3.491,10.835,5.179,16.761,6.371 c12.809,2.576,25.626,2.885,38.4-0.243c1.799-0.441,3.526-1.181,5.286-1.783c0.315,0.192,0.717,0.336,0.464,0.842 c-6.564,3.023-13.585,3.856-20.682,4.329c-3.151,0-6.302,0-9.453,0c-9.972-0.634-19.772-2.026-28.857-6.569 c-2.122-1.062-4.079-2.353-5.582-4.217c-1.929-2.394-2.823-5.039-1.722-8.094C853.053,2628.851,852.73,2629.421,852.629,2629.89z"/>
      <path style="fill:#432B27;" d="M823.306,2467.548c15.151-19.213,22.952-41.691,28.727-65.042 c1.369-5.533,2.294-11.176,3.423-16.768c1.092,0.25,0.471,1.011,0.473,1.586c-1.565,11.753-4.309,23.246-8.135,34.447 c-4.89,14.316-10.609,28.277-19.36,40.77c-1.389,1.983-2.814,3.952-4.597,5.618 C823.38,2468.199,823.114,2468.073,823.306,2467.548z"/>
      <path style="fill:#452D29;" d="M896.875,2582.623c-1.241-22.611-0.258-45.056,5.1-67.162c1.103-4.553,2.431-9.047,4.284-13.366 c0.437-0.058,0.722,0.014,0.471,0.548c-1.415,5.023-3.01,10.004-4.212,15.078c-4.427,18.693-5.564,37.706-5.209,56.847 c0.023,1.251,0.007,2.502,0.008,3.754C897.358,2579.775,898.084,2581.299,896.875,2582.623z"/>
      <path style="fill:#49312D;" d="M785.208,2624.039c0.701-2.115,0.502-4.096-0.785-5.932c-0.842,0.076-0.243,1.248-1.081,1.235 c-0.114-0.087-0.337-0.216-0.322-0.26c0.818-2.318-0.424-3.861-1.956-5.311c-3.77-3.568-8.26-6.055-12.755-8.534 c-0.073-0.525,0.108-0.745,0.644-0.539c6.201,2.916,12.077,6.291,16.032,12.145c1.612,2.386,2.29,4.984,0.653,7.711 C785.236,2624.599,784.943,2624.552,785.208,2624.039z"/>
      <path style="fill:#49322E;" d="M929.244,2631.094c-0.034-2.102-0.626-3.956-2.516-5.519c-0.138,1.028-0.252,1.883-0.366,2.738 c-0.403,0.048-0.674-0.013-0.422-0.509c0.226-3.974-2.894-5.086-5.596-6.557c-0.068-0.431,0.002-0.707,0.528-0.469 c3.391,0.666,5.861,2.733,7.897,5.359c1.492,1.925,1.768,4.115,0.89,6.417C928.606,2632.328,929.144,2631.649,929.244,2631.094z"/>
      <path style="fill:#523B38;" d="M782.926,2519.049c2.388-5.603,4.989-11.097,8.359-16.192c0.283,0.224,0.331,0.491,0.144,0.8 c-2.678,5.308-5.357,10.617-8.035,15.925C783.099,2519.526,783.057,2519.248,782.926,2519.049z"/>
      <path style="fill:#523C38;" d="M920.871,2620.779c-0.176,0.156-0.352,0.312-0.528,0.469c-5.598-2.331-11.574-3.251-17.414-4.681 c0.807-0.383,1.627-0.279,2.451-0.064C910.811,2616.956,916.029,2618.186,920.871,2620.779z"/>
      <path style="fill:#6E5C59;" d="M857.188,2406.426c0.012,4.722,0.023,9.443,0.035,14.165c-0.575,0.944,0.26,2.146-0.557,3.045 c-0.524-6.726-0.584-13.451,0.044-20.174C857.425,2404.36,856.699,2405.491,857.188,2406.426z"/>
      <path style="fill:#64504D;" d="M766.962,2430.273c-0.051,3.215-0.102,6.43-0.153,9.645c-0.481,0.937,0.243,2.066-0.474,2.965 c-0.81-4.611-0.336-9.21,0.138-13.808C767.466,2429.135,766.964,2429.806,766.962,2430.273z"/>
      <path style="fill:#523B38;" d="M791.429,2503.656c-0.048-0.266-0.096-0.533-0.144-0.8c1.726-3.335,3.845-6.411,6.164-9.354 c0.258,0.207,0.289,0.444,0.095,0.712C795.968,2497.661,793.635,2500.618,791.429,2503.656z"/>
      <path style="fill:#4F3834;" d="M895.747,2325.947c-3.85-0.001-7.699-0.001-11.549-0.002c-0.706,0.055-1.554,0.703-1.964-0.473 c5.319-0.332,10.638-0.289,15.957-0.006C897.594,2326.731,896.596,2325.962,895.747,2325.947z"/>
      <path style="fill:#5D4844;" d="M888.29,2563.257c0.428,2.035-0.421,4.158,0.422,6.165c-0.155,2.516-0.31,5.033-0.465,7.549 c-1.211-0.848-0.448-1.991-0.452-3.02C887.862,2570.382,887.72,2566.803,888.29,2563.257z"/>
      <path style="fill:#9F9391;" d="M858.741,2353.255c0.018-2.698-0.188-5.406,0.391-8.076c0.356,0.207,0.153,0.671,0.421,0.919 c0.042,3.16,0.295,6.329-0.381,9.46c-0.072-0.072-0.143-0.145-0.215-0.217C858.804,2354.654,859.112,2353.92,858.741,2353.255z"/>
      <path style="fill:#402723;" d="M867.209,2469.916c-0.038,0.248-0.076,0.496-0.114,0.744c-2.028-2.554-3.158-5.549-4.201-8.587 c-0.223-0.468-0.438-0.932,0.402-0.946C864.6,2464.057,865.904,2466.986,867.209,2469.916z"/>
      <path style="fill:#543D3A;" d="M855.93,2387.325c-0.171-0.525,0.056-1.168-0.473-1.586c0.431-2.71,0.862-5.42,1.292-8.131 c0.507,0.394,0.076,1.069,0.45,1.503C856.895,2381.867,856.682,2384.638,855.93,2387.325z"/>
      <path style="fill:#695653;" d="M858.746,2441.208c0.75,2.503,0.861,5.112,1.273,7.671c-0.285,0.288-0.017,0.841-0.497,1.036 c-0.783-2.504-1.083-5.087-1.26-7.689C858.554,2441.948,858.303,2441.413,858.746,2441.208z"/>
      <path style="fill:#4D3733;" d="M918.395,2479.351c0.156,0.388,0.465,0.53,0.858,0.538c-0.114,1.457-1.926,1.691-2.185,3.043 c-0.908-0.415-1.227,0.631-1.912,0.77c-0.195-0.174-0.389-0.348-0.584-0.522C915.846,2481.904,917.12,2480.627,918.395,2479.351z"/>
      <path style="fill:#533C39;" d="M778.574,2529.67c0.645-2.465,1.509-4.842,2.809-7.045c0.353,0.074,0.383,0.398,0.503,0.653 c-0.942,2.354-1.884,4.707-2.826,7.061C778.548,2530.371,778.4,2530.138,778.574,2529.67z"/>
      <path style="fill:#533C39;" d="M906.729,2502.643c-0.157-0.183-0.314-0.365-0.471-0.548c0.492-2.262,1.616-4.25,2.715-6.248 c0.319,0.055,0.355,0.337,0.457,0.567C908.687,2498.559,907.858,2500.666,906.729,2502.643z"/>
      <path style="fill:#4D3632;" d="M823.306,2467.548c0.177,0.204,0.354,0.408,0.531,0.612c-1.198,1.624-2.606,3.037-4.237,4.226 c-0.209-0.178-0.417-0.356-0.626-0.533C820.418,2470.417,821.862,2468.983,823.306,2467.548z"/>
      <path style="fill:#614C49;" d="M766.352,2541.642c-0.46,1.948-0.939,3.891-1.819,5.705c-0.872-2.51,0.815-4.495,1.375-6.712 C766.324,2540.852,766.076,2541.363,766.352,2541.642z"/>
      <path style="fill:#5B4643;" d="M918.445,2643.394c-0.155-0.281-0.31-0.561-0.464-0.842c1.888-0.965,3.776-1.929,5.664-2.894 c0.476-0.172,0.581,0.026,0.454,0.456C922.546,2641.781,920.406,2642.434,918.445,2643.394z"/>
      <path style="fill:#65514E;" d="M762.262,2598.218c0.089-2.11,0.197-4.218,0.779-6.267c0.462,0.203,0.211,0.729,0.462,1.027 c-0.279,2.244-0.174,4.532-0.789,6.737C762.178,2599.332,762.618,2598.655,762.262,2598.218z"/>
      <path style="fill:#634F4C;" d="M887.796,2573.951c0.257,0.991-0.297,2.103,0.452,3.02c-0.154,1.886-0.308,3.772-0.462,5.658 c-1.172-0.49-0.452-1.38-0.448-2.119C887.331,2578.313,887.258,2576.111,887.796,2573.951z"/>
      <path style="fill:#5D4845;" d="M863.296,2461.127c-0.134,0.315-0.268,0.631-0.402,0.946c-0.764-1.997-2.214-3.838-1.397-6.192 C862.096,2457.63,862.696,2459.378,863.296,2461.127z"/>
      <path style="fill:#685552;" d="M859.077,2381.457c-0.251,2.124-0.501,4.248-0.752,6.372c-0.518-0.231-0.228-0.827-0.522-1.159 c0.235-2.091,0.192-4.217,0.804-6.259C859.047,2380.632,858.801,2381.162,859.077,2381.457z"/>
      <path style="fill:#6D5A57;" d="M766.962,2430.273c-0.062-0.441-0.068-0.905-0.489-1.198c0.143-1.942,0.188-3.897,0.796-5.775 c0.315,0.043,0.34,0.337,0.468,0.542C767.537,2425.992,767.529,2428.166,766.962,2430.273z"/>
      <path style="fill:#644F4C;" d="M897.794,2594.887c-0.148-1.735-0.296-3.47-0.444-5.205c0.464-0.758-0.219-1.741,0.479-2.454 c0.521,1.813,0.452,3.673,0.433,5.529C898.262,2593.502,899.008,2594.41,897.794,2594.887z"/>
      <path style="fill:#614D49;" d="M768.319,2533.86c-0.018,1.954-0.661,3.75-1.388,5.525c-0.417-0.217-0.166-0.734-0.454-1.009 C767.054,2536.856,766.614,2534.92,768.319,2533.86z"/>
      <path style="fill:#5A4542;" d="M929.244,2631.094c0.133,0.489-0.089,1.078,0.414,1.462c-0.405,1.617-1.002,3.13-2.308,4.258 c-0.25,0.202-0.468,0.172-0.654-0.089C927.894,2635.006,928.629,2633.077,929.244,2631.094z"/>
      <path style="fill:#462E2B;" d="M885.033,2599.992c0.614,1.759,0.443,3.365-0.918,4.741 C884.139,2603.098,884.317,2601.493,885.033,2599.992z"/>
      <path style="fill:#442C28;" d="M768.224,2450.296c-0.147,0.347-0.294,0.695-0.442,1.042c-0.612-1.509-0.941-3.076-0.963-4.706 c-0.031-0.56-0.609-1.28,0.444-1.524C767.583,2446.838,767.904,2448.567,768.224,2450.296z"/>
      <path style="fill:#65524E;" d="M857.802,2386.67c0.174,0.386,0.348,0.772,0.522,1.158c-0.124,1.863,0.043,3.753-0.52,5.576 c-0.556-0.396-0.096-1.1-0.47-1.552C857.491,2390.125,857.647,2388.398,857.802,2386.67z"/>
      <path style="fill:#56403D;" d="M899.666,2609.967c-0.189-1.681-0.379-3.361-0.568-5.042c-0.055-0.577-0.632-1.314,0.471-1.534 c0.191,1.522,0.381,3.044,0.572,4.566C900.223,2608.684,900.868,2609.544,899.666,2609.967z"/>
      <path style="fill:#56403D;" d="M797.545,2494.214c-0.032-0.237-0.064-0.474-0.095-0.712c0.841-1.483,1.69-2.958,3.354-3.693 C800.343,2491.741,798.958,2492.989,797.545,2494.214z"/>
      <path style="fill:#543E3B;" d="M910.919,2326.464c-0.948,0.731-2.06,1.057-3.205,1.302c-0.351-1.424-1.629-0.623-2.413-1.007 c0.207-1.103,0.95-0.503,1.513-0.477C908.182,2326.343,909.55,2326.404,910.919,2326.464z"/>
      <path style="fill:#5F4B47;" d="M896.875,2582.623c0.841-1.363,0.036-2.895,0.442-4.302c0.5,1.74,0.398,3.52,0.353,5.295 c-0.486,0.915,0.218,2.019-0.459,2.904C896.754,2585.251,896.804,2583.938,896.875,2582.623z"/>
      <path style="fill:#CDC7C6;" d="M859.106,2338.637c-0.886-1.845-0.22-3.809-0.435-5.705c1.328,1.043,0.882,2.499,0.894,3.848 C859.109,2337.324,859.679,2338.123,859.106,2338.637z"/>
      <path style="fill:#5C4744;" d="M767.263,2445.108c-0.479,0.411-0.266,1.024-0.444,1.524c-0.597-1.193-0.445-2.484-0.485-3.75 c0.294-0.967-0.285-2.073,0.474-2.965C766.96,2441.648,767.111,2443.378,767.263,2445.108z"/>
      <path style="fill:#58433F;" d="M769.651,2529.392c-0.108,1.607-0.76,3.054-1.333,4.524c-1.041-2.058,0.392-3.726,0.871-5.545 C769.628,2528.582,769.365,2529.111,769.651,2529.392z"/>
      <path style="fill:#65514E;" d="M857.188,2406.426c-0.741-0.894-0.204-1.995-0.479-2.964c0.053-1.667,0.106-3.335,0.159-5.002 c1.162,0.456,0.469,1.333,0.466,2.054C857.285,2402.485,857.237,2404.455,857.188,2406.426z"/>
      <path style="fill:#685551;" d="M857.32,2372.067c0.161-1.568,0.321-3.136,0.482-4.704c1.106,0.25,0.483,1.01,0.469,1.591 c-0.025,1.559,0.083,3.132-0.471,4.636C857.189,2373.225,857.721,2372.499,857.32,2372.067z"/>
      <path style="fill:#513B37;" d="M781.886,2523.278c-0.168-0.218-0.335-0.435-0.503-0.653c0.514-1.192,1.028-2.385,1.542-3.577 c0.156,0.177,0.312,0.355,0.467,0.532C783.056,2520.881,782.595,2522.13,781.886,2523.278z"/>
      <path style="fill:#5C4744;" d="M776.74,2384.39c-0.264,1.604-0.731,3.143-1.436,4.609c-0.134,0.162-0.273,0.166-0.418,0.014 C775.32,2387.398,775.22,2385.569,776.74,2384.39z"/>
      <path style="fill:#66524F;" d="M856.665,2423.636c0.361-0.983-0.269-2.148,0.557-3.045c0.023,1.792,0.046,3.584,0.068,5.376 c0.005,0.747,0.856,1.671-0.449,2.142C856.783,2426.618,856.724,2425.127,856.665,2423.636z"/>
      <path style="fill:#594440;" d="M768.953,2604.698c-0.215,0.179-0.43,0.359-0.644,0.539c-1.096-0.479-2.193-0.957-3.289-1.436 c-0.042-0.519,0.189-0.688,0.676-0.527C766.877,2603.53,767.997,2603.927,768.953,2604.698z"/>
      <path style="fill:#6F5C59;" d="M732.554,2594.813c-1.429,0-2.857,0-4.286,0c-0.146-0.098-0.191-0.19-0.136-0.276 c0.053-0.083,0.106-0.125,0.159-0.125c1.422-0.693,2.835-0.375,4.247,0.037c0.143,0.075,0.193,0.154,0.15,0.237 C732.644,2594.771,732.6,2594.813,732.554,2594.813z"/>
      <path style="fill:#6C5956;" d="M895.747,2325.947c0.791-0.282,1.737,0.225,2.444-0.482c1.199-0.079,2.394-0.11,3.553,0.293 c-0.565,0.724-1.467,0.079-2.101,0.519C898.334,2326.286,897.013,2326.446,895.747,2325.947z"/>
      <path style="fill:#6F5C59;" d="M857.334,2400.514c-0.163-0.683,0.142-1.472-0.466-2.054c-0.086-1.176-0.117-2.347,0.311-3.478 c0.585,0.384,0.09,1.118,0.504,1.558C857.703,2397.876,857.83,2399.223,857.334,2400.514z"/>
      <path style="fill:#65514E;" d="M886.975,2589.442c-0.009,1.249,0.085,2.51-0.464,3.691c-0.475-0.206-0.287-0.717-0.482-1.052 c0.159-1.413,0.318-2.826,0.477-4.239C887.619,2588.095,887.005,2588.855,886.975,2589.442z"/>
      <path style="fill:#756360;" d="M768.764,2563.361c-0.569-1.5-0.618-2.869,0.97-3.822 C769.612,2560.864,769.573,2562.21,768.764,2563.361z"/>
      <path style="fill:#705D5A;" d="M769.705,2559.593c-0.692-1.425-0.277-2.657,0.662-3.797l0.218-0.037 C770.679,2557.126,770.443,2558.417,769.705,2559.593z"/>
      <path style="fill:#5E4946;" d="M774.892,2541.401c-0.957-1.601,0.433-2.71,0.842-4.025c0.246-0.17,0.471-0.146,0.676,0.071 C776.095,2538.838,775.717,2540.206,774.892,2541.401z"/>
      <path style="fill:#57423E;" d="M886.029,2592.082c0.161,0.351,0.321,0.701,0.482,1.052c-0.037,1.109,0.08,2.241-0.484,3.272 c-0.434-0.216-0.185-0.715-0.42-1.013C885.835,2594.301,885.075,2593.082,886.029,2592.082z"/>
      <path style="fill:#553F3C;" d="M800.756,2489.86c0.381-1.575,1.282-2.709,2.81-3.309 C803.212,2488.15,802.208,2489.196,800.756,2489.86z"/>
      <path style="fill:#5E4946;" d="M837.505,2322.061c-1.375-0.207-2.771-0.361-3.735-1.556l-0.059-0.104 c1.488-0.415,2.576,0.616,3.827,1.06C837.766,2321.674,837.755,2321.874,837.505,2322.061z"/>
      <path style="fill:#6C5956;" d="M862.44,2356.902c0.757,1.55-0.082,2.95-0.41,4.398c-0.308-0.045-0.353-0.323-0.473-0.535 C861.707,2359.445,861.743,2358.098,862.44,2356.902z"/>
      <path style="fill:#503A36;" d="M762.262,2598.218c0.482,0.399,0.31,0.996,0.452,1.497c0.404,0.894-0.821,2.291,0.86,2.791 c0.045,0.408-0.005,0.704-0.525,0.442c-0.097,0.016-0.194,0.023-0.293,0.024c-0.584,0.282-0.765-0.155-0.973-0.546 C761.943,2601.023,762.102,2599.621,762.262,2598.218z"/>
      <path style="fill:#634E4B;" d="M899.569,2603.391c-0.542,0.393-0.344,1.014-0.471,1.534c-0.542-1.169-0.483-2.416-0.469-3.656 c-0.013-0.6-0.659-1.381,0.474-1.651C899.259,2600.875,899.414,2602.133,899.569,2603.391z"/>
      <path style="fill:#402723;" d="M817.74,2316.812c-1.408-0.139-2.816-0.278-4.224-0.417c-0.001-0.888,0.54-0.6,1.009-0.465 c1.405,0.049,2.835-0.107,4.168,0.52C818.462,2316.798,818.032,2316.623,817.74,2316.812z"/>
      <path style="fill:#452D29;" d="M931.227,2366.851c-0.199-1.352-0.398-2.704-0.596-4.056c-0.176-0.395-0.088-0.624,0.383-0.615 c0.219,1.225,0.439,2.451,0.658,3.676C931.856,2366.337,932.094,2366.841,931.227,2366.851z"/>
      <path style="fill:#442C28;" d="M764.652,2580.777c0.541-1.206-0.419-2.926,1.278-3.735c-0.522,1.34-0.139,2.884-0.935,4.162 C764.806,2581.122,764.695,2580.976,764.652,2580.777z"/>
      <path style="fill:#4E3734;" d="M926.695,2636.724c0.218,0.03,0.436,0.06,0.654,0.089c-0.744,1.435-1.913,2.451-3.251,3.301 c-0.151-0.152-0.303-0.304-0.454-0.456C924.661,2638.68,925.678,2637.702,926.695,2636.724z"/>
      <path style="fill:#58423F;" d="M763.208,2590.208c0.154-1.255,0.308-2.509,0.462-3.764c0.92,0.022,0.533,0.629,0.485,1.085 c-0.078,1.232,0.023,2.49-0.531,3.653C763.248,2590.959,763.451,2590.488,763.208,2590.208z"/>
      <path style="fill:#6A5653;" d="M767.394,2566.632c0.389-1.142-0.115-2.66,1.4-3.328c-0.121,1.338-0.219,2.681-0.923,3.88 C767.594,2567.104,767.555,2566.815,767.394,2566.632z"/>
      <path style="fill:#5E4946;" d="M773.063,2544.973c0.732-1.098,0.186-2.882,1.861-3.475c-0.078,1.48-0.609,2.813-1.332,4.083 C773.263,2545.51,773.23,2545.183,773.063,2544.973z"/>
      <path style="fill:#402723;" d="M769.651,2529.392c-0.154-0.34-0.308-0.68-0.462-1.021c0.23-0.903-0.159-1.915,0.486-2.745 c0.437,0.225,0.505,0.644,0.559,1.069C770.308,2527.652,769.921,2528.509,769.651,2529.392z"/>
      <path style="fill:#66524F;" d="M856.842,2428.109c0.646-0.61,0.362-1.415,0.449-2.142c0.5,1.152,0.392,2.369,0.384,3.576 c-0.454,0.605,0.145,1.461-0.483,2.024C856.767,2430.446,856.809,2429.277,856.842,2428.109z"/>
      <path style="fill:#523B38;" d="M725.471,2594.905c-1.412,0.365-2.781,1.144-4.303,0.449c1.378-0.579,2.828-0.792,4.31-0.837 c0.158,0.089,0.209,0.176,0.155,0.261C725.579,2594.863,725.525,2594.905,725.471,2594.905z"/>
      <path style="fill:#452D29;" d="M885.607,2595.393c0.14,0.338,0.28,0.675,0.42,1.013c-0.381,0.881,0.7,2.293-0.982,2.7 C885.253,2597.872,885.05,2596.575,885.607,2595.393z"/>
      <path style="fill:#452D29;" d="M931.014,2362.18c-0.128,0.205-0.255,0.409-0.383,0.614c-0.493-1.425-0.806-2.884-0.809-4.399 c0.1,0.001,0.2,0.002,0.299,0.003C930.775,2359.574,930.687,2360.927,931.014,2362.18z"/>
      <path style="fill:#6F5C59;" d="M858.287,2362.169c-0.143-1.293,0.033-2.552,0.413-3.788c0.113-0.193,0.233-0.207,0.363-0.016 c0.121,1.291,0.167,2.576-0.282,3.824C858.607,2362.391,858.442,2362.384,858.287,2362.169z"/>
      <path style="fill:#5B4542;" d="M857.32,2372.067c0.537,0.389,0.344,1.008,0.48,1.523c-0.047,1.283,0.083,2.587-0.451,3.812 c-0.504-0.597-0.404-1.358-0.555-2.05c0.495-0.678,0.39-1.344-0.039-2.004C856.944,2372.921,857.132,2372.494,857.32,2372.067z"/>
      <path style="fill:#6C5855;" d="M713.722,2599.114c-0.01,1.369-0.853,2.592-0.571,4.018c-0.582-0.652-0.334-1.372-0.409-2.047 c-0.255-0.22-0.264-0.45-0.028-0.689C712.215,2599.31,712.996,2599.234,713.722,2599.114z"/>
      <path style="fill:#402723;" d="M859.522,2449.915c0.166-0.345,0.331-0.691,0.497-1.036c0.212,1.189,0.425,2.379,0.637,3.568 c0.179,0.495-0.029,0.673-0.512,0.626C859.937,2452.02,859.73,2450.968,859.522,2449.915z"/>
      <path style="fill:#6A5653;" d="M864.793,2345.59c0.904,1.419-0.124,2.627-0.426,3.914c-0.299-0.041-0.336-0.31-0.445-0.515 C864.087,2347.824,864.125,2346.626,864.793,2345.59z"/>
      <path style="fill:#57413E;" d="M778.574,2529.67c0.162,0.223,0.324,0.446,0.487,0.669c-0.357,1.141-0.6,2.328-1.345,3.311 c-0.352-0.212-0.15-0.649-0.37-0.915C777.644,2531.669,777.906,2530.588,778.574,2529.67z"/>
      <path style="fill:#422A26;" d="M902.039,2616.568c0.005,0.584,0.01,1.167,0.014,1.751c0.21,0.498-0.016,0.64-0.479,0.591 c-0.203-0.745-0.407-1.49-0.61-2.236c-0.322-0.554-0.112-1.146-0.122-1.723c0.071-0.094,0.142-0.188,0.213-0.281 C901.821,2615.075,901.509,2616.04,902.039,2616.568z"/>
      <path style="fill:#57423E;" d="M859.077,2381.457c-0.157-0.349-0.314-0.698-0.471-1.046c0.036-1.252-0.036-2.52,0.512-3.701 c0.375,0.224,0.178,0.68,0.394,0.969C859.367,2378.938,859.222,2380.198,859.077,2381.457z"/>
      <path style="fill:#685552;" d="M822.466,2317.786c-1.136-0.284-2.368-0.155-3.424-0.788c0.207-0.434,0.721-0.196,1.005-0.46 c1.17,0.145,2.362,0.195,3.427,0.795C823.267,2317.771,822.756,2317.533,822.466,2317.786z"/>
      <path style="fill:#786764;" d="M768.347,2418.965c0.045,1.064,0.134,2.135-0.441,3.111c-0.302-0.048-0.334-0.348-0.493-0.529 c-0.353-1.327,0.394-2.508,0.499-3.775C768.89,2417.865,768.371,2418.505,768.347,2418.965z"/>
      <path style="fill:#6F5C59;" d="M882.234,2325.472c0.54,0.633,1.329,0.233,1.964,0.473c-1.266,0.489-2.582,0.412-3.898,0.347 c-0.197-0.158-0.509-0.19-0.559-0.51C880.529,2325.334,881.38,2325.391,882.234,2325.472z"/>
      <path style="fill:#452D29;" d="M897.212,2586.521c0.36-0.935-0.307-2.033,0.459-2.904c0.053,1.204,0.106,2.408,0.158,3.612 c-0.365,0.778,0.236,1.744-0.479,2.454C897.304,2588.629,897.258,2587.575,897.212,2586.521z"/>
      <path style="fill:#56403C;" d="M860.144,2453.073c0.171-0.209,0.341-0.417,0.512-0.626c0.499,1.109,0.778,2.274,0.866,3.485 C859.854,2455.563,860.505,2454.074,860.144,2453.073z"/>
      <path style="fill:#422A26;" d="M861.537,2363.583c-0.275,0.933,0.565,2.252-0.954,2.753c0.432-0.887-0.47-1.959,0.386-2.788 C861.169,2363.385,861.358,2363.404,861.537,2363.583z"/>
      <path style="fill:#422A26;" d="M860.558,2367.292c0.975,1.277-0.269,2.51-0.075,3.772c-0.888,0.027-0.584-0.51-0.455-0.964 C860.152,2369.154,859.987,2368.153,860.558,2367.292z"/>
      <path style="fill:#57413E;" d="M911.006,2491.741c0.582-0.993,1.164-1.986,1.746-2.979c0.267,0.209,0.306,0.454,0.117,0.735 c-0.07,1.134-0.691,1.976-1.446,2.749C911.21,2492.139,911.071,2491.97,911.006,2491.741z"/>
      <path style="fill:#634F4C;" d="M764.559,2547.296c-0.091,1.037-0.336,2.026-0.922,2.906c-0.29-0.064-0.462-0.243-0.516-0.535 C763.395,2548.751,763.025,2547.445,764.559,2547.296z"/>
      <path style="fill:#58423F;" d="M899.666,2609.967c0.658-0.552,0.343-1.334,0.476-2.01c0.636,1.385,0.521,2.848,0.448,4.306 c0.294,0.523-0.033,0.557-0.425,0.541C899.998,2611.858,899.832,2610.913,899.666,2609.967z"/>
      <path style="fill:#624D4A;" d="M833.711,2320.401c0,0,0.059,0.105,0.059,0.104c-1.268,0.161-2.468,0.15-3.125-1.237 C831.797,2319.292,832.913,2319.416,833.711,2320.401z"/>
      <path style="fill:#48302D;" d="M863.414,2353.756c-0.16,0.96,0.284,2.135-0.959,2.71c0.211-1.076-0.263-2.277,0.585-3.239 C863.438,2353.209,863.678,2353.304,863.414,2353.756z"/>
      <path style="fill:#705E5B;" d="M917.44,2328.26c-1.339,0.57-2.541-0.072-3.774-0.431c0.054-0.293,0.343-0.322,0.527-0.469 C915.337,2327.436,916.428,2327.707,917.44,2328.26z"/>
      <path style="fill:#604B48;" d="M770.663,2407.364c-0.373,1.091-0.193,2.341-0.953,3.321c-0.13,0.22-0.266,0.235-0.409,0.011 C769.754,2409.585,768.891,2407.935,770.663,2407.364z"/>
      <path style="fill:#66534F;" d="M830.694,2319.285c-1.438,0.812-2.52,0.382-3.342-0.958 C828.554,2318.34,829.685,2318.6,830.694,2319.285z"/>
      <path style="fill:#9E9290;" d="M859.106,2338.637c0.175-0.614-0.239-1.373,0.459-1.857c-0.011,1.876-0.022,3.753-0.033,5.629 c-0.1,0-0.2,0-0.3,0C859.19,2341.152,859.148,2339.895,859.106,2338.637z"/>
      <path style="fill:#624D4A;" d="M771.607,2403.117c-0.316,1.166-0.632,2.331-0.948,3.496 C770.1,2405.21,770.055,2403.947,771.607,2403.117z"/>
      <path style="fill:#634F4C;" d="M772.07,2550.871c-1.046-1.209,0.079-2.15,0.392-3.191c0.301,0.06,0.33,0.354,0.472,0.55 C772.833,2549.172,772.687,2550.099,772.07,2550.871z"/>
      <path style="fill:#685552;" d="M770.719,2553.462c0.325-0.948-0.082-2.275,1.368-2.639c-0.021,1.141-0.278,2.219-0.858,3.21 C770.907,2553.979,770.876,2553.664,770.719,2553.462z"/>
      <path style="fill:#624E4B;" d="M854.624,2625.606c-0.838,0.978-0.631,2.222-0.719,3.535c-0.23-0.243-0.352-0.313-0.376-0.408 c-0.054-0.217-0.06-0.446-0.086-0.67c-0.271-0.327-0.423-0.698-0.414-1.128c0.154-0.593,0.393-1.125,0.993-1.4 C854.25,2625.328,854.451,2625.352,854.624,2625.606z"/>
      <path style="fill:#5D4845;" d="M780.451,2629.237c0.802-0.615,1.605-1.229,2.408-1.843c0.266-0.198,0.498-0.164,0.697,0.102 c-0.669,0.949-1.486,1.722-2.576,2.17C780.803,2629.523,780.627,2629.38,780.451,2629.237z"/>
      <path style="fill:#4B3430;" d="M806.428,2319.287c-0.355,1.064-0.589,2.211-1.819,2.679 C804.587,2320.645,805.463,2319.935,806.428,2319.287z"/>
      <path style="fill:#6D5B58;" d="M929.196,2355.585c-0.597-1.199-0.755-2.498-0.863-3.808c1.138,1.021,1.064,2.476,1.356,3.8 C929.528,2355.79,929.364,2355.793,929.196,2355.585z"/>
      <path style="fill:#72605D;" d="M858.271,2368.954c-0.111-0.543,0.053-1.168-0.469-1.591c-0.079-0.859-0.034-1.701,0.327-2.503 c0.451,0.216,0.198,0.756,0.483,1.049C858.706,2366.947,858.665,2367.97,858.271,2368.954z"/>
      <path style="fill:#675350;" d="M899.643,2326.277c0.59-0.621,1.415-0.288,2.101-0.519c1.013,0.066,2.025,0.132,3.038,0.198 c-0.46,1.166-1.337,0.471-2.061,0.463C901.695,2326.372,900.669,2326.324,899.643,2326.277z"/>
      <path style="fill:#7A6866;" d="M883.091,2612.781c-0.256,1.01-0.513,2.019-0.769,3.028c-0.534-0.2-0.256-0.771-0.504-1.102 c0.268-0.984,0.536-1.969,0.804-2.953C883.047,2611.973,882.806,2612.497,883.091,2612.781z"/>
      <path style="fill:#7B6B68;" d="M860.027,2370.1c0.152,0.321,0.303,0.643,0.455,0.964c0.212,0.268-0.117,0.917,0.588,0.836 c-0.172,0.563-0.47,1.036-0.984,1.352C859.147,2372.219,859.588,2371.159,860.027,2370.1z"/>
      <path style="fill:#5D4744;" d="M849.65,2326.875c0.177-0.152,0.354-0.305,0.53-0.457c0.91,0.33,1.87,0.586,2.356,1.558 l0.023-0.061C851.359,2328.215,850.562,2327.383,849.65,2326.875z"/>
      <path style="fill:#624E4B;" d="M912.87,2489.497c-0.039-0.245-0.078-0.49-0.117-0.735c0.083-1.013,0.952-1.501,1.477-2.219 c0.419-0.148,0.591-0.037,0.436,0.417C914.081,2487.815,913.865,2488.932,912.87,2489.497z"/>
      <path style="fill:#7B6967;" d="M774.886,2389.013c0.139-0.016,0.278-0.021,0.418-0.014c-0.041,1.08-0.281,2.102-0.88,3.019 C773.472,2390.845,774.445,2389.97,774.886,2389.013z"/>
      <path style="fill:#402723;" d="M845.955,2324.575c-0.179,0.134-0.358,0.267-0.537,0.4c-0.911-0.338-1.821-0.676-2.732-1.013 c-0.08-0.442,0.01-0.698,0.529-0.485C844.129,2323.843,845.042,2324.209,845.955,2324.575z"/>
      <path style="fill:#5E4A46;" d="M746.67,2591.526c-0.388,1.1-0.487,2.391-1.875,2.826 C745.051,2593.164,745.445,2592.069,746.67,2591.526z"/>
      <path style="fill:#634E4B;" d="M814.526,2315.93c-0.336,0.155-0.673,0.31-1.009,0.465c-0.488,0-0.976,0-1.464,0 c-0.438-0.391-1.159,0.098-1.531-0.495C811.859,2315.539,813.194,2315.468,814.526,2315.93z"/>
      <path style="fill:#7A6966;" d="M866.627,2339.994c-0.119,1.045-0.269,2.081-0.764,3.031c-0.341-0.073-0.371-0.401-0.519-0.633 c0.219-0.983,0.242-2.021,0.819-2.903C866.446,2339.54,866.476,2339.823,866.627,2339.994z"/>
      <path style="fill:#553F3C;" d="M932.48,2370.193c-0.124,0.307-0.248,0.614-0.372,0.92c-0.178,0.155-0.349,0.156-0.514-0.02 c-0.003-0.739-0.006-1.478-0.009-2.217c-0.074-0.573-0.631-1.289,0.45-1.519C932.183,2368.303,932.331,2369.248,932.48,2370.193z"/>
      <path style="fill:#4B3430;" d="M861.537,2363.583c-0.189-0.011-0.378-0.023-0.568-0.034c0.418-0.881-0.166-1.973,0.587-2.783 c0.158,0.178,0.315,0.357,0.473,0.535C861.935,2362.076,862.076,2362.903,861.537,2363.583z"/>
      <path style="fill:#65514E;" d="M857.683,2396.54c-0.538-0.399-0.376-1.025-0.504-1.558c0.052-1.043,0.104-2.087,0.156-3.13 c0.506,0.411,0.372,1.017,0.47,1.552C857.764,2394.449,857.723,2395.495,857.683,2396.54z"/>
      <path style="fill:#7F6F6C;" d="M928.338,2351.455c-0.569-0.956-0.998-1.933-0.47-3.057 C928.387,2349.361,928.971,2350.315,928.338,2351.455z"/>
      <path style="fill:#675350;" d="M774.399,2392.366c-0.262,0.985-0.307,2.038-0.917,2.912 C772.979,2394.052,772.966,2392.981,774.399,2392.366z"/>
      <path style="fill:#4B332F;" d="M810.521,2315.899c0.498,0.202,1.13-0.01,1.531,0.495c-1.227,0.172-2.455,0.343-3.682,0.515 C808.698,2315.743,809.687,2315.985,810.521,2315.899z"/>
      <path style="fill:#958785;" d="M927.801,2347.408c-1.573-0.336-0.766-1.845-1.319-2.683c0.165-0.256,0.342-0.265,0.531-0.025 C927.613,2345.504,927.579,2346.493,927.801,2347.408z"/>
      <path style="fill:#523C38;" d="M856.794,2375.352c0.719,0.539,0.346,1.373,0.555,2.05c-0.05,0.57-0.1,1.139-0.15,1.709 c-0.506-0.394-0.379-0.978-0.45-1.503c-0.126-0.754-0.252-1.509-0.378-2.263C856.513,2375.345,856.653,2375.348,856.794,2375.352z "/>
      <path style="fill:#74625F;" d="M875.165,2326.894c-0.973,0.394-1.893,1.189-3.023,0.4c0.918-0.604,1.955-0.801,3.024-0.884 c0.152,0.108,0.202,0.216,0.151,0.323C875.267,2326.841,875.216,2326.894,875.165,2326.894z"/>
      <path style="fill:#66524F;" d="M887.339,2580.51c0.126,0.711-0.176,1.513,0.448,2.119c0.079,0.865,0.033,1.712-0.328,2.519 c-0.625-0.562-0.03-1.415-0.479-2.02C886.934,2582.234,886.903,2581.34,887.339,2580.51z"/>
      <path style="fill:#66524F;" d="M857.192,2431.567c0.157-0.676-0.147-1.462,0.483-2.024c0.034,1.004,0.067,2.009,0.101,3.013 c0.01,0.603,0.738,1.402-0.457,1.675C857.276,2433.343,857.234,2432.455,857.192,2431.567z"/>
      <path style="fill:#402723;" d="M764.652,2580.777c0.114,0.143,0.229,0.285,0.343,0.427c-0.011,1.005,0.14,2.032-0.405,2.963 c-0.286-0.08-0.309-0.349-0.404-0.566C764.341,2582.66,764.496,2581.718,764.652,2580.777z"/>
      <path style="fill:#4B3330;" d="M769.227,2414.029c-0.169,1.075-0.338,2.151-0.507,3.226c-0.439,0.072-0.698-0.022-0.499-0.54 C768.529,2415.809,767.798,2414.514,769.227,2414.029z"/>
      <path style="fill:#786764;" d="M773.491,2395.573c-0.136,1.048-0.315,2.084-0.833,3.026c-0.337-0.061-0.363-0.373-0.489-0.605 C772.594,2397.179,771.973,2395.791,773.491,2395.573z"/>
      <path style="fill:#6A5653;" d="M857.319,2434.231c0.545-0.451,0.398-1.091,0.458-1.675c0.488,0.827,0.41,1.737,0.383,2.638 c-0.42,0.437,0.069,1.167-0.502,1.555C857.287,2435.945,857.264,2435.094,857.319,2434.231z"/>
      <path style="fill:#9E9290;" d="M881.742,2617.036c-0.658-1.471-2.378-0.461-3.264-1.399c1.041-0.343,2.228,0.177,3.204-0.546 C882.135,2615.725,882.053,2616.377,881.742,2617.036z"/>
      <path style="fill:#7B6A67;" d="M868.463,2332.915c-0.226,0.833-0.176,1.752-0.771,2.47c-0.316-0.02-0.358-0.284-0.447-0.506 c0.157-1.018,0.266-2.048,0.786-2.97C868.451,2332.126,868.226,2332.62,868.463,2332.915z"/>
      <path style="fill:#685552;" d="M776.411,2537.447c-0.225-0.024-0.451-0.047-0.676-0.071c0.128-1.017,0.403-1.98,1.018-2.82 c0.387,0.206,0.159,0.674,0.401,0.942C776.981,2536.177,776.924,2536.899,776.411,2537.447z"/>
      <path style="fill:#938583;" d="M926.012,2341.085c-1.154-1.049-1.206-2.504-1.43-3.895c0.14-0.226,0.279-0.215,0.418,0.001 C925.353,2338.485,926.016,2339.698,926.012,2341.085z"/>
      <path style="fill:#756461;" d="M759.851,2561.19c-0.309,0.95,0.135,2.315-1.42,2.575 C758.567,2562.72,758.555,2561.594,759.851,2561.19z"/>
      <path style="fill:#4F3834;" d="M766.477,2538.376c0.151,0.336,0.303,0.672,0.454,1.009c-0.193,0.752-0.387,1.504-0.58,2.257 c-0.148-0.335-0.296-0.671-0.445-1.006C766.097,2539.883,766.287,2539.129,766.477,2538.376z"/>
      <path style="fill:#4E3733;" d="M875.165,2326.894c0.001-0.161,0.001-0.322,0.002-0.484c0.938-0.148,1.875-0.297,2.813-0.445 c0.16,0.092,0.214,0.185,0.162,0.279c-0.052,0.095-0.104,0.142-0.158,0.142C877.109,2326.919,876.119,2326.808,875.165,2326.894z"/>
      <path style="fill:#72605D;" d="M760.787,2558.354c0.034,1.079-0.249,2.052-0.96,2.883 C759.103,2559.928,759.7,2559.06,760.787,2558.354z"/>
      <path style="fill:#472F2C;" d="M867.245,2334.88c0.149,0.169,0.298,0.337,0.447,0.506c-0.044,0.804-0.198,1.577-0.635,2.271 c-0.089,0-0.178,0-0.266,0C866.728,2336.696,866.464,2335.702,867.245,2334.88z"/>
      <path style="fill:#55403C;" d="M854.624,2625.606c-0.201-0.024-0.401-0.047-0.602-0.071c0.368-1.123,0.843-2.116,2.306-1.918 C855.76,2624.279,855.192,2624.942,854.624,2625.606z"/>
      <path style="fill:#66524F;" d="M897.794,2594.887c0.656-0.599,0.34-1.413,0.468-2.129c0.442,0.828,0.396,1.726,0.371,2.621 c-0.469,0.597,0.14,1.456-0.49,2.013C897.772,2596.594,897.758,2595.744,897.794,2594.887z"/>
      <path style="fill:#402723;" d="M772.934,2548.23c-0.157-0.183-0.315-0.367-0.472-0.55c0.2-0.902,0.4-1.804,0.601-2.707 c0.176,0.203,0.352,0.405,0.528,0.608C773.799,2546.57,772.967,2547.301,772.934,2548.23z"/>
      <path style="fill:#766462;" d="M784.301,2364.055c-0.219,0.839-0.386,1.701-1.048,2.342l-0.176,0.152l-0.179-0.148 C783.051,2365.43,782.889,2364.271,784.301,2364.055z"/>
      <path style="fill:#6B5855;" d="M865.345,2342.392c0.173,0.211,0.346,0.422,0.519,0.633c-0.274,0.756,0.34,1.952-1.061,2.152 C864.983,2344.249,865.164,2343.321,865.345,2342.392z"/>
      <path style="fill:#4B3430;" d="M863.922,2348.989c0.148,0.172,0.297,0.344,0.445,0.515c-0.028,0.645,0,1.304-0.479,1.831 c-0.199,0.164-0.388,0.144-0.567-0.033C863.598,2350.551,863.19,2349.622,863.922,2348.989z"/>
      <path style="fill:#705E5B;" d="M758.439,2564.955c-0.112,0.95-0.234,1.896-0.972,2.613c-0.142,0.174-0.288,0.168-0.437,0.009 C757.121,2566.5,757.258,2565.446,758.439,2564.955z"/>
      <path style="fill:#705E5B;" d="M757.029,2567.577c0.146-0.003,0.292-0.006,0.437-0.009c-0.252,0.889,0.079,2.129-1.377,2.293 C756.226,2569.027,756.348,2568.187,757.029,2567.577z"/>
      <path style="fill:#74625F;" d="M756.088,2571.087c-0.16,0.947-0.325,1.891-1.047,2.612c-0.171,0.141-0.331,0.123-0.481-0.034 C754.755,2572.619,754.87,2571.525,756.088,2571.087z"/>
      <path style="fill:#6F5C59;" d="M902.721,2326.419c0.685-0.164,1.48,0.166,2.061-0.463c0.706-0.073,1.404-0.094,2.032,0.326 c-0.503,0.164-1.128-0.062-1.513,0.477C904.415,2326.847,903.545,2326.81,902.721,2326.419z"/>
      <path style="fill:#422A26;" d="M765.949,2576.08c-0.908-0.982,0.104-1.893,0.103-2.842c0.342-0.042,0.591-0.007,0.356,0.43 C766.392,2574.498,766.566,2575.364,765.949,2576.08z"/>
      <path style="fill:#634F4C;" d="M886.978,2583.129c0.631,0.561,0.317,1.347,0.479,2.02c-0.047,0.731-0.095,1.462-0.142,2.192 c-1.111-0.302-0.461-1.068-0.438-1.668C886.911,2584.825,886.945,2583.977,886.978,2583.129z"/>
      <path style="fill:#4B3430;" d="M852.559,2327.915c0,0-0.022,0.062-0.023,0.062c1.099-0.145,1.687,0.78,2.515,1.204 C853.888,2329.415,853.133,2328.844,852.559,2327.915z"/>
      <path style="fill:#402723;" d="M909.43,2496.414c-0.152-0.189-0.304-0.378-0.457-0.567c0.083-0.708,0.4-1.303,0.875-1.822 c0.223-0.18,0.429-0.162,0.617,0.055C910.436,2494.998,909.874,2495.679,909.43,2496.414z"/>
      <path style="fill:#766462;" d="M787.259,2357.099c-0.147,0.916-0.569,1.712-1.068,2.476c-0.821-1.093,0.131-1.807,0.563-2.632 C786.983,2356.8,787.148,2356.862,787.259,2357.099z"/>
      <path style="fill:#402723;" d="M910.466,2494.079c-0.206-0.018-0.411-0.036-0.617-0.055c0.386-0.761,0.772-1.523,1.158-2.284 c0.139,0.168,0.278,0.337,0.417,0.505C911.287,2492.953,911.081,2493.623,910.466,2494.079z"/>
      <path style="fill:#766461;" d="M779.152,2377.619c-0.32,0.88-0.64,1.76-0.96,2.64 C777.579,2379.039,777.676,2378.078,779.152,2377.619z"/>
      <path style="fill:#452D29;" d="M884.093,2605.703c0.884,0.816-0.002,1.585-0.064,2.375c-0.417,0.141-0.615-0.076-0.718-0.444 C883.571,2606.991,883.832,2606.347,884.093,2605.703z"/>
      <path style="fill:#48312D;" d="M883.311,2607.635c0.239,0.148,0.479,0.296,0.718,0.444c-0.155,0.781-0.31,1.563-0.465,2.345 c-0.433,0.069-0.691-0.015-0.463-0.528C883.171,2609.142,883.241,2608.388,883.311,2607.635z"/>
      <path style="fill:#452D29;" d="M769.302,2410.696c0.136-0.005,0.272-0.009,0.409-0.011c0.1,0.969-0.059,1.893-0.485,2.77 C768.273,2412.508,769.336,2411.617,769.302,2410.696z"/>
      <path style="fill:#5E4946;" d="M853.03,2626.934c0.438,0.266,0.447,0.689,0.414,1.128c-0.271,0.609-0.543,1.218-0.814,1.827 c-0.16-0.349-0.32-0.698-0.479-1.046C852.232,2628.11,852.525,2627.473,853.03,2626.934z"/>
      <path style="fill:#48302D;" d="M863.321,2351.302c0.189,0.011,0.378,0.022,0.567,0.033c0.031,0.844,0.035,1.683-0.474,2.421 c-0.125-0.176-0.25-0.353-0.375-0.529C863.317,2352.613,862.634,2351.857,863.321,2351.302z"/>
      <path style="fill:#402723;" d="M801.253,2328.712c-0.29,0.705-0.509,1.466-1.354,1.738c0.305-0.729,0.609-1.458,0.914-2.186 C801.24,2328.138,801.448,2328.227,801.253,2328.712z"/>
      <path style="fill:#7C6C69;" d="M790.776,2348.946c-0.187,0.784,0.154,1.931-1.276,1.863c0.253-0.657,0.203-1.489,1.039-1.812 C790.618,2348.98,790.697,2348.963,790.776,2348.946z"/>
      <path style="fill:#422A26;" d="M822.466,2317.786c0.336-0.151,0.672-0.302,1.009-0.453c0.614,0.11,1.32-0.082,1.778,0.542 c-0.101,0.19-0.253,0.318-0.458,0.385C824.018,2318.102,823.242,2317.944,822.466,2317.786z"/>
      <path style="fill:#4B3430;" d="M813.462,2477.654c-0.011-1.011,0.509-1.476,1.498-1.458 C814.852,2477.085,814.529,2477.753,813.462,2477.654z"/>
      <path style="fill:#402723;" d="M824.794,2318.26c0.153-0.128,0.305-0.256,0.458-0.385c0.758-0.045,1.486,0.05,2.144,0.468 C826.504,2319.123,825.656,2318.487,824.794,2318.26z"/>
      <path style="fill:#CEC8C7;" d="M919.461,2479.979c-0.059-0.935,0.423-1.381,1.314-1.458 C921.137,2479.729,920.197,2479.762,919.461,2479.979z"/>
      <path style="fill:#584340;" d="M808.753,2481.487c0.259-1.331,1.407-1.682,2.412-2.191 C810.867,2480.584,809.872,2481.103,808.753,2481.487z"/>
      <path style="fill:#7D6C69;" d="M861.549,2620.363c-0.53,0.49-1.17,0.749-1.867,0.889c-0.018-0.916,0.522-1.289,1.346-1.386 C861.312,2619.917,861.487,2620.081,861.549,2620.363z"/>
      <path style="fill:#73615E;" d="M871.819,2616.968c-0.942-0.143-1.853,1.081-2.816,0.066c0.719-0.385,1.485-0.566,2.301-0.541 C871.802,2616.297,871.904,2616.53,871.819,2616.968z"/>
      <path style="fill:#66524F;" d="M883.102,2609.896c0.154,0.176,0.308,0.352,0.463,0.528c-0.158,0.786-0.315,1.571-0.473,2.357 c-0.156-0.342-0.313-0.684-0.47-1.026C882.654,2611.102,882.653,2610.441,883.102,2609.896z"/>
      <path style="fill:#65524F;" d="M843.215,2323.477c-0.176,0.162-0.352,0.323-0.529,0.485c-0.783-0.048-1.462-0.375-2.11-0.786 c0.073-0.371,0.414-0.406,0.676-0.541C841.938,2322.843,842.682,2322.915,843.215,2323.477z"/>
      <path style="fill:#513A37;" d="M929.196,2355.585c0.165-0.003,0.329-0.005,0.494-0.008c0.144,0.94,0.288,1.881,0.432,2.821 c0,0-0.15,0.005-0.15,0.005l-0.15-0.007C929.309,2357.526,929.23,2356.56,929.196,2355.585z"/>
      <path style="fill:#66524F;" d="M899.104,2599.617c-0.552,0.436-0.39,1.078-0.474,1.65c-0.405-0.665-0.417-1.398-0.364-2.142 c0.422-0.461-0.102-1.233,0.534-1.623C899.131,2598.174,899.16,2598.89,899.104,2599.617z"/>
      <path style="fill:#634E4B;" d="M898.799,2597.502c-0.154,0.549,0.013,1.203-0.534,1.623c-0.041-0.577-0.081-1.155-0.122-1.732 c0.169-0.67-0.159-1.46,0.49-2.013C898.688,2596.087,898.744,2596.795,898.799,2597.502z"/>
      <path style="fill:#958785;" d="M925,2337.19l-0.209-0.001l-0.209,0c-0.463-0.819-0.838-1.655-0.538-2.629 C924.648,2335.333,924.787,2336.275,925,2337.19z"/>
      <path style="fill:#746360;" d="M785.751,2360.593c-0.153,0.822-0.43,1.589-0.974,2.24 C784.202,2361.694,784.482,2360.928,785.751,2360.593z"/>
      <path style="fill:#705E5B;" d="M720.739,2595.884c-0.803,0.46-1.56,1.191-2.566,0.425 C718.952,2595.7,719.766,2595.312,720.739,2595.884z"/>
      <path style="fill:#776663;" d="M737.236,2595.368c-0.783-0.154-1.566-0.308-2.349-0.462c-0.149-0.085-0.203-0.177-0.161-0.274 c0.043-0.1,0.088-0.15,0.135-0.15C735.753,2594.508,736.828,2594.042,737.236,2595.368z"/>
      <path style="fill:#7C6C69;" d="M790.776,2348.946c-0.079,0.015-0.158,0.032-0.237,0.051c0.137-0.818-0.073-1.874,1.274-1.861 C791.467,2347.74,791.666,2348.656,790.776,2348.946z"/>
      <path style="fill:#402723;" d="M777.154,2535.498c-0.134-0.314-0.268-0.628-0.401-0.942c0.198-0.607,0.395-1.214,0.593-1.821 c0.123,0.305,0.247,0.61,0.37,0.915C777.529,2534.266,777.341,2534.882,777.154,2535.498z"/>
      <path style="fill:#5F4A47;" d="M858.611,2365.909c-0.161-0.35-0.322-0.699-0.483-1.049c0.053-0.897,0.105-1.794,0.158-2.691 c0.164,0.007,0.329,0.014,0.494,0.021C858.724,2363.43,858.668,2364.669,858.611,2365.909z"/>
      <path style="fill:#66524F;" d="M886.877,2585.673c0.055,0.58-0.084,1.211,0.438,1.668c0.059,0.728,0.036,1.443-0.34,2.101 c-0.086-0.553,0.061-1.176-0.469-1.599C886.458,2587.09,886.465,2586.347,886.877,2585.673z"/>
      <path style="fill:#776663;" d="M782.898,2366.401c0.118-0.003,0.237-0.004,0.355-0.004c-0.081,0.698-0.164,1.395-0.698,1.929 c-0.207,0.248-0.397,0.236-0.57-0.037C782.143,2367.588,782.22,2366.849,782.898,2366.401z"/>
      <path style="fill:#705D5A;" d="M859.232,2342.409c0.1-0.002,0.2-0.002,0.3,0c0.007,1.229,0.014,2.459,0.021,3.689 c-0.14-0.306-0.281-0.612-0.421-0.919C859.165,2344.256,859.198,2343.332,859.232,2342.409z"/>
      <path style="fill:#5A4441;" d="M751.38,2582.184c-0.081,0.803-0.49,1.455-0.962,2.077c-0.77-1.016,0.219-1.687,0.488-2.499 C751.126,2581.833,751.281,2581.978,751.38,2582.184z"/>
      <path style="fill:#7A6966;" d="M798.321,2334.317c-0.284,0.613-0.326,1.446-1.298,1.435c0.055-0.751,0.122-1.496,0.901-1.903 C798.133,2333.94,798.266,2334.096,798.321,2334.317z"/>
      <path style="fill:#6B5855;" d="M781.094,2372.079c-0.121,0.866-0.3,1.708-0.962,2.353c-0.176,0.215-0.342,0.219-0.498-0.023 c0.311-0.785,0.622-1.571,0.933-2.356C780.75,2371.903,780.926,2371.912,781.094,2372.079z"/>
      <path style="fill:#5A4441;" d="M751.38,2582.184c-0.158-0.141-0.315-0.281-0.473-0.422c0.123-0.858,0.5-1.497,1.429-1.659 C752.156,2580.86,751.927,2581.595,751.38,2582.184z"/>
      <path style="fill:#695653;" d="M753.58,2577.418c-0.314,0.734-0.242,1.722-1.293,1.971c-0.035-0.944,0.281-1.757,0.915-2.451 C753.406,2577.036,753.528,2577.199,753.58,2577.418z"/>
      <path style="fill:#766562;" d="M860.107,2373.209c-0.061,0.912,0.198,1.874-0.421,2.699c-0.437-0.196-0.198-0.703-0.452-0.983 C859.1,2374.136,859.171,2373.452,860.107,2373.209z"/>
      <path style="fill:#422A26;" d="M766.408,2573.668c-0.119-0.143-0.237-0.287-0.356-0.43c0.16-0.784,0.321-1.569,0.481-2.354 c0.343-0.032,0.603,0.001,0.351,0.443C766.835,2572.129,767.082,2572.992,766.408,2573.668z"/>
      <path style="fill:#422A26;" d="M766.885,2571.327c-0.117-0.148-0.234-0.295-0.351-0.443c0.15-0.776,0.301-1.551,0.451-2.327 c0.862,0.005,0.585,0.502,0.411,0.954C767.326,2570.145,767.469,2570.838,766.885,2571.327z"/>
      <path style="fill:#6A5653;" d="M767.396,2569.511c-0.137-0.318-0.274-0.636-0.411-0.954c0.137-0.642,0.273-1.283,0.41-1.925 c0.159,0.184,0.318,0.368,0.477,0.552C767.862,2567.99,767.962,2568.819,767.396,2569.511z"/>
      <path style="fill:#4B3430;" d="M798.321,2334.317c-0.132-0.156-0.265-0.312-0.397-0.468c-0.084-1.006,0.761-1.251,1.377-1.684 C798.975,2332.883,798.648,2333.6,798.321,2334.317z"/>
      <path style="fill:#66524F;" d="M857.658,2436.75c0.115-0.535-0.041-1.158,0.502-1.555c0.03,0.69,0.06,1.381,0.089,2.071 c0.019,0.6,0.662,1.362-0.435,1.67C857.762,2438.208,857.71,2437.479,857.658,2436.75z"/>
      <path style="fill:#402723;" d="M770.719,2553.462c0.17,0.19,0.34,0.381,0.51,0.571c-0.173,0.591,0.065,1.335-0.644,1.726 c0,0-0.121-0.054-0.121-0.054s-0.096,0.091-0.096,0.091C769.924,2554.933,770.634,2554.245,770.719,2553.462z"/>
      <path style="fill:#402723;" d="M761.722,2555.815c-0.021,0.637,0.028,1.324-0.919,1.312c0.238-0.582-0.427-1.371,0.413-1.815 C761.662,2555.2,761.895,2555.303,761.722,2555.815z"/>
      <path style="fill:#402723;" d="M761.722,2555.815c-0.169-0.168-0.337-0.336-0.506-0.504c0.273-0.433-0.298-1.146,0.471-1.413 c0.446-0.111,0.68-0.009,0.506,0.504C762.211,2554.931,762.167,2555.44,761.722,2555.815z"/>
      <path style="fill:#6A5653;" d="M857.813,2438.937c0.516-0.46,0.376-1.091,0.436-1.67c0.437,0.677,0.45,1.424,0.361,2.188 c-0.288,0.286-0.022,0.839-0.496,1.036C857.745,2440.024,857.739,2439.488,857.813,2438.937z"/>
      <path style="fill:#7D6C69;" d="M801.253,2328.712c-0.147-0.149-0.294-0.299-0.44-0.448c0.31-0.602,0.454-1.366,1.358-1.384 C802.076,2327.597,801.856,2328.251,801.253,2328.712z"/>
      <path style="fill:#402723;" d="M762.192,2554.402c-0.169-0.168-0.337-0.336-0.506-0.504c0.273-0.433-0.298-1.146,0.471-1.414 c0.446-0.111,0.68-0.009,0.506,0.504C762.682,2553.518,762.638,2554.027,762.192,2554.402z"/>
      <path style="fill:#402723;" d="M762.663,2552.988c-0.169-0.168-0.337-0.336-0.506-0.504c0.265-0.436-0.285-1.138,0.461-1.417 c0.451-0.114,0.683-0.007,0.515,0.508C763.152,2552.104,763.109,2552.613,762.663,2552.988z"/>
      <path style="fill:#402723;" d="M763.134,2551.575c-0.172-0.169-0.344-0.339-0.515-0.508c0.167-0.467,0.335-0.933,0.502-1.4 c0.172,0.178,0.344,0.356,0.516,0.535C763.594,2550.705,763.58,2551.219,763.134,2551.575z"/>
      <path style="fill:#857573;" d="M864.378,2618.437c0.117,1.142-0.915,0.986-1.502,1.332c-0.193-0.122-0.468-0.144-0.523-0.433 C862.937,2618.832,863.622,2618.553,864.378,2618.437z"/>
      <path style="fill:#6F5C59;" d="M754.56,2573.665c0.16,0.011,0.321,0.023,0.481,0.034c-0.092,0.724-0.211,1.438-0.794,1.964 c-0.215-0.097-0.344-0.261-0.387-0.493C754.04,2574.643,754.034,2574.03,754.56,2573.665z"/>
      <path style="fill:#402723;" d="M753.86,2575.169c0.129,0.165,0.258,0.329,0.387,0.493c-0.222,0.585-0.445,1.171-0.667,1.756 c-0.126-0.16-0.253-0.32-0.379-0.479C753.255,2576.287,753.368,2575.657,753.86,2575.169z"/>
      <path style="fill:#4E3733;" d="M866.79,2337.657c0.089-0.007,0.178-0.007,0.266,0c-0.143,0.779-0.287,1.559-0.43,2.338 c-0.154-0.168-0.309-0.336-0.463-0.505C866.053,2338.769,866.477,2338.232,866.79,2337.657z"/>
      <path style="fill:#49312D;" d="M914.193,2327.36c-0.176,0.156-0.351,0.313-0.527,0.469c-0.597-0.011-1.194-0.023-1.791-0.034 c-0.004-0.321-0.009-0.643-0.013-0.964C912.639,2327.007,913.416,2327.184,914.193,2327.36z"/>
      <path style="fill:#634F4C;" d="M868.463,2332.915c-0.144-0.335-0.288-0.67-0.432-1.006c0.11-0.62-0.12-1.496,1.011-1.35 C868.849,2331.345,868.656,2332.13,868.463,2332.915z"/>
      <path style="fill:#614D4A;" d="M841.252,2322.635c-0.225,0.18-0.45,0.36-0.676,0.541c-0.565-0.183-1.482,0.03-1.219-1.085 C840.083,2321.945,840.641,2322.384,841.252,2322.635z"/>
      <path style="fill:#5F4B47;" d="M932.034,2367.358c-0.519,0.396-0.335,1.002-0.45,1.519c-0.316-0.64-0.472-1.309-0.357-2.026 c0.148-0.331,0.297-0.663,0.445-0.994C932.005,2366.305,932.066,2366.82,932.034,2367.358z"/>
      <path style="fill:#877775;" d="M788.071,2354.994c0.31,0.034,0.619,0.069,0.929,0.103c0.122,0.785-0.291,1.157-1,1.302 c-0.325-0.188-0.72-0.343-0.4-0.839C787.757,2355.372,787.914,2355.183,788.071,2354.994z"/>
      <path style="fill:#65514E;" d="M763.049,2602.948c0.175-0.147,0.35-0.295,0.525-0.442c0.707,0.256,1.415,0.512,2.123,0.768 c-0.225,0.176-0.451,0.351-0.676,0.527C764.363,2603.517,763.706,2603.232,763.049,2602.948z"/>
      <path style="fill:#6A5653;" d="M715.533,2597.741c-0.233,0.979-0.851,1.453-1.857,1.416 C713.913,2598.184,714.614,2597.818,715.533,2597.741z"/>
      <path style="fill:#624D4A;" d="M772.144,2400.534c-0.047,0.654,0.037,1.346-0.547,1.84c-0.856-0.87,0.056-1.67,0.1-2.505 C772.212,2399.844,772.303,2400.105,772.144,2400.534z"/>
      <path style="fill:#4F3834;" d="M783.555,2627.495c-0.232-0.034-0.465-0.068-0.697-0.102c0.503-0.618,1.006-1.237,1.51-1.855 c0.387-0.09,0.619-0.036,0.399,0.434C784.57,2626.645,784.108,2627.107,783.555,2627.495z"/>
      <path style="fill:#A69B99;" d="M740.012,2595.368c-0.86,0.784-1.446,0.499-1.855-0.477 C738.835,2594.819,739.52,2594.716,740.012,2595.368z"/>
      <path style="fill:#6C5855;" d="M781.094,2372.079c-0.176-0.009-0.352-0.017-0.527-0.026c0.25-0.649,0.5-1.297,0.75-1.946 c0.225-0.234,0.424-0.214,0.598,0.06C781.641,2370.805,781.368,2371.442,781.094,2372.079z"/>
      <path style="fill:#412925;" d="M725.471,2594.905c0.016-0.129,0.018-0.259,0.007-0.388c0.938-0.035,1.875-0.07,2.813-0.105 c-0.035,0.132-0.042,0.266-0.023,0.401C727.335,2594.844,726.403,2594.874,725.471,2594.905z"/>
      <path style="fill:#928482;" d="M742.884,2596.31c-0.911,0.055-1.778,0.001-2.296-0.923 C741.469,2595.406,742.308,2595.53,742.884,2596.31z"/>
      <path style="fill:#7B6A67;" d="M923.113,2331.984c-0.54-0.626-1.08-1.251-1.62-1.877 C922.905,2329.979,923.151,2330.859,923.113,2331.984z"/>
      <path style="fill:#7C6B68;" d="M804.577,2322.961c-0.344,0.615-0.38,1.532-1.425,1.464 C803.366,2323.682,803.414,2322.778,804.577,2322.961z"/>
      <path style="fill:#412925;" d="M763.208,2590.208c0.138,0.325,0.277,0.65,0.415,0.974c-0.04,0.599-0.08,1.197-0.12,1.796 c-0.154-0.343-0.308-0.685-0.462-1.027C763.097,2591.37,763.152,2590.789,763.208,2590.208z"/>
      <path style="fill:#5F4B47;" d="M784.767,2625.972c-0.133-0.145-0.266-0.289-0.399-0.434c0.123-0.588,0.38-1.101,0.841-1.499 c0.143,0.172,0.287,0.343,0.43,0.515C785.547,2625.149,785.297,2625.647,784.767,2625.972z"/>
      <path style="fill:#64504D;" d="M772.144,2400.534c-0.149-0.221-0.298-0.443-0.447-0.665c0.157-0.625,0.315-1.25,0.472-1.875 c0.163,0.202,0.326,0.404,0.489,0.605C772.578,2399.269,772.6,2399.965,772.144,2400.534z"/>
      <path style="fill:#412925;" d="M859.062,2358.365l-0.182-0.008l-0.181,0.023c0.016-0.932,0.032-1.863,0.048-2.795 c0.089,0.012,0.178,0.025,0.267,0.037l0.156-0.066C859.135,2356.494,859.099,2357.429,859.062,2358.365z"/>
      <path style="fill:#64504D;" d="M712.715,2600.396c0.009,0.23,0.019,0.459,0.028,0.689c-0.474,0.355-0.948,0.71-1.422,1.066 C711.293,2601.174,711.503,2600.386,712.715,2600.396z"/>
      <path style="fill:#422925;" d="M859.233,2374.925c0.151,0.328,0.302,0.656,0.452,0.983c-0.058,0.59-0.116,1.18-0.174,1.771 c-0.131-0.323-0.262-0.646-0.394-0.969C859.156,2376.115,859.195,2375.52,859.233,2374.925z"/>
      <path style="fill:#695653;" d="M781.915,2370.167c-0.199-0.02-0.399-0.04-0.598-0.06c0.223-0.606,0.446-1.213,0.67-1.819 c0.19,0.012,0.38,0.025,0.57,0.037C782.342,2368.94,782.129,2369.553,781.915,2370.167z"/>
      <path style="fill:#6E5B59;" d="M764.154,2587.529c-0.162-0.362-0.323-0.723-0.485-1.085c-0.054-0.543-0.007-1.062,0.346-1.512 c0.409,0.208,0.182,0.707,0.449,0.98C764.55,2586.488,764.515,2587.04,764.154,2587.529z"/>
      <path style="fill:#402723;" d="M837.505,2322.061c0.011-0.2,0.021-0.4,0.032-0.6c0.654,0.143,1.381,0.079,1.878,0.666 C838.758,2322.7,838.131,2322.417,837.505,2322.061z"/>
      <path style="fill:#8B7C7A;" d="M858.677,2332.564c-0.624-0.387-1.211-0.807-1.434-1.562 C858.138,2331.138,858.948,2331.354,858.677,2332.564z"/>
      <path style="fill:#6A5754;" d="M862.353,2619.336c0.174,0.144,0.349,0.289,0.523,0.433c-0.442,0.198-0.884,0.396-1.326,0.594 c-0.174-0.166-0.347-0.332-0.521-0.497C861.354,2619.398,861.903,2619.492,862.353,2619.336z"/>
      <path style="fill:#6B5855;" d="M779.634,2374.409c0.166,0.008,0.332,0.015,0.498,0.023c-0.017,0.807-0.041,1.609-1.015,1.905 C778.959,2375.605,779.361,2375.025,779.634,2374.409z"/>
      <path style="fill:#402723;" d="M900.164,2612.804c0.142-0.18,0.283-0.36,0.425-0.541c0.872,0.663,0.446,1.578,0.465,2.407 l-0.025,0.016c-0.148,0.214-0.282,0.206-0.402-0.025C900.473,2614.042,900.318,2613.423,900.164,2612.804z"/>
      <path style="fill:#432A26;" d="M858.113,2440.49c0.166-0.345,0.331-0.69,0.496-1.036c0.045,0.584,0.091,1.169,0.136,1.754 c-0.161,0.339-0.323,0.678-0.484,1.017C858.213,2441.647,858.163,2441.068,858.113,2440.49z"/>
      <path style="fill:#8C7D7B;" d="M927.013,2344.699c-0.177,0.008-0.354,0.017-0.531,0.025c0.163-0.648-0.924-1.279-0.025-1.937 C926.981,2343.326,927.025,2344.005,927.013,2344.699z"/>
      <path style="fill:#918381;" d="M875.765,2616.097c-0.692,0.505-1.383,0.88-2.069-0.01 C874.387,2615.983,875.08,2615.28,875.765,2616.097z"/>
      <path style="fill:#756360;" d="M905.379,2616.503c-0.817,0.021-1.634,0.043-2.451,0.064c-0.132,0-0.264-0.01-0.395-0.029 C903.473,2615.746,904.427,2616.234,905.379,2616.503z"/>
      <path style="fill:#978A88;" d="M871.819,2616.968c-0.172-0.158-0.343-0.316-0.515-0.475c0.56-0.292,1.131-0.813,1.636,0.077 C872.629,2616.881,872.261,2617.029,871.819,2616.968z"/>
      <path style="fill:#695653;" d="M881.742,2617.036c-0.02-0.648-0.04-1.297-0.06-1.945c0.014-0.139,0.06-0.266,0.136-0.383 c0.168,0.367,0.336,0.735,0.504,1.102C882.186,2616.245,882.334,2616.816,881.742,2617.036z"/>
      <path style="fill:#695652;" d="M914.666,2486.959c-0.145-0.139-0.291-0.278-0.436-0.417c0.198-0.729,0.602-1.212,1.422-1.206 C915.565,2486.025,915.214,2486.553,914.666,2486.959z"/>
      <path style="fill:#796865;" d="M768.221,2416.715c0.166,0.18,0.333,0.36,0.499,0.54c0.079,0.614,0.054,1.206-0.372,1.71 c-0.016-0.445-0.046-0.885-0.436-1.192C767.856,2417.373,767.892,2417.001,768.221,2416.715z"/>
      <path style="fill:#402723;" d="M787.6,2355.561c0.133,0.28,0.266,0.559,0.4,0.839c-0.247,0.233-0.494,0.467-0.74,0.7 c-0.168-0.052-0.337-0.104-0.505-0.157C786.957,2356.434,786.969,2355.807,787.6,2355.561z"/>
      <path style="fill:#442C28;" d="M767.412,2421.547c0.164,0.176,0.329,0.353,0.493,0.529c-0.056,0.588-0.113,1.177-0.169,1.765 c-0.156-0.181-0.312-0.361-0.468-0.542C767.316,2422.715,767.364,2422.131,767.412,2421.547z"/>
      <path style="fill:#422925;" d="M734.861,2594.481c0.023,0.141,0.032,0.282,0.026,0.425c-0.778-0.031-1.555-0.062-2.333-0.093 c0-0.122-0.005-0.243-0.016-0.364C733.312,2594.459,734.087,2594.47,734.861,2594.481z"/>
      <path style="fill:#402723;" d="M764.464,2585.912c-0.15-0.327-0.299-0.654-0.449-0.98c0.057-0.443,0.114-0.887,0.17-1.33 c0.135,0.188,0.269,0.377,0.404,0.566C764.548,2584.749,764.506,2585.331,764.464,2585.912z"/>
      <path style="fill:#432B27;" d="M877.984,2326.386c0.005-0.14,0.003-0.281-0.005-0.421c0.587-0.061,1.174-0.122,1.762-0.183 c0.186,0.17,0.373,0.34,0.559,0.51C879.528,2326.324,878.756,2326.355,877.984,2326.386z"/>
      <path style="fill:#402723;" d="M820.047,2316.538c-0.335,0.153-0.67,0.306-1.005,0.46c-0.434-0.062-0.868-0.124-1.301-0.186 c0.318-0.121,0.636-0.241,0.954-0.362C819.145,2316.479,819.596,2316.509,820.047,2316.538z"/>
      <path style="fill:#4D3632;" d="M807.835,2351.408c6.115,0.477,12.118,1.539,17.958,3.452c0.428,0.14,0.888,0.184,1.333,0.273 c-0.008,0.919-0.583,0.614-1.072,0.497c-6.021-1.412-12.018-2.951-18.214-3.438c-0.146-0.09-0.232-0.22-0.258-0.39 C807.607,2351.632,807.688,2351.499,807.835,2351.408z"/>
      <path style="fill:#6F5C59;" d="M768.822,2448.729c0.316-2.651-0.342-5.344,0.348-7.979c0.299,0.046,0.326,0.333,0.461,0.524 c-0.004,1.913-0.008,3.825-0.011,5.738c-0.329,0.599,0.034,1.311-0.308,1.908C769.083,2449.025,768.916,2448.97,768.822,2448.729z "/>
      <path style="fill:#503935;" d="M836.743,2358.768c-0.217,0.174-0.433,0.347-0.65,0.521c-2.04-0.783-4.08-1.567-6.12-2.35 c-0.001-0.897,0.528-0.652,1.025-0.476C833.012,2356.985,834.952,2357.692,836.743,2358.768z"/>
      <path style="fill:#4F3834;" d="M807.839,2351.791c0,0.134,0.001,0.267,0.002,0.401c-3.078,0.054-6.157,0.108-9.235,0.162 c-0.461,0.049-1.07,0.433-1.1-0.489c1.408-0.188,2.788-0.633,4.235-0.469C803.75,2351.897,805.836,2351.204,807.839,2351.791z"/>
      <path style="fill:#A89D9B;" d="M774.549,2443.724c0.156-1.589,0.313-3.178,0.47-4.767c0.056,0.01,0.112,0.02,0.168,0.03 c0,2.796,0,5.592,0,8.388C773.956,2446.336,775.089,2444.883,774.549,2443.724z"/>
      <path style="fill:#5D4845;" d="M830.999,2356.463c-0.385,0.066-0.803,0.06-1.025,0.476c-1.306-0.437-2.612-0.874-3.919-1.31 c0.391-0.094,0.835-0.071,1.071-0.497C828.489,2355.366,829.805,2355.738,830.999,2356.463z"/>
      <path style="fill:#9E9290;" d="M774.549,2443.724c0.813,1.112-0.149,2.536,0.639,3.652c0.234,0.725,0.284,1.431-0.363,2.634 C774.245,2447.582,774.385,2445.654,774.549,2443.724z"/>
      <path style="fill:#422925;" d="M769.192,2448.919c0.228-0.616-0.07-1.351,0.428-1.907c0.153,1.868,0.306,3.736,0.458,5.604 c-0.109-0.003-0.218-0.006-0.326-0.011c-0.261,0.187-0.487,0.151-0.677-0.108C768.934,2451.299,768.76,2450.099,769.192,2448.919z "/>
      <path style="fill:#64504D;" d="M797.506,2351.865c0.367,0.163,0.733,0.326,1.1,0.489c-1.388,0.285-2.719,1.204-4.208,0.384 C795.32,2352.042,796.423,2351.99,797.506,2351.865z"/>
      <path style="fill:#7C6B69;" d="M772.748,2418.309c0.026,1.428-0.146,2.807-0.95,4.027 C771.779,2420.909,771.911,2419.521,772.748,2418.309z"/>
      <path style="fill:#6E5B59;" d="M807.059,2456.673c-1.005-0.922-0.704-1.849-0.164-2.776 C807.124,2454.822,806.772,2455.749,807.059,2456.673z"/>
      <path style="fill:#F5F4F4;" d="M769.192,2448.919c0.001,1.232,0.002,2.465,0.002,3.697c-0.097-0.021-0.194-0.042-0.291-0.062 c-0.174-0.777-0.349-1.555-0.523-2.332c0.497-0.394,0.34-0.981,0.442-1.492C768.949,2448.786,769.072,2448.849,769.192,2448.919z"/>
      <path style="fill:#412824;" d="M769.631,2441.275c-0.154-0.175-0.307-0.349-0.461-0.524c0.049-1.219,0.097-2.439,0.146-3.658 c0.154-0.16,0.314-0.165,0.479-0.016C769.74,2438.476,769.686,2439.875,769.631,2441.275z"/>
      <path style="fill:#6E5C59;" d="M769.795,2437.076c-0.16,0.005-0.319,0.011-0.479,0.016c-0.046-0.832-0.17-1.684,0.61-2.394 C770.351,2435.566,770.217,2436.328,769.795,2437.076z"/>
      <path style="fill:#513A37;" d="M771.07,2427.178c-0.158,1.251-0.316,2.502-0.474,3.752c-0.129,0.23-0.264,0.234-0.406,0.012 c-0.181-1.307,0.34-2.512,0.548-3.763C770.847,2426.957,770.958,2426.967,771.07,2427.178z"/>
      <path style="fill:#928482;" d="M778.533,2396.208c0.422,1.49-0.085,2.216-0.833,2.881 C777.93,2398.292,778.16,2397.496,778.533,2396.208z"/>
      <path style="fill:#766461;" d="M791.717,2353.61c0.742-0.635,1.553-0.916,2.501-0.483c-0.368,0.866-1.306,0.6-1.924,0.97 C792.072,2353.97,791.777,2353.93,791.717,2353.61z"/>
      <path style="fill:#5A4441;" d="M771.07,2427.178l-0.167,0.002l-0.167,0c0.162-1.053,0.323-2.105,0.543-3.534 C771.927,2425.165,771.336,2426.155,771.07,2427.178z"/>
      <path style="fill:#B1A8A6;" d="M796.994,2384.827c0.578,0.047,1.155,0.094,1.853,0.15c-0.605,1.101-1.204,0.889-1.843,0.327 c-0.166-0.103-0.223-0.207-0.171-0.315C796.886,2384.881,796.939,2384.827,796.994,2384.827z"/>
      <path style="fill:#6F5C59;" d="M770.189,2430.943c0.135,0.001,0.271-0.003,0.406-0.012c0.078,0.781,0.06,1.541-0.56,2.309 C769.49,2432.362,769.874,2431.654,770.189,2430.943z"/>
      <path style="fill:#9E9290;" d="M779.611,2413.539c0.209-0.698,0.417-1.395,0.66-2.205 C780.869,2412.368,780.112,2413.018,779.611,2413.539z"/>
      <path style="fill:#8E807E;" d="M840.794,2413.98c-0.241-1.015,0.419-1.857,0.537-2.803c0.111-0.237,0.227-0.239,0.347-0.007 c-0.087,1-0.124,2.017-0.919,2.783L840.794,2413.98z"/>
      <path style="fill:#8E807D;" d="M840.76,2413.953c0.196,0.98-0.104,1.845-0.77,2.906c0.027-1.207,0.123-2.115,0.804-2.879 C840.794,2413.98,840.76,2413.953,840.76,2413.953z"/>
      <path style="fill:#9B8E8C;" d="M835.634,2430.701c0.038,0.629,0.142,1.318-0.62,1.842 C834.746,2431.773,835.107,2431.23,835.634,2430.701z"/>
      <path style="fill:#8E807D;" d="M838.917,2419.749c0.218-0.724,0.435-1.449,0.7-2.328 C840.159,2418.511,839.535,2419.169,838.917,2419.749z"/>
      <path style="fill:#A19593;" d="M812.255,2456.204c-0.156-0.646-0.253-1.163,0.099-1.622c0.03-0.039,0.487,0.113,0.532,0.248 C813.062,2455.36,813.055,2455.88,812.255,2456.204z"/>
      <path style="fill:#6B5855;" d="M816.774,2424.333c0.134,0.306,0.268,0.611,0.401,0.917c-0.156,0.501-0.378,1.342-0.951,0.829 C815.746,2425.65,816.293,2424.843,816.774,2424.333z"/>
      <path style="fill:#968987;" d="M843.379,2403.798c0.134-0.691,0.242-1.246,0.422-2.171 C844.197,2402.655,844.166,2403.223,843.379,2403.798z"/>
      <path style="fill:#8C7D7B;" d="M776.118,2431.344c-0.432-0.922-0.34-1.612-0.044-2.498 C776.48,2429.763,776.321,2430.451,776.118,2431.344z"/>
      <path style="fill:#948684;" d="M796.994,2384.827c0.004,0.159,0.007,0.318,0.011,0.478c-0.691-0.152-1.316-0.393-1.599-1.273 C796.282,2383.647,796.443,2384.683,796.994,2384.827z"/>
      <path style="fill:#695653;" d="M791.717,2353.61c0.192,0.162,0.385,0.324,0.577,0.487c-0.452,0.185-0.903,0.371-1.355,0.556 c-0.504,0.227-0.566-0.032-0.489-0.446C790.872,2354.008,791.295,2353.809,791.717,2353.61z"/>
      <path style="fill:#AA9F9D;" d="M842.179,2408.78c-0.016-0.767-0.185-1.576,0.864-2.342c-0.3,0.976-0.098,1.792-0.813,2.385 L842.179,2408.78z"/>
      <path style="fill:#968987;" d="M779.116,2394.605c0.329-0.982,0.509-1.517,0.729-2.172 C780.256,2393.3,780.087,2393.879,779.116,2394.605z"/>
      <path style="fill:#A69A99;" d="M841.679,2411.169l-0.174-0.001c0,0-0.174,0.008-0.174,0.008c0.262-0.806,0.107-1.76,0.848-2.396 c0,0,0.05,0.042,0.05,0.042C842.332,2409.672,842.21,2410.469,841.679,2411.169z"/>
      <path style="fill:#867674;" d="M800.865,2381.744c0.665,0.898,0.386,1.381,0.127,2.013 C800.337,2383.017,800.937,2382.572,800.865,2381.744z"/>
      <path style="fill:#887976;" d="M790.45,2354.207c0.163,0.149,0.326,0.297,0.489,0.446c-0.486,0.377-0.918,0.952-1.643,0.443 C789.458,2354.511,789.962,2354.37,790.45,2354.207z"/>
      <path style="fill:#756360;" d="M775.096,2451.269c0.418,0.483,0.698,0.954,0.402,1.609 C774.874,2452.454,774.78,2451.936,775.096,2451.269z"/>
      <path style="fill:#57413E;" d="M827.173,2450.521c-0.195-0.402-0.021-0.715,0.251-0.979c0.04-0.038,0.232,0.08,0.353,0.126 C827.551,2449.929,827.694,2450.45,827.173,2450.521z"/>
      <path style="fill:#7A6967;" d="M812.716,2448.488c0.37,0.543,0.605,1.044,0.318,1.704 C812.314,2449.715,812.529,2449.132,812.716,2448.488z"/>
      <path style="fill:#9E918F;" d="M837.758,2425.066c-0.114,0.447-0.227,0.893-0.355,1.398 C836.707,2425.9,836.979,2425.462,837.758,2425.066z"/>
      <path style="fill:#5D4845;" d="M810.102,2458.16c-0.747,0.218-1.398,0.435-1.935-0.442 C808.934,2457.482,809.494,2457.705,810.102,2458.16z"/>
      <path style="fill:#553E3B;" d="M908.99,2361.569c-0.291,0.333-0.582,0.667-0.872,1.001c-4.307-0.308-8.582-1.052-12.927-0.871 c-2.245,0.093-4.496,0.026-6.744,0.031c-0.999,0.043-2.094,0.763-2.92-0.413c6.27-0.76,12.542-0.757,18.815-0.036 c0.778,0.42,1.686-0.053,2.465,0.359C907.534,2361.616,908.262,2361.593,908.99,2361.569z"/>
      <path style="fill:#4E3734;" d="M931.593,2371.093c0.171,0.007,0.343,0.013,0.514,0.02c-0.173,0.499-0.346,0.997-0.519,1.495 c-3.17-4.002-7.732-5.758-12.24-7.602c0.323-0.142,0.646-0.284,0.97-0.426C924.643,2365.77,928.515,2367.744,931.593,2371.093z"/>
      <path style="fill:#9E9290;" d="M926.513,2420.134c0-4.59,0-9.18,0-13.77c0.119-0.001,0.238-0.002,0.357-0.004 c0,4.591,0,9.182,0,13.774C926.75,2420.323,926.632,2420.323,926.513,2420.134z"/>
      <path style="fill:#594440;" d="M885.526,2361.317c0.893,0.705,1.958,0.193,2.92,0.413c-2.244,0.275-4.488,0.551-6.732,0.826 c-0.283-0.263-0.782-0.04-1.001-0.446C882.257,2361.478,883.902,2361.465,885.526,2361.317z"/>
      <path style="fill:#CEC8C7;" d="M868.124,2431.415c0.87,1.618,0.365,3.272,0.031,4.938c-0.845-1.584-0.435-3.309-0.482-4.98 C867.843,2431.184,867.992,2431.208,868.124,2431.415z"/>
      <path style="fill:#9E9290;" d="M862.399,2440.87c-0.505-1.257-0.47-2.561-0.332-3.874c0.322-0.97,0.037-1.978,0.176-2.959 c0.066-0.089,0.133-0.177,0.2-0.266c0.761,2.185,0.337,4.44,0.387,6.667C862.743,2440.638,862.602,2440.784,862.399,2440.87z"/>
      <path style="fill:#A29694;" d="M862.095,2412.616c-0.088-1.324,0.126-2.604,0.669-3.85c0.097,2.086,0.239,4.17-0.291,6.234 C861.906,2414.274,862.439,2413.375,862.095,2412.616z"/>
      <path style="fill:#6F5C59;" d="M862.044,2429.082c0-2.564,0-5.127,0-7.691c0.108-0.002,0.216-0.004,0.324-0.006 c0,2.566,0,5.131,0,7.697C862.26,2429.082,862.152,2429.082,862.044,2429.082z"/>
      <path style="fill:#A09492;" d="M868.124,2431.415c-0.151-0.008-0.301-0.022-0.451-0.042c0-2.372,0-4.743,0-7.115 c0.15,0.001,0.3,0.002,0.451,0.002C868.124,2426.646,868.124,2429.03,868.124,2431.415z"/>
      <path style="fill:#9E9290;" d="M926.845,2426.671c0,1.295,0,2.59,0,3.885c-1.046-1.3-0.668-2.593-0.308-3.886 C926.64,2426.67,926.742,2426.671,926.845,2426.671z"/>
      <path style="fill:#AEA4A2;" d="M924.657,2375.489c1.14,1.293,0.857,2.51,0.815,4.007 C924.188,2378.241,924.583,2377.003,924.657,2375.489z"/>
      <path style="fill:#6A5754;" d="M876.039,2363.068c1.046-0.611,2.218-0.706,3.383-0.833c0.282,0.268,0.799,0.027,1.002,0.464 c-1.061,0.616-2.272,0.586-3.427,0.797C876.732,2363.231,876.241,2363.474,876.039,2363.068z"/>
      <path style="fill:#D0CBCA;" d="M868.351,2442.861c0.904,1.307,0.655,2.077,0.485,3.121 C867.712,2445.093,868.153,2444.253,868.351,2442.861z"/>
      <path style="fill:#9E9290;" d="M868.523,2414.719c0.458,1.241,0.482,1.979-0.053,3.223 C868.014,2416.688,867.992,2415.951,868.523,2414.719z"/>
      <path style="fill:#9E9290;" d="M926.791,2398.915c0,1.754,0,3.507,0,5.26c-0.394-1.745-0.419-3.499-0.199-5.26L926.791,2398.915z"/>
      <path style="fill:#72605D;" d="M862.893,2442.715c0.416,0.831,0.609,1.665-0.033,2.902c-0.413-1.176-0.484-2.031-0.34-2.92 C862.654,2442.515,862.779,2442.512,862.893,2442.715z"/>
      <path style="fill:#48302D;" d="M865.247,2460.194c-0.61-0.998-0.559-2.113-0.585-3.23c0.796,0.759,0.794,1.779,0.963,2.739 C865.569,2459.92,865.447,2460.087,865.247,2460.194z"/>
      <path style="fill:#675451;" d="M866.632,2465.403c-0.616-0.877-0.782-1.832-0.578-2.872c0.8,0.626,0.908,1.496,1.036,2.358 C866.943,2465.065,866.915,2465.347,866.632,2465.403z"/>
      <path style="fill:#412824;" d="M862.044,2429.082c0.108-0.01,0.216-0.01,0.324,0c0.025,1.563,0.051,3.126,0.076,4.689l-0.154-0.07 c-0.079,0.014-0.159,0.028-0.238,0.042C862.049,2432.19,862.046,2430.636,862.044,2429.082z"/>
      <path style="fill:#A39795;" d="M926.791,2398.915c0,0-0.2,0-0.2,0c-0.191-1.45-0.235-2.899,0.04-4.827 C927.112,2396.003,926.938,2397.46,926.791,2398.915z"/>
      <path style="fill:#9E9290;" d="M925.577,2436.623c-0.1-0.85,0.097-1.643,0.459-2.405c0.115-0.191,0.234-0.193,0.354-0.005 c0.088,0.831,0.148,1.656-0.384,2.386C925.874,2436.823,925.731,2436.82,925.577,2436.623z"/>
      <path style="fill:#452D29;" d="M864.287,2452.643c0.101,0.837,0.202,1.675,0.363,3.004c-0.983-1.017-0.692-1.827-0.886-2.496 C863.631,2452.664,863.836,2452.526,864.287,2452.643z"/>
      <path style="fill:#6D5A57;" d="M862.392,2415.421c0,1.306,0,2.612,0,3.918c-0.593-1.282-0.389-2.6-0.35-3.908 C862.151,2415.187,862.268,2415.183,862.392,2415.421z"/>
      <path style="fill:#5F4B47;" d="M908.382,2464.567c-0.874,0.806-1.64,0.528-2.991-0.351 C906.831,2464.385,907.606,2464.476,908.382,2464.567z"/>
      <path style="fill:#402723;" d="M865.247,2460.194c0.126-0.164,0.252-0.328,0.379-0.491c0.17,0.629,0.34,1.258,0.51,1.887 C865.194,2461.419,865.275,2460.779,865.247,2460.194z"/>
      <path style="fill:#6A5654;" d="M910.418,2460.763c0.622,0.886,0.738,1.754,0,2.969 C910.418,2462.491,910.418,2461.627,910.418,2460.763z"/>
      <path style="fill:#81716E;" d="M874.357,2393.857c0.576,1.042,0.093,1.998,0.58,2.779 C873.855,2395.963,874.2,2395.032,874.357,2393.857z"/>
      <path style="fill:#CDC6C5;" d="M864.778,2383.992c-0.073,0.111-0.204,0.517-0.384,0.54c-0.569,0.073-0.516-0.424-0.5-0.785 c0.012-0.286,0.034-0.672,0.465-0.635C864.758,2383.148,864.738,2383.51,864.778,2383.992z"/>
      <path style="fill:#402723;" d="M868.628,2470.082c-0.982-0.53-0.811-1.577-1.231-2.26 C868.629,2468.006,868.68,2468.917,868.628,2470.082z"/>
      <path style="fill:#73615E;" d="M926.845,2426.671l-0.154,0.003c0,0-0.154-0.004-0.154-0.004c0.001-1.246,0.002-2.491,0.003-3.737 c0.1,0,0.201,0,0.301,0C926.842,2424.179,926.844,2425.425,926.845,2426.671z"/>
      <path style="fill:#918380;" d="M864.287,2452.643c-0.175,0.169-0.349,0.339-0.524,0.508c-0.106-0.206-0.277-0.403-0.304-0.619 c-0.064-0.503-0.385-1.349,0.365-1.337C864.634,2451.208,864.28,2452.094,864.287,2452.643z"/>
      <path style="fill:#56413D;" d="M906.608,2429.362c0.198,0.505-0.045,1.142,0.464,1.553c0.05,0.536,0.029,1.041-0.799,1.429 C906.136,2431.249,906.126,2430.297,906.608,2429.362z"/>
      <path style="fill:#A59A98;" d="M925.344,2442.331c0.226,1.401,0.086,2.077-0.565,2.675 C924.304,2444.111,924.69,2443.493,925.344,2442.331z"/>
      <path style="fill:#685552;" d="M868.898,2365.954c0.236-1.118,1.287-1.007,2.035-1.353c0.225,0.14,0.539,0.165,0.621,0.488 C870.712,2365.51,869.944,2366.16,868.898,2365.954z"/>
      <path style="fill:#AEA3A2;" d="M925.91,2439.381c0.126,0.797-0.044,1.518-0.607,2.281c-0.47-0.875-0.396-1.576,0.215-2.237 C925.628,2439.217,925.757,2439.193,925.91,2439.381z"/>
      <path style="fill:#7A6866;" d="M880.004,2395.423c-0.112-0.767-0.223-1.534-0.387-2.656 C880.759,2393.755,880.302,2394.6,880.004,2395.423z"/>
      <path style="fill:#725F5C;" d="M862.052,2433.744c0.078-0.023,0.157-0.037,0.238-0.042c-0.002,1.103,0.421,2.235-0.222,3.295 C862.062,2435.913,862.057,2434.828,862.052,2433.744z"/>
      <path style="fill:#7B6A68;" d="M875.48,2397.246c1.234,0.17,2.025,0.28,3.475,0.48 C877.4,2397.961,876.503,2398.345,875.48,2397.246z"/>
      <path style="fill:#AEA3A2;" d="M862.812,2403.139c0,0.797,0,1.594,0,2.782C862.325,2404.767,862.34,2403.988,862.812,2403.139z"/>
      <path style="fill:#908280;" d="M913.187,2475.876c-0.458,1.221-0.953,1.666-1.998,2.289 C911.529,2476.997,912.09,2476.586,913.187,2475.876z"/>
      <path style="fill:#D4CFCE;" d="M864.492,2378.071c-0.21-1.023,0.092-1.502,0.589-1.932 C865.452,2376.899,865.232,2377.456,864.492,2378.071z"/>
      <path style="fill:#695552;" d="M863.54,2449.459c-0.71-0.699-0.653-1.254-0.392-2.256 C863.731,2448.01,863.943,2448.533,863.54,2449.459z"/>
      <path style="fill:#634F4C;" d="M922.482,2457.52c-0.359-1.235-0.132-1.839,0.609-2.755 C922.861,2455.804,922.721,2456.438,922.482,2457.52z"/>
      <path style="fill:#402723;" d="M866.632,2465.403c0.153-0.171,0.305-0.343,0.458-0.514c0.02,0.543,0.893,1.226,0.191,1.542 C866.545,2466.762,866.794,2465.808,866.632,2465.403z"/>
      <path style="fill:#867674;" d="M872.435,2463.886c0.244,0.575,0.487,1.149,0.825,1.945c-1.287-0.357-0.898-1.375-1.32-1.912 C872.091,2463.703,872.255,2463.682,872.435,2463.886z"/>
      <path style="fill:#705D5A;" d="M926.841,2422.933h-0.15h-0.15c-0.009-0.933-0.019-1.866-0.028-2.799 c0.119-0.027,0.238-0.027,0.357,0C926.86,2421.067,926.851,2422,926.841,2422.933z"/>
      <path style="fill:#6B5754;" d="M905.207,2461.309c0,0.906,0.058,1.427-0.031,1.921c-0.031,0.174-0.345,0.079-0.47-0.151 C904.432,2462.574,904.403,2462.115,905.207,2461.309z"/>
      <path style="fill:#9E9290;" d="M862.392,2415.421c-0.117-0.002-0.234,0.001-0.35,0.01c0.018-0.938,0.036-1.877,0.053-2.815 c0.606,0.718,0.219,1.594,0.378,2.383C862.515,2415.153,862.488,2415.293,862.392,2415.421z"/>
      <path style="fill:#73605D;" d="M926.39,2434.214l-0.177,0.011l-0.177-0.006c0-0.835,0-1.67,0-2.505 c0.118-0.004,0.236-0.008,0.354-0.011C926.39,2432.539,926.39,2433.377,926.39,2434.214z"/>
      <path style="fill:#766461;" d="M925.91,2439.381c-0.131,0.008-0.262,0.022-0.392,0.043c0.019-0.934,0.039-1.867,0.058-2.801 c0.143-0.009,0.286-0.016,0.429-0.023C925.974,2437.527,925.942,2438.454,925.91,2439.381z"/>
      <path style="fill:#402723;" d="M923.838,2449.537c0.367,0.683,0.279,1.188,0.085,1.732 C923.38,2450.79,923.712,2450.275,923.838,2449.537z"/>
      <path style="fill:#AEA4A2;" d="M870.254,2454.763c0.154,0.919,0.394,1.64,0.266,1.713c-0.635,0.361-0.476-0.291-0.527-0.583 C869.96,2455.702,870.078,2455.485,870.254,2454.763z"/>
      <path style="fill:#402723;" d="M880.424,2362.699c-0.334-0.155-0.668-0.309-1.002-0.464c0.43-0.042,0.861-0.083,1.291-0.125 c0.334,0.149,0.668,0.297,1.001,0.446C881.284,2362.604,880.854,2362.652,880.424,2362.699z"/>
      <path style="fill:#402723;" d="M873.767,2363.669c0.469-0.131,0.939-0.262,1.408-0.393c0.311,0.051,0.48,0.207,0.405,0.545 c-0.423,0.096-0.845,0.192-1.268,0.288C873.837,2364.326,873.72,2364.099,873.767,2363.669z"/>
      <path style="fill:#402723;" d="M875.58,2363.821c-0.135-0.182-0.27-0.364-0.405-0.545c0.288-0.069,0.576-0.138,0.864-0.208 c0.32,0.143,0.639,0.286,0.959,0.428C876.525,2363.605,876.052,2363.713,875.58,2363.821z"/>
      <path style="fill:#81716E;" d="M872.435,2463.886c-0.165,0.011-0.33,0.022-0.495,0.033c-0.159-0.543-0.318-1.085-0.528-1.803 C872.53,2462.508,872.323,2463.271,872.435,2463.886z"/>
      <path style="fill:#422925;" d="M862.893,2442.715c-0.124-0.017-0.248-0.023-0.373-0.019c-0.04-0.608-0.081-1.217-0.121-1.826 c0.144-0.144,0.287-0.288,0.431-0.432C862.852,2441.197,862.872,2441.956,862.893,2442.715z"/>
      <path style="fill:#5B4642;" d="M873.767,2363.669c0.182,0.146,0.364,0.293,0.545,0.44c-0.338,0.451-0.844,0.438-1.33,0.482 c-0.474,0.194-0.674,0.014-0.646-0.476C872.813,2363.967,873.29,2363.818,873.767,2363.669z"/>
      <path style="fill:#5D4845;" d="M872.336,2364.115c0.215,0.158,0.43,0.317,0.646,0.476c-0.476,0.166-0.952,0.331-1.428,0.497 c-0.207-0.163-0.414-0.325-0.621-0.488C871.401,2364.439,871.868,2364.277,872.336,2364.115z"/>
      <path style="fill:#442C28;" d="M717.613,2609.903c15.389,11.468,33.216,15.372,52.484,16.685 c-3.045,1.005-5.536,0.584-7.983,0.339c-14.327-1.436-27.971-5.094-40.371-12.683c-1.73-1.059-3.442-2.165-4.776-3.743 C716.877,2609.971,717.064,2609.741,717.613,2609.903z"/>
      <path style="fill:#6F5D5A;" d="M761.783,2602.426c0.324,0.182,0.648,0.364,0.973,0.546c-0.07,2.664-0.115,5.328-0.227,7.99 c-0.031,0.737,0.353,1.577-0.381,2.202c-0.548-2.604,0.157-5.267-0.372-7.872C761.778,2604.337,761.781,2603.382,761.783,2602.426 z"/>
      <path style="fill:#AA9F9E;" d="M756.077,2608.88c0.636,2.018,0.555,4.016-0.025,6.659 C755.311,2612.872,755.642,2610.875,756.077,2608.88z"/>
      <path style="fill:#4F3834;" d="M717.613,2609.903c-0.215,0.199-0.43,0.399-0.646,0.598c-1.525-1.075-2.642-2.471-3.312-4.219 c-0.234-0.532,0.054-0.599,0.482-0.54C715.296,2607.13,716.454,2608.516,717.613,2609.903z"/>
      <path style="fill:#402723;" d="M761.775,2605.292c0.792,2.592,0.088,5.256,0.372,7.872 C761.125,2610.583,761.934,2607.915,761.775,2605.292z"/>
      <path style="fill:#958785;" d="M792.699,2480.018c0.54-0.035,1.089-0.111,1.515,0.348c-0.817-0.031-1.299,0.615-1.907,1.195 C791.902,2480.721,792.627,2480.474,792.699,2480.018z"/>
      <path style="fill:#64504D;" d="M714.137,2605.743c-0.161,0.18-0.321,0.36-0.482,0.54c-0.666-0.639-0.669-1.479-0.941-2.428 C713.879,2604.211,713.829,2605.096,714.137,2605.743z"/>
      <path style="fill:#5B4542;" d="M722.627,2599.582c1.02-1.14,1.746-0.931,2.523-0.483 C724.494,2599.225,723.838,2599.35,722.627,2599.582z"/>
      <path style="fill:#B0A6A4;" d="M757.219,2598.815c-0.382-1.165-0.212-1.811,0.508-2.437 C758.118,2597.32,757.539,2597.85,757.219,2598.815z"/>
      <path style="fill:#A49997;" d="M758.36,2593.001c0.074,0.802-0.219,1.491-0.657,2.173c-0.488-0.822-0.035-1.485,0.268-2.167 C758.098,2592.795,758.227,2592.803,758.36,2593.001z"/>
      <path style="fill:#AA9E9D;" d="M783.435,2504.624c-0.029,0.705,0.096,1.461-0.753,1.912 C782.71,2505.719,782.737,2505.037,783.435,2504.624z"/>
      <path style="fill:#4B3430;" d="M743.132,2598.16c-0.178,0.194-0.415,0.451-0.652,0.708c-0.089-0.161-0.289-0.375-0.244-0.473 c0.118-0.25,0.31-0.505,0.541-0.649C742.934,2597.649,743.207,2597.733,743.132,2598.16z"/>
      <path style="fill:#D0CAC9;" d="M757.99,2590.698c-0.028-0.434-0.144-0.908,0.305-1.192c0.086-0.054,0.424,0.099,0.481,0.229 c0.169,0.386,0.008,0.708-0.356,0.921C758.296,2590.873,758.153,2590.887,757.99,2590.698z"/>
      <path style="fill:#8B7C7A;" d="M721.371,2600.49c-0.124-0.176-0.332-0.337-0.326-0.489c0.018-0.458,0.459-0.577,0.783-0.673 c0.345-0.103,0.626,0.346,0.518,0.507C722.16,2600.113,721.758,2600.247,721.371,2600.49z"/>
      <path style="fill:#857674;" d="M782.623,2621.424c-0.424-0.173-0.523-0.341-0.389-0.588c0.176-0.324,0.218-0.814,0.737-0.756 c0.104,0.012,0.289,0.395,0.235,0.512C783.056,2620.915,782.798,2621.187,782.623,2621.424z"/>
      <path style="fill:#64504D;" d="M719.449,2603.058c-0.098,0.409-0.058,1.261-0.356,1.131c-0.859-0.375-0.14-1.115-0.096-1.709 C719.469,2602.42,719.605,2602.624,719.449,2603.058z"/>
      <path style="fill:#7C6B69;" d="M719.449,2603.058c-0.151-0.193-0.302-0.385-0.453-0.578c0.201-0.453,0.299-1.366,0.905-0.969 C720.404,2601.842,719.762,2602.564,719.449,2603.058z"/>
      <path style="fill:#948785;" d="M757.99,2590.698c0.141-0.033,0.284-0.047,0.429-0.042c-0.019,0.782-0.039,1.563-0.058,2.345 c-0.001,0-0.195,0.009-0.195,0.009s-0.195-0.003-0.195-0.003C757.977,2592.237,757.984,2591.468,757.99,2590.698z"/>
      <path style="fill:#462E2B;" d="M912.309,2639.118c-20.611,5.445-51.216,2.069-56.299-5.857c0.142-0.046,0.338-0.177,0.413-0.126 c9.129,6.105,19.536,7.06,30.076,7.534c8.34,0.375,16.564-0.554,24.744-2.056C911.702,2638.562,912.305,2638.205,912.309,2639.118 z"/>
      <path style="fill:#543E3B;" d="M901.574,2618.91c0.16-0.197,0.32-0.394,0.479-0.591c0.569,1.68,1.305,3.335,0.73,5.34 C901.915,2622.094,901.812,2620.484,901.574,2618.91z"/>
      <path style="fill:#786764;" d="M860.357,2630.579c-0.961-1.614-0.981-2.581,0-4.012 C860.357,2628.018,860.357,2628.984,860.357,2630.579z"/>
      <path style="fill:#7B6A67;" d="M880.441,2620.354c-0.25-1.123,0.347-1.956,0.866-2.824c0.455,1.093,0.226,2.007-0.561,2.79 C880.644,2620.331,880.543,2620.343,880.441,2620.354z"/>
      <path style="fill:#5F4B47;" d="M903.929,2626.879c-0.608-0.839-1.151-1.697-0.863-3.073 C904.12,2624.816,904.326,2625.765,903.929,2626.879z"/>
      <path style="fill:#81716E;" d="M880.441,2620.354c0.101-0.021,0.203-0.032,0.305-0.034c-0.083,1.031-0.189,2.055-0.833,2.926 c-0.309-0.052-0.362-0.345-0.511-0.547C879.668,2621.881,879.609,2620.92,880.441,2620.354z"/>
      <path style="fill:#D2CCCC;" d="M893.567,2595.321c0.755,1.058,0.346,2.209,0.335,3.458c-1.063-0.256-0.825-0.986-0.792-1.616 C893.532,2596.615,892.963,2595.823,893.567,2595.321z"/>
      <path style="fill:#6A5754;" d="M912.309,2639.118c-0.355-0.168-0.711-0.336-1.066-0.505c1.03-0.577,2.181-0.524,3.52-0.842 C914.111,2638.97,913.137,2638.901,912.309,2639.118z"/>
      <path style="fill:#A19694;" d="M894.268,2604.13c0.198,0.871,0.396,1.742,0.638,2.803 C893.6,2606.169,894.167,2605.13,894.268,2604.13z"/>
      <path style="fill:#7F6F6C;" d="M898.614,2628.882c-1.111-1.115-1.092-1.94-1.245-3.031 C898.485,2626.643,898.272,2627.529,898.614,2628.882z"/>
      <path style="fill:#74625F;" d="M879.293,2624.567c-0.129,0.64-0.118,1.338-0.846,1.927c-0.401-0.849-0.2-1.426,0.423-1.929 C879.012,2624.341,879.153,2624.331,879.293,2624.567z"/>
      <path style="fill:#ACA2A0;" d="M895.621,2615.691c0.952,0.524,0.751,1.272,0.596,2.403 C895.616,2617.176,895.25,2616.587,895.621,2615.691z"/>
      <path style="fill:#8F817F;" d="M896.591,2496.818c-0.273-0.815-0.521-1.624,0.7-2.623 C896.964,2495.42,896.777,2496.119,896.591,2496.818z"/>
      <path style="fill:#A79C9A;" d="M893.567,2595.321c-0.15,0.615,0.201,1.354-0.457,1.842c0-1.055,0-2.11,0-3.199 C893.824,2594.261,893.379,2594.894,893.567,2595.321z"/>
      <path style="fill:#806F6D;" d="M896.248,2509.625c0.048-1.098-0.045-2.233,1.011-3.538c-0.208,1.454-0.355,2.482-0.502,3.51 C896.595,2509.765,896.426,2509.774,896.248,2509.625z"/>
      <path style="fill:#B2A8A7;" d="M895.643,2613.996c-0.498-0.231-0.634-0.587-0.586-0.981c0.02-0.163,0.269-0.444,0.372-0.426 c0.511,0.089,0.433,0.544,0.428,0.905C895.854,2613.661,895.719,2613.827,895.643,2613.996z"/>
      <path style="fill:#65514E;" d="M925.94,2627.804c0.141,0.17,0.281,0.339,0.422,0.509c-0.078,0.739-0.305,1.406-1.233,1.796 C925.398,2629.341,925.669,2628.573,925.94,2627.804z"/>
      <path style="fill:#9E9290;" d="M895.71,2516.302c-0.474-1.241-0.401-2.043,0.673-3.323 C896.094,2514.409,895.935,2515.194,895.71,2516.302z"/>
      <path style="fill:#AEA3A2;" d="M896.248,2509.625c0.17-0.009,0.339-0.019,0.509-0.028c0.076,0.641,0.018,1.24-0.556,1.724 C895.524,2510.723,895.806,2510.173,896.248,2509.625z"/>
      <path style="fill:#8A7B79;" d="M898.823,2498.648c0.554-1.314,0.826-1.96,1.098-2.606 C900.199,2496.939,900.109,2497.697,898.823,2498.648z"/>
      <path style="fill:#57413E;" d="M900.878,2494.605c-0.187-0.61,0.328-0.89,0.508-1.739 C901.679,2493.937,901.385,2494.321,900.878,2494.605z"/>
      <path style="fill:#675350;" d="M879.293,2624.567l-0.212-0.01c0,0-0.212,0.008-0.212,0.008c-0.12-0.707,0.319-1.255,0.532-1.866 c0.17,0.182,0.34,0.365,0.511,0.547C879.895,2623.775,879.652,2624.198,879.293,2624.567z"/>
      <path style="fill:#AA9F9D;" d="M895.657,2517.823c0.311,0.782,0.348,1.483-0.062,2.258 C895.324,2519.288,895.2,2518.585,895.657,2517.823z"/>
      <path style="fill:#72615E;" d="M854.298,2630.843c0.69,0.06,0.816,0.617,0.971,1.121c0.009,0.029-0.462,0.3-0.528,0.244 C854.335,2631.862,853.907,2631.478,854.298,2630.843z"/>
      <path style="fill:#988B89;" d="M895.21,2610.807c-0.359-0.674-0.658-1.264-0.513-2.164 C895.435,2609.314,895.495,2609.967,895.21,2610.807z"/>
      <path style="fill:#9F9391;" d="M896.788,2619.754c-0.135,0.349-0.292,0.59-0.505,0.389c-0.19-0.18-0.308-0.499-0.336-0.769 c-0.021-0.205,0.208-0.448,0.438-0.257C896.588,2619.288,896.687,2619.586,896.788,2619.754z"/>
      <path style="fill:#746360;" d="M900.627,2614.662c0.133,0.024,0.267,0.033,0.402,0.025c-0.022,0.663-0.044,1.325-0.065,1.988 C899.918,2616.159,900.89,2615.307,900.627,2614.662z"/>
      <path style="fill:#4B3430;" d="M897.01,2622.594c0.279,0.581,0.416,1.132,0.045,1.727 C896.761,2623.743,896.671,2623.19,897.01,2622.594z"/>
      <path style="fill:#432A26;" d="M807.839,2351.791c-2.026-0.238-4.112,0.447-6.099-0.395c2.032,0.004,4.063,0.008,6.095,0.012 C807.836,2351.535,807.837,2351.663,807.839,2351.791z"/>
      <path style="fill:#604B48;" d="M906.806,2361.64c-0.84,0.004-1.724,0.316-2.465-0.359 C905.191,2361.202,906.025,2361.241,906.806,2361.64z"/>
      <path style="fill:#6F5C59;" d="M859.015,2355.624c-0.089-0.015-0.177-0.028-0.267-0.037c-0.003-0.777-0.005-1.554-0.008-2.331 C859.36,2353.984,858.992,2354.826,859.015,2355.624z"/>
      <path style="fill:#695552;" d="M910.752,2367.682c-0.399-0.968-0.395-1.597-0.106-2.296 C911.111,2366.031,910.933,2366.655,910.752,2367.682z"/>
      <path style="fill:#B3A9A8;" d="M768.904,2452.554c0.116-0.066,0.213-0.045,0.291,0.062c0.186-0.004,0.371-0.007,0.557-0.01 c-0.054,0.494-0.107,0.989-0.168,1.543C769.04,2453.691,768.814,2453.188,768.904,2452.554z"/>
    </g>
  </g>
</svg>