<?xml version="1.0" encoding="utf-8"?>
<svg viewBox="764.16 12727.6104 214.84 127.6016" width="214.84px" height="127.602px" preserveAspectRatio="none" xmlns="http://www.w3.org/2000/svg"><defs><style type="text/css">
	.st0{fill:#FAFAFA;}
	.st1{clip-path:url(#SVGID_00000119833933190999764320000003463025086147415199_);}
	.st2{fill:none;stroke:#B3B3B3;stroke-miterlimit:10;}
	.st3{clip-path:url(#SVGID_00000154410210808049077380000015513630611794402946_);}
	.st4{clip-path:url(#SVGID_00000121244484471514473000000005729097722951713420_);}
	.st5{clip-path:url(#SVGID_00000060032539617563766690000007024140202729636540_);}
	.st6{fill:#C6AC95;}
	.st7{fill:#E9E4D9;}
	.st8{fill:#FFFFFF;}
	.st9{fill:#A09492;}
	.st10{fill:#FEFEFE;}
	.st11{fill:#442C28;}
	.st12{fill:#472F2B;}
	.st13{fill:#48302C;}
	.st14{fill:#48312D;}
	.st15{fill:#4B3430;}
	.st16{fill:#4A332F;}
	.st17{fill:#4C3531;}
	.st18{fill:#49312D;}
	.st19{fill:#73615E;}
	.st20{fill:#503935;}
	.st21{fill:#4C3431;}
	.st22{fill:#513A36;}
	.st23{fill:#988B89;}
	.st24{fill:#6E5B58;}
	.st25{fill:#533D3A;}
	.st26{fill:#543E3A;}
	.st27{fill:#56403C;}
	.st28{fill:#523C38;}
	.st29{fill:#57413D;}
	.st30{fill:#533C39;}
	.st31{fill:#4D3632;}
	.st32{fill:#4C3532;}
	.st33{fill:#56403D;}
	.st34{fill:#5E4A47;}
	.st35{fill:#847572;}
	.st36{fill:#5B4542;}
	.st37{fill:#CDC6C5;}
	.st38{fill:#AFA4A3;}
	.st39{fill:#5A4441;}
	.st40{fill:#5F4B48;}
	.st41{fill:#5D4845;}
	.st42{fill:#5F4A47;}
	.st43{fill:#5C4744;}
	.st44{fill:#6C5A57;}
	.st45{fill:#523B38;}
	.st46{fill:#9E918F;}
	.st47{fill:#5F4A46;}
	.st48{fill:#5C4643;}
	.st49{fill:#928481;}
	.st50{fill:#9E9290;}
	.st51{fill:#513B37;}
	.st52{fill:#705E5B;}
	.st53{fill:#7E6D6A;}
	.st54{fill:#685451;}
	.st55{fill:#604B48;}
	.st56{fill:#A99E9C;}
	.st57{fill:#867774;}
	.st58{fill:#634F4C;}
	.st59{fill:#6A5754;}
	.st60{fill:#A29694;}
	.st61{fill:#776663;}
	.st62{fill:#A19593;}
	.st63{fill:#776562;}
	.st64{fill:#A29695;}
	.st65{fill:#786663;}
	.st66{fill:#B3AAA9;}
	.st67{fill:#5F4B47;}
	.st68{fill:#74625F;}
	.st69{fill:#AA9F9D;}
	.st70{fill:#B5ACAB;}
	.st71{fill:#998C8A;}
	.st72{fill:#ACA2A0;}
	.st73{fill:#B8AEAD;}
	.st74{fill:#5E4946;}
	.st75{fill:#65514E;}
	.st76{fill:#65514D;}
	.st77{fill:#8D7F7C;}
	.st78{fill:#614D4A;}
	.st79{fill:#B4AAA8;}
	.st80{fill:#5B4643;}
	.st81{fill:#A29594;}
	.st82{fill:#C3BCBB;}
	.st83{fill:#ABA19F;}
	.st84{fill:#462E2A;}
	.st85{fill:#908280;}
	.st86{fill:#B9B0AF;}
	.st87{fill:#5A4542;}
	.st88{fill:#6C5955;}
	.st89{fill:#938583;}
	.st90{fill:#D8D3D3;}
	.st91{fill:#81716F;}
	.st92{fill:#675451;}
	.st93{fill:#6F5C59;}
	.st94{fill:#A49997;}
	.st95{fill:#715F5C;}
	.st96{fill:#65524E;}
	.st97{fill:#8E807E;}
	.st98{fill:#81706D;}
	.st99{fill:#776563;}
	.st100{fill:#8C7D7A;}
	.st101{fill:#D1CBCA;}
	.st102{fill:#B8AFAE;}
	.st103{fill:#B3A9A7;}
	.st104{fill:#7F6F6C;}
	.st105{fill:#4F3834;}
	.st106{fill:#7F6E6C;}
	.st107{fill:#57423E;}
	.st108{fill:#624E4B;}
	.st109{fill:#56413D;}
	.st110{fill:#A49896;}
	.st111{fill:#695552;}
	.st112{fill:#66524F;}
	.st113{fill:#9F9290;}
	.st114{fill:#72605D;}
	.st115{fill:#B7AEAC;}
	.st116{fill:#594440;}
	.st117{fill:#C1B9B8;}
	.st118{fill:#ACA1A0;}
	.st119{fill:#705D5A;}
	.st120{fill:#887977;}
	.st121{fill:#594340;}
	.st122{fill:#786664;}
	.st123{fill:#675350;}
	.st124{fill:#685552;}
	.st125{fill:#BBB3B1;}
	.st126{fill:#ACA19F;}
	.st127{fill:#6C5956;}
	.st128{fill:#6F5D5A;}
	.st129{fill:#6D5A56;}
	.st130{fill:#6B5855;}
	.st131{fill:#ADA2A0;}
	.st132{fill:#6D5B58;}
	.st133{fill:#6E5B59;}
	.st134{fill:#66524E;}
	.st135{fill:#786764;}
	.st136{fill:#402723;}
	.st137{fill:#B5ACAA;}
	.st138{fill:#715F5B;}
	.st139{fill:#918381;}
	.st140{fill:#766461;}
	.st141{fill:#695652;}
	.st142{fill:#6D5A57;}
	.st143{fill:#695653;}
	.st144{fill:#796865;}
	.st145{fill:#614C49;}
	.st146{fill:#634F4B;}
	.st147{fill:#B9B1AF;}
	.st148{fill:#6F5D59;}
	.st149{fill:#CEC8C7;}
	.st150{fill:#675450;}
	.st151{fill:#634E4B;}
	.st152{fill:#725F5D;}
	.st153{fill:#988A88;}
	.st154{fill:#7B6A67;}
	.st155{fill:#644F4C;}
	.st156{fill:#C2BAB9;}
	.st157{fill:#BCB4B2;}
	.st158{fill:#B4AAA9;}
	.st159{fill:#705D5B;}
	.st160{fill:#A09391;}
	.st161{fill:#CBC5C4;}
	.st162{fill:#928482;}
	.st163{fill:#58433F;}
	.st164{fill:#B6ADAB;}
	.st165{fill:#AFA5A3;}
	.st166{fill:#B6ACAB;}
	.st167{fill:#8A7B79;}
	.st168{fill:#968987;}
	.st169{fill:#867674;}
	.st170{fill:#9B8E8C;}
	.st171{fill:#A79C9A;}
	.st172{fill:#948684;}
	.st173{fill:#5C4743;}
	.st174{fill:#C4BDBC;}
	.st175{fill:#6A5653;}
	.st176{fill:#7A6966;}
	.st177{fill:#8C7D7B;}
	.st178{fill:#725F5C;}
	.st179{fill:#958885;}
	.st180{fill:#958785;}
	.st181{fill:#D0CAC9;}
	.st182{fill:#847472;}
	.st183{fill:#8B7C79;}
	.st184{fill:#9B8D8B;}
	.st185{fill:#6E5C59;}
	.st186{fill:#C0B8B6;}
	.st187{fill:#7E6E6B;}
	.st188{fill:#897B78;}
	.st189{fill:#998C89;}
	.st190{fill:#B9B0AE;}
	.st191{fill:#C7C0BF;}
	.st192{fill:#C8C1C0;}
	.st193{fill:#C4BCBA;}
	.st194{fill:#7D6C6A;}
	.st195{fill:#8D7E7C;}
	.st196{fill:#B4ABA9;}
	.st197{fill:#A69A98;}
	.st198{fill:#8B7C7A;}
	.st199{fill:#857572;}
	.st200{fill:#9A8D8B;}
	.st201{fill:#938482;}
	.st202{fill:#918280;}
	.st203{fill:#968886;}
	.st204{fill:#BAB1AF;}
	.st205{fill:#8E807D;}
	.st206{fill:#AEA3A1;}
	.st207{fill:#AEA4A2;}
	.st208{fill:#73605E;}
	.st209{fill:#8E7F7D;}
	.st210{fill:#958886;}
	.st211{fill:#A19492;}
	.st212{fill:#C8C0BF;}
	.st213{fill:#9B8D8C;}
	.st214{fill:#A89D9B;}
	.st215{fill:#BAB0AF;}
	.st216{fill:#72605C;}
	.st217{fill:#BDB5B3;}
	.st218{fill:#B0A6A4;}
	.st219{fill:#81716E;}
	.st220{fill:#4D3532;}
	.st221{fill:#5A4541;}
	.st222{fill:#938582;}
	.st223{fill:#82716F;}
	.st224{fill:#B0A5A4;}
	.st225{fill:#82726F;}
	.st226{fill:#897977;}
	.st227{fill:#756461;}
	.st228{fill:#A19592;}
	.st229{fill:#8A7B78;}
	.st230{fill:#938683;}
	.st231{fill:#BAB2B0;}
	.st232{fill:#837371;}
	.st233{fill:#4F3835;}
	.st234{fill:#796764;}
	.st235{fill:#B8B0AE;}
	.st236{fill:#C0B8B7;}
	.st237{fill:#BBB2B1;}
	.st238{fill:#624D4A;}
	.st239{fill:#AA9F9E;}
	.st240{fill:#978987;}
	.st241{fill:#604C48;}
	.st242{fill:#614D49;}
	.st243{fill:#C7BFBE;}
	.st244{fill:#C9C2C1;}
	.st245{fill:#9A8C8A;}
	.st246{fill:#796765;}
	.st247{fill:#58423F;}
	.st248{fill:#A59A98;}
	.st249{fill:#66534F;}
	.st250{fill:#412925;}
	.st251{fill:#6C5856;}
	.st252{fill:#9C8F8D;}
	.st253{fill:#C9C2C0;}
	.st254{fill:#A79B9A;}
	.st255{fill:#A59997;}
	.st256{fill:#A79B99;}
	.st257{fill:#B1A6A5;}
	.st258{fill:#9A8E8B;}
	.st259{fill:#B7AEAD;}
	.st260{fill:#A99E9D;}
	.st261{fill:#A39795;}
	.st262{fill:#7C6C69;}
	.st263{fill:#ABA09E;}
	.st264{fill:#432A27;}
	.st265{fill:#ABA09F;}
	.st266{fill:#B8AFAD;}
	.st267{fill:#756360;}
	.st268{fill:#64504D;}
	.st269{fill:#81706E;}
	.st270{fill:#ADA3A1;}
	.st271{fill:#AAA09E;}
	.st272{fill:#827270;}
	.st273{fill:#887976;}
	.st274{fill:#ADA2A1;}
	.st275{fill:#8A7A78;}
	.st276{fill:#887876;}
	.st277{fill:#CDC7C6;}
	.st278{fill:#A29593;}
	.st279{fill:#65504D;}
	.st280{fill:#877875;}
	.st281{fill:#5D4744;}
	.st282{fill:#49322E;}
	.st283{fill:#BEB6B4;}
	.st284{fill:#64504C;}
	.st285{fill:#A39896;}
	.st286{fill:#5D4946;}
	.st287{fill:#867673;}
	.st288{fill:#C8C1BF;}
	.st289{fill:#81726F;}
	.st290{fill:#948784;}
	.st291{fill:#7A6967;}
	.st292{fill:#AA9E9D;}
	.st293{fill:#533D39;}
	.st294{fill:#806F6D;}
	.st295{fill:#796866;}
	.st296{fill:#BBB2B0;}
	.st297{fill:#47302C;}
	.st298{fill:#5B4642;}
	.st299{fill:#6F5C5A;}
	.st300{fill:#503936;}
	.st301{fill:#412824;}
	.st302{fill:#A19493;}
	.st303{fill:#B1A6A4;}
	.st304{fill:#CBC4C3;}
	.st305{fill:#746260;}
	.st306{fill:#6E5C58;}
	.st307{fill:#BEB5B4;}
	.st308{fill:#A69B99;}
	.st309{fill:#CAC3C2;}
	.st310{fill:#5E4945;}
	.st311{fill:#9F9390;}
	.st312{fill:#B5ABAA;}
	.st313{fill:#715E5B;}
	.st314{fill:#7F6E6B;}
	.st315{fill:#938684;}
	.st316{fill:#B2A8A6;}
	.st317{fill:#543D3A;}
	.st318{fill:#74615F;}
	.st319{fill:#837270;}
	.st320{fill:#877876;}
	.st321{fill:#74635F;}
	.st322{fill:#523B37;}
	.st323{fill:#7C6B68;}
	.st324{fill:#80706D;}
	.st325{fill:#402824;}
	.st326{fill:#766562;}
	.st327{fill:#6C5855;}
	.st328{fill:#442B27;}
	.st329{fill:#756260;}
	.st330{fill:#766462;}
	.st331{fill:#7C6B69;}
	.st332{fill:#A99F9D;}
	.st333{fill:#CEC7C6;}
	.st334{fill:#877774;}
	.st335{fill:#BFB7B6;}
	.st336{fill:#AFA5A4;}
	.st337{fill:#8C6239;}
	.st338{font-family:'GreatVibes-Regular';}
	.st339{font-size:80.5814px;}
	.st340{font-family:'TrajanPro-Regular';}
	.st341{font-size:39.2153px;}
	.st342{fill:#422925;}
	.st343{fill:#422A26;}
	.st344{fill:#432B27;}
	.st345{fill:#452D29;}
	.st346{fill:#5D4844;}
	.st347{fill:#9F9391;}
	.st348{fill:#4D3733;}
	.st349{fill:#462E2B;}
	.st350{fill:#543E3B;}
	.st351{fill:#685551;}
	.st352{fill:#553F3C;}
	.st353{fill:#503A36;}
	.st354{fill:#4E3734;}
	.st355{fill:#57413E;}
	.st356{fill:#48302D;}
	.st357{fill:#7A6866;}
	.st358{fill:#7B6B68;}
	.st359{fill:#7B6967;}
	.st360{fill:#5E4A46;}
	.st361{fill:#4B332F;}
	.st362{fill:#4B3330;}
	.st363{fill:#4E3733;}
	.st364{fill:#472F2C;}
	.st365{fill:#55403C;}
	.st366{fill:#584340;}
	.st367{fill:#7D6C69;}
	.st368{fill:#65524F;}
	.st369{fill:#513A37;}
	.st370{fill:#746360;}
	.st371{fill:#857573;}
	.st372{fill:#877775;}
	.st373{fill:#432A26;}
	.st374{fill:#978A88;}
	.st375{fill:#F5F4F4;}
	.st376{fill:#B1A8A6;}
	.st377{fill:#A69A99;}
	.st378{fill:#553E3B;}
	.st379{fill:#D0CBCA;}
	.st380{fill:#6A5654;}
	.st381{fill:#918380;}
	.st382{fill:#AEA3A2;}
	.st383{fill:#7B6A68;}
	.st384{fill:#D4CFCE;}
	.st385{fill:#6B5754;}
	.st386{fill:#73605D;}
	.st387{fill:#857674;}
	.st388{fill:#948785;}
	.st389{fill:#D2CCCC;}
	.st390{fill:#A19694;}
	.st391{fill:#8F817F;}
	.st392{fill:#B2A8A7;}
	.st393{fill:#72615E;}
	.st394{fill:#B3A9A8;}
	.st395{opacity:0.17;}
	.st396{font-size:30px;}
	.st397{font-size:29.348px;}
	.st398{fill:#C9961A;}
	.st399{font-size:21.9524px;}
	.st400{font-size:27.3847px;}
	.st401{font-size:25.9895px;}
	.st402{fill:#754C24;}
	.st403{font-size:35px;}
	.st404{fill:#FDFDFD;}
	.st405{fill:#49312E;}
	.st406{fill:#462F2B;}
	.st407{fill:#9B8F8D;}
	.st408{fill:#624E4A;}
	.st409{fill:#4F3935;}
	.st410{fill:#604C49;}
	.st411{fill:#665350;}
	.st412{fill:#FDFCFC;}
	.st413{fill:#FBFBFB;}
	.st414{fill:#FEFDFD;}
	.st415{fill:#FCFCFC;}
	.st416{fill:#FAF9F9;}
	.st417{fill:#FCFBFB;}
	.st418{fill:#F9F8F8;}
	.st419{fill:#FBFAFA;}
	.st420{fill:#F8F7F7;}
	.st421{fill:#F4F3F3;}
	.st422{fill:#F6F5F5;}
	.st423{fill:#F1EFEF;}
	.st424{fill:#DAD6D5;}
	.st425{fill:#E5E1E1;}
	.st426{fill:#DFDBDB;}
	.st427{fill:#C3BBBA;}
	.st428{fill:#ECEAEA;}
	.st429{fill:#A89D9C;}
	.st430{fill:#DBD7D6;}
	.st431{fill:#C6BFBE;}
	.st432{fill:#EFEDEC;}
	.st433{fill:#BFB7B5;}
	.st434{fill:#CFC8C7;}
	.st435{fill:#F2F0F0;}
	.st436{fill:#D2CCCB;}
	.st437{fill:#EAE7E7;}
	.st438{fill:#E3DFDF;}
	.st439{fill:#D9D4D3;}
	.st440{fill:#9A8E8C;}
	.st441{fill:#D1CCCB;}
	.st442{fill:#D5CFCF;}
	.st443{fill:#837471;}
	.st444{fill:#8D7F7D;}
	.st445{fill:#7E6D6B;}
	.st446{fill:#9D918F;}
	.st447{fill:#7D6D6A;}
	.st448{fill:#897A77;}
	.st449{fill:#B1A7A5;}
	.st450{fill:#422926;}
	.st451{fill:#553F3B;}
	.st452{fill:none;stroke:#000000;stroke-miterlimit:10;}
	.st453{fill:#F9FAFA;}
	.st454{fill:#FCFCFD;}
	.st455{fill:none;stroke:#FFFFFF;}
	.st456{font-size:129.9287px;}
	.st457{letter-spacing:-2;}
	.st458{fill:#603813;}
	.st459{fill:#603813;stroke:#603813;stroke-width:2;stroke-miterlimit:10;}
	.st460{font-size:46.9618px;}
	.st461{fill:#C69C6D;}
	
		.st462{fill:none;stroke:url(#SVGID_00000090262325856798657030000011125977288679745434_);stroke-width:2.852;stroke-miterlimit:10;}
	
		.st463{fill:none;stroke:url(#SVGID_00000176740449763303507380000015041540799981909181_);stroke-width:2.852;stroke-miterlimit:10;}
	
		.st464{fill:none;stroke:url(#SVGID_00000179620328817324194200000011440383018841311421_);stroke-width:2.852;stroke-miterlimit:10;}
	
		.st465{fill:none;stroke:url(#SVGID_00000016056310181348951380000008940493531903159432_);stroke-width:2.852;stroke-miterlimit:10;}
	.st466{font-size:65px;}
	.st467{letter-spacing:13;}
	.st468{font-size:67.0179px;}
	.st469{font-size:43.8358px;}
	.st470{fill:none;}
	.st471{fill:none;stroke:#8C6239;stroke-miterlimit:10;}
	.st472{fill:#A67C52;}
	.st473{opacity:0.35;}
	.st474{font-family:'josephsophia';}
	.st475{font-size:483.7165px;}
	.st476{fill:none;stroke:#FFFFFF;stroke-width:2;stroke-linecap:round;stroke-linejoin:round;stroke-miterlimit:10;}
	.st477{fill:#666666;}
	.st478{fill:#FBF4F1;}
	.st479{fill:#FAF2EE;}
	.st480{fill:#F7E9E2;}
	.st481{fill:#F9EFEA;}
	.st482{fill:#F8ECE6;}
	.st483{fill:#F8EDE8;}
	.st484{fill:#F4E3DA;}
	.st485{fill:#F7E7E0;}
	.st486{fill:#F5E4DC;}
	.st487{fill:#F8EEE8;}
	.st488{fill:#FAF1EC;}
	.st489{fill:#FAF3EF;}
	.st490{fill:#F9F0EC;}
	.st491{fill:#F7E9E3;}
	.st492{fill:#F7EAE3;}
	.st493{fill:#F6E8E1;}
	.st494{fill:#F5E2D9;}
	.st495{fill:#F9EEE9;}
	.st496{fill:#F6E6DE;}
	.st497{fill:#F6E5DC;}
	.st498{fill:#F9EFEB;}
	.st499{fill:#F6E4DC;}
	.st500{fill:#F8ECE5;}
	.st501{fill:#F7E8E1;}
	.st502{fill:#F8EDE7;}
	.st503{fill:#F6E6DD;}
	.st504{fill:#FBF5F1;}
	.st505{fill:#F6E7DF;}
	.st506{fill:#F7EAE4;}
	.st507{fill:#FCF7F5;}
	.st508{fill:#FDFBFA;}
	.st509{fill:#FAF0EC;}
	.st510{fill:#FBF4F0;}
	.st511{fill:#F7EBE5;}
	.st512{fill:#FCFBF9;}
	.st513{fill:#FAF3F0;}
	.st514{fill:#FAF2EF;}
	.st515{fill:#F7E8E2;}
	.st516{fill:#FAF1ED;}
	.st517{fill:#FCF9F7;}
	.st518{fill:#FEFDFC;}
	.st519{fill:#FBF3F0;}
	.st520{fill:#FBF6F3;}
	.st521{fill:#FBF5F2;}
	.st522{fill:#F8EBE6;}
	.st523{fill:#F9EEEA;}
	.st524{fill:#F6E7E0;}
	.st525{fill:#FDFAF8;}
	.st526{fill:#F6E9E2;}
	.st527{fill:#F4E2D9;}
	.st528{fill:#F5E5DE;}
	.st529{fill:#F3DDD3;}
	.st530{fill:#F3E0D6;}
	.st531{fill:#F3DFD6;}
	.st532{fill:#F3E0D7;}
	.st533{fill:#F8EAE4;}
	.st534{fill:#F1DACF;}
	.st535{fill:#F1D7CB;}
	.st536{fill:#F2DBCF;}
	.st537{fill:#F3DFD5;}
	.st538{fill:#F0D7CB;}
	.st539{fill:#F6E5DD;}
	.st540{fill:#F8EBE5;}
	.st541{fill:#FBF6F4;}
	.st542{fill:#FCF8F7;}
	.st543{fill:#FBF7F4;}
	.st544{fill:#F4E1D8;}
	.st545{fill:#F5E5DD;}
	.st546{fill:#F6E6DF;}
	.st547{fill:#FDFBF9;}
	.st548{fill:#FAF4F0;}
	.st549{fill:#F1D9CD;}
	.st550{fill:#FBF3EF;}
	.st551{fill:#FDFBFB;}
	.st552{fill:#F9F0EB;}
	.st553{fill:#F8EEE9;}
	.st554{fill:#F3DED4;}
	.st555{fill:#F9F1EC;}
	.st556{fill:#F5E4DB;}
	.st557{fill:#F4DFD6;}
	.st558{fill:#F8ECE7;}
	.st559{fill:#F2DCD1;}
	.st560{fill:#F2DBD0;}
	.st561{fill:#F0D6C9;}
	.st562{fill:#F2DCD2;}
	.st563{fill:#F5E3DB;}
	.st564{fill:#F1DACE;}
	.st565{fill:#F1D9CE;}
	.st566{fill:#F2DACE;}
	.st567{fill:#F1D8CC;}
	.st568{fill:#F4E0D7;}
	.st569{fill:#1B171F;}
	.st570{fill:#AF805A;}
	.st571{fill:#F9EBE5;}
	.st572{fill:#FAEFEB;}
	.st573{fill:#FAEDE8;}
	.st574{fill:#F9EAE4;}
	.st575{fill:#FCF5F2;}
	.st576{fill:#FCF5F3;}
	.st577{fill:#FCF6F4;}
	.st578{fill:#FBF2EE;}
	.st579{fill:#FBF0EC;}
	.st580{fill:#FDF8F6;}
	.st581{fill:#FCF4F1;}
	.st582{fill:#FBF2EF;}
	.st583{fill:#F8E3DB;}
	.st584{fill:#F6DDD4;}
	.st585{fill:#F9E9E3;}
	.st586{fill:#F7E0D8;}
	.st587{fill:#F7DED6;}
	.st588{fill:#FDFAF9;}
	.st589{fill:#F8E5DF;}
	.st590{fill:#FAEEEA;}
	.st591{fill:#FCF7F4;}
	.st592{fill:#FDF8F7;}
	.st593{fill:#F8E5DE;}
	.st594{fill:#F9EBE6;}
	.st595{fill:#F9E8E3;}
	.st596{fill:#F9E7E1;}
	.st597{fill:#F9E9E4;}
	.st598{fill:#F8E3DC;}
	.st599{fill:#F7DFD7;}
	.st600{fill:#FAECE7;}
	.st601{fill:#F7E1D9;}
	.st602{fill:#FDF9F8;}
	.st603{fill:#FAECE8;}
	.st604{fill:#F8E6DF;}
	.st605{fill:#F9E8E2;}
	.st606{fill:#F8E4DD;}
	.st607{fill:#F5D9CF;}
	.st608{fill:#F8E6E0;}
	.st609{fill:#FAEBE6;}
	.st610{fill:#F7E1DA;}
	.st611{fill:#F6DBD2;}
	.st612{fill:#F7DED5;}
	.st613{fill:#F6DCD3;}
	.st614{fill:#F5DAD0;}
	.st615{fill:#F6DBD1;}
	.st616{fill:#F6DDD5;}
	.st617{fill:#F6DED5;}
	.st618{fill:#F7E2DB;}
	.st619{fill:#F9EAE5;}
	.st620{fill:#F9E6E0;}
	.st621{fill:#F8E2DB;}
	.st622{fill:#FAEDE9;}
	.st623{fill:#F7E2DA;}
	.st624{fill:#F8E2DA;}
	.st625{fill:#F7E0D7;}
	.st626{fill:#F8E7E0;}
	.st627{fill:#F7E2DC;}
	.st628{fill:#F7DFD6;}
	.st629{fill:#F9E8E1;}
	.st630{fill:#FBEFEB;}
	.st631{fill:#FBEFEC;}
	.st632{fill:#F9E7E0;}
	.st633{fill:#FBF1ED;}
	.st634{fill:#F8ECE8;}
	.st635{fill:#F7EBE6;}
	.st636{fill:#F5E4DD;}
	.st637{fill:#F6E8E2;}
	.st638{fill:#F3E0D8;}
	.st639{fill:#F3DFD7;}
	.st640{fill:#F6E6E0;}
	.st641{fill:#F5E6DF;}
	.st642{fill:#F6E8E3;}
	.st643{fill:#F4E1D9;}
	.st644{fill:#F2DBD2;}
	.st645{fill:#EBC8BB;}
	.st646{fill:#F7E9E4;}
	.st647{fill:#F5E4DE;}
	.st648{fill:#FAF1EE;}
	.st649{fill:#F4E2DB;}
	.st650{fill:#F8EDE9;}
	.st651{fill:#F9F1EE;}
	.st652{fill:#F2DCD3;}
	.st653{fill:#F8EEEA;}
	.st654{fill:#F2DCD4;}
	.st655{fill:#F1DAD1;}
	.st656{fill:#F4E3DC;}
	.st657{fill:#F5E5DF;}
	.st658{fill:#FBF7F5;}
	.st659{fill:#F0D8CE;}
	.st660{fill:#F0D6CC;}
	.st661{fill:#EFD5CA;}
	.st662{fill:#F5E3DC;}
	.st663{fill:#F4E0D8;}
	.st664{fill:#F1D9CF;}
	.st665{fill:#F2DDD5;}
	.st666{fill:#F2DED5;}
	.st667{fill:#F4E1DA;}
	.st668{fill:#F3E0D9;}
	.st669{fill:#F4E3DB;}
	.st670{fill:#F7EAE5;}
	.st671{fill:#EDCFC2;}
	.st672{fill:#ECCDC0;}
	.st673{fill:#F3DED6;}
	.st674{fill:#F6E5DF;}
	.st675{fill:#EFD5CB;}
	.st676{fill:#F2DDD4;}
	.st677{fill:#EDCEC1;}
	.st678{fill:#F1DAD0;}
	.st679{fill:#F4E2DC;}
	.st680{fill:#EFD4C9;}
	.st681{fill:#EFD2C7;}
	.st682{fill:#F6E7E1;}
	.st683{fill:#F8EBE7;}
	.st684{fill:#F1DBD1;}
	.st685{fill:#F1D9D0;}
	.st686{fill:#EBCBBE;}
	.st687{fill:#EED2C7;}
	.st688{fill:#F8E4DE;}
	.st689{fill:#FCF6F3;}
	.st690{fill:#FAEEE9;}
	.st691{fill:#FCF4F2;}
	.st692{fill:#FDF9F7;}
	.st693{fill:#FCF8F6;}
	.st694{fill:#F8E4DC;}
	.st695{fill:#F6DAD1;}
	.st696{fill:#FBF1EE;}
	.st697{fill:#F6DCD2;}
	.st698{fill:#F7E4DD;}
	.st699{fill:#FBF0ED;}
	.st700{fill:#F5E3DD;}
	.st701{fill:#F6E7E2;}
	.st702{fill:#F7EAE6;}
	.st703{fill:#F9EFEC;}
	.st704{fill:#F6E8E4;}
	.st705{fill:#F6E9E4;}
	.st706{fill:#F8EDEA;}
	.st707{fill:#FAF3F1;}
	.st708{fill:#F8EEEB;}
	.st709{fill:#FCF9F8;}
	.st710{fill:#FBF4F2;}
	.st711{fill:#F3DED7;}
	.st712{fill:#F9F1ED;}
	.st713{fill:#F4E2DA;}
	.st714{fill:#F7E8E3;}
	.st715{fill:#FDFCFB;}
	.st716{fill:#FAF4F1;}
	.st717{fill:#F1D8CF;}
	.st718{fill:#F0D6CB;}
	.st719{fill:#F2DBD1;}
	.st720{fill:#EFD3C8;}
	.st721{fill:#EED2C6;}
	.st722{fill:#EED1C5;}
	.st723{fill:#F0D7CD;}
	.st724{fill:#EBCABD;}
	.st725{fill:#ECCCC0;}
	.st726{fill:#EDCFC3;}
	.st727{fill:#F1D8CE;}
	.st728{fill:#F7ECE7;}
	.st729{fill:#EAC6B9;}
	.st730{fill:#EAC6B8;}
	.st731{fill:#ECCCBF;}
	.st732{fill:#EED0C5;}
	.st733{fill:#EDD0C4;}
	.st734{fill:#EFD6CB;}
	.st735{fill:#F0D7CC;}
	.st736{fill:#F0D5CB;}
	.st737{fill:#EED1C6;}
	.st738{fill:#F3DDD5;}
	.st739{fill:#F1DBD2;}
	.st740{fill:#F2DAD1;}
	.st741{fill:#F0D7CE;}
	.st742{fill:#FBF5F3;}
	.st743{fill:#F3DDD4;}
	.st744{fill:#F0D8CD;}
	.st745{fill:#F9F0ED;}
	.st746{fill:#EBCABC;}
	.st747{fill:#EDCEC2;}
	.st748{fill:#ECCBBE;}
	.st749{fill:#EBC9BC;}
	.st750{fill:#EED0C4;}
	.st751{fill:#F4E0D9;}
	.st752{fill:#EDD0C3;}
	.st753{fill:#EFD3C7;}
	.st754{fill:none;stroke:#1B171F;stroke-miterlimit:10;stroke-dasharray:5,5;}
	.st755{opacity:0.2;}
	.st756{opacity:0.2;fill:#FFFFFF;}
	.st757{fill:#B17F49;}
	.st758{font-size:18.6192px;}
	.st759{clip-path:url(#SVGID_00000121972033439349173590000014131262705006200739_);}
	.st760{font-size:37.3972px;}
	.st761{opacity:0.48;fill:#C69C6D;}
	.st762{font-size:122.6501px;}
	.st763{letter-spacing:4;}
	.st764{font-size:30.425px;}
	.st765{fill:#454C52;}
	.st766{font-size:171.5526px;}
	.st767{letter-spacing:-3;}
</style></defs><g id="object-3" transform="matrix(0.9999999999999999, 0, 0, 0.9999999999999999, 0, 0)"><g id="object-0"><path class="st470" d="M867.13,12793.62c-1.84-14.2-9.9-26.46-21.36-33.97C846.4,12766.71,849.76,12783.33,867.13,12793.62z"/><path class="st470" d="M837.81,12755.44c-5.64-2.33-11.81-3.62-18.28-3.62c-19.05,0-35.54,11.14-43.29,27.25&#10;&#9;&#9;&#9;&#9;C788.35,12777.71,822.61,12772.46,837.81,12755.44z"/><path class="st470" d="M841.76,12774.32c-1.37-3.61-2.2-6.98-2.71-9.83c-8.46,7.33-20.78,13.13-36.8,17.28&#10;&#9;&#9;&#9;&#9;c-13.62,3.53-25.49,4.69-28.91,4.96c-1.18,4.17-1.83,8.56-1.83,13.1c0,26.48,21.54,48.02,48.02,48.02&#10;&#9;&#9;&#9;&#9;c25.7,0,46.75-20.3,47.96-45.71C852.18,12794.66,845.05,12782.99,841.76,12774.32z M831.28,12789.35c3.07,0,5.55,2.49,5.55,5.55&#10;&#9;&#9;&#9;&#9;c0,0.09-0.01,0.17-0.01,0.26h-11.07c0-0.09-0.01-0.17-0.01-0.26C825.73,12791.83,828.21,12789.35,831.28,12789.35z&#10;&#9;&#9;&#9;&#9; M802.39,12789.35c3.06,0,5.55,2.49,5.55,5.55s-2.48,5.55-5.55,5.55c-3.07,0-5.55-2.49-5.55-5.55&#10;&#9;&#9;&#9;&#9;S799.32,12789.35,802.39,12789.35z M847.84,12827.96c-0.71,1.03-1.86,1.58-3.02,1.58c-0.72,0-1.45-0.21-2.09-0.66&#10;&#9;&#9;&#9;&#9;c-1.09-0.75-2.01-1.55-2.81-2.38c-5.82,5.92-13.82,9.27-22.4,9.27c-9.67,0-18.61-4.24-24.51-11.64&#10;&#9;&#9;&#9;&#9;c-1.27-1.58-1.01-3.89,0.58-5.16c1.58-1.26,3.89-1.01,5.16,0.58c4.51,5.64,11.35,8.88,18.78,8.88c7.3,0,14.02-3.13,18.53-8.59&#10;&#9;&#9;&#9;&#9;c-0.92-3.2-0.54-5.72-0.51-5.91c0.32-2,2.21-3.36,4.21-3.04c1.99,0.32,3.34,2.18,3.05,4.16c-0.56,4.41,3.64,7.46,4.12,7.79&#10;&#9;&#9;&#9;&#9;C848.58,12824.01,849,12826.3,847.84,12827.96z"/><path class="st765" d="M846.92,12822.85c-0.48-0.33-4.68-3.38-4.12-7.79c0.29-1.98-1.06-3.84-3.05-4.16&#10;&#9;&#9;&#9;&#9;c-2-0.32-3.89,1.04-4.21,3.04c-0.03,0.19-0.41,2.71,0.51,5.91c-4.51,5.46-11.24,8.59-18.53,8.59c-7.43,0-14.27-3.24-18.78-8.88&#10;&#9;&#9;&#9;&#9;c-1.27-1.58-3.58-1.84-5.16-0.58c-1.58,1.27-1.84,3.58-0.58,5.16c5.91,7.4,14.84,11.64,24.51,11.64c8.58,0,16.58-3.35,22.4-9.27&#10;&#9;&#9;&#9;&#9;c0.79,0.82,1.72,1.62,2.81,2.38c0.64,0.44,1.37,0.66,2.09,0.66c1.16,0,2.31-0.55,3.02-1.58&#10;&#9;&#9;&#9;&#9;C849,12826.3,848.58,12824.01,846.92,12822.85z"/><path class="st765" d="M836.81,12795.16c0-0.09,0.01-0.17,0.01-0.26c0-3.06-2.48-5.55-5.55-5.55c-3.06,0-5.55,2.49-5.55,5.55&#10;&#9;&#9;&#9;&#9;c0,0.09,0.01,0.17,0.01,0.26H836.81z"/><path class="st765" d="M802.39,12800.45c3.06,0,5.55-2.49,5.55-5.55s-2.48-5.55-5.55-5.55c-3.07,0-5.55,2.49-5.55,5.55&#10;&#9;&#9;&#9;&#9;S799.32,12800.45,802.39,12800.45z"/><path class="st765" d="M874.92,12799.86c0-0.01,0-0.01,0-0.02c0-20.74-11.49-38.85-28.42-48.33c-1.26-3.19-2.98-9.2,0.31-12.49&#10;&#9;&#9;&#9;&#9;c2.41-2.41,5.05-0.74,5.81-0.17c1.59,1.2,2.8,3.36,1.73,5.28c-0.99,1.77-0.35,4.01,1.42,4.99c1.77,0.99,4.01,0.35,4.99-1.42&#10;&#9;&#9;&#9;&#9;c2.7-4.86,1.13-11.04-3.73-14.71c-4.97-3.75-11.17-3.41-15.42,0.85c-4,4-4.45,9.26-3.77,13.78c-5.74-2.02-11.9-3.13-18.32-3.13&#10;&#9;&#9;&#9;&#9;c-30.53,0-55.36,24.84-55.36,55.36c0,30.53,24.84,55.36,55.36,55.36c30.49,0,55.32-24.78,55.38-55.26&#10;&#9;&#9;&#9;&#9;C874.9,12799.91,874.92,12799.88,874.92,12799.86z M873.89,12797.31c-0.33-0.35-0.73-0.63-1.19-0.84&#10;&#9;&#9;&#9;&#9;C873.16,12796.68,873.56,12796.96,873.89,12797.31z M872.3,12796c-19.35-11.47-23.09-29.97-23.79-37.84&#10;&#9;&#9;&#9;&#9;C861.27,12766.52,870.25,12780.19,872.3,12796z M819.28,12749.43c7.21,0,14.08,1.44,20.36,4.04&#10;&#9;&#9;&#9;&#9;c-16.93,18.96-55.09,24.81-68.59,26.32C779.7,12761.85,798.07,12749.43,819.28,12749.43z M819.53,12850.91&#10;&#9;&#9;&#9;&#9;c-28.42,0-51.54-23.12-51.54-51.54c0-4.87,0.69-9.58,1.96-14.06c3.68-0.3,16.41-1.54,31.03-5.33&#10;&#9;&#9;&#9;&#9;c17.2-4.46,30.42-10.68,39.5-18.55c0.54,3.05,1.43,6.67,2.91,10.55c3.54,9.3,11.19,21.83,27.61,29.86&#10;&#9;&#9;&#9;&#9;C869.7,12829.12,847.11,12850.91,819.53,12850.91z M873.62,12802.61c0.4-0.35,0.73-0.78,0.96-1.3&#10;&#9;&#9;&#9;&#9;C874.35,12801.83,874.02,12802.26,873.62,12802.61z"/></g><g id="object-1"><path class="st470" d="M951.79,12752.19c3.11-2.81,3.44-7.91,3.57-10c0.2-3.05-0.23-5.31-1.2-6.34&#10;&#9;&#9;&#9;&#9;c-0.21-0.22-0.84-0.89-2.74-0.89c-4.78,0-12.71,4.1-20.01,10.08C938.77,12746.07,945.66,12748.55,951.79,12752.19z"/><path class="st470" d="M895.87,12734.95c-1.9,0-2.53,0.67-2.74,0.89c-0.97,1.04-1.4,3.29-1.2,6.34&#10;&#9;&#9;&#9;&#9;c0.35,5.44,1.84,8.39,3.54,10.01c6.14-3.65,13.04-6.13,20.41-7.17C908.58,12739.05,900.66,12734.95,895.87,12734.95z"/><path class="st8" d="M971.12,12792.64c-3.25-21.54-20.86-38.43-42.73-40.59C933.93,12765.08,957.07,12782.99,971.12,12792.64z" style="visibility: hidden;"/><path class="st8" d="M918.88,12752.05c-21.87,2.16-39.48,19.05-42.73,40.58C890.21,12782.98,913.34,12765.08,918.88,12752.05z" style="visibility: hidden;" id="object-2"/><path class="st8" d="M948.84,12785.16c-12.29-9.96-20.72-18.8-25.2-26.38c-4.47,7.58-12.9,16.42-25.2,26.38&#10;&#9;&#9;&#9;&#9;c-9.73,7.88-19.01,14.15-22.78,16.63c1.03,25.57,22.15,46.06,47.97,46.06c25.82,0,46.94-20.49,47.97-46.06&#10;&#9;&#9;&#9;&#9;C967.84,12799.32,958.56,12793.05,948.84,12785.16z M938.08,12789.35c3.07,0,5.55,2.49,5.55,5.55s-2.48,5.55-5.55,5.55&#10;&#9;&#9;&#9;&#9;c-3.06,0-5.55-2.49-5.55-5.55S935.02,12789.35,938.08,12789.35z M909.19,12789.35c3.06,0,5.55,2.49,5.55,5.55&#10;&#9;&#9;&#9;&#9;s-2.49,5.55-5.55,5.55c-3.07,0-5.55-2.49-5.55-5.55S906.13,12789.35,909.19,12789.35z M948.15,12824.14&#10;&#9;&#9;&#9;&#9;c-5.91,7.4-14.84,11.64-24.51,11.64c-9.67,0-18.61-4.24-24.51-11.64c-1.27-1.58-1.01-3.89,0.58-5.16&#10;&#9;&#9;&#9;&#9;c1.58-1.27,3.89-1.01,5.16,0.58c4.51,5.64,11.35,8.88,18.78,8.88c7.43,0,14.27-3.24,18.78-8.88c1.26-1.58,3.57-1.84,5.16-0.58&#10;&#9;&#9;&#9;&#9;C949.16,12820.24,949.42,12822.55,948.15,12824.14z" style="visibility: hidden;"/><path class="st765" d="M979,12799.76c0-0.02,0-0.03,0-0.04c-0.04-17.53-8.28-33.17-21.07-43.29c2.43-2.8,4.33-7.12,4.76-13.76&#10;&#9;&#9;&#9;&#9;c0.34-5.25-0.73-9.23-3.18-11.84c-1.38-1.47-3.9-3.22-8.09-3.22c-5.4,0-11.46,2.92-15.59,5.36c-4.16,2.46-8.38,5.62-12.18,9.07&#10;&#9;&#9;&#9;&#9;c-3.8-3.45-8.03-6.61-12.18-9.07c-4.13-2.45-10.19-5.36-15.59-5.36c-4.2,0-6.72,1.75-8.09,3.22c-2.45,2.61-3.51,6.59-3.18,11.84&#10;&#9;&#9;&#9;&#9;c0.43,6.63,2.31,10.94,4.73,13.75c-12.8,10.13-21.1,25.77-21.1,43.31c0,0.01,0,0.02,0,0.03c0,0.03,0.01,0.06,0.01,0.09&#10;&#9;&#9;&#9;&#9;c0,30.53,24.84,55.36,55.37,55.36c30.53,0,55.37-24.84,55.37-55.36C979,12799.81,979,12799.78,979,12799.76z M923.64,12851&#10;&#9;&#9;&#9;&#9;c-27.65,0-50.26-21.94-51.36-49.31c4.04-2.65,13.97-9.37,24.39-17.81c13.16-10.67,22.19-20.12,26.98-28.24&#10;&#9;&#9;&#9;&#9;c4.79,8.12,13.82,17.58,26.98,28.24c10.41,8.44,20.35,15.15,24.38,17.81C973.89,12829.07,951.28,12851,923.64,12851z&#10;&#9;&#9;&#9;&#9; M928.78,12750.39c23.66,2.34,42.7,20.61,46.22,43.91C959.8,12783.86,934.77,12764.49,928.78,12750.39z M918.5,12750.39&#10;&#9;&#9;&#9;&#9;c-5.99,14.09-31.02,33.46-46.22,43.9C875.79,12771,894.84,12752.73,918.5,12750.39z M951.42,12734.95c1.9,0,2.53,0.67,2.74,0.89&#10;&#9;&#9;&#9;&#9;c0.97,1.04,1.4,3.29,1.2,6.34c-0.13,2.09-0.47,7.19-3.57,10c-6.13-3.64-13.02-6.12-20.37-7.16&#10;&#9;&#9;&#9;&#9;C938.71,12739.05,946.64,12734.95,951.42,12734.95z M891.93,12742.19c-0.2-3.05,0.23-5.31,1.2-6.34&#10;&#9;&#9;&#9;&#9;c0.21-0.22,0.84-0.89,2.74-0.89c4.78,0,12.71,4.1,20,10.07c-7.36,1.04-14.26,3.53-20.41,7.17&#10;&#9;&#9;&#9;&#9;C893.77,12750.58,892.28,12747.63,891.93,12742.19z"/><path class="st765" d="M938.08,12800.45c3.07,0,5.55-2.49,5.55-5.55s-2.48-5.55-5.55-5.55c-3.06,0-5.55,2.49-5.55,5.55&#10;&#9;&#9;&#9;&#9;S935.02,12800.45,938.08,12800.45z"/><path class="st765" d="M909.19,12800.45c3.06,0,5.55-2.49,5.55-5.55s-2.49-5.55-5.55-5.55c-3.07,0-5.55,2.49-5.55,5.55&#10;&#9;&#9;&#9;&#9;S906.13,12800.45,909.19,12800.45z"/><path class="st765" d="M947.57,12818.98c-1.59-1.27-3.9-1.01-5.16,0.58c-4.51,5.64-11.35,8.88-18.78,8.88&#10;&#9;&#9;&#9;&#9;c-7.43,0-14.27-3.24-18.78-8.88c-1.27-1.58-3.57-1.84-5.16-0.58c-1.58,1.27-1.84,3.58-0.58,5.16&#10;&#9;&#9;&#9;&#9;c5.91,7.4,14.84,11.64,24.51,11.64c9.67,0,18.61-4.24,24.51-11.64C949.42,12822.55,949.16,12820.24,947.57,12818.98z"/></g></g></svg>