<svg viewBox="1117.8973 7610.479 97.91 154.4102" xmlns="http://www.w3.org/2000/svg">
  <g id="vPguQR.tif" transform="matrix(1, 0, 0, 1, 5.684341886080802e-14, 9.094947017729282e-13)">
    <g>
      <path d="M1148.797,7684.23c2.115-6.779,5.563-13.11,6.495-20.303c0.413-3.19,2.197-5.059,5.924-4.132&#10;&#9;&#9;&#9;c1.894,0.471,3.948,0.481,5.921,0.416c8.562-0.283,11.118-2.458,12.973-10.81c2.192-9.865,2.192-9.866-7.977-9.865&#10;&#9;&#9;&#9;c-6.63,0-13.262,0.08-19.89-0.033c-2.864-0.049-3.889,0.628-2.931,3.732c3.938,12.75,1.526,24.902-3.834,36.721&#10;&#9;&#9;&#9;c-0.659,1.453-1.382,2.86-3.262,2.131c-1.901-0.737-1.526-2.488-1.005-3.84c2.023-5.254,4.42-10.364,5.207-16.033&#10;&#9;&#9;&#9;c0.571-4.112,0.643-8.166-0.377-13.578c-4.868,4.979-8.931,9.231-13.104,13.372c-3.589,3.561-5.177,3.395-8.43-0.593&#10;&#9;&#9;&#9;c-12.986-15.916-5.974-41.241,13.495-48.866c1.65-0.646,3.607-0.6,4.914-2.068c4.31,0,8.62,0,12.93,0&#10;&#9;&#9;&#9;c5.322,0.627,10.225,2.248,14.386,5.811c3.458,2.962,3.782,5.347,0.876,8.926c-2.264,2.788-5.19,5.004-7.928,8.616&#10;&#9;&#9;&#9;c6.041,0.464,11.251,0.369,16.458,0.09c1.48-0.08,2.538-1.092,2.718-2.516c1.498-11.867,11.516-15.233,19.955-20.178&#10;&#9;&#9;&#9;c0.426-0.25,0.891-0.432,1.278-0.75c0.995,0,1.989,0,2.984,0c3.042,2.209,1.043,4.049-0.589,5.644&#10;&#9;&#9;&#9;c-2.379,2.327-5.374,3.864-8.093,5.756c-2.04,1.42-4.178,2.719-5.924,4.514c-1.593,1.637-2.55,3.736-1.925,5.894&#10;&#9;&#9;&#9;c0.754,2.604,3.297,1.614,5.136,1.708c3.141,0.16,6.3-0.088,9.442,0.107c5.312,0.331,7.162,2.68,5.927,7.854&#10;&#9;&#9;&#9;c-1.586,6.643-3.024,13.204-1.637,20.135c0.923,4.613,2.796,8.839,4.291,13.227c3.868,11.356,3.726,22.526-2.429,33.102&#10;&#9;&#9;&#9;c-4.73,8.128-11.303,14.374-20.439,17.23c-4.02,1.256-5.657,3.396-5.347,7.579c0.282,3.796,0.303,7.65-0.004,11.442&#10;&#9;&#9;&#9;c-0.365,4.512,1.491,7.177,5.585,8.789c2.453,0.965,4.876,2.131,7.025,3.704c3.63,2.658,3.606,4.681,0.03,7.725&#10;&#9;&#9;&#9;c-13.925,0-27.85,0-41.775,0c-1.995-3.528-1.099-6.327,2.717-7.345c10.606-2.831,12.887-9.818,12.215-20.024&#10;&#9;&#9;&#9;c-0.467-7.095-0.774-11.508-8.977-14.395c-12.72-4.477-19.78-15.042-21.813-28.524c-0.303-2.007-1.586-5.396,1.704-5.796&#10;&#9;&#9;&#9;c3.179-0.386,1.926,3.125,2.59,4.933c0.285,0.776,0.481,1.585,0.717,2.38c1.376,1.136,1.602,2.859,2.203,4.382&#10;&#9;&#9;&#9;c4.992,12.633,16.778,20.396,30.794,20.259c12.902-0.125,24.47-8.189,28.95-20.596c3.345-9.263,1.986-18.291-2.384-26.961&#10;&#9;&#9;&#9;c-3.579-9.031-4.423-18.337-2.337-27.804c0.819-3.719-0.497-4.887-3.965-4.687c-1.814,0.104-3.649,0.133-5.459-0.004&#10;&#9;&#9;&#9;c-3.739-0.283-5.274,1.603-5.956,5.09c-1.19,6.087-1.335,6.059,4.88,6.244c5.655,0.168,10.219,8.167,7.592,13.268&#10;&#9;&#9;&#9;c-0.599,1.163-1.499,1.738-2.771,1.707c-2.204-0.055-3.025-1.642-3.8-3.381c-1.798-4.037-5.652-5.049-8.363-2.245&#10;&#9;&#9;&#9;c-1.228,1.271-1.372,2.979-1.708,4.59c-1.624,7.789-3.025,15.625-4.741,23.391c-0.665,3.009-0.546,7.983-5.023,7.069&#10;&#9;&#9;&#9;c-4.808-0.981-2.704-5.66-2.055-8.82c1.299-6.331,2.559-12.672,3.93-18.988c0.578-2.664-0.016-3.47-2.931-3.252&#10;&#9;&#9;&#9;c-10.139,0.755-10.151,0.638-13.666,10.516c-0.833,2.341-1.731,4.659-2.575,6.997c-4.528,12.537,4.807,24.062,13.117,27.234&#10;&#9;&#9;&#9;c11.106,4.241,23.565-0.371,28.674-11.008c2.634-5.486,2.358-11.25,0.846-17.004c-0.294-1.12-0.857-2.159-1.198-3.266&#10;&#9;&#9;&#9;c-0.785-2.541-2.028-5.56,1.253-6.931c3.067-1.283,4.229,1.582,5.359,3.828c3.348,7.709,4.601,15.516,1.401,23.644&#10;&#9;&#9;&#9;c-4.751,12.066-14.018,18.513-26.43,19.554c-11.161,0.937-20.153-4.014-26.546-13.477c-1.374-2.034-1.549-4.258-2.169-6.432&#10;&#9;&#9;&#9;c-1.282-1.426-0.581-3.327-1.173-4.919C1148.214,7690.817,1148.125,7687.522,1148.797,7684.23z"/>
      <path style="fill:#FEFEFE;" d="M1203.589,7610.481c-3.254,3.342-7.261,5.708-11.202,8.022c-5.119,3.005-8.269,7.023-8.607,12.988&#10;&#9;&#9;&#9;c-0.169,2.989-1.582,3.901-4.456,3.818c-5.941-0.171-11.891-0.051-19.504-0.051c3.764-3.812,6.669-6.735,9.553-9.681&#10;&#9;&#9;&#9;c3.992-4.078,3.771-5.447-0.735-8.994c-3.838-3.021-8.463-4.21-12.791-6.103&#10;&#9;&#9;&#9;C1171.76,7610.481,1187.675,7610.481,1203.589,7610.481z"/>
      <path style="fill:#FDFDFD;" d="M1149.92,7699.034c4.643,9.587,11.438,16.492,22.457,18.216c11.136,1.742,20.28-1.962,27.195-10.62&#10;&#9;&#9;&#9;c6.476-8.107,7.697-17.334,4.163-27.142c-0.389-1.081-0.721-2.182-1.079-3.274c0.596-1.406,1.571-2.446,2.966-3.082&#10;&#9;&#9;&#9;c6.722,11.687,6.073,25.681-2.328,36.201c-8.865,11.103-20.638,15.262-34.411,11.716c-12.847-3.308-21.183-11.565-23.882-24.931&#10;&#9;&#9;&#9;c2.059-2.342-0.05-5.451,1.726-8.529c0.087,4.361,0.383,8.109,1.764,11.638C1149.089,7700.757,1149.645,7700.602,1149.92,7699.034&#10;&#9;&#9;&#9;z"/>
      <path style="fill:#FDFDFD;" d="M1148.797,7684.23c-0.016,3.295-0.032,6.59-0.049,9.885&#10;&#9;&#9;&#9;C1147.382,7690.813,1147.309,7687.518,1148.797,7684.23z"/>
      <path style="fill:#F9FAFA;" d="M1189.66,7760.515c-8.323,0-16.645,0-25.003,0c0.086-0.492,0.075-1.02,0.2-1.054&#10;&#9;&#9;&#9;c9.18-2.547,11.029-9.106,9.996-17.589c-0.457-3.757-0.106-7.617-0.06-11.429c0.019-1.564-0.482-3.463,2.181-3.544&#10;&#9;&#9;&#9;c2.936-0.09,2.539,1.953,2.547,3.736c0.024,5.305,0.399,10.646-0.093,15.904c-0.55,5.865,1.451,9.555,7.051,11.365&#10;&#9;&#9;&#9;c1.211,0.391,2.291,1.188,3.432,1.798C1189.828,7759.972,1189.744,7760.243,1189.66,7760.515z"/>
      <path style="fill:#FDFDFD;" d="M1144.721,7643.932c-5.206,5.205-9.741,9.692-14.216,14.241c-1.328,1.35-2.206,0.967-3.134-0.401&#10;&#9;&#9;&#9;c-2.859-4.212-4.338-8.896-4.929-13.917c-0.201-1.708,0.352-2.575,2.141-2.36&#10;&#9;&#9;&#9;C1130.919,7642.253,1137.253,7643.027,1144.721,7643.932z"/>
      <path style="fill:#FDFDFD;" d="M1149.231,7617.573c-0.502-2.185,0.245-2.975,2.589-2.645c4.491,0.632,8.686,1.914,12.597,4.268&#10;&#9;&#9;&#9;c2.182,1.313,2.895,2.357,0.691,4.407c-3.641,3.385-7.019,7.052-10.612,10.492c-1.728,1.654-3.253,1.812-3.579-1.209&#10;&#9;&#9;&#9;C1150.368,7627.78,1149.795,7622.677,1149.231,7617.573z"/>
      <path style="fill:#FCFCFD;" d="M1145.524,7635.412c-3.93-4.184-7.847-8.379-11.798-12.542c-1.022-1.077-1.03-1.995,0.173-2.876&#10;&#9;&#9;&#9;c0.667-0.489,1.335-0.984,2.04-1.414c7.007-4.273,8.164-3.743,9.191,4.246c0.502,3.908,0.953,7.822,1.427,11.733&#10;&#9;&#9;&#9;C1146.213,7634.842,1145.868,7635.126,1145.524,7635.412z"/>
      <path style="fill:#FDFDFD;" d="M1141.701,7639.021c-5.338-0.601-10.367-1.257-15.414-1.7c-2.647-0.232-3.659-1.159-2.428-3.761&#10;&#9;&#9;&#9;c0.351-0.742,0.539-1.56,0.857-2.32c3.016-7.217,3.534-7.331,9.052-1.758c2.667,2.694,5.256,5.466,7.848,8.233&#10;&#9;&#9;&#9;C1141.781,7637.893,1141.666,7638.336,1141.701,7639.021z"/>
    </g>
  </g>
</svg>