
<svg viewBox="-1023.7097 -7134.056 91.153 68.6293" xmlns="http://www.w3.org/2000/svg">
  <path fill="#8C6239" d="M1097.403,279.275c2.552,0.22,5.152,0.284,7.798,0.189c2.646-0.095,5.372-0.442,8.176-1.04 c2.803-0.599,5.654-1.592,8.554-2.977c3.402-1.574,6.773-3.623,10.113-6.144c-4.599-3.843-8.789-8.285-12.57-13.327 c-1.764-2.394-3.355-4.804-4.774-7.231c-1.417-2.425-2.663-4.835-3.733-7.231c-1.072-2.457-1.906-4.835-2.506-7.136 c-0.599-2.3-0.93-4.49-0.992-6.569c-0.127-2.647,0.189-4.994,0.945-7.042c0.756-2.047,2.047-3.734,3.876-5.057 c1.322-1.008,2.835-1.574,4.536-1.702c1.26-0.125,2.552,0.017,3.876,0.426c1.324,0.411,2.614,1.025,3.875,1.843 c2.521,1.576,4.789,3.687,6.806,6.333c0.693,1.009,1.354,2.049,1.985,3.119c0.629,1.072,1.135,2.207,1.512,3.403 c0.882-2.394,2.017-4.505,3.402-6.333c1.953-2.835,4.38-5.135,7.278-6.9c1.449-0.881,2.915-1.543,4.395-1.985 c1.481-0.44,2.945-0.598,4.395-0.472c2.269,0.189,4.285,0.914,6.05,2.174c1.386,1.072,2.394,2.301,3.025,3.687 c0.881,1.828,1.259,3.922,1.134,6.285c-0.127,2.363-0.631,4.963-1.512,7.798c-0.883,2.647-2.112,5.42-3.686,8.318 c-1.576,2.9-3.402,5.829-5.482,8.791c-2.457,3.403-5.198,6.711-8.223,9.924c-3.025,3.214-6.238,6.207-9.641,8.979 c3.527,2.647,7.15,4.727,10.869,6.238c3.718,1.512,7.404,2.174,11.059,1.985c3.402-0.127,6.522-0.789,9.357-1.985 c2.836-1.198,5.419-2.772,7.751-4.726c2.584-2.204,4.804-4.757,6.664-7.656c1.858-2.898,3.324-6.05,4.395-9.453 c0.189-0.44,0.439-0.724,0.756-0.851c0.314-0.125,0.614-0.142,0.898-0.047c0.284,0.094,0.503,0.3,0.661,0.614 c0.157,0.315,0.173,0.694,0.047,1.134c-1.197,3.53-2.788,6.853-4.773,9.972c-1.985,3.119-4.334,5.813-7.041,8.081 c-2.586,2.205-5.42,3.954-8.507,5.246c-3.088,1.291-6.46,2-10.115,2.127c-4.033,0.189-8.098-0.552-12.193-2.221 c-4.097-1.671-8.035-3.985-11.814-6.948c-1.829,1.324-3.656,2.568-5.482,3.734c-1.829,1.165-3.688,2.189-5.577,3.072 c-3.088,1.448-6.081,2.488-8.979,3.119c-2.9,0.629-5.736,1.007-8.507,1.134c-2.774,0.125-5.467,0.062-8.081-0.189 M1118.434,218.356c-1.451,0.82-2.427,2.585-2.93,5.293c-0.506,2.71-0.411,6.049,0.284,10.019 c0.439,2.835,1.195,5.813,2.269,8.932c1.07,3.119,2.377,6.191,3.921,9.216c1.544,3.025,3.324,5.924,5.34,8.696 c2.016,2.774,4.253,5.198,6.712,7.278c3.402-2.647,6.616-5.576,9.641-8.79c3.025-3.214,5.766-6.522,8.223-9.925 c2.017-2.835,3.765-5.638,5.245-8.412c1.481-2.773,2.663-5.45,3.546-8.035c0.818-2.457,1.291-4.741,1.417-6.853 c0.125-2.111-0.158-3.923-0.851-5.435c-0.127-0.251-0.269-0.503-0.424-0.755c-0.159-0.251-0.331-0.473-0.521-0.662 c-0.566-0.693-1.197-1.134-1.89-1.324c-1.135-0.314-2.332-0.189-3.592,0.378c-1.451,0.568-2.963,1.481-4.537,2.741 c-1.322,1.072-2.614,2.332-3.875,3.781c-1.262,1.451-2.442,2.977-3.544,4.584c-1.103,1.608-2.08,3.23-2.931,4.868 c-0.85,1.64-1.497,3.214-1.937,4.727v0.189c-0.317,0.631-0.756,0.977-1.324,1.04c-0.568,0-1.072-0.189-1.512-0.568 c-0.252-0.251-0.472-0.629-0.661-1.134c-0.506-0.818-0.756-1.921-0.756-3.308c-0.127-1.952-0.584-3.843-1.37-5.672 c-0.789-1.826-1.781-3.528-2.978-5.104c-1.701-2.331-3.749-4.253-6.143-5.766c-0.694-0.44-1.497-0.661-2.411-0.661 C1119.929,217.695,1119.126,217.916,1118.434,218.356z" transform="matrix(1, 0, 0, 1, -2121.112548828125, -7347.4560546875)"/>
</svg>