
<svg viewBox="484.4274 7609.0669 123.528 154.855" xmlns="http://www.w3.org/2000/svg">
  <g id="Q8MtoP.tif" transform="matrix(1, 0, 0, 1, 5.684341886080802e-14, 9.094947017729282e-13)">
    <g>
      <path d="M589.962,7763.922c-29.293,0-58.587,0-87.88,0c-12.529-3.84-17.245-15.146-10.102-24.48&#10;&#9;&#9;&#9;c3.922-5.125,8.896-8.293,15.745-8.024c2.495,0.098,6.312,1.422,7.273-1.124c0.893-2.367-2.733-4.123-4.54-5.942&#10;&#9;&#9;&#9;c-9.576-9.642-17.639-20.266-22.592-33.079c-1.664-4.304-2.674-8.668-2.971-13.259c-0.458-7.076-0.758-14.191-0.027-21.215&#10;&#9;&#9;&#9;c1.434-13.787,8.954-24.384,18.653-33.742c9.382-9.052,20.769-13.101,33.513-13.99c5.659,0,11.318,0,16.977,0&#10;&#9;&#9;&#9;c8.091,1.334,16.393,1.486,23.763,6.054c14.149,8.77,25.289,20.457,28.499,36.833c4.421,22.554,0.398,43.875-15.272,61.949&#10;&#9;&#9;&#9;c-4.035,4.654-8.149,9.211-12.532,13.534c-0.808,0.797-2.067,1.66-1.674,2.87c0.523,1.607,2.223,1.1,3.479,1.154&#10;&#9;&#9;&#9;c2.324,0.101,4.661-0.059,6.981,0.132c11.459,0.944,19.033,13.479,14.567,23.891&#10;&#9;&#9;&#9;C599.548,7760.786,595.066,7762.73,589.962,7763.922z"/>
      <path style="fill:#FEFEFE;" d="M600.136,7671.884c-0.243,12.206-6.897,26.281-17.457,38.617&#10;&#9;&#9;&#9;c-10.306,12.039-22.318,22.362-34.099,32.905c-1.841,1.647-3.125,1.78-5.036,0.067c-12.02-10.774-24.418-21.204-34.734-33.672&#10;&#9;&#9;&#9;c-12.833-15.509-20.117-33.016-15.685-53.579c5.429-25.192,32.033-43.73,58.082-40.892&#10;&#9;&#9;&#9;C579.009,7618.359,600.213,7640.958,600.136,7671.884z"/>
      <path style="fill:#FEFEFE;" d="M545.945,7757.878c-12.955-0.001-25.909-0.007-38.864,0.002c-4.015,0.003-7.089-1.595-8.862-5.278&#10;&#9;&#9;&#9;c-1.511-3.138-1.067-6.175,0.96-8.929c1.91-2.595,4.603-3.67,7.796-3.66c6.976,0.021,13.955,0.142,20.925-0.066&#10;&#9;&#9;&#9;c2.942-0.088,4.513,1.741,6.347,3.35c11.795,10.344,11.847,10.414,23.612-0.165c2.52-2.266,5.026-3.333,8.435-3.195&#10;&#9;&#9;&#9;c6.135,0.248,12.289,0.002,18.432,0.101c5.951,0.096,9.95,3.733,9.981,8.865c0.031,5.122-3.98,8.904-9.898,8.947&#10;&#9;&#9;&#9;C571.854,7757.945,558.899,7757.879,545.945,7757.878z"/>
      <path d="M545.864,7710.85c-22.868-0.074-41.667-18.916-41.637-41.731c0.03-22.869,18.76-41.573,41.706-41.649&#10;&#9;&#9;&#9;c23.079-0.077,42.073,18.956,41.885,41.969C587.63,7692.307,568.77,7710.924,545.864,7710.85z"/>
      <path style="fill:#FEFEFE;" d="M546.118,7633.607c19.667,0.06,35.632,15.971,35.645,35.522&#10;&#9;&#9;&#9;c0.013,19.665-16.396,35.889-36.086,35.68c-19.536-0.208-35.53-16.415-35.401-35.873&#10;&#9;&#9;&#9;C510.406,7649.379,526.467,7633.547,546.118,7633.607z"/>
      <path d="M531.07,7668.762c0.005-5.149,0.002-10.299,0.007-15.449c0.002-2.161,0.445-4.24,3.098-4.177&#10;&#9;&#9;&#9;c2.667,0.063,2.755,2.243,2.96,4.336c0.379,3.876-1.966,9.208,1.089,11.3c3.594,2.461,9.015,0.58,13.636,0.793&#10;&#9;&#9;&#9;c2.397,0.111,3.183-1.063,3.098-3.337c-0.112-2.985-0.017-5.979-0.006-8.969c0.008-2.169,0.457-4.201,3.133-4.126&#10;&#9;&#9;&#9;c2.32,0.064,2.878,1.901,2.879,3.899c0.005,10.797,0.005,21.595-0.01,32.392c-0.003,2.048-0.698,3.716-3.063,3.686&#10;&#9;&#9;&#9;c-2.399-0.031-2.921-1.788-2.93-3.799c-0.015-3.156-0.212-6.327,0.026-9.464c0.257-3.38-1.199-4.54-4.337-4.171&#10;&#9;&#9;&#9;c-0.164,0.019-0.332,0.002-0.498-0.001c-12.705-0.257-12.701-0.257-13.051,12.353c-0.064,2.303,0.305,5.147-3.158,5.043&#10;&#9;&#9;&#9;c-3.038-0.091-2.861-2.685-2.87-4.859C531.05,7679.061,531.064,7673.912,531.07,7668.762z"/>
    </g>
  </g>
</svg>