<?xml version="1.0" encoding="utf-8"?>
<svg viewBox="-465.863 -813.7124 736.1955 491.3534" xmlns="http://www.w3.org/2000/svg">
  <g transform="matrix(0.8636610507965088, 0, 0, 0.8029959797859192, -326.04284208627485, -751.9620255388922)">
    <path class="st733" d="M374.82-22.24c4,22.19-8.36,43.69-12.45,50.05c-0.85,12.22-4.45,24.04-10.6,34.78&#10;&#9;&#9;&#9;&#9;c19.4-20.28,36.49-42.74,50.92-67c-0.43-7.66-0.54-32.32,13.81-49.59c17.18-20.67,48.6-22.9,48.6-22.9s3.55,31.29-13.63,51.96&#10;&#9;&#9;&#9;&#9;c-14.64,17.62-39.6,21.84-46.67,22.7c-27.53,46.06-64.59,85.69-108.74,116.21c23.11-10.25,46.55-19.75,70.28-28.48&#10;&#9;&#9;&#9;&#9;c0.14-0.23,0.33-0.44,0.63-0.58c4.01-1.83,8.1-3.41,12.24-4.74c0.04-0.04,0.06-0.09,0.11-0.13&#10;&#9;&#9;&#9;&#9;c21.57-17.37,44.24-33.19,67.83-47.51c1.41-6.17,8.26-31.44,27.89-44.35c22.46-14.77,53.16-7.74,53.16-7.74&#10;&#9;&#9;&#9;&#9;S522.47,11.39,500,26.16c-18.41,12.1-42.33,9.57-50.38,8.26c-21.87,13.22-42.91,27.79-63.05,43.64c0.57-0.14,1.15-0.28,1.72-0.41&#10;&#9;&#9;&#9;&#9;c39.76-13.75,80.27-25.36,121.35-34.77c3.97-6.27,18.34-26.7,40.27-32.4c26.02-6.76,52.83,9.75,52.83,9.75&#10;&#9;&#9;&#9;&#9;s-15.37,27.48-41.39,34.25c-22.09,5.74-44.73-5.29-51.08-8.75c-35.52,8.13-70.61,17.91-105.16,29.31&#10;&#9;&#9;&#9;&#9;c18.7-1.5,37.61,1.54,54.89,8.81c-0.03-0.28-0.04-0.44-0.04-0.44S491.24,79.7,512,96.78c20.76,17.08,23.15,48.47,23.15,48.47&#10;&#9;&#9;&#9;&#9;s-31.27,3.71-52.03-13.36c-16.35-13.45-21.31-35.77-22.67-44.65c-22.37-9.83-47.65-12.3-71.62-6.69&#10;&#9;&#9;&#9;&#9;c-36.91,12.78-73.16,27.4-108.61,43.8c-0.69,0.43-1.36,0.88-2.05,1.3c-0.39,0.24-0.79,0.27-1.15,0.19&#10;&#9;&#9;&#9;&#9;c-3.34,1.56-6.67,3.13-10,4.72c18.17-4.6,37.04-4.77,55.47-0.47c8.29-3.24,30.2-10.23,50.11-2.78&#10;&#9;&#9;&#9;&#9;c25.18,9.42,37.62,38.35,37.62,38.35s-28.38,13.65-53.55,4.23c-22.6-8.46-34.94-32.62-37.23-37.47&#10;&#9;&#9;&#9;&#9;c-24.09-5.12-48.85-2.4-71.64,7.99c-0.37,0.17-0.71,0.15-1,0.05c-51.24,25.71-100.64,55.19-147.67,88.25&#10;&#9;&#9;&#9;&#9;c-1.54,1.08-3.32-1.24-1.78-2.33c33.09-23.26,67.34-44.75,102.58-64.41c0.08-0.26,0.22-0.52,0.51-0.72&#10;&#9;&#9;&#9;&#9;c16.67-11.65,31.39-25.36,44.17-40.99c-0.92-3.62-7.41-31.48,5.4-53.06c13.72-23.12,44.39-30.26,44.39-30.26&#10;&#9;&#9;&#9;&#9;s8.43,30.34-5.29,53.46c-10.52,17.72-30.98,26.05-39.97,28.97c-9.9,12.53-21.03,23.82-33.35,33.9&#10;&#9;&#9;&#9;&#9;c20.66-11.12,41.66-21.59,62.94-31.44c23.13-14.35,44.5-31.12,63.82-49.96c-0.1-0.37-0.05-0.79,0.26-1.19&#10;&#9;&#9;&#9;&#9;c9.71-12.49,15.32-26.99,16.55-42.2c-5.89-4.38-25.27-20.28-29.31-42.65c-4.77-26.46,13.73-51.94,13.73-51.94&#10;&#9;&#9;&#9;&#9;S370.04-48.7,374.82-22.24z" style="fill: rgb(255, 255, 255); opacity: 0.2;"/>
    <path class="st733" d="M287.02,485.09c-14.83-13.56-36.12-15.83-45.94-16.11c-12.45-9.06-26.25-16.07-40.97-20.76&#10;&#9;&#9;&#9;&#9;c19.75,0.79,39.49,2.14,59.17,4.04c0.51,0.37,1.15,0.57,1.95,0.48c0.43-0.05,0.85-0.12,1.28-0.16&#10;&#9;&#9;&#9;&#9;c35.16,3.51,70.16,8.8,104.85,15.87c3.73,8.09,14.69,28.29,34.21,36.71c24.68,10.65,53.7-1.59,53.7-1.59s-11.01-29.5-35.69-40.15&#10;&#9;&#9;&#9;&#9;c-18.42-7.95-39.24-3.15-48.63-0.2c-28.19-5.82-56.59-10.5-85.1-13.97c25.06-4.27,49.61-10.81,73.48-19.62&#10;&#9;&#9;&#9;&#9;c8.11,4.23,28.82,13.32,49.18,8.21c26.08-6.54,41.68-33.89,41.68-33.89s-26.67-16.75-52.74-10.21&#10;&#9;&#9;&#9;&#9;c-20.01,5.02-33.85,22.28-39.2,30.04c-30.91,11.49-62.95,19.16-95.81,22.9c-34.42-3.41-68.98-5.15-103.53-5.17&#10;&#9;&#9;&#9;&#9;c6.53-2.72,12.69-6.08,18.47-10.06c8.17-1.12,31.66-5.71,45.68-22.58c17.18-20.68,13.62-51.96,13.62-51.96&#10;&#9;&#9;&#9;&#9;s-31.41,2.24-48.59,22.91c-12.9,15.52-14.11,37.02-13.91,46.78c-9.06,6.22-19.12,10.84-30.02,13.82&#10;&#9;&#9;&#9;&#9;c-0.82,0.22-1.33,0.68-1.6,1.22c-22.93,0.34-45.84,1.45-68.7,3.28c-0.43-0.02-0.85-0.06-1.28-0.07c-0.54-0.02-1.02,0.1-1.43,0.29&#10;&#9;&#9;&#9;&#9;c-29.06,2.4-58.03,6-86.82,10.8c54.52-20.76,103.39-54.78,141.86-98.77c8.31-1.21,31.56-6,45.38-22.85&#10;&#9;&#9;&#9;&#9;c17.05-20.79,13.29-52.05,13.29-52.05s-31.4,2.44-48.44,23.22c-12.71,15.5-13.86,36.82-13.62,46.66&#10;&#9;&#9;&#9;&#9;c-18.1,20.88-38.57,39.46-60.87,55.44c7.2-11,12.94-22.7,17.27-35c7.31-7.11,19-20.82,22.55-38.51&#10;&#9;&#9;&#9;&#9;c5.29-26.36-9.52-51.55-9.52-51.55s-23.38,17.54-28.66,43.9c-4.34,21.65,4.87,42.51,8.29,49.27&#10;&#9;&#9;&#9;&#9;c-5.09,13.05-11.9,25.33-20.47,36.8c-0.67,0.89-0.73,1.84-0.44,2.66c-31.68,20.94-66.74,36.79-103.86,46.65&#10;&#9;&#9;&#9;&#9;c-0.91,0.24-1.45,0.76-1.7,1.39c-16.65,3.42-33.22,7.23-49.71,11.46c-6.54,1.09-13.06,2.41-19.55,4.02&#10;&#9;&#9;&#9;&#9;c-3.61,0.9-3.01,6.73,0.65,5.82c0.87-0.22,1.75-0.4,2.62-0.61c0.68,0.47,1.56,0.68,2.54,0.42c4.83-1.32,9.68-2.6,14.53-3.86&#10;&#9;&#9;&#9;&#9;c27.3-4.55,55.03-4.6,82.25-0.08c5.45,8.21,17.31,23.14,35.02,29.94c25.1,9.64,52.42-0.73,52.42-0.73s-13.37-25.99-38.46-35.63&#10;&#9;&#9;&#9;&#9;c-21.72-8.34-45.08-1.71-50.99,0.23c-13.58-2.1-27.26-3.13-40.95-3.04c45.53-9.87,91.64-16.67,137.99-20.39&#10;&#9;&#9;&#9;&#9;c19.02,0.99,37.01,6.12,53.27,15.23c1.72,6.22,9.67,31.03,29.77,43.02c23.08,13.78,53.45,5.43,53.45,5.43&#10;&#9;&#9;&#9;&#9;s-7.06-30.69-30.14-44.47c-16.22-9.68-36.01-8.44-46.36-6.85c-10.45-6.34-21.65-11.1-33.39-14.18c23.68-1.3,47.4-1.79,71.11-1.48&#10;&#9;&#9;&#9;&#9;c0.39,0.42,0.94,0.73,1.68,0.82c22.92,2.87,44.39,11.23,62.86,24.24c0.84,8.69,4.5,31.65,20.33,46.12&#10;&#9;&#9;&#9;&#9;c19.84,18.14,51.26,16.08,51.26,16.08S306.85,503.23,287.02,485.09z" style="fill: rgb(255, 255, 255); opacity: 0.2;"/>
    <path class="st733" d="M22.51,376.63c-19.88,5.73-33.13,23.56-38.18,31.47c-11.91,3.46-23.3,8.33-34.01,14.56&#10;&#9;&#9;&#9;&#9;c31.53-37.32,60.76-76.54,87.45-117.42c13.1-12.52,27.47-23.27,42.99-32.17c6.01,3.12,29.3,13.97,51.57,7.55&#10;&#9;&#9;&#9;&#9;c25.83-7.45,40.47-35.32,40.47-35.32s-27.24-15.8-53.07-8.36c-16.99,4.9-29.14,18.64-35.47,27.47&#10;&#9;&#9;&#9;&#9;c-12.43,6.59-24.18,14.32-35.17,23.13c14.7-23.42,28.58-47.36,41.62-71.75c0.55-0.02,1.12-0.22,1.67-0.66&#10;&#9;&#9;&#9;&#9;c15.61-12.72,30.58-26.14,44.89-40.2c0.19-0.06,0.38-0.13,0.58-0.24c9.09-4.84,18.63-8.36,28.51-10.57&#10;&#9;&#9;&#9;&#9;c6.63,5.37,25.78,19.05,47.4,17.83c26.84-1.52,47.32-25.44,47.32-25.44s-23.04-21.46-49.88-19.95&#10;&#9;&#9;&#9;&#9;c-19.73,1.11-36.01,14.33-43.25,21.26c-6.52,1.27-12.91,3.1-19.14,5.47c14.81-15.31,28.87-31.34,42.1-48.06&#10;&#9;&#9;&#9;&#9;c0.05,0.26,0.08,0.4,0.08,0.4s31.02-5.44,45.98-27.77c14.97-22.33,8.22-53.09,8.22-53.09s-31.02,5.44-45.99,27.77&#10;&#9;&#9;&#9;&#9;c-10.06,15.01-10.31,33.82-9.39,44.54c-27.41,35.28-58.39,67.58-92.61,96.45c3.5-6.74,6.96-13.5,10.33-20.31&#10;&#9;&#9;&#9;&#9;c7-4.29,13.99-10.12,19.03-17.95c9.11-14.16,9.65-31.46,8.77-42.42c2.68-6.26,5.3-12.54,7.86-18.85c0.94-0.3,1.69-1.07,1.76-2.39&#10;&#9;&#9;&#9;&#9;c0.04-0.7,0.03-1.4,0.06-2.11c9.12-22.66,17.55-45.61,25.24-68.82c6.25-3.58,27.53-17.11,34.2-38.95&#10;&#9;&#9;&#9;&#9;c7.85-25.71-7.52-53.19-7.52-53.19s-28.1,14.2-35.96,39.91c-5.64,18.47,0.7,37.85,4.72,47.3c-6.47,19.68-13.44,39.17-20.94,58.45&#10;&#9;&#9;&#9;&#9;c-0.39-5.75-1.12-11.47-2.19-17.13c3.9-9.89,9.26-28.46,3.65-46.07c-8.15-25.62-36.42-39.49-36.42-39.49s-15.05,27.66-6.9,53.28&#10;&#9;&#9;&#9;&#9;c7,22,28.82,35.33,34.85,38.66c1.22,8.17,1.7,16.44,1.45,24.77c-1.87,4.63-3.76,9.26-5.69,13.87&#10;&#9;&#9;&#9;&#9;c-2.99,0.64-31.41,7.17-45.18,28.57c-9.93,15.42-9.67,34.57-8.51,45.19c-3.6,10.24-8.73,19.74-15.31,28.46&#10;&#9;&#9;&#9;&#9;c-0.38-4.49-0.96-8.96-1.73-13.43c2.3-6.73,9.41-31.03-0.06-51.9c-11.1-24.48-40.8-34.95-40.8-34.95s-11.7,29.23-0.6,53.72&#10;&#9;&#9;&#9;&#9;c8.19,18.07,26.51,28.49,35.54,32.72c4.17,22.83,3.03,46.2-3.38,68.75c-0.01,0.04-0.01,0.08-0.02,0.12&#10;&#9;&#9;&#9;&#9;c-6.57,10.83-13.31,21.55-20.22,32.16c-0.36,0.35-0.73,0.69-1.1,1.04c-0.61,0.6-0.88,1.31-0.92,2.01&#10;&#9;&#9;&#9;&#9;c-11.26,17.16-22.97,34.02-35.11,50.58c4.23-13.1,6.17-26.72,5.7-40.58c2.78-9.62,6.95-30.19-1.22-48.21&#10;&#9;&#9;&#9;&#9;c-11.1-24.48-40.8-34.94-40.8-34.94s-11.7,29.23-0.6,53.72c8.61,18.98,28.38,29.53,36.84,33.31&#10;&#9;&#9;&#9;&#9;c0.06,19.14-4.64,37.88-14.06,55.02c-0.18,0.33-0.28,0.66-0.34,0.99c-15.98,20.88-32.65,41.23-50,61.01&#10;&#9;&#9;&#9;&#9;c-0.89,0.71-1.79,1.41-2.67,2.14c-0.73,0.61-1.05,1.36-1.06,2.1c-27.92,31.52-57.54,61.59-88.78,89.97&#10;&#9;&#9;&#9;&#9;c-2.79,2.53,0.84,7.14,3.63,4.6c32.73-29.72,63.68-61.29,92.79-94.43c15.09-11.95,31.96-20.69,50.14-26.02&#10;&#9;&#9;&#9;&#9;c8.24,3.94,29.27,12.31,49.45,6.49c25.83-7.45,40.47-35.32,40.47-35.32S48.34,369.18,22.51,376.63z M64.99,223.03&#10;&#9;&#9;&#9;&#9;c7.72-9.04,13.72-18.93,18.12-29.62c2.93-0.73,8.74-2.4,15.42-5.45c-11.18,22.18-23.04,44-35.59,65.42&#10;&#9;&#9;&#9;&#9;C64.61,243.3,65.29,233.16,64.99,223.03z" style="fill: rgb(255, 255, 255); opacity: 0.2;"/>
    <path class="st733" d="M229.05,192.5c0,0-31.15,4.58-46.74,26.49c-12.17,17.11-11.24,39.72-10.25,48.81&#10;&#9;&#9;&#9;&#9;c-11.05,15.39-24.88,28.41-41.16,38.7C90,322.98,49.96,341.73,11.08,362.77c-3.32,1.8-0.17,6.74,3.14,4.95&#10;&#9;&#9;&#9;&#9;c37.13-20.08,75.31-38.07,114.3-53.97c0.7,0.23,1.51,0.18,2.33-0.31c0.98-0.59,1.94-1.2,2.91-1.81&#10;&#9;&#9;&#9;&#9;c24.41-9.82,49.13-18.81,74.13-26.97c0.33,0.05,0.67,0.07,1.05,0.01c19.29-3.22,38.53-1.45,56.57,4.95&#10;&#9;&#9;&#9;&#9;c0.77,9.23,4.17,31.39,19.23,45.8c19.42,18.58,50.89,17.22,50.89,17.22s-0.03-31.49-19.46-50.07&#10;&#9;&#9;&#9;&#9;c-14.29-13.67-35.08-16.55-45.08-17.11c-12.91-5.03-26.41-7.71-40.17-8.06c19.64-5.97,39.43-11.44,59.36-16.38&#10;&#9;&#9;&#9;&#9;c0.67,0.19,1.43,0.17,2.2-0.21c0.45-0.22,0.9-0.46,1.35-0.69c12.3-3.01,24.65-5.81,37.04-8.43c0.04,0,0.08,0.02,0.12,0.02&#10;&#9;&#9;&#9;&#9;c23.4,1.42,45.83,8.09,65.99,19.58c0.99,9.93,4.76,30.66,19.1,44.37c19.42,18.58,50.88,17.22,50.88,17.22&#10;&#9;&#9;&#9;&#9;s-0.03-31.49-19.46-50.07c-16.56-15.84-41.84-17.19-48.95-17.24c-3.96-2.21-7.99-4.23-12.1-6.08&#10;&#9;&#9;&#9;&#9;c10.41-3.33,21.07-5.02,31.93-5.02c9.63,4.61,27.62,11.2,45.46,6.94c24.76-5.91,40.34-30.56,41.92-33.17&#10;&#9;&#9;&#9;&#9;c4.99-0.29,9.98-0.54,14.97-0.77c7.95,2.52,15.59,5.71,22.9,9.57c1.14,6.79,6.49,31.79,24.93,45.69&#10;&#9;&#9;&#9;&#9;c21.47,16.18,52.55,11.14,52.55,11.14s-3.73-31.27-25.2-47.45c-14.76-11.12-34.06-12.22-44.68-11.81&#10;&#9;&#9;&#9;&#9;c-4.99-2.89-10.14-5.46-15.44-7.74c20.68-0.68,41.38-0.81,62.09-0.39c7.59,6.93,23.77,19.33,43.07,20.13&#10;&#9;&#9;&#9;&#9;c26.86,1.11,49.57-20.71,49.57-20.71s-20.84-23.61-47.7-24.71c-22.82-0.94-42.63,14.66-48.08,19.37&#10;&#9;&#9;&#9;&#9;c-24.45-0.43-48.9-0.08-73.3,1.02c-0.67-0.21-1.33-0.44-2.01-0.64c-1.26-0.37-2.24,0.08-2.83,0.87&#10;&#9;&#9;&#9;&#9;c-6.8,0.33-13.6,0.73-20.39,1.18c-10.05-4.45-26.55-9.68-42.93-5.77c-9.05,2.16-16.87,6.83-23.24,12.01&#10;&#9;&#9;&#9;&#9;c-7.54,0.93-15.06,1.95-22.58,3.02c38.57-22.73,79.31-41.27,121.68-55.44c9.82,4.42,27.64,10.41,45.14,5.89&#10;&#9;&#9;&#9;&#9;c26.03-6.73,41.44-34.19,41.44-34.19s-26.79-16.55-52.82-9.82c-26.03,6.73-41.44,34.19-41.44,34.19s0.12,0.07,0.35,0.21&#10;&#9;&#9;&#9;&#9;c-20.16,6.94-39.94,14.9-59.29,23.8c4.31-5.09,8.15-10.51,11.51-16.25c8.94-4.54,26.8-15.53,34.38-33.77&#10;&#9;&#9;&#9;&#9;c10.32-24.82-2.3-53.67-2.3-53.67s-29.36,11.4-39.68,36.22c-8.31,19.99-1.74,42.59,1.13,50.63c-5.35,8.59-11.84,16.43-19.42,23.4&#10;&#9;&#9;&#9;&#9;c-0.16,0.15-0.3,0.31-0.42,0.47c-18.01,8.84-35.63,18.52-52.8,29.04c-0.6,0.37-0.98,0.84-1.18,1.35&#10;&#9;&#9;&#9;&#9;c-27.33,4.23-54.51,9.39-81.48,15.51c11.95-7.46,23.14-15.99,33.47-25.53c10.43-3.04,27.42-9.96,37.67-24.37&#10;&#9;&#9;&#9;&#9;c15.58-21.91,9.69-52.84,9.69-52.84s-31.15,4.58-46.74,26.49c-13.43,18.89-10.91,44.46-9.96,51.16&#10;&#9;&#9;&#9;&#9;c-13.53,11.7-28.44,21.69-44.59,29.91c-47.41,11.64-94.1,26.23-139.76,43.62c9.42-8.05,17.79-17.18,25-27.27&#10;&#9;&#9;&#9;&#9;c9.14-2.15,30.34-8.74,42.34-25.6C234.94,223.43,229.05,192.5,229.05,192.5z M349.04,248c24.37-4.75,48.89-8.71,73.52-11.91&#10;&#9;&#9;&#9;&#9;c-5.09,5.29-8.59,10.22-10.25,12.74c-11.54,0.61-22.85,3-33.95,7.29C368.9,252.49,359.11,249.77,349.04,248z" style="fill: rgb(255, 255, 255); opacity: 0.2;"/>
  </g>
</svg>