<?xml version="1.0" encoding="utf-8"?>
<svg viewBox="229.9477 -301.4972 598.1457 569.5648" xmlns="http://www.w3.org/2000/svg">
  <g class="st732" style="opacity: 0.2;" transform="matrix(0.8636610507965088, 0, 0, 0.8029959797859192, -326.04284208627485, -751.9620255388922)">
    <path class="st2" d="M1259.93,844.34c-1.04-8.59-7.36-15.31-10.49-18.15c-1.53-6.45-4.07-12.62-7.57-18.28&#10;&#9;&#9;&#9;&#9;c6.23,5.8,12.3,11.77,18.2,17.92c0.06,0.26,0.22,0.51,0.5,0.71c0.15,0.1,0.31,0.2,0.46,0.31c10.5,11.01,20.46,22.56,29.81,34.6&#10;&#9;&#9;&#9;&#9;c-1.05,3.69-3.13,13.37,0.88,21.59c5.08,10.4,17.99,14.54,17.99,14.54s4.68-12.73-0.4-23.13c-3.79-7.76-11.94-12.04-15.84-13.71&#10;&#9;&#9;&#9;&#9;c-7.58-9.81-15.55-19.3-23.89-28.44c9.39,5.63,19.24,10.38,29.51,14.2c1.46,3.66,5.68,12.44,13.77,16.48&#10;&#9;&#9;&#9;&#9;c10.35,5.18,23.13,0.62,23.13,0.62s-4.02-12.95-14.37-18.13c-7.95-3.97-17.31-2.21-21.24-1.18&#10;&#9;&#9;&#9;&#9;c-13.32-4.91-25.94-11.4-37.73-19.39c-10.29-10.77-21.09-21.03-32.38-30.73c2.9,0.94,5.85,1.57,8.86,1.89&#10;&#9;&#9;&#9;&#9;c2.98,1.93,11.95,7.02,21.26,5.43c11.41-1.94,19.03-13.16,19.03-13.16s-10.89-8.08-22.3-6.14c-8.57,1.45-14.99,8.14-17.67,11.38&#10;&#9;&#9;&#9;&#9;c-4.71-0.51-9.29-1.82-13.68-3.91c-0.33-0.16-0.62-0.15-0.87-0.05c-7.59-6.32-15.39-12.39-23.37-18.2&#10;&#9;&#9;&#9;&#9;c-0.13-0.13-0.26-0.26-0.4-0.38c-0.17-0.16-0.36-0.25-0.55-0.31c-10.17-7.37-20.65-14.32-31.4-20.83&#10;&#9;&#9;&#9;&#9;c23.64,8.51,49.15,11.1,74.06,7.52c3.05,1.93,11.99,6.89,21.24,5.26c11.4-2.01,18.94-13.28,18.94-13.28s-10.94-8.01-22.34-6&#10;&#9;&#9;&#9;&#9;c-8.5,1.5-14.86,8.14-17.54,11.43c-11.77,1.74-23.67,2.08-35.44,1.04c5.44-1.58,10.6-3.79,15.46-6.59&#10;&#9;&#9;&#9;&#9;c4.38-0.27,12.05-1.47,18.17-6.26c9.12-7.13,11.35-19.52,11.35-19.52s-12.56-0.83-21.68,6.3c-7.49,5.86-10.34,15.26-11.11,18.43&#10;&#9;&#9;&#9;&#9;c-5.32,2.83-10.99,4.94-17.01,6.28c-0.47,0.1-0.75,0.4-0.89,0.75c-16.23-2.04-32.13-6.7-47.02-13.89&#10;&#9;&#9;&#9;&#9;c-0.36-0.18-0.69-0.16-0.95-0.02c-6.4-3.55-12.88-6.96-19.46-10.2c-2.44-1.48-4.94-2.88-7.52-4.17&#10;&#9;&#9;&#9;&#9;c-1.43-0.72-2.87,1.35-1.42,2.08c0.35,0.17,0.68,0.36,1.03,0.54c0.09,0.34,0.32,0.66,0.71,0.85c1.95,0.92,3.89,1.86,5.83,2.82&#10;&#9;&#9;&#9;&#9;c10.2,6.17,19.27,13.93,26.9,23.05c-0.52,4.21-0.83,12.42,3.04,19.61c5.5,10.19,17.33,14.47,17.33,14.47s2.92-12.24-2.57-22.43&#10;&#9;&#9;&#9;&#9;c-4.76-8.82-14.25-13.2-16.73-14.23c-3.85-4.5-8.03-8.67-12.53-12.48c17.65,9.54,34.62,20.26,50.81,32.04&#10;&#9;&#9;&#9;&#9;c5.94,5.66,10.38,12.38,13.14,19.92c-1.18,2.51-5.54,12.85-2.34,22.41c3.68,10.98,15.94,16.77,15.94,16.77s6.3-12.01,2.62-22.99&#10;&#9;&#9;&#9;&#9;c-2.58-7.71-9.4-12.86-13.23-15.24c-1.63-5-3.96-9.7-6.93-14c8.1,6.22,15.99,12.71,23.65,19.46c0.01,0.25,0.1,0.5,0.32,0.74&#10;&#9;&#9;&#9;&#9;c6.69,7.37,11.35,16.12,13.74,25.55c-2.16,3.07-7.41,11.6-6.29,20.78c1.39,11.49,12.24,19.63,12.24,19.63&#10;&#9;&#9;&#9;&#9;S1261.32,855.83,1259.93,844.34z" style="fill: rgb(255, 255, 255);"/>
    <path class="st2" d="M1105.94,595.34c0,0-13.53-0.95-22.11,6.82c-6.85,6.2-8.47,16.08-8.85,19.82&#10;&#9;&#9;&#9;&#9;c-7.98,5.57-17.24,9.12-27.12,10.32c-0.32,0.04-0.56,0.17-0.73,0.35c-10.21,0.08-20.43-0.17-30.62-0.78&#10;&#9;&#9;&#9;&#9;c5.06-1.3,9.9-3.33,14.41-6.04c4.45,0.71,12.98,1.28,19.98-2.86c9.97-5.89,13.07-19.09,13.07-19.09s-13.06-3.65-23.03,2.24&#10;&#9;&#9;&#9;&#9;c-8.68,5.13-12.15,15.79-12.9,18.47c-7.02,3.89-14.78,6.06-22.97,6.45c-27.86-2.37-55.51-7.3-82.54-14.83&#10;&#9;&#9;&#9;&#9;c-1.55-0.43-2.51,1.9-0.95,2.34c26.97,7.51,54.55,12.47,82.34,14.9c0.18,0.08,0.38,0.14,0.62,0.13c0.19-0.01,0.37-0.02,0.55-0.03&#10;&#9;&#9;&#9;&#9;c9.84,0.83,19.71,1.35,29.58,1.55c0.12,0.24,0.34,0.43,0.69,0.53c4.69,1.3,9.01,3.31,12.9,6.01c-0.1,4.2,0.38,13.46,5.9,20.17&#10;&#9;&#9;&#9;&#9;c7.36,8.94,20.88,9.96,20.88,9.96s1.59-13.47-5.76-22.41c-6-7.3-16.11-9.32-19.63-9.82c-2.48-1.72-5.13-3.19-7.93-4.37&#10;&#9;&#9;&#9;&#9;c8.06,0.03,16.12-0.16,24.17-0.55c12.85,1.8,25.39,4.99,37.52,9.56c2.29,3.35,8.22,10.82,16.82,13.02&#10;&#9;&#9;&#9;&#9;c11.22,2.87,22.73-4.29,22.73-4.29s-6.67-11.81-17.88-14.68c-8.76-2.24-17.7,1.63-21.2,3.44c-8.79-3.29-17.8-5.86-26.98-7.72&#10;&#9;&#9;&#9;&#9;c18.84-1.39,37.61-3.96,56.18-7.7c4.04,1.29,13,3.4,20.94,0.01c10.65-4.54,15.45-17.22,15.45-17.22s-12.47-5.33-23.12-0.79&#10;&#9;&#9;&#9;&#9;c-8.42,3.59-13.18,12.26-14.81,15.74c-21.64,4.31-43.55,7.01-65.53,8.11c-1.37-0.19-2.73-0.38-4.11-0.54&#10;&#9;&#9;&#9;&#9;c5.44-1.96,10.57-4.66,15.26-8.04c4.23-0.1,13.4-1.04,19.81-6.85C1105.56,608.9,1105.94,595.34,1105.94,595.34z M1059.48,632.38&#10;&#9;&#9;&#9;&#9;c0.36-0.11,0.72-0.24,1.09-0.36c-0.07,0.1-0.12,0.21-0.16,0.33C1060.1,632.36,1059.79,632.37,1059.48,632.38z" style="fill: rgb(255, 255, 255);"/>
    <path class="st2" d="M1177.65,840.59c0.13-8.91-5.56-16.6-8.18-19.67c0.06-5.34-0.52-10.64-1.74-15.84&#10;&#9;&#9;&#9;&#9;c11.43,17.67,23.93,34.62,37.43,50.74c3.52,6.97,6.15,14.23,7.87,21.74c-2.04,2.08-9.43,10.32-9.57,20.3&#10;&#9;&#9;&#9;&#9;c-0.17,11.58,9.49,21.1,9.49,21.1s9.92-9.24,10.09-20.82c0.11-7.62-4.03-14.34-6.88-18.06c-1.16-5.95-2.87-11.75-5.12-17.39&#10;&#9;&#9;&#9;&#9;c7.81,8.99,15.93,17.71,24.35,26.13c-0.06,0.23-0.05,0.49,0.06,0.77c3.28,8.02,6.94,15.87,10.94,23.53&#10;&#9;&#9;&#9;&#9;c0,0.08,0.01,0.17,0.03,0.27c0.85,4.35,1.11,8.72,0.79,13.07c-3.04,2.06-11.08,8.24-13.28,17.3&#10;&#9;&#9;&#9;&#9;c-2.74,11.25,4.56,22.68,4.56,22.68s11.73-6.81,14.47-18.05c2.01-8.27-1.39-16.63-3.34-20.48c0.29-2.85,0.34-5.71,0.14-8.57&#10;&#9;&#9;&#9;&#9;c4.46,8.02,9.3,15.82,14.53,23.37c-0.11-0.01-0.17-0.02-0.17-0.02s-1.64,13.46,5.68,22.43c7.33,8.96,20.84,10.04,20.84,10.04&#10;&#9;&#9;&#9;&#9;s1.64-13.46-5.68-22.43c-4.92-6.03-12.64-8.48-17.18-9.45c-11.11-15.71-20.53-32.52-28.14-50.24c2.34,2.29,4.69,4.56,7.07,6.8&#10;&#9;&#9;&#9;&#9;c0.89,3.42,2.42,7.03,5.01,10.09c4.69,5.53,11.76,7.91,16.38,8.93c2.24,1.89,4.5,3.75,6.78,5.6c0.01,0.42,0.23,0.83,0.76,1.02&#10;&#9;&#9;&#9;&#9;c0.29,0.1,0.57,0.19,0.86,0.29c8.19,6.59,16.6,12.94,25.2,19.02c0.69,3.03,3.6,13.49,11.77,18.97&#10;&#9;&#9;&#9;&#9;c9.61,6.46,22.86,3.56,22.86,3.56s-2.33-13.36-11.94-19.81c-6.9-4.64-15.68-4.45-20.08-3.98c-7.3-5.13-14.45-10.44-21.46-15.95&#10;&#9;&#9;&#9;&#9;c2.42,0.56,4.86,0.98,7.33,1.24c3.59,2.85,10.57,7.38,18.53,7.28c11.58-0.15,20.83-10.06,20.83-10.06s-9.51-9.67-21.09-9.51&#10;&#9;&#9;&#9;&#9;c-9.94,0.13-18.17,7.45-20.29,9.52c-3.52-0.52-6.99-1.36-10.39-2.51c-1.68-1.35-3.35-2.71-5-4.08c0.11-1.31,0.98-13.84-6.11-22.2&#10;&#9;&#9;&#9;&#9;c-5.11-6.02-13.03-8.32-17.55-9.17c-3.77-2.77-7.04-6.07-9.81-9.87c1.9,0.4,3.81,0.73,5.75,0.97c2.48,1.79,11.61,7.76,21.39,6.48&#10;&#9;&#9;&#9;&#9;c11.48-1.51,19.51-12.44,19.51-12.44s-10.58-8.48-22.06-6.98c-8.47,1.11-15.06,7.35-17.93,10.55c-9.93-1.14-19.41-4.54-27.91-10&#10;&#9;&#9;&#9;&#9;c-0.02-0.01-0.03-0.01-0.05-0.02c-3.64-4.06-7.21-8.18-10.72-12.36c-0.1-0.19-0.19-0.39-0.29-0.58&#10;&#9;&#9;&#9;&#9;c-0.17-0.33-0.43-0.53-0.71-0.63c-5.66-6.79-11.14-13.73-16.44-20.8c4.87,3.38,10.24,5.89,16,7.43&#10;&#9;&#9;&#9;&#9;c3.62,2.35,11.57,6.65,20.02,5.54c11.48-1.51,19.51-12.44,19.51-12.44s-10.58-8.48-22.06-6.98c-8.9,1.17-15.72,8-18.34,11.01&#10;&#9;&#9;&#9;&#9;c-7.9-2.37-15.03-6.66-20.91-12.69c-0.11-0.12-0.24-0.2-0.37-0.26c-6.6-9.2-12.9-18.62-18.88-28.24&#10;&#9;&#9;&#9;&#9;c-0.18-0.46-0.36-0.91-0.55-1.37c-0.16-0.38-0.43-0.6-0.73-0.7c-9.49-15.45-18.17-31.42-25.95-47.85&#10;&#9;&#9;&#9;&#9;c-0.69-1.46-3.05-0.55-2.35,0.92c8.15,17.21,17.28,33.91,27.29,50.06c3.03,7.71,4.52,15.76,4.44,23.92&#10;&#9;&#9;&#9;&#9;c-2.66,2.9-8.74,10.52-8.87,19.56c-0.17,11.58,9.49,21.1,9.49,21.1S1177.48,852.16,1177.65,840.59z M1235.62,877.33&#10;&#9;&#9;&#9;&#9;c2.76,4.31,6.08,8.02,9.93,11.17c-0.06,1.3-0.1,3.9,0.32,7.04c-7.74-7.38-15.24-15-22.5-22.86&#10;&#9;&#9;&#9;&#9;C1227.31,874.63,1231.41,876.18,1235.62,877.33z" style="fill: rgb(255, 255, 255);"/>
    <path class="st2" d="M1139.96,741.47c2.21-9.46-2.64-18.97-4.26-21.8c-0.1-5.28-1.39-10.44-3.8-15.19&#10;&#9;&#9;&#9;&#9;c7.9,9.15,14.76,19.18,20.43,29.93c-0.35,3.29-0.94,13.89,4.86,21.63c6.94,9.27,20.4,10.91,20.4,10.91s2.21-13.38-4.73-22.65&#10;&#9;&#9;&#9;&#9;c-5.91-7.9-16.55-10.26-19.58-10.78c-10.83-20.41-25.9-38.27-44.23-52.36c9.72,4.91,19.59,9.51,29.61,13.79&#10;&#9;&#9;&#9;&#9;c0.05,0.1,0.13,0.2,0.26,0.27c1.68,0.88,3.41,1.64,5.16,2.31c0.02,0.02,0.02,0.04,0.04,0.06c8.9,7.94,18.3,15.24,28.13,21.92&#10;&#9;&#9;&#9;&#9;c0.47,2.68,2.87,13.7,11.03,19.68c9.34,6.84,22.69,4.49,22.69,4.49s-1.79-13.44-11.12-20.29c-7.65-5.61-18-5.04-21.49-4.65&#10;&#9;&#9;&#9;&#9;c-9.12-6.17-17.85-12.89-26.16-20.15c0.24,0.07,0.49,0.14,0.73,0.21c16.8,6.78,33.97,12.66,51.43,17.61&#10;&#9;&#9;&#9;&#9;c1.57,2.78,7.3,11.88,16.61,14.82c11.04,3.48,22.93-3.04,22.93-3.04s-6.01-12.16-17.05-15.64c-9.37-2.95-19.36,1.29-22.16,2.65&#10;&#9;&#9;&#9;&#9;c-15.1-4.27-29.98-9.25-44.59-14.91c8.01,1.06,16.21,0.16,23.8-2.59c-0.02,0.12-0.03,0.19-0.03,0.19s13.37,2.28,22.67-4.61&#10;&#9;&#9;&#9;&#9;c9.3-6.89,11.02-20.34,11.02-20.34s-13.37-2.28-22.67,4.61c-7.33,5.43-9.95,14.92-10.73,18.71c-9.84,3.74-20.76,4.25-30.95,1.31&#10;&#9;&#9;&#9;&#9;c-15.6-6.3-30.87-13.39-45.75-21.21c-0.29-0.2-0.57-0.41-0.85-0.6c-0.16-0.11-0.33-0.14-0.49-0.11c-1.4-0.74-2.8-1.49-4.2-2.25&#10;&#9;&#9;&#9;&#9;c7.71,2.38,15.83,2.86,23.85,1.41c3.49,1.58,12.76,5.06,21.49,2.29c11.04-3.5,17.02-15.67,17.02-15.67s-11.91-6.49-22.94-2.99&#10;&#9;&#9;&#9;&#9;c-9.91,3.14-15.74,13.26-16.83,15.3c-10.47,1.67-21.06-0.04-30.64-5c-0.16-0.08-0.3-0.08-0.43-0.04&#10;&#9;&#9;&#9;&#9;c-21.48-12.18-42.08-25.94-61.58-41.19c-0.64-0.5-1.46,0.46-0.82,0.96c13.72,10.73,27.99,20.72,42.71,29.95&#10;&#9;&#9;&#9;&#9;c0.03,0.11,0.08,0.23,0.21,0.32c6.92,5.38,12.95,11.59,18.1,18.6c-0.48,1.53-3.87,13.38,1.16,22.94&#10;&#9;&#9;&#9;&#9;c5.4,10.24,18.43,13.98,18.43,13.98s4.29-12.87-1.11-23.11c-4.14-7.85-12.76-11.88-16.56-13.34c-3.99-5.61-8.53-10.71-13.6-15.31&#10;&#9;&#9;&#9;&#9;c8.64,5.23,17.45,10.2,26.38,14.9c9.63,6.68,18.46,14.36,26.35,22.88c-0.05,0.16-0.04,0.34,0.09,0.52&#10;&#9;&#9;&#9;&#9;c3.9,5.58,6,11.94,6.19,18.51c-2.63,1.75-11.31,8.17-13.54,17.7c-2.63,11.27,4.77,22.64,4.77,22.64&#10;&#9;&#9;&#9;&#9;S1137.33,752.74,1139.96,741.47z" style="fill: rgb(255, 255, 255);"/>
    <path class="st2" d="M963.12,583.13c-1.36,9.62-9.32,16.74-11.85,18.78c-2,4.88-5.06,9.23-9.03,12.79&#10;&#9;&#9;&#9;&#9;c10.67-5.68,20.69-12.55,29.87-20.52c0.86-3.19,4.14-13.29,12.35-18.41c9.82-6.13,22.96-2.8,22.96-2.8s-2.77,13.27-12.59,19.41&#10;&#9;&#9;&#9;&#9;c-8.37,5.23-19.14,3.58-22.15,2.98c-17.48,15.12-37.98,26.32-60.16,32.84c10.84-1.07,21.7-1.79,32.59-2.16&#10;&#9;&#9;&#9;&#9;c0.09-0.08,0.19-0.14,0.34-0.15c1.89-0.21,3.77-0.3,5.65-0.29c0.02-0.01,0.04-0.03,0.06-0.04c11.17-4.19,22.57-7.6,34.15-10.27&#10;&#9;&#9;&#9;&#9;c1.41-2.33,7.62-11.74,17.4-14.37c11.18-3.01,22.78,4.01,22.78,4.01s-6.52,11.89-17.7,14.89c-9.16,2.46-18.6-1.8-21.72-3.42&#10;&#9;&#9;&#9;&#9;c-10.73,2.46-21.3,5.57-31.68,9.33c0.25,0.02,0.51,0.04,0.76,0.06c18.11-0.25,36.25,0.47,54.32,2.17&#10;&#9;&#9;&#9;&#9;c2.47-2.03,11.1-8.44,20.84-7.81c11.55,0.75,20.29,11.12,20.29,11.12s-10,9.16-21.55,8.42c-9.81-0.63-17.58-8.2-19.71-10.48&#10;&#9;&#9;&#9;&#9;c-15.62-1.47-31.3-2.21-46.96-2.21c7.85,1.91,15.17,5.71,21.26,11.02c0.03-0.12,0.04-0.19,0.04-0.19s13.29,2.7,19.47,12.49&#10;&#9;&#9;&#9;&#9;c6.18,9.79,2.92,22.95,2.92,22.95s-13.29-2.7-19.47-12.49c-4.87-7.71-3.88-17.5-3.24-21.32c-7.82-7.04-17.83-11.46-28.38-12.41&#10;&#9;&#9;&#9;&#9;c-16.82,0.24-33.62,1.33-50.33,3.25c-0.34,0.08-0.67,0.18-1.01,0.25c-0.19,0.04-0.36,0.01-0.49-0.08&#10;&#9;&#9;&#9;&#9;c-1.58,0.19-3.15,0.38-4.73,0.58c8.05,0.57,15.79,3.05,22.75,7.3c3.83-0.21,13.73-0.11,20.87,5.63&#10;&#9;&#9;&#9;&#9;c9.02,7.25,10.21,20.76,10.21,20.76s-13.45,1.75-22.47-5.5c-8.1-6.51-9.88-18.06-10.16-20.35c-9.16-5.35-19.65-7.58-30.37-6.41&#10;&#9;&#9;&#9;&#9;c-0.18,0.02-0.31-0.03-0.42-0.12c-24.43,3.59-48.61,8.98-72.3,16.15c-0.78,0.24-1.19-0.96-0.41-1.19&#10;&#9;&#9;&#9;&#9;c16.67-5.04,33.58-9.21,50.65-12.49c0.07-0.1,0.16-0.18,0.31-0.23c8.39-2.51,16.26-6.13,23.6-10.8&#10;&#9;&#9;&#9;&#9;c0.11-1.6,1.22-13.87,9.37-20.97c8.73-7.6,22.24-6.38,22.24-6.38s-0.65,13.55-9.38,21.15c-6.69,5.83-16.19,6.47-20.26,6.45&#10;&#9;&#9;&#9;&#9;c-5.74,3.79-11.82,6.9-18.22,9.36c9.95-1.76,19.95-3.2,29.99-4.36c11.4-2.75,22.4-6.72,32.84-11.81&#10;&#9;&#9;&#9;&#9;c0.01-0.17,0.09-0.33,0.27-0.45c5.66-3.8,9.91-8.97,12.46-15.02c-1.82-2.59-7.6-11.71-6.23-21.4&#10;&#9;&#9;&#9;&#9;c1.62-11.46,12.63-19.39,12.63-19.39S964.74,571.66,963.12,583.13z" style="fill: rgb(255, 255, 255);"/>
    <path class="st2" d="M947.84,1246.74c-1.72-9.56,3.6-18.81,5.36-21.55c0.37-5.26,1.91-10.35,4.57-14.98&#10;&#9;&#9;&#9;&#9;c-8.35,8.74-15.72,18.41-21.93,28.85c0.18,3.3,0.23,13.92-5.95,21.36c-7.4,8.9-20.93,9.86-20.93,9.86s-1.53-13.47,5.87-22.38&#10;&#9;&#9;&#9;&#9;c6.31-7.59,17.05-9.4,20.1-9.78c11.85-19.84,27.81-36.9,46.83-50.05c-9.95,4.41-20.05,8.5-30.27,12.27&#10;&#9;&#9;&#9;&#9;c-0.06,0.1-0.14,0.19-0.27,0.25c-1.73,0.79-3.49,1.47-5.27,2.04c-0.02,0.02-0.03,0.04-0.05,0.06&#10;&#9;&#9;&#9;&#9;c-9.29,7.48-19.05,14.29-29.21,20.46c-0.61,2.66-3.56,13.54-12.01,19.1c-9.67,6.36-22.89,3.33-22.89,3.33s2.47-13.33,12.14-19.69&#10;&#9;&#9;&#9;&#9;c7.93-5.21,18.23-4.12,21.69-3.56c9.42-5.7,18.48-11.97,27.15-18.79c-0.25,0.06-0.49,0.12-0.74,0.18&#10;&#9;&#9;&#9;&#9;c-17.12,5.92-34.57,10.92-52.26,14.97c-1.71,2.7-7.9,11.5-17.34,13.95c-11.2,2.91-22.75-4.2-22.75-4.2s6.62-11.84,17.82-14.75&#10;&#9;&#9;&#9;&#9;c9.51-2.47,19.26,2.28,22,3.77c15.3-3.5,30.41-7.71,45.29-12.62c-8.05,0.65-16.2-0.66-23.64-3.8c0.01,0.12,0.02,0.19,0.02,0.19&#10;&#9;&#9;&#9;&#9;s-13.47,1.6-22.41-5.76c-8.94-7.35-9.97-20.88-9.97-20.88s13.47-1.6,22.41,5.76c7.04,5.79,9.18,15.4,9.76,19.23&#10;&#9;&#9;&#9;&#9;c9.63,4.23,20.52,5.3,30.84,2.88c15.9-5.5,31.51-11.8,46.77-18.86c0.3-0.18,0.58-0.38,0.88-0.56c0.17-0.1,0.34-0.12,0.49-0.08&#10;&#9;&#9;&#9;&#9;c1.44-0.67,2.87-1.35,4.31-2.03c-7.83,1.98-15.95,2.06-23.89,0.2c-3.57,1.4-13,4.41-21.58,1.2c-10.84-4.06-16.2-16.51-16.2-16.51&#10;&#9;&#9;&#9;&#9;s12.22-5.88,23.06-1.82c9.73,3.64,15.05,14.05,16.03,16.14c10.37,2.2,21.04,1.03,30.85-3.44c0.16-0.07,0.3-0.07,0.43-0.02&#10;&#9;&#9;&#9;&#9;c22.07-11.07,43.34-23.77,63.59-38c0.66-0.47,1.43,0.54,0.77,1c-14.25,10.02-29,19.27-44.18,27.74c-0.03,0.11-0.1,0.22-0.22,0.31&#10;&#9;&#9;&#9;&#9;c-7.18,5.02-13.52,10.92-19.02,17.65c0.4,1.56,3.19,13.56-2.33,22.85c-5.91,9.96-19.12,13.03-19.12,13.03s-3.63-13.07,2.28-23.02&#10;&#9;&#9;&#9;&#9;c4.53-7.63,13.34-11.22,17.21-12.48c4.27-5.4,9.06-10.26,14.36-14.6c-8.9,4.79-17.94,9.3-27.11,13.54&#10;&#9;&#9;&#9;&#9;c-9.96,6.18-19.16,13.4-27.48,21.51c0.04,0.16,0.02,0.34-0.11,0.51c-4.18,5.38-6.6,11.62-7.13,18.17&#10;&#9;&#9;&#9;&#9;c2.54,1.89,10.88,8.73,12.62,18.37c2.06,11.39-5.91,22.37-5.91,22.37S949.89,1258.13,947.84,1246.74z" style="fill: rgb(255, 255, 255);"/>
    <path class="st2" d="M1134.63,1131.71c7.24-4.74,10.45-13.39,11.62-17.45c5.11-4.23,9.5-9.24,13.03-14.89&#10;&#9;&#9;&#9;&#9;c-2.43,8.16-5.1,16.25-7.99,24.26c-0.21,0.17-0.36,0.42-0.41,0.76c-0.03,0.18-0.04,0.37-0.07,0.55&#10;&#9;&#9;&#9;&#9;c-5.21,14.3-11.15,28.34-17.79,42.06c-3.77,0.7-13.37,3.12-18.96,10.36c-7.07,9.17-5.06,22.58-5.06,22.58s13.48-1.45,20.56-10.61&#10;&#9;&#9;&#9;&#9;c5.28-6.84,5.49-16.04,5.26-20.27c5.43-11.14,10.41-22.49,14.9-34.02c-0.89,10.91-0.77,21.85,0.36,32.75&#10;&#9;&#9;&#9;&#9;c-2.63,2.93-8.63,10.61-8.67,19.65c-0.05,11.58,9.7,21,9.7,21s9.83-9.34,9.88-20.92c0.04-8.88-5.69-16.5-8.36-19.56&#10;&#9;&#9;&#9;&#9;c-1.5-14.12-1.29-28.31,0.65-42.42c5.09-14,9.5-28.23,13.19-42.65c0.44,3.01,1.19,5.94,2.23,8.78&#10;&#9;&#9;&#9;&#9;c-0.4,3.53-0.99,13.82,4.56,21.47c6.8,9.37,20.23,11.22,20.23,11.22s2.41-13.34-4.38-22.72c-5.1-7.03-13.94-9.83-18.04-10.79&#10;&#9;&#9;&#9;&#9;c-1.63-4.44-2.49-9.13-2.57-14c-0.01-0.36-0.14-0.63-0.34-0.8c2.3-9.6,4.28-19.28,5.95-29.02c0.05-0.18,0.11-0.35,0.17-0.53&#10;&#9;&#9;&#9;&#9;c0.07-0.22,0.07-0.43,0.03-0.63c2.09-12.38,3.68-24.85,4.74-37.38c2.86,24.96,11.84,48.98,26.1,69.72&#10;&#9;&#9;&#9;&#9;c-0.38,3.59-0.86,13.81,4.7,21.37c6.86,9.33,20.3,11.09,20.3,11.09s2.33-13.36-4.53-22.69c-5.11-6.96-13.89-9.7-18.02-10.65&#10;&#9;&#9;&#9;&#9;c-6.78-9.78-12.36-20.3-16.65-31.3c3.82,4.17,8.09,7.82,12.77,10.94c2.19,3.81,6.66,10.15,13.67,13.51&#10;&#9;&#9;&#9;&#9;c10.43,5.01,22.53,1.52,22.53,1.52s-4.83-11.62-15.26-16.64c-8.57-4.12-18.26-2.5-21.44-1.79c-4.9-3.51-9.3-7.66-13.17-12.46&#10;&#9;&#9;&#9;&#9;c-0.3-0.37-0.69-0.5-1.06-0.47c-5.36-15.45-8.24-31.77-8.4-48.31c0-0.41-0.16-0.69-0.4-0.86c0.35-7.31,0.52-14.63,0.51-21.96&#10;&#9;&#9;&#9;&#9;c0.24-2.84,0.38-5.71,0.4-8.58c0.01-1.6-2.49-1.97-2.5-0.35c0,0.39-0.02,0.77-0.03,1.16c-0.27,0.24-0.45,0.58-0.44,1.02&#10;&#9;&#9;&#9;&#9;c0.04,2.16,0.06,4.32,0.06,6.47c-1.01,11.88-3.94,23.45-8.73,34.33c-4.01,1.4-11.5,4.76-16.22,11.42&#10;&#9;&#9;&#9;&#9;c-6.69,9.45-5.28,21.95-5.28,21.95s12.27-2.81,18.96-12.25c5.79-8.17,5.52-18.63,5.34-21.3c2.32-5.44,4.21-11.04,5.63-16.76&#10;&#9;&#9;&#9;&#9;c-0.73,20.05-2.81,40.02-6.19,59.75c-2.44,7.83-6.5,14.79-12.03,20.61c-2.78,0.06-13.98,0.73-21.12,7.84&#10;&#9;&#9;&#9;&#9;c-8.21,8.16-7.96,21.72-7.96,21.72s13.56,0.32,21.77-7.84c5.77-5.73,7.36-14.13,7.8-18.62c3.76-3.68,6.94-7.85,9.47-12.42&#10;&#9;&#9;&#9;&#9;c-1.98,10.02-4.3,19.97-6.96,29.83c-0.22,0.12-0.4,0.32-0.52,0.62c-3.64,9.26-9.42,17.32-16.81,23.65&#10;&#9;&#9;&#9;&#9;c-3.71-0.58-13.68-1.49-21.41,3.57c-9.68,6.34-12.17,19.68-12.17,19.68S1124.94,1138.06,1134.63,1131.71z" style="fill: rgb(255, 255, 255);"/>
    <path class="st2" d="M716.21,1104.5c6.39,5.84,15.56,6.82,19.78,6.94c5.36,3.9,11.31,6.92,17.65,8.94&#10;&#9;&#9;&#9;&#9;c-8.51-0.34-17-0.92-25.48-1.74c-0.22-0.16-0.5-0.25-0.84-0.21c-0.18,0.02-0.37,0.05-0.55,0.07&#10;&#9;&#9;&#9;&#9;c-15.14-1.51-30.21-3.79-45.15-6.83c-1.61-3.48-6.33-12.18-14.73-15.81c-10.63-4.59-23.13,0.69-23.13,0.69&#10;&#9;&#9;&#9;&#9;s4.74,12.71,15.37,17.29c7.93,3.42,16.9,1.36,20.94,0.09c12.14,2.51,24.37,4.52,36.65,6.02c-10.79,1.84-21.36,4.66-31.64,8.45&#10;&#9;&#9;&#9;&#9;c-3.49-1.82-12.41-5.74-21.18-3.54c-11.23,2.82-17.95,14.59-17.95,14.59s11.48,7.21,22.71,4.4c8.62-2.16,14.58-9.59,16.88-12.94&#10;&#9;&#9;&#9;&#9;c13.31-4.95,27.11-8.25,41.26-9.86c14.82,1.47,29.7,2.22,44.59,2.23c-2.81,1.17-5.46,2.62-7.95,4.33&#10;&#9;&#9;&#9;&#9;c-3.52,0.48-13.63,2.46-19.67,9.73c-7.4,8.9-5.87,22.38-5.87,22.38s13.53-0.96,20.93-9.87c5.55-6.68,6.08-15.94,5.99-20.14&#10;&#9;&#9;&#9;&#9;c3.9-2.68,8.23-4.67,12.93-5.95c0.35-0.1,0.57-0.29,0.69-0.53c9.87-0.15,19.74-0.62,29.59-1.41c0.18,0.01,0.37,0.02,0.55,0.03&#10;&#9;&#9;&#9;&#9;c0.23,0.01,0.44-0.04,0.62-0.12c12.52-1.03,24.99-2.58,37.39-4.65c-23.48,8.94-44.53,23.59-61.09,42.54&#10;&#9;&#9;&#9;&#9;c-3.58,0.52-13.59,2.58-19.54,9.84c-7.34,8.95-5.72,22.42-5.72,22.42s13.52-1.05,20.86-10c5.47-6.68,5.97-15.86,5.86-20.1&#10;&#9;&#9;&#9;&#9;c7.8-8.99,16.61-16.99,26.21-23.87c-3.1,4.74-5.57,9.78-7.44,15.07c-3.15,3.06-8.18,8.96-9.71,16.58&#10;&#9;&#9;&#9;&#9;c-2.28,11.35,4.1,22.2,4.1,22.2s10.07-7.55,12.34-18.9c1.87-9.33-2.1-18.31-3.57-21.22c2.19-5.62,5.12-10.91,8.81-15.85&#10;&#9;&#9;&#9;&#9;c0.29-0.38,0.31-0.79,0.19-1.14c13.64-9.02,28.74-15.84,44.73-20.09c0.39-0.1,0.63-0.33,0.73-0.6&#10;&#9;&#9;&#9;&#9;c7.17-1.47,14.31-3.11,21.41-4.94c2.82-0.47,5.62-1.04,8.42-1.73c1.55-0.39,1.3-2.9-0.28-2.51c-0.38,0.09-0.75,0.17-1.13,0.26&#10;&#9;&#9;&#9;&#9;c-0.29-0.2-0.67-0.29-1.09-0.18c-2.08,0.57-4.17,1.12-6.26,1.66c-11.76,1.96-23.7,1.98-35.42,0.04&#10;&#9;&#9;&#9;&#9;c-2.35-3.53-7.45-9.96-15.08-12.89c-10.81-4.15-22.58,0.31-22.58,0.31s5.76,11.19,16.56,15.34c9.35,3.59,19.42,0.73,21.96-0.1&#10;&#9;&#9;&#9;&#9;c5.85,0.91,11.74,1.35,17.63,1.31c-19.61,4.25-39.47,7.18-59.43,8.78c-8.19-0.43-15.94-2.64-22.94-6.56&#10;&#9;&#9;&#9;&#9;c-0.74-2.68-4.16-13.36-12.82-18.53c-9.94-5.93-23.02-2.34-23.02-2.34s3.04,13.22,12.98,19.15c6.98,4.17,15.51,3.64,19.97,2.95&#10;&#9;&#9;&#9;&#9;c4.5,2.73,9.32,4.78,14.38,6.11c-10.2,0.56-20.41,0.77-30.62,0.64c-0.17-0.18-0.41-0.31-0.73-0.35&#10;&#9;&#9;&#9;&#9;c-9.87-1.24-19.12-4.84-27.07-10.44c-0.36-3.74-1.94-13.63-8.76-19.86c-8.54-7.81-22.07-6.92-22.07-6.92&#10;&#9;&#9;&#9;&#9;S707.67,1096.69,716.21,1104.5z" style="fill: rgb(255, 255, 255);"/>
    <path class="st2" d="M1099.56,1074.97c8.56-2.47,14.27-10.14,16.44-13.55c5.13-1.49,10.03-3.59,14.65-6.27&#10;&#9;&#9;&#9;&#9;c-13.58,16.07-26.17,32.96-37.66,50.57c-5.64,5.39-11.83,10.02-18.51,13.85c-2.59-1.34-12.62-6.02-22.21-3.25&#10;&#9;&#9;&#9;&#9;c-11.12,3.21-17.43,15.21-17.43,15.21s11.73,6.81,22.85,3.6c7.32-2.11,12.55-8.03,15.28-11.83c5.35-2.84,10.41-6.17,15.15-9.96&#10;&#9;&#9;&#9;&#9;c-6.33,10.09-12.31,20.39-17.92,30.9c-0.24,0.01-0.48,0.09-0.72,0.29c-6.72,5.48-13.17,11.26-19.33,17.31&#10;&#9;&#9;&#9;&#9;c-0.08,0.02-0.16,0.06-0.25,0.1c-3.91,2.08-8.02,3.6-12.28,4.55c-2.86-2.31-11.1-8.21-20.41-7.68&#10;&#9;&#9;&#9;&#9;c-11.56,0.65-20.38,10.96-20.38,10.96s9.92,9.24,21.48,8.59c8.5-0.48,15.51-6.17,18.63-9.15c2.81-0.55,5.56-1.33,8.24-2.36&#10;&#9;&#9;&#9;&#9;c-6.38,6.6-12.43,13.5-18.13,20.7c-0.02-0.11-0.04-0.17-0.04-0.17s-13.36,2.34-19.8,11.96c-6.45,9.62-3.54,22.86-3.54,22.86&#10;&#9;&#9;&#9;&#9;s13.36-2.34,19.8-11.96c4.33-6.46,4.44-14.56,4.05-19.18c11.8-15.19,25.15-29.1,39.88-41.54c-1.51,2.9-3,5.81-4.45,8.75&#10;&#9;&#9;&#9;&#9;c-3.01,1.85-6.03,4.36-8.19,7.73c-3.92,6.1-4.15,13.55-3.78,18.27c-1.15,2.7-2.28,5.4-3.39,8.12c-0.4,0.13-0.73,0.46-0.76,1.03&#10;&#9;&#9;&#9;&#9;c-0.02,0.3-0.01,0.61-0.02,0.91c-3.93,9.76-7.56,19.64-10.87,29.64c-2.69,1.54-11.86,7.37-14.73,16.77&#10;&#9;&#9;&#9;&#9;c-3.38,11.07,3.24,22.91,3.24,22.91s12.1-6.12,15.48-17.19c2.43-7.95-0.3-16.3-2.03-20.37c2.78-8.47,5.79-16.87,9.02-25.17&#10;&#9;&#9;&#9;&#9;c0.17,2.48,0.48,4.94,0.94,7.38c-1.68,4.26-3.99,12.26-1.57,19.84c3.51,11.03,15.69,17.01,15.69,17.01s6.48-11.91,2.97-22.94&#10;&#9;&#9;&#9;&#9;c-3.02-9.47-12.41-15.21-15.01-16.65c-0.53-3.52-0.73-7.08-0.62-10.67c0.8-2,1.62-3.99,2.45-5.97&#10;&#9;&#9;&#9;&#9;c1.29-0.27,13.53-3.09,19.46-12.3c4.28-6.64,4.17-14.89,3.66-19.46c1.55-4.41,3.76-8.5,6.59-12.26c0.17,1.93,0.41,3.86,0.75,5.78&#10;&#9;&#9;&#9;&#9;c-0.99,2.9-4.05,13.36,0.02,22.35c4.78,10.54,17.57,15.05,17.57,15.05s5.04-12.59,0.26-23.13c-3.53-7.78-11.41-12.27-15.31-14.09&#10;&#9;&#9;&#9;&#9;c-1.8-9.83-1.31-19.89,1.45-29.61c0-0.02,0.01-0.03,0.01-0.05c2.83-4.66,5.73-9.28,8.71-13.85c0.16-0.15,0.32-0.3,0.47-0.45&#10;&#9;&#9;&#9;&#9;c0.26-0.26,0.38-0.56,0.4-0.86c4.85-7.39,9.89-14.65,15.12-21.78c-1.82,5.64-2.66,11.51-2.46,17.47c-1.2,4.14-2.99,13,0.52,20.76&#10;&#9;&#9;&#9;&#9;c4.78,10.54,17.57,15.05,17.57,15.05s5.04-12.59,0.26-23.13c-3.71-8.17-12.22-12.72-15.87-14.35c-0.03-8.24,2-16.31,6.06-23.69&#10;&#9;&#9;&#9;&#9;c0.08-0.14,0.12-0.29,0.15-0.43c6.88-8.99,14.06-17.76,21.53-26.27c0.38-0.31,0.77-0.61,1.15-0.92c0.32-0.26,0.45-0.58,0.46-0.9&#10;&#9;&#9;&#9;&#9;c12.03-13.58,24.78-26.52,38.23-38.75c1.2-1.09-0.36-3.07-1.56-1.98c-14.09,12.8-27.42,26.39-39.96,40.67&#10;&#9;&#9;&#9;&#9;c-6.5,5.15-13.76,8.91-21.6,11.2c-3.55-1.7-12.61-5.3-21.3-2.8c-11.12,3.21-17.43,15.21-17.43,15.21&#10;&#9;&#9;&#9;&#9;S1088.44,1078.17,1099.56,1074.97z M1081.27,1141.11c-3.32,3.9-5.91,8.15-7.8,12.75c-1.26,0.32-3.76,1.03-6.64,2.35&#10;&#9;&#9;&#9;&#9;c4.82-9.55,9.92-18.95,15.33-28.17C1081.43,1132.39,1081.14,1136.75,1081.27,1141.11z" style="fill: rgb(255, 255, 255);"/>
    <path class="st2" d="M854.99,626.32c8.4,2.98,17.51,0.06,21.26-1.44c5.04,1.77,10.25,2.93,15.56,3.43&#10;&#9;&#9;&#9;&#9;c-20.4,5.16-40.47,11.56-60.06,19.18c-7.73,1.1-15.45,1.26-23.12,0.48c-1.32-2.6-6.75-12.24-16.16-15.58&#10;&#9;&#9;&#9;&#9;c-10.91-3.87-23.03,2.22-23.03,2.22s5.57,12.36,16.48,16.24c7.18,2.55,14.88,0.78,19.31-0.72c6,0.81,12.05,1.05,18.11,0.73&#10;&#9;&#9;&#9;&#9;c-11.02,4.51-21.88,9.41-32.56,14.68c-0.2-0.13-0.45-0.2-0.75-0.19c-8.65,0.54-17.26,1.48-25.8,2.82&#10;&#9;&#9;&#9;&#9;c-0.08-0.03-0.17-0.05-0.26-0.06c-4.39-0.59-8.62-1.75-12.63-3.45c-0.98-3.54-4.25-13.14-12.12-18.13&#10;&#9;&#9;&#9;&#9;c-9.78-6.2-22.94-2.96-22.94-2.96s2.68,13.29,12.46,19.49c7.19,4.56,16.2,4.01,20.47,3.41c2.6,1.19,5.3,2.15,8.07,2.88&#10;&#9;&#9;&#9;&#9;c-9.03,1.65-17.97,3.73-26.79,6.27c0.05-0.1,0.07-0.16,0.07-0.16s-12.22-5.87-23.06-1.81c-10.84,4.06-16.19,16.52-16.19,16.52&#10;&#9;&#9;&#9;&#9;s12.22,5.87,23.06,1.81c7.29-2.73,12.09-9.25,14.46-13.24c18.44-5.48,37.39-9.02,56.61-10.54c-2.92,1.48-5.82,2.98-8.71,4.52&#10;&#9;&#9;&#9;&#9;c-3.52-0.25-7.44,0.04-11.16,1.51c-6.74,2.67-11.27,8.6-13.71,12.65c-2.51,1.52-5,3.06-7.48,4.63c-0.4-0.13-0.86-0.05-1.21,0.39&#10;&#9;&#9;&#9;&#9;c-0.19,0.24-0.36,0.48-0.55,0.72c-8.87,5.65-17.58,11.57-26.1,17.76c-3.09-0.32-13.93-0.92-21.74,5.06&#10;&#9;&#9;&#9;&#9;c-9.2,7.03-10.71,20.51-10.71,20.51s13.4,2.08,22.6-4.96c6.61-5.05,9.25-13.43,10.21-17.75c7.2-5.27,14.53-10.34,21.99-15.21&#10;&#9;&#9;&#9;&#9;c-1.31,2.11-2.48,4.29-3.53,6.55c-3.85,2.49-10.38,7.64-12.83,15.21c-3.57,11.01,2.85,22.96,2.85,22.96s12.21-5.91,15.78-16.92&#10;&#9;&#9;&#9;&#9;c3.07-9.46-1.23-19.6-2.51-22.27c1.62-3.17,3.53-6.18,5.71-9.04c1.82-1.15,3.64-2.3,5.47-3.43c1.21,0.53,12.79,5.37,22.98,1.33&#10;&#9;&#9;&#9;&#9;c7.34-2.91,12.06-9.68,14.31-13.69c3.83-2.68,8.01-4.72,12.5-6.12c-0.99,1.67-1.91,3.38-2.76,5.14&#10;&#9;&#9;&#9;&#9;c-2.49,1.78-11.08,8.51-13,18.18c-2.25,11.36,5.52,22.47,5.52,22.47s11.43-7.3,13.68-18.66c1.66-8.38-2.13-16.62-4.24-20.37&#10;&#9;&#9;&#9;&#9;c4.27-9.04,10.52-16.93,18.43-23.22c0.01-0.01,0.02-0.02,0.04-0.04c5.02-2.14,10.06-4.21,15.15-6.19&#10;&#9;&#9;&#9;&#9;c0.22-0.03,0.43-0.06,0.65-0.09c0.37-0.06,0.64-0.24,0.83-0.47c8.25-3.18,16.58-6.15,24.98-8.9c-4.77,3.52-8.86,7.81-12.17,12.78&#10;&#9;&#9;&#9;&#9;c-3.39,2.67-10.01,8.83-11.66,17.18c-2.25,11.36,5.52,22.47,5.52,22.47s11.43-7.3,13.68-18.66c1.75-8.8-2.53-17.46-4.54-20.9&#10;&#9;&#9;&#9;&#9;c4.78-6.72,11.12-12.1,18.72-15.73c0.15-0.07,0.26-0.16,0.37-0.26c10.83-3.3,21.77-6.25,32.81-8.82&#10;&#9;&#9;&#9;&#9;c0.49-0.02,0.98-0.05,1.47-0.08c0.41-0.03,0.71-0.21,0.9-0.47c17.68-4.03,35.59-7.13,53.65-9.23c1.61-0.19,1.5-2.71-0.12-2.52&#10;&#9;&#9;&#9;&#9;c-18.91,2.2-37.66,5.49-56.17,9.79c-8.28,0.4-16.38-0.77-24.08-3.47c-1.9-3.45-7.16-11.65-15.68-14.68&#10;&#9;&#9;&#9;&#9;c-10.91-3.87-23.03,2.22-23.03,2.22S844.08,622.45,854.99,626.32z M801.59,669.43c-4.97,1.23-9.55,3.19-13.77,5.82&#10;&#9;&#9;&#9;&#9;c-1.21-0.48-3.66-1.35-6.77-1.96c9.48-4.96,19.1-9.63,28.87-13.98C806.81,662.43,804.03,665.81,801.59,669.43z" style="fill: rgb(255, 255, 255);"/>
    <path class="st2" d="M914.38,1207.56c0,0,13.42-1.97,20.13-11.41c5.24-7.37,4.84-17.11,4.41-21.02&#10;&#9;&#9;&#9;&#9;c4.76-6.63,10.72-12.24,17.72-16.67c17.62-7.1,34.86-15.18,51.61-24.23c1.43-0.77,0.07-2.9-1.35-2.13&#10;&#9;&#9;&#9;&#9;c-15.99,8.65-32.43,16.39-49.22,23.24c-0.3-0.1-0.65-0.08-1,0.13c-0.42,0.25-0.84,0.52-1.25,0.78&#10;&#9;&#9;&#9;&#9;c-10.51,4.23-21.16,8.1-31.92,11.62c-0.14-0.02-0.29-0.03-0.45,0c-8.31,1.39-16.59,0.62-24.36-2.13&#10;&#9;&#9;&#9;&#9;c-0.33-3.98-1.8-13.52-8.28-19.72c-8.37-8-21.91-7.42-21.91-7.42s0.01,13.56,8.38,21.56c6.15,5.89,15.11,7.13,19.42,7.37&#10;&#9;&#9;&#9;&#9;c5.56,2.17,11.37,3.32,17.3,3.47c-8.46,2.57-16.98,4.93-25.56,7.05c-0.29-0.08-0.62-0.07-0.95,0.09c-0.2,0.1-0.39,0.2-0.58,0.3&#10;&#9;&#9;&#9;&#9;c-5.3,1.3-10.62,2.5-15.95,3.63c-0.02,0-0.03-0.01-0.05-0.01c-10.08-0.61-19.74-3.48-28.42-8.43c-0.43-4.28-2.05-13.2-8.23-19.11&#10;&#9;&#9;&#9;&#9;c-8.37-8-21.91-7.42-21.91-7.42s0.01,13.56,8.38,21.56c7.13,6.82,18.02,7.4,21.08,7.43c1.71,0.95,3.44,1.82,5.21,2.62&#10;&#9;&#9;&#9;&#9;c-4.48,1.43-9.07,2.16-13.75,2.16c-4.15-1.99-11.89-4.82-19.58-2.99c-10.66,2.54-17.37,13.16-18.05,14.28&#10;&#9;&#9;&#9;&#9;c-2.15,0.13-4.3,0.23-6.45,0.33c-3.42-1.08-6.71-2.46-9.86-4.12c-0.49-2.92-2.8-13.69-10.74-19.68&#10;&#9;&#9;&#9;&#9;c-9.25-6.97-22.63-4.8-22.63-4.8s1.6,13.47,10.85,20.43c6.36,4.79,14.67,5.26,19.24,5.09c2.15,1.24,4.37,2.35,6.65,3.33&#10;&#9;&#9;&#9;&#9;c-8.9,0.29-17.82,0.35-26.74,0.17c-3.27-2.98-10.24-8.32-18.55-8.67c-11.57-0.48-21.35,8.92-21.35,8.92s8.97,10.17,20.54,10.64&#10;&#9;&#9;&#9;&#9;c9.83,0.41,18.36-6.31,20.71-8.34c10.53,0.19,21.06,0.03,31.57-0.44c0.29,0.09,0.57,0.19,0.86,0.28&#10;&#9;&#9;&#9;&#9;c0.54,0.16,0.96-0.03,1.22-0.37c2.93-0.14,5.86-0.31,8.78-0.51c4.33,1.92,11.43,4.17,18.49,2.49c3.9-0.93,7.27-2.94,10.01-5.17&#10;&#9;&#9;&#9;&#9;c3.25-0.4,6.49-0.84,9.72-1.3c-16.61,9.79-34.15,17.77-52.4,23.88c-4.23-1.9-11.9-4.48-19.44-2.54&#10;&#9;&#9;&#9;&#9;c-11.21,2.9-17.84,14.72-17.84,14.72s11.54,7.13,22.75,4.23c11.21-2.9,17.84-14.72,17.84-14.72s-0.05-0.03-0.15-0.09&#10;&#9;&#9;&#9;&#9;c8.68-2.99,17.2-6.42,25.53-10.25c-1.85,2.19-3.51,4.53-4.96,7c-3.85,1.96-11.54,6.69-14.81,14.54&#10;&#9;&#9;&#9;&#9;c-4.44,10.69,0.99,23.11,0.99,23.11s12.64-4.91,17.09-15.6c3.58-8.61,0.75-18.34-0.49-21.8c2.31-3.7,5.1-7.07,8.36-10.08&#10;&#9;&#9;&#9;&#9;c0.07-0.06,0.13-0.13,0.18-0.2c7.76-3.81,15.34-7.98,22.74-12.51c0.26-0.16,0.42-0.36,0.51-0.58&#10;&#9;&#9;&#9;&#9;c11.77-1.82,23.48-4.04,35.09-6.68c-5.15,3.21-9.96,6.88-14.41,10.99c-4.49,1.31-11.81,4.29-16.22,10.49&#10;&#9;&#9;&#9;&#9;c-6.71,9.43-4.17,22.76-4.17,22.76s13.42-1.97,20.13-11.41c5.78-8.13,4.7-19.15,4.29-22.03c5.83-5.04,12.25-9.34,19.2-12.88&#10;&#9;&#9;&#9;&#9;c20.42-5.01,40.53-11.29,60.19-18.78c-4.06,3.47-7.66,7.4-10.77,11.74c-3.94,0.92-13.07,3.76-18.23,11.02&#10;&#9;&#9;&#9;&#9;C911.85,1194.24,914.38,1207.56,914.38,1207.56z M862.71,1183.66c-10.49,2.04-21.05,3.75-31.66,5.13c2.19-2.28,3.7-4.4,4.42-5.49&#10;&#9;&#9;&#9;&#9;c4.97-0.26,9.84-1.29,14.62-3.14C854.16,1181.72,858.37,1182.89,862.71,1183.66z" style="fill: rgb(255, 255, 255);"/>
    <path class="st2" d="M1280.09,1012.09c0,0-6.48-11.91-17.65-14.96c-8.91-2.43-18.11,1.52-21.47,3.22&#10;&#9;&#9;&#9;&#9;c-8.99-3.73-16.97-9.62-23.29-17.3c-0.2-0.25-0.44-0.38-0.69-0.42c-5.57-8.56-10.85-17.31-15.83-26.22&#10;&#9;&#9;&#9;&#9;c3.82,3.56,8.13,6.55,12.85,8.89c1.8,4.13,5.91,11.63,13.16,15.3c10.33,5.23,23.12,0.74,23.12,0.74s-3.95-12.97-14.28-18.2&#10;&#9;&#9;&#9;&#9;c-8.99-4.55-19.85-1.74-22.51-0.93c-7.06-3.82-13.07-9.19-17.8-15.89c-13-24.75-23.73-50.71-31.94-77.54&#10;&#9;&#9;&#9;&#9;c-0.47-1.54-2.96-1.09-2.48,0.46c8.19,26.77,18.85,52.69,31.77,77.41c0.03,0.2,0.09,0.4,0.22,0.59c0.1,0.15,0.22,0.3,0.32,0.45&#10;&#9;&#9;&#9;&#9;c4.6,8.74,9.47,17.34,14.62,25.76c-0.14,0.23-0.18,0.52-0.08,0.87c1.43,4.65,2.06,9.38,1.88,14.11&#10;&#9;&#9;&#9;&#9;c-3.6,2.17-11.14,7.56-13.82,15.83c-3.57,11.01,2.84,22.96,2.84,22.96s12.21-5.91,15.78-16.92c2.92-8.99-0.82-18.6-2.29-21.83&#10;&#9;&#9;&#9;&#9;c0.12-3.02-0.08-6.04-0.59-9.04c4.31,6.81,8.81,13.5,13.48,20.07c5.4,11.8,9.46,24.08,12.14,36.77&#10;&#9;&#9;&#9;&#9;c-1.59,3.74-4.69,12.75-1.91,21.18c3.62,11,15.85,16.85,15.85,16.85s6.36-11.98,2.74-22.97c-2.83-8.59-10.9-14.04-14.31-16.01&#10;&#9;&#9;&#9;&#9;c-1.96-9.18-4.64-18.16-8.02-26.89c11.31,15.13,23.58,29.56,36.73,43.19c1.09,4.1,4.13,12.78,11.27,17.65&#10;&#9;&#9;&#9;&#9;c9.56,6.53,22.83,3.75,22.83,3.75s-2.22-13.38-11.78-19.91c-7.56-5.17-17.43-4.51-21.24-4c-15.28-15.92-29.35-32.93-42.11-50.86&#10;&#9;&#9;&#9;&#9;c-0.58-1.25-1.15-2.51-1.75-3.75c4.58,3.53,9.62,6.4,14.99,8.53c2.36,3.51,8.09,10.74,16.44,13.01&#10;&#9;&#9;&#9;&#9;C1268.46,1019.07,1280.09,1012.09,1280.09,1012.09z M1223.87,992.88c0.29,0.25,0.59,0.48,0.89,0.72c-0.12,0-0.24,0.01-0.36,0.04&#10;&#9;&#9;&#9;&#9;C1224.22,993.39,1224.04,993.13,1223.87,992.88z" style="fill: rgb(255, 255, 255);"/>
  </g>
</svg>