<?xml version="1.0" encoding="utf-8"?>
<svg viewBox="546.7129 329.6998 705.1524 470.6337" xmlns="http://www.w3.org/2000/svg">
  <g transform="matrix(0.8636610507965088, 0, 0, 0.8029959797859192, -326.04284208627485, -751.9620255388922)">
    <path class="st733" d="M1312.89,1880.77c-3.84-21.26,8.01-41.85,11.93-47.94c0.82-11.71,4.26-23.03,10.16-33.32&#10;&#9;&#9;&#9;&#9;c-18.58,19.43-34.96,40.94-48.77,64.18c0.41,7.34,0.52,30.96-13.23,47.5c-16.46,19.8-46.55,21.94-46.55,21.94&#10;&#9;&#9;&#9;&#9;s-3.4-29.97,13.06-49.77c14.03-16.87,37.93-20.92,44.7-21.75c26.37-44.12,61.87-82.08,104.16-111.32&#10;&#9;&#9;&#9;&#9;c-22.14,9.82-44.59,18.91-67.32,27.28c-0.13,0.22-0.31,0.43-0.61,0.56c-3.84,1.75-7.76,3.27-11.73,4.54&#10;&#9;&#9;&#9;&#9;c-0.04,0.04-0.06,0.09-0.1,0.13c-20.66,16.64-42.37,31.79-64.97,45.51c-1.35,5.91-7.91,30.12-26.72,42.48&#10;&#9;&#9;&#9;&#9;c-21.52,14.14-50.92,7.42-50.92,7.42s5.48-29.66,27-43.8c17.63-11.59,40.55-9.17,48.25-7.91c20.95-12.67,41.1-26.62,60.39-41.8&#10;&#9;&#9;&#9;&#9;c-0.55,0.14-1.1,0.26-1.65,0.39c-38.08,13.17-76.89,24.29-116.24,33.3c-3.8,6.01-17.56,25.57-38.57,31.04&#10;&#9;&#9;&#9;&#9;c-24.92,6.48-50.6-9.34-50.6-9.34s14.72-26.33,39.65-32.8c21.15-5.5,42.85,5.06,48.93,8.38c34.02-7.78,67.64-17.16,100.73-28.07&#10;&#9;&#9;&#9;&#9;c-17.91,1.44-36.03-1.47-52.58-8.44c0.03,0.27,0.04,0.42,0.04,0.42s-29.95,3.56-49.84-12.8c-19.89-16.36-22.18-46.43-22.18-46.43&#10;&#9;&#9;&#9;&#9;s29.95-3.56,49.84,12.8c15.66,12.88,20.41,34.26,21.72,42.77c21.43,9.42,45.64,11.78,68.61,6.41&#10;&#9;&#9;&#9;&#9;c35.36-12.24,70.08-26.25,104.03-41.95c0.66-0.41,1.3-0.84,1.96-1.25c0.37-0.23,0.75-0.26,1.1-0.18c3.2-1.49,6.39-2.99,9.58-4.52&#10;&#9;&#9;&#9;&#9;c-17.4,4.41-35.48,4.57-53.13,0.45c-7.94,3.11-28.92,9.8-48,2.66c-24.12-9.02-36.04-36.73-36.04-36.73s27.18-13.08,51.3-4.05&#10;&#9;&#9;&#9;&#9;c21.65,8.1,33.47,31.24,35.66,35.9c23.08,4.9,46.8,2.3,68.62-7.65c0.36-0.16,0.68-0.15,0.96-0.05&#10;&#9;&#9;&#9;&#9;c49.08-24.63,96.4-52.86,141.45-84.53c1.48-1.04,3.18,1.19,1.7,2.23c-31.7,22.28-64.51,42.86-98.26,61.7&#10;&#9;&#9;&#9;&#9;c-0.08,0.25-0.21,0.49-0.49,0.69c-15.97,11.16-30.07,24.29-42.31,39.27c0.88,3.46,7.09,30.15-5.17,50.82&#10;&#9;&#9;&#9;&#9;c-13.14,22.14-42.52,28.98-42.52,28.98s-8.07-29.06,5.07-51.21c10.07-16.98,29.68-24.95,38.29-27.75&#10;&#9;&#9;&#9;&#9;c9.49-12,20.15-22.82,31.95-32.47c-19.79,10.65-39.91,20.68-60.29,30.12c-22.15,13.74-42.63,29.81-61.13,47.85&#10;&#9;&#9;&#9;&#9;c0.09,0.36,0.05,0.75-0.25,1.14c-9.3,11.96-14.68,25.85-15.85,40.42c5.64,4.19,24.21,19.42,28.07,40.85&#10;&#9;&#9;&#9;&#9;c4.57,25.34-13.15,49.75-13.15,49.75S1317.46,1906.11,1312.89,1880.77z" style="fill: rgb(255, 255, 255); opacity: 0.2;"/>
    <path class="st733" d="M1396.99,1394.81c14.2,12.99,34.6,15.16,44,15.43c11.93,8.68,25.15,15.4,39.25,19.89&#10;&#9;&#9;&#9;&#9;c-18.92-0.76-37.82-2.05-56.68-3.87c-0.48-0.35-1.11-0.55-1.87-0.46c-0.41,0.05-0.82,0.11-1.22,0.16&#10;&#9;&#9;&#9;&#9;c-33.68-3.37-67.2-8.43-100.43-15.2c-3.58-7.75-14.08-27.1-32.77-35.16c-23.64-10.2-51.44,1.52-51.44,1.52&#10;&#9;&#9;&#9;&#9;s10.54,28.26,34.19,38.46c17.64,7.61,37.59,3.02,46.58,0.19c27.01,5.58,54.2,10.06,81.52,13.38c-24,4.09-47.52,10.36-70.38,18.8&#10;&#9;&#9;&#9;&#9;c-7.76-4.05-27.61-12.76-47.11-7.87c-24.98,6.26-39.93,32.46-39.93,32.46s25.54,16.04,50.52,9.78&#10;&#9;&#9;&#9;&#9;c19.17-4.81,32.42-21.34,37.55-28.78c29.61-11.01,60.3-18.35,91.78-21.94c32.97,3.27,66.07,4.93,99.17,4.95&#10;&#9;&#9;&#9;&#9;c-6.25,2.6-12.15,5.82-17.69,9.64c-7.82,1.07-30.33,5.47-43.76,21.63c-16.46,19.81-13.05,49.78-13.05,49.78&#10;&#9;&#9;&#9;&#9;s30.09-2.14,46.54-21.95c12.35-14.87,13.51-35.46,13.32-44.81c8.68-5.96,18.31-10.38,28.76-13.23c0.78-0.21,1.27-0.65,1.54-1.17&#10;&#9;&#9;&#9;&#9;c21.96-0.33,43.91-1.38,65.81-3.14c0.41,0.02,0.82,0.05,1.23,0.07c0.52,0.02,0.97-0.09,1.37-0.28&#10;&#9;&#9;&#9;&#9;c27.84-2.3,55.59-5.74,83.17-10.34c-52.23,19.89-99.04,52.47-135.89,94.61c-7.96,1.16-30.23,5.75-43.47,21.89&#10;&#9;&#9;&#9;&#9;c-16.33,19.91-12.73,49.86-12.73,49.86s30.07-2.33,46.4-22.24c12.18-14.85,13.27-35.27,13.04-44.7c17.34-20,36.94-37.8,58.3-53.1&#10;&#9;&#9;&#9;&#9;c-6.89,10.54-12.4,21.74-16.54,33.53c-7,6.81-18.2,19.94-21.6,36.89c-5.07,25.25,9.12,49.38,9.12,49.38s22.39-16.8,27.46-42.05&#10;&#9;&#9;&#9;&#9;c4.16-20.74-4.66-40.72-7.95-47.2c4.88-12.5,11.4-24.27,19.6-35.25c0.64-0.86,0.7-1.76,0.42-2.55&#10;&#9;&#9;&#9;&#9;c30.34-20.06,63.92-35.24,99.48-44.68c0.87-0.23,1.39-0.73,1.63-1.33c15.95-3.28,31.82-6.93,47.61-10.98&#10;&#9;&#9;&#9;&#9;c6.26-1.05,12.51-2.31,18.72-3.85c3.46-0.86,2.88-6.45-0.62-5.58c-0.84,0.21-1.68,0.38-2.51,0.58c-0.66-0.45-1.49-0.66-2.43-0.4&#10;&#9;&#9;&#9;&#9;c-4.63,1.27-9.27,2.5-13.92,3.69c-26.15,4.35-52.71,4.41-78.79,0.08c-5.22-7.86-16.58-22.16-33.54-28.68&#10;&#9;&#9;&#9;&#9;c-24.04-9.23-50.21,0.7-50.21,0.7s12.8,24.89,36.84,34.12c20.8,7.99,43.18,1.63,48.84-0.22c13,2.01,26.11,3,39.22,2.91&#10;&#9;&#9;&#9;&#9;c-43.61,9.46-87.78,15.97-132.18,19.53c-18.22-0.95-35.45-5.86-51.03-14.59c-1.65-5.96-9.26-29.72-28.51-41.21&#10;&#9;&#9;&#9;&#9;c-22.11-13.2-51.19-5.21-51.19-5.21s6.76,29.4,28.87,42.6c15.53,9.27,34.5,8.09,44.41,6.56c10.01,6.08,20.74,10.63,31.98,13.58&#10;&#9;&#9;&#9;&#9;c-22.68,1.24-45.4,1.71-68.12,1.42c-0.37-0.4-0.9-0.7-1.61-0.79c-21.96-2.75-42.52-10.76-60.21-23.22&#10;&#9;&#9;&#9;&#9;c-0.8-8.32-4.31-30.31-19.48-44.18c-19-17.38-49.1-15.4-49.1-15.4S1377.99,1377.43,1396.99,1394.81z" style="fill: rgb(255, 255, 255); opacity: 0.2;"/>
    <path class="st733" d="M1650.36,1498.7c19.04-5.49,31.73-22.56,36.57-30.14c11.41-3.32,22.32-7.98,32.58-13.94&#10;&#9;&#9;&#9;&#9;c-30.2,35.75-58.2,73.32-83.76,112.48c-12.55,11.99-26.31,22.29-41.18,30.81c-5.75-2.99-28.07-13.38-49.4-7.23&#10;&#9;&#9;&#9;&#9;c-24.74,7.13-38.77,33.84-38.77,33.84s26.09,15.14,50.83,8.01c16.28-4.69,27.92-17.85,33.98-26.31&#10;&#9;&#9;&#9;&#9;c11.9-6.31,23.16-13.72,33.69-22.15c-14.09,22.43-27.38,45.36-39.87,68.72c-0.53,0.02-1.07,0.21-1.6,0.64&#10;&#9;&#9;&#9;&#9;c-14.95,12.18-29.29,25.03-43,38.51c-0.18,0.05-0.36,0.13-0.55,0.23c-8.7,4.63-17.85,8.01-27.31,10.13&#10;&#9;&#9;&#9;&#9;c-6.36-5.15-24.69-18.25-45.4-17.08c-25.71,1.45-45.32,24.37-45.32,24.37s22.07,20.56,47.78,19.11&#10;&#9;&#9;&#9;&#9;c18.9-1.07,34.49-13.72,41.43-20.36c6.25-1.21,12.37-2.97,18.34-5.24c-14.19,14.67-27.65,30.02-40.33,46.04&#10;&#9;&#9;&#9;&#9;c-0.05-0.25-0.08-0.38-0.08-0.38s-29.71,5.21-44.05,26.6c-14.34,21.39-7.88,50.85-7.88,50.85s29.71-5.21,44.05-26.6&#10;&#9;&#9;&#9;&#9;c9.64-14.38,9.88-32.39,9-42.66c26.25-33.8,55.93-64.73,88.71-92.39c-3.35,6.45-6.66,12.93-9.89,19.45&#10;&#9;&#9;&#9;&#9;c-6.7,4.11-13.4,9.7-18.23,17.19c-8.73,13.56-9.24,30.14-8.4,40.63c-2.56,6-5.07,12.01-7.53,18.06c-0.9,0.29-1.62,1.03-1.68,2.29&#10;&#9;&#9;&#9;&#9;c-0.03,0.68-0.03,1.35-0.06,2.02c-8.73,21.71-16.81,43.69-24.18,65.92c-5.99,3.43-26.37,16.39-32.76,37.31&#10;&#9;&#9;&#9;&#9;c-7.52,24.63,7.2,50.95,7.2,50.95s26.92-13.6,34.44-38.23c5.4-17.69-0.67-36.26-4.53-45.31c6.19-18.85,12.88-37.52,20.05-55.99&#10;&#9;&#9;&#9;&#9;c0.38,5.51,1.07,10.98,2.1,16.41c-3.73,9.48-8.87,27.27-3.5,44.13c7.81,24.54,34.89,37.83,34.89,37.83s14.42-26.5,6.61-51.03&#10;&#9;&#9;&#9;&#9;c-6.71-21.07-27.61-33.84-33.38-37.03c-1.17-7.83-1.63-15.75-1.39-23.73c1.79-4.44,3.6-8.87,5.45-13.29&#10;&#9;&#9;&#9;&#9;c2.86-0.61,30.09-6.87,43.28-27.37c9.51-14.77,9.26-33.12,8.15-43.29c3.45-9.81,8.36-18.91,14.67-27.26&#10;&#9;&#9;&#9;&#9;c0.37,4.3,0.92,8.59,1.66,12.87c-2.21,6.44-9.01,29.73,0.05,49.71c10.63,23.45,39.08,33.47,39.08,33.47s11.21-28,0.58-51.46&#10;&#9;&#9;&#9;&#9;c-7.85-17.31-25.39-27.29-34.05-31.34c-3.99-21.87-2.9-44.25,3.24-65.85c0.01-0.04,0.01-0.08,0.02-0.11&#10;&#9;&#9;&#9;&#9;c6.3-10.37,12.75-20.64,19.37-30.81c0.35-0.34,0.7-0.66,1.05-1c0.59-0.58,0.85-1.25,0.88-1.92&#10;&#9;&#9;&#9;&#9;c10.79-16.44,22.01-32.59,33.64-48.45c-4.05,12.55-5.91,25.6-5.46,38.87c-2.66,9.22-6.66,28.92,1.16,46.18&#10;&#9;&#9;&#9;&#9;c10.63,23.45,39.08,33.47,39.08,33.47s11.21-28,0.58-51.46c-8.24-18.18-27.19-28.29-35.29-31.91&#10;&#9;&#9;&#9;&#9;c-0.06-18.34,4.44-36.29,13.47-52.7c0.17-0.32,0.27-0.63,0.33-0.95c15.3-20,31.28-39.49,47.9-58.44&#10;&#9;&#9;&#9;&#9;c0.85-0.68,1.71-1.35,2.56-2.05c0.7-0.58,1-1.3,1.02-2.01c26.75-30.2,55.11-59,85.04-86.18c2.67-2.42-0.8-6.84-3.48-4.41&#10;&#9;&#9;&#9;&#9;c-31.35,28.47-61,58.71-88.88,90.45c-14.46,11.44-30.61,19.82-48.03,24.92c-7.9-3.78-28.04-11.79-47.37-6.22&#10;&#9;&#9;&#9;&#9;c-24.74,7.13-38.77,33.84-38.77,33.84S1625.62,1505.84,1650.36,1498.7z M1609.66,1645.83c-7.4,8.66-13.14,18.13-17.36,28.37&#10;&#9;&#9;&#9;&#9;c-2.81,0.7-8.37,2.3-14.77,5.22c10.71-21.24,22.07-42.15,34.09-62.67C1610.03,1626.42,1609.38,1636.13,1609.66,1645.83z" style="fill: rgb(255, 255, 255); opacity: 0.2;"/>
    <path class="st733" d="M1452.51,1675.08c0,0,29.84-4.39,44.77-25.37c11.66-16.39,10.77-38.05,9.82-46.75&#10;&#9;&#9;&#9;&#9;c10.59-14.74,23.84-27.22,39.42-37.07c39.19-15.79,77.54-33.75,114.79-53.9c3.18-1.72,0.17-6.46-3-4.74&#10;&#9;&#9;&#9;&#9;c-35.56,19.24-72.14,36.46-109.48,51.7c-0.67-0.22-1.45-0.17-2.23,0.3c-0.94,0.56-1.86,1.15-2.79,1.73&#10;&#9;&#9;&#9;&#9;c-23.38,9.41-47.06,18.02-71,25.84c-0.31-0.05-0.65-0.07-1-0.01c-18.48,3.08-36.91,1.39-54.19-4.74&#10;&#9;&#9;&#9;&#9;c-0.74-8.85-4-30.07-18.42-43.87c-18.61-17.8-48.74-16.5-48.74-16.5s0.03,30.16,18.64,47.96c13.69,13.1,33.61,15.85,43.18,16.39&#10;&#9;&#9;&#9;&#9;c12.37,4.82,25.3,7.39,38.48,7.72c-18.81,5.72-37.77,10.96-56.86,15.69c-0.64-0.19-1.37-0.17-2.11,0.2&#10;&#9;&#9;&#9;&#9;c-0.43,0.21-0.86,0.44-1.29,0.66c-11.78,2.88-23.61,5.57-35.48,8.07c-0.04,0-0.07-0.02-0.11-0.02&#10;&#9;&#9;&#9;&#9;c-22.42-1.36-43.9-7.75-63.21-18.76c-0.95-9.51-4.56-29.37-18.3-42.51c-18.61-17.8-48.74-16.5-48.74-16.5s0.03,30.16,18.64,47.97&#10;&#9;&#9;&#9;&#9;c15.86,15.17,40.08,16.47,46.89,16.52c3.79,2.11,7.66,4.06,11.59,5.83c-9.97,3.19-20.18,4.81-30.58,4.81&#10;&#9;&#9;&#9;&#9;c-9.23-4.42-26.45-10.73-43.54-6.65c-23.71,5.66-38.64,29.27-40.16,31.77c-4.78,0.28-9.56,0.52-14.34,0.74&#10;&#9;&#9;&#9;&#9;c-7.61-2.41-14.93-5.47-21.93-9.17c-1.1-6.5-6.22-30.46-23.88-43.76c-20.57-15.5-50.34-10.67-50.34-10.67s3.57,29.95,24.14,45.45&#10;&#9;&#9;&#9;&#9;c14.14,10.65,32.62,11.7,42.8,11.32c4.78,2.77,9.71,5.23,14.79,7.42c-19.81,0.65-39.64,0.78-59.47,0.38&#10;&#9;&#9;&#9;&#9;c-7.27-6.63-22.77-18.52-41.26-19.28c-25.73-1.06-47.48,19.84-47.48,19.84s19.96,22.61,45.69,23.67&#10;&#9;&#9;&#9;&#9;c21.86,0.9,40.84-14.04,46.06-18.56c23.42,0.41,46.84,0.08,70.21-0.98c0.64,0.2,1.28,0.42,1.92,0.62&#10;&#9;&#9;&#9;&#9;c1.21,0.36,2.14-0.08,2.71-0.83c6.51-0.32,13.03-0.7,19.53-1.13c9.62,4.27,25.43,9.27,41.12,5.53&#10;&#9;&#9;&#9;&#9;c8.67-2.07,16.16-6.54,22.26-11.5c7.22-0.89,14.43-1.86,21.63-2.89c-36.95,21.78-75.97,39.53-116.55,53.11&#10;&#9;&#9;&#9;&#9;c-9.4-4.23-26.48-9.97-43.24-5.64c-24.93,6.45-39.69,32.75-39.69,32.75s25.66,15.86,50.59,9.41&#10;&#9;&#9;&#9;&#9;c24.93-6.45,39.69-32.75,39.69-32.75s-0.12-0.07-0.33-0.2c19.31-6.65,38.26-14.28,56.8-22.8c-4.13,4.88-7.81,10.07-11.02,15.56&#10;&#9;&#9;&#9;&#9;c-8.56,4.35-25.67,14.87-32.93,32.35c-9.89,23.78,2.2,51.41,2.2,51.41s28.12-10.92,38.01-34.69c7.96-19.15,1.67-40.79-1.08-48.49&#10;&#9;&#9;&#9;&#9;c5.13-8.22,11.35-15.74,18.6-22.41c0.16-0.14,0.29-0.29,0.4-0.45c17.25-8.47,34.13-17.74,50.58-27.82&#10;&#9;&#9;&#9;&#9;c0.58-0.35,0.94-0.81,1.13-1.3c26.18-4.05,52.22-8.99,78.05-14.85c-11.45,7.15-22.16,15.31-32.06,24.45&#10;&#9;&#9;&#9;&#9;c-9.99,2.92-26.26,9.54-36.08,23.34c-14.93,20.98-9.28,50.62-9.28,50.62s29.84-4.39,44.77-25.37&#10;&#9;&#9;&#9;&#9;c12.87-18.09,10.45-42.59,9.54-49.01c12.96-11.2,27.24-20.78,42.71-28.65c45.42-11.15,90.14-25.12,133.87-41.78&#10;&#9;&#9;&#9;&#9;c-9.02,7.71-17.04,16.46-23.95,26.12c-8.75,2.05-29.06,8.37-40.55,24.52C1446.87,1645.45,1452.51,1675.08,1452.51,1675.08z&#10;&#9;&#9;&#9;&#9; M1337.58,1621.91c-23.34,4.55-46.83,8.34-70.42,11.41c4.88-5.07,8.23-9.79,9.82-12.21c11.06-0.59,21.89-2.87,32.52-6.98&#10;&#9;&#9;&#9;&#9;C1318.55,1617.61,1327.93,1620.22,1337.58,1621.91z" style="fill: rgb(255, 255, 255); opacity: 0.2;"/>
  </g>
</svg>