<?xml version="1.0" encoding="utf-8"?>
<svg viewBox="323.6682 102.0457 206.9 248.7999" xmlns="http://www.w3.org/2000/svg">
  <g transform="matrix(1, 0, 0, 1, -393.6318317071773, -881.1544781401823)">
    <g>
      <path class="st0" d="M763.9,1143.8c0,3.7,1.3,6.2,3.8,7.6c2.6,1.4,7.3,2.8,14.3,4.3c1.8,0.4,2.7,1.8,2.7,4.4&#10;&#9;&#9;&#9;&#9;c0,1.1-0.2,2.6-0.5,4.4c-5.7-0.4-11.4-0.7-17-1c-5.7-0.3-11.1-0.4-16.2-0.4c-4.9,0-10.4,0.1-16.3,0.4c-6,0.3-11.6,0.6-16.9,1&#10;&#9;&#9;&#9;&#9;c-0.4-1.8-0.5-3.3-0.5-4.4c0-2.6,0.9-4,2.7-4.4c7-1.3,11.7-2.7,14.3-4.1c2.6-1.5,3.8-4,3.8-7.7v-139.9c0-3.7-1.3-6.3-3.8-7.8&#10;&#9;&#9;&#9;&#9;c-2.6-1.6-7.3-2.9-14.3-4c-1.1-0.2-1.8-0.7-2.2-1.6c-0.4-0.9-0.5-1.9-0.5-3c0-1.1,0.2-2.6,0.5-4.4c5.5,0.4,11.2,0.7,17.2,1&#10;&#9;&#9;&#9;&#9;c6,0.3,11.3,0.4,16.1,0.4c4.6,0,9.8-0.1,15.8-0.4c6-0.3,11.8-0.6,17.4-1c0.4,1.8,0.5,3.3,0.5,4.4c0,2.7-0.9,4.3-2.7,4.7&#10;&#9;&#9;&#9;&#9;c-7,1.1-11.7,2.4-14.3,4c-2.6,1.6-3.8,4.2-3.8,7.8V1143.8z" style="fill: rgb(177, 127, 73);"/>
    </g>
    <g>
      <path class="st0" d="M854.6,1165.3h-61.3l-17.6,44.2c-0.9,2.2-1.4,4-1.4,5.5c0,3.8,5.6,6.6,16.8,8.2c1.3,0.2,2.2,0.7,2.6,1.5&#10;&#9;&#9;&#9;&#9;c0.5,0.8,0.7,1.8,0.7,2.9c0,1.1-0.2,2.6-0.5,4.4c-4.9-0.4-10.2-0.7-15.7-1s-10.9-0.4-16.2-0.4c-3.7,0-7.4,0.1-11.3,0.3&#10;&#9;&#9;&#9;&#9;c-3.8,0.2-7.9,0.5-12.1,1.1c-0.4-1.5-0.5-2.9-0.5-4.4c0-1.3,0.2-2.4,0.7-3.3c0.5-0.9,1.4-1.5,2.9-1.6c5.7-0.9,9.9-2.1,12.8-3.4&#10;&#9;&#9;&#9;&#9;c2.8-1.4,4.9-3.5,6.2-6.5l66.2-159.4c1.3-3.1,3-4.7,5.2-4.7c0.7,0,1.8,0.2,3.3,0.5l66.5,164.3c1.1,2.6,3.6,4.6,7.4,6&#10;&#9;&#9;&#9;&#9;c3.8,1.5,7.6,2.5,11.3,3c1.1,0.4,2,0.9,2.6,1.5c0.6,0.6,1,1.8,1,3.4c0,1.1-0.2,2.6-0.5,4.4c-5.9-0.4-11.6-0.7-17.3-1&#10;&#9;&#9;&#9;&#9;c-5.7-0.3-11-0.4-15.9-0.4c-5.1,0-11,0.1-17.6,0.4s-12.6,0.6-17.9,1c-0.4-1.8-0.6-3.3-0.6-4.4c0-1.6,0.3-2.8,1-3.4&#10;&#9;&#9;&#9;&#9;c0.6-0.6,1.2-1,1.8-1c4.8-0.9,8.6-2,11.5-3.2c2.9-1.2,4.4-3,4.4-5.4c0-1.1-0.4-2.5-1.1-4.1L854.6,1165.3z M850.2,1154l-25.6-67.3&#10;&#9;&#9;&#9;&#9;L798,1154H850.2z" style="fill: rgb(177, 127, 73);"/>
    </g>
  </g>
</svg>