<?xml version="1.0" encoding="utf-8"?>
<svg viewBox="-1399.6079 939.0054 471.74 190.4805" xmlns="http://www.w3.org/2000/svg">
  <defs>
    <style type="text/css">
	.st0{fill:#FAFAFA;}
	.st1{clip-path:url(#SVGID_00000066505224773822028890000013536167162826412973_);}
	.st2{opacity:0.29;clip-path:url(#SVGID_00000066505224773822028890000013536167162826412973_);}
	.st3{fill:#C6AC95;}
	.st4{clip-path:url(#SVGID_00000065755383660277462860000016528206306534623677_);}
	.st5{fill:#A09492;}
	.st6{fill:#FEFEFE;}
	.st7{fill:#442C28;}
	.st8{fill:#472F2B;}
	.st9{fill:#48302C;}
	.st10{fill:#48312D;}
	.st11{fill:#4B3430;}
	.st12{fill:#4A332F;}
	.st13{fill:#4C3531;}
	.st14{fill:#49312D;}
	.st15{fill:#73615E;}
	.st16{fill:#503935;}
	.st17{fill:#4C3431;}
	.st18{fill:#513A36;}
	.st19{fill:#988B89;}
	.st20{fill:#6E5B58;}
	.st21{fill:#533D3A;}
	.st22{fill:#543E3A;}
	.st23{fill:#56403C;}
	.st24{fill:#523C38;}
	.st25{fill:#57413D;}
	.st26{fill:#533C39;}
	.st27{fill:#4D3632;}
	.st28{fill:#4C3532;}
	.st29{fill:#56403D;}
	.st30{fill:#5E4A47;}
	.st31{fill:#847572;}
	.st32{fill:#5B4542;}
	.st33{fill:#CDC6C5;}
	.st34{fill:#AFA4A3;}
	.st35{fill:#5A4441;}
	.st36{fill:#5F4B48;}
	.st37{fill:#5D4845;}
	.st38{fill:#5F4A47;}
	.st39{fill:#5C4744;}
	.st40{fill:#6C5A57;}
	.st41{fill:#523B38;}
	.st42{fill:#9E918F;}
	.st43{fill:#5F4A46;}
	.st44{fill:#5C4643;}
	.st45{fill:#928481;}
	.st46{fill:#9E9290;}
	.st47{fill:#513B37;}
	.st48{fill:#705E5B;}
	.st49{fill:#7E6D6A;}
	.st50{fill:#685451;}
	.st51{fill:#604B48;}
	.st52{fill:#A99E9C;}
	.st53{fill:#867774;}
	.st54{fill:#634F4C;}
	.st55{fill:#6A5754;}
	.st56{fill:#A29694;}
	.st57{fill:#776663;}
	.st58{fill:#A19593;}
	.st59{fill:#776562;}
	.st60{fill:#A29695;}
	.st61{fill:#786663;}
	.st62{fill:#B3AAA9;}
	.st63{fill:#5F4B47;}
	.st64{fill:#74625F;}
	.st65{fill:#AA9F9D;}
	.st66{fill:#B5ACAB;}
	.st67{fill:#998C8A;}
	.st68{fill:#ACA2A0;}
	.st69{fill:#B8AEAD;}
	.st70{fill:#5E4946;}
	.st71{fill:#65514E;}
	.st72{fill:#65514D;}
	.st73{fill:#8D7F7C;}
	.st74{fill:#614D4A;}
	.st75{fill:#B4AAA8;}
	.st76{fill:#5B4643;}
	.st77{fill:#A29594;}
	.st78{fill:#C3BCBB;}
	.st79{fill:#ABA19F;}
	.st80{fill:#462E2A;}
	.st81{fill:#908280;}
	.st82{fill:#B9B0AF;}
	.st83{fill:#5A4542;}
	.st84{fill:#6C5955;}
	.st85{fill:#938583;}
	.st86{fill:#D8D3D3;}
	.st87{fill:#81716F;}
	.st88{fill:#675451;}
	.st89{fill:#6F5C59;}
	.st90{fill:#A49997;}
	.st91{fill:#715F5C;}
	.st92{fill:#65524E;}
	.st93{fill:#8E807E;}
	.st94{fill:#81706D;}
	.st95{fill:#776563;}
	.st96{fill:#8C7D7A;}
	.st97{fill:#D1CBCA;}
	.st98{fill:#B8AFAE;}
	.st99{fill:#B3A9A7;}
	.st100{fill:#7F6F6C;}
	.st101{fill:#4F3834;}
	.st102{fill:#7F6E6C;}
	.st103{fill:#57423E;}
	.st104{fill:#624E4B;}
	.st105{fill:#56413D;}
	.st106{fill:#A49896;}
	.st107{fill:#695552;}
	.st108{fill:#66524F;}
	.st109{fill:#9F9290;}
	.st110{fill:#72605D;}
	.st111{fill:#B7AEAC;}
	.st112{fill:#594440;}
	.st113{fill:#C1B9B8;}
	.st114{fill:#ACA1A0;}
	.st115{fill:#705D5A;}
	.st116{fill:#887977;}
	.st117{fill:#594340;}
	.st118{fill:#786664;}
	.st119{fill:#675350;}
	.st120{fill:#685552;}
	.st121{fill:#BBB3B1;}
	.st122{fill:#ACA19F;}
	.st123{fill:#6C5956;}
	.st124{fill:#6F5D5A;}
	.st125{fill:#6D5A56;}
	.st126{fill:#6B5855;}
	.st127{fill:#ADA2A0;}
	.st128{fill:#6D5B58;}
	.st129{fill:#6E5B59;}
	.st130{fill:#66524E;}
	.st131{fill:#786764;}
	.st132{fill:#402723;}
	.st133{fill:#B5ACAA;}
	.st134{fill:#715F5B;}
	.st135{fill:#918381;}
	.st136{fill:#766461;}
	.st137{fill:#695652;}
	.st138{fill:#6D5A57;}
	.st139{fill:#695653;}
	.st140{fill:#796865;}
	.st141{fill:#614C49;}
	.st142{fill:#634F4B;}
	.st143{fill:#B9B1AF;}
	.st144{fill:#6F5D59;}
	.st145{fill:#CEC8C7;}
	.st146{fill:#675450;}
	.st147{fill:#634E4B;}
	.st148{fill:#725F5D;}
	.st149{fill:#988A88;}
	.st150{fill:#7B6A67;}
	.st151{fill:#644F4C;}
	.st152{fill:#C2BAB9;}
	.st153{fill:#BCB4B2;}
	.st154{fill:#B4AAA9;}
	.st155{fill:#705D5B;}
	.st156{fill:#A09391;}
	.st157{fill:#CBC5C4;}
	.st158{fill:#928482;}
	.st159{fill:#58433F;}
	.st160{fill:#B6ADAB;}
	.st161{fill:#AFA5A3;}
	.st162{fill:#B6ACAB;}
	.st163{fill:#8A7B79;}
	.st164{fill:#968987;}
	.st165{fill:#867674;}
	.st166{fill:#9B8E8C;}
	.st167{fill:#A79C9A;}
	.st168{fill:#948684;}
	.st169{fill:#5C4743;}
	.st170{fill:#C4BDBC;}
	.st171{fill:#6A5653;}
	.st172{fill:#7A6966;}
	.st173{fill:#8C7D7B;}
	.st174{fill:#725F5C;}
	.st175{fill:#958885;}
	.st176{fill:#958785;}
	.st177{fill:#D0CAC9;}
	.st178{fill:#847472;}
	.st179{fill:#8B7C79;}
	.st180{fill:#9B8D8B;}
	.st181{fill:#6E5C59;}
	.st182{fill:#C0B8B6;}
	.st183{fill:#7E6E6B;}
	.st184{fill:#897B78;}
	.st185{fill:#998C89;}
	.st186{fill:#B9B0AE;}
	.st187{fill:#C7C0BF;}
	.st188{fill:#C8C1C0;}
	.st189{fill:#C4BCBA;}
	.st190{fill:#7D6C6A;}
	.st191{fill:#8D7E7C;}
	.st192{fill:#B4ABA9;}
	.st193{fill:#A69A98;}
	.st194{fill:#8B7C7A;}
	.st195{fill:#857572;}
	.st196{fill:#9A8D8B;}
	.st197{fill:#938482;}
	.st198{fill:#918280;}
	.st199{fill:#968886;}
	.st200{fill:#BAB1AF;}
	.st201{fill:#8E807D;}
	.st202{fill:#AEA3A1;}
	.st203{fill:#AEA4A2;}
	.st204{fill:#73605E;}
	.st205{fill:#8E7F7D;}
	.st206{fill:#958886;}
	.st207{fill:#A19492;}
	.st208{fill:#C8C0BF;}
	.st209{fill:#9B8D8C;}
	.st210{fill:#A89D9B;}
	.st211{fill:#BAB0AF;}
	.st212{fill:#72605C;}
	.st213{fill:#BDB5B3;}
	.st214{fill:#B0A6A4;}
	.st215{fill:#81716E;}
	.st216{fill:#4D3532;}
	.st217{fill:#5A4541;}
	.st218{fill:#938582;}
	.st219{fill:#82716F;}
	.st220{fill:#B0A5A4;}
	.st221{fill:#82726F;}
	.st222{fill:#897977;}
	.st223{fill:#756461;}
	.st224{fill:#A19592;}
	.st225{fill:#8A7B78;}
	.st226{fill:#938683;}
	.st227{fill:#BAB2B0;}
	.st228{fill:#837371;}
	.st229{fill:#4F3835;}
	.st230{fill:#796764;}
	.st231{fill:#B8B0AE;}
	.st232{fill:#C0B8B7;}
	.st233{fill:#BBB2B1;}
	.st234{fill:#624D4A;}
	.st235{fill:#AA9F9E;}
	.st236{fill:#978987;}
	.st237{fill:#604C48;}
	.st238{fill:#614D49;}
	.st239{fill:#C7BFBE;}
	.st240{fill:#C9C2C1;}
	.st241{fill:#9A8C8A;}
	.st242{fill:#796765;}
	.st243{fill:#58423F;}
	.st244{fill:#A59A98;}
	.st245{fill:#66534F;}
	.st246{fill:#412925;}
	.st247{fill:#6C5856;}
	.st248{fill:#9C8F8D;}
	.st249{fill:#C9C2C0;}
	.st250{fill:#A79B9A;}
	.st251{fill:#A59997;}
	.st252{fill:#A79B99;}
	.st253{fill:#B1A6A5;}
	.st254{fill:#9A8E8B;}
	.st255{fill:#B7AEAD;}
	.st256{fill:#A99E9D;}
	.st257{fill:#A39795;}
	.st258{fill:#7C6C69;}
	.st259{fill:#ABA09E;}
	.st260{fill:#432A27;}
	.st261{fill:#ABA09F;}
	.st262{fill:#B8AFAD;}
	.st263{fill:#756360;}
	.st264{fill:#64504D;}
	.st265{fill:#81706E;}
	.st266{fill:#ADA3A1;}
	.st267{fill:#AAA09E;}
	.st268{fill:#827270;}
	.st269{fill:#887976;}
	.st270{fill:#ADA2A1;}
	.st271{fill:#8A7A78;}
	.st272{fill:#887876;}
	.st273{fill:#CDC7C6;}
	.st274{fill:#A29593;}
	.st275{fill:#65504D;}
	.st276{fill:#877875;}
	.st277{fill:#5D4744;}
	.st278{fill:#49322E;}
	.st279{fill:#BEB6B4;}
	.st280{fill:#64504C;}
	.st281{fill:#A39896;}
	.st282{fill:#5D4946;}
	.st283{fill:#867673;}
	.st284{fill:#C8C1BF;}
	.st285{fill:#81726F;}
	.st286{fill:#948784;}
	.st287{fill:#7A6967;}
	.st288{fill:#AA9E9D;}
	.st289{fill:#533D39;}
	.st290{fill:#806F6D;}
	.st291{fill:#796866;}
	.st292{fill:#BBB2B0;}
	.st293{fill:#47302C;}
	.st294{fill:#5B4642;}
	.st295{fill:#6F5C5A;}
	.st296{fill:#503936;}
	.st297{fill:#412824;}
	.st298{fill:#A19493;}
	.st299{fill:#B1A6A4;}
	.st300{fill:#CBC4C3;}
	.st301{fill:#746260;}
	.st302{fill:#6E5C58;}
	.st303{fill:#BEB5B4;}
	.st304{fill:#A69B99;}
	.st305{fill:#CAC3C2;}
	.st306{fill:#5E4945;}
	.st307{fill:#9F9390;}
	.st308{fill:#B5ABAA;}
	.st309{fill:#715E5B;}
	.st310{fill:#7F6E6B;}
	.st311{fill:#938684;}
	.st312{fill:#B2A8A6;}
	.st313{fill:#543D3A;}
	.st314{fill:#74615F;}
	.st315{fill:#837270;}
	.st316{fill:#877876;}
	.st317{fill:#74635F;}
	.st318{fill:#523B37;}
	.st319{fill:#7C6B68;}
	.st320{fill:#80706D;}
	.st321{fill:#402824;}
	.st322{fill:#766562;}
	.st323{fill:#6C5855;}
	.st324{fill:#442B27;}
	.st325{fill:#756260;}
	.st326{fill:#766462;}
	.st327{fill:#7C6B69;}
	.st328{fill:#A99F9D;}
	.st329{fill:#CEC7C6;}
	.st330{fill:#877774;}
	.st331{fill:#BFB7B6;}
	.st332{fill:#AFA5A4;}
	.st333{fill:#8C6239;}
	.st334{fill:#422925;}
	.st335{fill:#422A26;}
	.st336{fill:#432B27;}
	.st337{fill:#452D29;}
	.st338{fill:#5D4844;}
	.st339{fill:#9F9391;}
	.st340{fill:#4D3733;}
	.st341{fill:#462E2B;}
	.st342{fill:#543E3B;}
	.st343{fill:#685551;}
	.st344{fill:#553F3C;}
	.st345{fill:#503A36;}
	.st346{fill:#4E3734;}
	.st347{fill:#57413E;}
	.st348{fill:#48302D;}
	.st349{fill:#7A6866;}
	.st350{fill:#7B6B68;}
	.st351{fill:#7B6967;}
	.st352{fill:#5E4A46;}
	.st353{fill:#4B332F;}
	.st354{fill:#4B3330;}
	.st355{fill:#4E3733;}
	.st356{fill:#472F2C;}
	.st357{fill:#55403C;}
	.st358{fill:#584340;}
	.st359{fill:#7D6C69;}
	.st360{fill:#65524F;}
	.st361{fill:#513A37;}
	.st362{fill:#746360;}
	.st363{fill:#857573;}
	.st364{fill:#877775;}
	.st365{fill:#432A26;}
	.st366{fill:#978A88;}
	.st367{fill:#F5F4F4;}
	.st368{fill:#B1A8A6;}
	.st369{fill:#A69A99;}
	.st370{fill:#553E3B;}
	.st371{fill:#D0CBCA;}
	.st372{fill:#6A5654;}
	.st373{fill:#918380;}
	.st374{fill:#AEA3A2;}
	.st375{fill:#7B6A68;}
	.st376{fill:#D4CFCE;}
	.st377{fill:#6B5754;}
	.st378{fill:#73605D;}
	.st379{fill:#857674;}
	.st380{fill:#948785;}
	.st381{fill:#D2CCCC;}
	.st382{fill:#A19694;}
	.st383{fill:#8F817F;}
	.st384{fill:#B2A8A7;}
	.st385{fill:#72615E;}
	.st386{fill:#B3A9A8;}
	.st387{opacity:0.17;}
	.st388{fill:#FFFFFF;}
	.st389{fill:#C9961A;}
	.st390{fill:none;stroke:#000000;stroke-miterlimit:10;}
	.st391{fill:#754C24;}
	.st392{fill:#E9E4D9;}
	.st393{fill:#A67C52;}
	.st394{fill:none;stroke:#FFFFFF;stroke-width:2;stroke-miterlimit:10;}
	.st395{fill:#C69C6D;}
	
		.st396{fill:none;stroke:url(#SVGID_00000111183552356443603850000011802377110843291569_);stroke-width:2.852;stroke-miterlimit:10;}
	
		.st397{fill:none;stroke:url(#SVGID_00000155835799997355729390000013103826706639464878_);stroke-width:2.852;stroke-miterlimit:10;}
	
		.st398{fill:none;stroke:url(#SVGID_00000164485057691254578770000008997368706376170119_);stroke-width:2.852;stroke-miterlimit:10;}
	
		.st399{fill:none;stroke:url(#SVGID_00000077303458024816589050000013758156182649649042_);stroke-width:2.852;stroke-miterlimit:10;}
	.st400{fill:none;}
	.st401{fill:none;stroke:#B3B3B3;stroke-miterlimit:10;}
	.st402{fill:none;stroke:#8C6239;stroke-miterlimit:10;}
	.st403{opacity:0.35;}
	.st404{fill:#666666;}
	.st405{fill:#FBF4F1;}
	.st406{fill:#FAF2EE;}
	.st407{fill:#F7E9E2;}
	.st408{fill:#F9EFEA;}
	.st409{fill:#F8ECE6;}
	.st410{fill:#F8EDE8;}
	.st411{fill:#F4E3DA;}
	.st412{fill:#F7E7E0;}
	.st413{fill:#F5E4DC;}
	.st414{fill:#F8EEE8;}
	.st415{fill:#FAF1EC;}
	.st416{fill:#FAF3EF;}
	.st417{fill:#F9F0EC;}
	.st418{fill:#F7E9E3;}
	.st419{fill:#F7EAE3;}
	.st420{fill:#F6E8E1;}
	.st421{fill:#F5E2D9;}
	.st422{fill:#F9EEE9;}
	.st423{fill:#F6E6DE;}
	.st424{fill:#F6E5DC;}
	.st425{fill:#F9EFEB;}
	.st426{fill:#F6E4DC;}
	.st427{fill:#F8ECE5;}
	.st428{fill:#F7E8E1;}
	.st429{fill:#F8EDE7;}
	.st430{fill:#F6E6DD;}
	.st431{fill:#FBF5F1;}
	.st432{fill:#F6E7DF;}
	.st433{fill:#F7EAE4;}
	.st434{fill:#FCF7F5;}
	.st435{fill:#FDFBFA;}
	.st436{fill:#FAF0EC;}
	.st437{fill:#FBF4F0;}
	.st438{fill:#F7EBE5;}
	.st439{fill:#FCFBF9;}
	.st440{fill:#FAF3F0;}
	.st441{fill:#FAF2EF;}
	.st442{fill:#F7E8E2;}
	.st443{fill:#FAF1ED;}
	.st444{fill:#FCF9F7;}
	.st445{fill:#FEFDFC;}
	.st446{fill:#FBF3F0;}
	.st447{fill:#FBF6F3;}
	.st448{fill:#FBF5F2;}
	.st449{fill:#F8EBE6;}
	.st450{fill:#F9EEEA;}
	.st451{fill:#F6E7E0;}
	.st452{fill:#FDFAF8;}
	.st453{fill:#F6E9E2;}
	.st454{fill:#F4E2D9;}
	.st455{fill:#F5E5DE;}
	.st456{fill:#F3DDD3;}
	.st457{fill:#F3E0D6;}
	.st458{fill:#F3DFD6;}
	.st459{fill:#F3E0D7;}
	.st460{fill:#F8EAE4;}
	.st461{fill:#F1DACF;}
	.st462{fill:#F1D7CB;}
	.st463{fill:#F2DBCF;}
	.st464{fill:#F3DFD5;}
	.st465{fill:#F0D7CB;}
	.st466{fill:#F6E5DD;}
	.st467{fill:#F8EBE5;}
	.st468{fill:#FDFCFC;}
	.st469{fill:#FBF6F4;}
	.st470{fill:#FCF8F7;}
	.st471{fill:#FEFDFD;}
	.st472{fill:#FBF7F4;}
	.st473{fill:#F4E1D8;}
	.st474{fill:#F5E5DD;}
	.st475{fill:#F6E6DF;}
	.st476{fill:#FDFBF9;}
	.st477{fill:#FAF4F0;}
	.st478{fill:#F1D9CD;}
	.st479{fill:#FBF3EF;}
	.st480{fill:#FDFBFB;}
	.st481{fill:#F9F0EB;}
	.st482{fill:#F8EEE9;}
	.st483{fill:#F3DED4;}
	.st484{fill:#F9F1EC;}
	.st485{fill:#F5E4DB;}
	.st486{fill:#F4DFD6;}
	.st487{fill:#F8ECE7;}
	.st488{fill:#F2DCD1;}
	.st489{fill:#F2DBD0;}
	.st490{fill:#F0D6C9;}
	.st491{fill:#F2DCD2;}
	.st492{fill:#F5E3DB;}
	.st493{fill:#F1DACE;}
	.st494{fill:#F1D9CE;}
	.st495{fill:#F2DACE;}
	.st496{fill:#F1D8CC;}
	.st497{fill:#F4E0D7;}
	.st498{fill:#1B171F;}
	.st499{fill:#AF805A;}
	.st500{fill:#F8ECE8;}
	.st501{fill:#F7EBE6;}
	.st502{fill:#F5E4DD;}
	.st503{fill:#F6E8E2;}
	.st504{fill:#F3E0D8;}
	.st505{fill:#F3DFD7;}
	.st506{fill:#F6E6E0;}
	.st507{fill:#F5E6DF;}
	.st508{fill:#F6E8E3;}
	.st509{fill:#F4E1D9;}
	.st510{fill:#F2DBD2;}
	.st511{fill:#EBC8BB;}
	.st512{fill:#F7E9E4;}
	.st513{fill:#F5E4DE;}
	.st514{fill:#FAF1EE;}
	.st515{fill:#F4E2DB;}
	.st516{fill:#F8EDE9;}
	.st517{fill:#F9F1EE;}
	.st518{fill:#F2DCD3;}
	.st519{fill:#F8EEEA;}
	.st520{fill:#F2DCD4;}
	.st521{fill:#F1DAD1;}
	.st522{fill:#F4E3DC;}
	.st523{fill:#F5E5DF;}
	.st524{fill:#FBF7F5;}
	.st525{fill:#F0D8CE;}
	.st526{fill:#F0D6CC;}
	.st527{fill:#EFD5CA;}
	.st528{fill:#F5E3DC;}
	.st529{fill:#F4E0D8;}
	.st530{fill:#F1D9CF;}
	.st531{fill:#F2DDD5;}
	.st532{fill:#F2DED5;}
	.st533{fill:#F4E1DA;}
	.st534{fill:#F3E0D9;}
	.st535{fill:#F4E3DB;}
	.st536{fill:#F7EAE5;}
	.st537{fill:#EDCFC2;}
	.st538{fill:#ECCDC0;}
	.st539{fill:#F3DED6;}
	.st540{fill:#F6E5DF;}
	.st541{fill:#EFD5CB;}
	.st542{fill:#F2DDD4;}
	.st543{fill:#EDCEC1;}
	.st544{fill:#F1DAD0;}
	.st545{fill:#F4E2DC;}
	.st546{fill:#EFD4C9;}
	.st547{fill:#EFD2C7;}
	.st548{fill:#F6E7E1;}
	.st549{fill:#F8EBE7;}
	.st550{fill:#F1DBD1;}
	.st551{fill:#F1D9D0;}
	.st552{fill:#EBCBBE;}
	.st553{fill:#EED2C7;}
	.st554{fill:#F9E9E3;}
	.st555{fill:#F8E4DE;}
	.st556{fill:#F8E4DD;}
	.st557{fill:#FAECE7;}
	.st558{fill:#F9E7E1;}
	.st559{fill:#FBF2EF;}
	.st560{fill:#FCF6F3;}
	.st561{fill:#FAEEE9;}
	.st562{fill:#F8E6DF;}
	.st563{fill:#F9EAE5;}
	.st564{fill:#F7E0D8;}
	.st565{fill:#F8E3DC;}
	.st566{fill:#FCF5F2;}
	.st567{fill:#FAEFEB;}
	.st568{fill:#FBF0EC;}
	.st569{fill:#F7DFD6;}
	.st570{fill:#FCF6F4;}
	.st571{fill:#FBF1ED;}
	.st572{fill:#FBEFEB;}
	.st573{fill:#FAECE8;}
	.st574{fill:#FCF5F3;}
	.st575{fill:#FDF8F6;}
	.st576{fill:#F8E5DF;}
	.st577{fill:#FCF4F2;}
	.st578{fill:#F7E2DA;}
	.st579{fill:#FCF4F1;}
	.st580{fill:#F9EAE4;}
	.st581{fill:#FDF9F8;}
	.st582{fill:#FAEDE8;}
	.st583{fill:#F9EBE5;}
	.st584{fill:#FDF9F7;}
	.st585{fill:#FCF8F6;}
	.st586{fill:#F8E4DC;}
	.st587{fill:#FAEEEA;}
	.st588{fill:#F9E8E2;}
	.st589{fill:#FAEBE6;}
	.st590{fill:#F8E6E0;}
	.st591{fill:#F7E0D7;}
	.st592{fill:#F9E7E0;}
	.st593{fill:#F6DBD1;}
	.st594{fill:#F7E1DA;}
	.st595{fill:#F7E2DB;}
	.st596{fill:#F6DCD3;}
	.st597{fill:#F7E1D9;}
	.st598{fill:#F6DAD1;}
	.st599{fill:#F8E5DE;}
	.st600{fill:#FBF1EE;}
	.st601{fill:#F9E6E0;}
	.st602{fill:#F9E9E4;}
	.st603{fill:#F7DED6;}
	.st604{fill:#F6DBD2;}
	.st605{fill:#F6DED5;}
	.st606{fill:#F6DCD2;}
	.st607{fill:#F7E4DD;}
	.st608{fill:#F8E3DB;}
	.st609{fill:#FBF0ED;}
	.st610{fill:#F9EBE6;}
	.st611{fill:#F8E2DB;}
	.st612{fill:#F7DFD7;}
	.st613{fill:#FAEDE9;}
	.st614{fill:#F5E3DD;}
	.st615{fill:#F6E7E2;}
	.st616{fill:#F7EAE6;}
	.st617{fill:#F9EFEC;}
	.st618{fill:#F6E8E4;}
	.st619{fill:#F6E9E4;}
	.st620{fill:#F8EDEA;}
	.st621{fill:#FAF3F1;}
	.st622{fill:#F8EEEB;}
	.st623{fill:#FCF9F8;}
	.st624{fill:#FBF4F2;}
	.st625{fill:#F3DED7;}
	.st626{fill:#F9F1ED;}
	.st627{fill:#F4E2DA;}
	.st628{fill:#F7E8E3;}
	.st629{fill:#FDFCFB;}
	.st630{fill:#FAF4F1;}
	.st631{fill:#F1D8CF;}
	.st632{fill:#F0D6CB;}
	.st633{fill:#F2DBD1;}
	.st634{fill:#FDFAF9;}
	.st635{fill:#EFD3C8;}
	.st636{fill:#EED2C6;}
	.st637{fill:#EED1C5;}
	.st638{fill:#F0D7CD;}
	.st639{fill:#EBCABD;}
	.st640{fill:#ECCCC0;}
	.st641{fill:#EDCFC3;}
	.st642{fill:#F1D8CE;}
	.st643{fill:#F7ECE7;}
	.st644{fill:#EAC6B9;}
	.st645{fill:#EAC6B8;}
	.st646{fill:#ECCCBF;}
	.st647{fill:#EED0C5;}
	.st648{fill:#EDD0C4;}
	.st649{fill:#EFD6CB;}
	.st650{fill:#F0D7CC;}
	.st651{fill:#F0D5CB;}
	.st652{fill:#EED1C6;}
	.st653{fill:#F3DDD5;}
	.st654{fill:#F1DBD2;}
	.st655{fill:#F2DAD1;}
	.st656{fill:#F0D7CE;}
	.st657{fill:none;stroke:#1B171F;stroke-miterlimit:10;stroke-dasharray:5,5;}
	.st658{opacity:0.2;}
	.st659{opacity:0.2;fill:#FFFFFF;}
	.st660{fill:#B17F49;}
</style>
  </defs>
  <g class="st403" transform="matrix(1, 0, 0, 1, 1383.0219577930484, -5758.954527952829)">
    <g>
      <path style="fill: white" class="st395" d="M-2543.42,6812.91c1.27-2.51,1-4.33-0.82-5.44c-1.82-1.11-3.55-2.03-5.18-2.77l-1.91-0.89&#10;&#9;&#9;&#9;&#9;&#9;c-1.82-0.74-3.05-1.66-3.68-2.77c-0.64-1.11-0.87-2.18-0.68-3.22c0-0.74,0.27-1.48,0.82-2.22c0.91-1.33,2.27-2.25,4.09-2.77&#10;&#9;&#9;&#9;&#9;&#9;c1.82-0.52,3.64-0.33,5.46,0.55c2.54,1.19,4.54,2.55,6,4.11c1.45,1.55,2.63,3.22,3.55,5c1.27,2.96,1.36,6.21,0.27,9.77&#10;&#9;&#9;&#9;&#9;&#9;c-0.37,0.89-0.82,1.85-1.36,2.88v0.22c-1.09,1.92-2.64,3.7-4.64,5.33c-1.46,1.04-2.96,1.96-4.5,2.77&#10;&#9;&#9;&#9;&#9;&#9;c-1.55,0.82-3.32,1.44-5.32,1.89c1.82,3.55,2.91,7.4,3.27,11.54c0.55,7.25-1.09,14.21-4.91,20.87c-2,3.41-4.41,6.48-7.23,9.21&#10;&#9;&#9;&#9;&#9;&#9;c-2.82,2.74-6.14,5.14-9.96,7.21c-4.91,2.66-10.37,4.29-16.37,4.88c-9.46,1.03-17.97-0.29-25.51-4&#10;&#9;&#9;&#9;&#9;&#9;c-7.55-3.7-13.33-9.1-17.33-16.2c-2.73-5.33-4.28-10.88-4.64-16.65c-0.55-5.62,0.36-11.39,2.73-17.31&#10;&#9;&#9;&#9;&#9;&#9;c2.18-5.33,5.5-10.21,9.96-14.65c4.46-4.44,10.23-7.99,17.33-10.65c-4.73-1.63-8.73-3.81-12.01-6.55&#10;&#9;&#9;&#9;&#9;&#9;c-3.27-2.74-5.91-5.81-7.91-9.21c-3.1-4.73-4.64-9.84-4.64-15.32c-0.37-5.62,0.55-10.88,2.73-15.76&#10;&#9;&#9;&#9;&#9;&#9;c2.91-6.36,7.59-11.84,14.05-16.42c6.46-4.58,14.69-7.25,24.7-7.99c4.37-0.29,8.32,0.11,11.87,1.22&#10;&#9;&#9;&#9;&#9;&#9;c3.55,1.11,6.69,2.7,9.41,4.77c4.18,3.11,7.09,6.96,8.73,11.54c0.55,1.19,1,2.55,1.36,4.11c0.36,1.55,0.45,2.92,0.27,4.11&#10;&#9;&#9;&#9;&#9;&#9;c0,0.89,0,1.78,0,2.66s-0.18,1.7-0.55,2.44c-0.73,3.11-2.09,5.99-4.09,8.66c-2,2.66-4.82,4.88-8.46,6.66&#10;&#9;&#9;&#9;&#9;&#9;c-3.1,1.48-5.91,1.7-8.46,0.67c-1.09-0.74-1.91-1.48-2.46-2.22c-0.55-0.89-0.82-1.85-0.82-2.89c0.36-2.37,2.27-4.29,5.73-5.77&#10;&#9;&#9;&#9;&#9;&#9;c1.64-0.74,3.32-1.48,5.05-2.22c1.73-0.74,3.14-1.7,4.23-2.89c1.82-1.78,2.73-3.62,2.73-5.55c0-1.92-0.46-4-1.36-6.22&#10;&#9;&#9;&#9;&#9;&#9;c-1.09-3.4-3.37-6.36-6.82-8.88c-4.19-3.11-9.46-4.59-15.83-4.44c-4.55,0.3-8.46,2.52-11.73,6.66&#10;&#9;&#9;&#9;&#9;&#9;c-3.27,4.14-5.64,9.03-7.09,14.65c-0.73,2.37-1.23,4.77-1.5,7.21c-0.27,2.44-0.41,4.85-0.41,7.21c0.18,2.52,0.5,4.88,0.96,7.1&#10;&#9;&#9;&#9;&#9;&#9;c0.45,2.22,1.13,4.37,2.05,6.44c1.27,2.96,3.04,5.51,5.32,7.66c2.27,2.15,5.14,3.81,8.6,4.99c0.73-0.15,1.77-0.33,3.14-0.55&#10;&#9;&#9;&#9;&#9;&#9;c1.36-0.22,2.77-0.37,4.23-0.44c1.45-0.07,2.87,0,4.23,0.22c1.36,0.22,2.41,0.63,3.14,1.22c0.72,0.59,1.09,1.33,1.09,2.22&#10;&#9;&#9;&#9;&#9;&#9;c0,0.74-0.27,1.55-0.82,2.44c-0.73,0.74-1.73,1.26-3,1.55c-1.27,0.3-2.64,0.44-4.09,0.44c-1.46,0-2.91-0.07-4.37-0.22&#10;&#9;&#9;&#9;&#9;&#9;c-1.46-0.15-2.55-0.22-3.27-0.22c-5.64,2.07-10.19,5.4-13.64,9.99c-3.46,4.59-5.91,9.69-7.37,15.32&#10;&#9;&#9;&#9;&#9;&#9;c-1.09,5.48-1.55,10.73-1.37,15.76c0.18,4.88,1.18,9.69,3,14.43c2,4.74,4.73,8.62,8.19,11.65c3.45,3.03,8.19,4.18,14.19,3.44&#10;&#9;&#9;&#9;&#9;&#9;c4.91-0.59,9.28-1.92,13.1-4c3.27-1.63,6.14-3.66,8.6-6.1c2.46-2.44,4.41-5.07,5.87-7.88c3.45-6.07,4.91-12.13,4.37-18.2&#10;&#9;&#9;&#9;&#9;&#9;c-0.37-3.85-1.64-7.47-3.82-10.88c-2.73,0.3-5.28,0.74-7.64,1.33c-2.55,0.74-5.1,1.7-7.64,2.89c-2.55,1.19-4.55,2.81-6,4.88&#10;&#9;&#9;&#9;&#9;&#9;c-0.55,1.19-0.82,2.3-0.82,3.33c0.18,2.37,1.54,4.66,4.09,6.88c1.45,1.19,2.27,2.37,2.46,3.55c0.18,1.19,0.09,2.3-0.27,3.33&#10;&#9;&#9;&#9;&#9;&#9;c-0.73,1.33-1.64,2.3-2.73,2.89c-1.46,0.74-3.1,0.89-4.91,0.44c-2.55-0.44-4.46-2.37-5.73-5.77c-0.73-2.22-1.28-4.36-1.64-6.44&#10;&#9;&#9;&#9;&#9;&#9;c-0.37-4,0.64-7.62,3-10.88c1.64-2.51,4.27-4.73,7.91-6.66c3.64-1.92,7-3.25,10.1-4c4.18-1.03,8.09-1.63,11.73-1.78&#10;&#9;&#9;&#9;&#9;&#9;c4.18-0.15,7.73-1.4,10.64-3.77C-2545.33,6815.57-2544.34,6814.39-2543.42,6812.91z"/>
    </g>
  </g>
  <g transform="matrix(1, 0, 0, 1, 1383.0219577930484, -5758.954527952829)">
    <path style="fill: white" class="st393" d="M-2342.31,6856.5c0.99,8.91,2.72,22.76,13.36,26.22c7.17,2.23,13.61,2.23,16.08,2.23&#10;&#9;&#9;&#9;&#9;c1.24,0,1.98,0.25,1.98,1.24c0,1.48-2.23,2.23-5.2,2.23c-5.44,0-32.16-0.74-41.31-1.48c-5.69-0.5-6.93-1.24-6.93-2.47&#10;&#9;&#9;&#9;&#9;c0-0.99,0.49-1.48,1.73-1.73c1.24-0.25,1.48-4.45,0.99-8.91l-11.87-127.65h-0.74l-60.61,128.64&#10;&#9;&#9;&#9;&#9;c-5.19,10.88-5.94,13.11-8.16,13.11c-1.73,0-2.97-2.47-7.67-11.38c-6.43-12.12-27.71-54.92-28.94-57.39&#10;&#9;&#9;&#9;&#9;c-2.23-4.45-29.93-63.82-32.65-70.5h-0.99l-9.9,114.78c-0.25,3.96-0.25,8.41-0.25,12.62c0,3.71,2.72,6.93,6.43,7.67&#10;&#9;&#9;&#9;&#9;c4.21,0.99,7.92,1.24,9.4,1.24c0.99,0,1.98,0.49,1.98,1.24c0,1.73-1.48,2.23-4.45,2.23c-9.15,0-21.03-0.74-23.01-0.74&#10;&#9;&#9;&#9;&#9;c-2.23,0-14.1,0.74-20.78,0.74c-2.47,0-4.21-0.5-4.21-2.23c0-0.74,1.24-1.24,2.47-1.24c1.98,0,3.71,0,7.42-0.74&#10;&#9;&#9;&#9;&#9;c8.16-1.48,8.91-11.13,9.9-20.53l17.81-161.29c0.25-2.72,1.24-4.45,2.72-4.45s2.47,0.99,3.71,3.71l75.7,155.6l72.73-155.35&#10;&#9;&#9;&#9;&#9;c0.99-2.23,1.98-3.96,3.71-3.96c1.73,0,2.47,1.98,2.97,6.68L-2342.31,6856.5z"/>
  </g>
  <g transform="matrix(1, 0, 0, 1, 1383.0219577930484, -5758.954527952829)">
    <path style="fill: white" class="st393" d="M-2761.11,6772.69c0-38.59,0-45.52-0.49-53.43c-0.49-8.41-2.47-12.37-10.64-14.1&#10;&#9;&#9;&#9;&#9;c-1.98-0.5-6.18-0.74-8.41-0.74c-0.99,0-1.98-0.5-1.98-1.48c0-1.48,1.24-1.98,3.96-1.98c11.13,0,26.72,0.74,27.95,0.74&#10;&#9;&#9;&#9;&#9;c2.72,0,21.52-0.74,29.19-0.74c15.58,0,32.16,1.48,45.27,10.88c6.18,4.45,17.07,16.57,17.07,33.64&#10;&#9;&#9;&#9;&#9;c0,18.31-7.67,36.61-29.93,57.14c20.28,25.97,37.11,47.99,51.45,63.33c13.36,14.1,24,16.82,30.18,17.81&#10;&#9;&#9;&#9;&#9;c4.7,0.74,8.16,0.74,9.65,0.74c1.24,0,2.23,0.74,2.23,1.48c0,1.48-1.48,1.98-5.94,1.98h-17.56c-13.85,0-20.04-1.24-26.47-4.7&#10;&#9;&#9;&#9;&#9;c-10.64-5.69-19.3-17.81-33.4-36.36c-10.39-13.61-22.02-30.18-26.96-36.61c-0.99-0.99-1.73-1.48-3.22-1.48l-30.43-0.5&#10;&#9;&#9;&#9;&#9;c-1.24,0-1.73,0.74-1.73,1.98v5.94c0,23.75,0,43.29,1.24,53.68c0.74,7.17,2.23,12.62,9.65,13.61c3.46,0.5,8.91,0.99,11.13,0.99&#10;&#9;&#9;&#9;&#9;c1.48,0,1.98,0.74,1.98,1.48c0,1.24-1.24,1.98-3.96,1.98c-13.61,0-29.19-0.74-30.43-0.74c-0.25,0-15.83,0.74-23.25,0.74&#10;&#9;&#9;&#9;&#9;c-2.72,0-3.96-0.5-3.96-1.98c0-0.74,0.5-1.48,1.98-1.48c2.23,0,5.19-0.5,7.42-0.99c4.95-0.99,6.18-6.43,7.17-13.61&#10;&#9;&#9;&#9;&#9;c1.24-10.39,1.24-29.93,1.24-53.68V6772.69z M-2741.32,6794.21c0,1.24,0.49,2.23,1.73,2.97c3.71,2.23,15.09,3.96,25.97,3.96&#10;&#9;&#9;&#9;&#9;c5.94,0,12.86-0.74,18.55-4.7c8.66-5.94,15.09-19.29,15.09-38.1c0-30.92-16.33-49.47-42.8-49.47c-7.42,0-14.1,0.74-16.57,1.48&#10;&#9;&#9;&#9;&#9;c-1.24,0.49-1.98,1.48-1.98,2.97V6794.21z"/>
  </g>
</svg>