
<svg viewBox="651.8221 3183.8188 445.8438 371.1794" xmlns="http://www.w3.org/2000/svg">
  <g>
    <path d="M865.279,3411.178c-6.669,4.051-14.238,4.902-21.687,2.491c-7.35-2.378-13.338-7.762-17.964-13.802 c-10.036-13.103-14.028-29.715-24.053-42.817c-4.467-5.838-9.688-10.492-16.422-13.253c0.203-0.997,0.417-1.993,0.647-2.985 c2.164-9.322,5.094-18.44,7.159-27.792c2.04-9.239,3.579-18.59,4.613-27.995c0.53-4.824,0.931-9.671,0.896-14.527 c-0.03-4.052,0.07-8.921-1.534-12.729c-1.142-2.709-3.571-4.243-6.516-3.769c-2.579,0.415-4.836,2.21-5.029,4.899 c-0.042,0.585,0.903,0.871,1.146,0.31c1.187-2.74,4.883-4.698,7.418-2.324c1.624,1.521,1.818,4.297,2.054,6.364 c0.257,2.245,0.376,4.506,0.408,6.764c0.123,8.627-1.007,17.278-2.342,25.784c-1.328,8.457-3.053,16.853-5.184,25.144 c-2.05,7.973-4.592,15.833-6.075,23.942c-1.472,8.052-2.317,17.505,1.552,25.052c0.23,0.448,0.845,0.117,0.766-0.323 c-0.865-4.797-1.648-9.406-1.454-14.304c0.137-3.472,0.594-6.906,1.24-10.31c14.87,7.766,21.792,23.964,28.664,38.383 c6.449,13.532,15.006,28.559,30.49,32.906c7.429,2.086,16.264,1.546,22.32-3.667 C867.187,3411.934,866.16,3410.643,865.279,3411.178z"/>
    <path d="M792.35,3250.723c-2.584-2.451-5.871-4.347-7.12-7.898c-1.307-3.716-0.687-8.497-0.737-12.388 c-0.008-0.661-0.918-0.618-0.998,0c-0.536,4.146-1.359,9.38,0.466,13.318c1.517,3.274,4.841,5.902,8.043,7.416 C792.282,3251.302,792.6,3250.96,792.35,3250.723z"/>
    <path d="M801.857,3205.249c-0.846-5.042-6.93-7.744-10.772-5.225c0.337-1.594-0.238-3.352-1.717-4.452 c-2.562-1.906-6.133-1.053-7.96,1.343c-1.412-1.635-3.362-3.063-5.607-2.614c-1.963,0.393-4.395,2.804-2.992,4.855 c0.303,0.443,0.929,0.358,1.107-0.145c0.522-1.47,1.173-2.763,2.956-2.846c1.569-0.073,2.848,0.727,3.916,1.776 c-0.019,0.04-0.042,0.076-0.06,0.116c-0.195,0.437,0.335,0.96,0.713,0.551c0.055-0.06,0.112-0.118,0.168-0.177 c0.236-0.052,0.442-0.244,0.468-0.473c1.517-1.457,3.375-2.541,5.558-1.678c2.407,0.951,3.086,4.04,1.022,5.72 c-0.283,0.23-0.11,0.623,0.167,0.75c-0.171,0.407,0.363,0.935,0.689,0.516c1.346-1.736,3.138-3.141,5.46-3 c2.738,0.166,4.66,2.336,5.021,4.959c0.327,2.37-0.349,4.549-1.419,6.639c-0.968,1.889-3.338,6.741-6.146,5.348 c-0.261-0.129-0.579,0.163-0.454,0.398c-0.063,0.088-0.082,0.2-0.003,0.309c1.341,1.841,2.555,3.582,1.668,5.996 c-0.972,2.646-4.363,3.84-6.967,3.574c-0.257-0.026-0.291,0.368-0.059,0.438c3.227,0.968,6.972-0.08,8.305-3.473 c0.656-1.67,0.504-4.329-0.753-5.862C798.65,3218.781,802.414,3208.567,801.857,3205.249z"/>
    <path d="M692.489,3213.208c-0.074-0.54-0.919-0.389-0.928,0.126c-0.059,3.761-0.313,7.528-1.127,11.21 c-0.854,3.864-2.628,6.977-5.036,10.078c-0.488,0.628,0.16,1.812,0.95,1.231C693.147,3230.86,693.525,3220.794,692.489,3213.208z"/>
    <path d="M729.32,3202.453c-0.066-0.405-0.765-0.412-0.825,0c-1.136,7.774-0.604,15.787-3.512,23.263 c-1.382,3.552-3.784,6.74-7.614,7.775c-4.066,1.1-8.54-0.564-11.912-2.788c-0.261-0.172-0.566,0.222-0.335,0.434 c5.891,5.384,14.854,5.763,19.601-1.279c2.37-3.516,3.263-7.794,3.897-11.917C729.384,3212.973,730.144,3207.447,729.32,3202.453z"/>
    <path d="M721.418,3188.491c-0.402-0.056-0.764,0.524-0.309,0.733c3.096,1.416,5.32,4.183,5.794,7.604 c0.064,0.463,0.708,0.287,0.752-0.102C728.098,3192.851,725.367,3189.042,721.418,3188.491z"/>
    <path d="M720.79,3187.317c-0.309-1.283-1.944-1.694-3.083-1.539c-0.752,0.102-1.333,0.394-1.766,0.859 c-0.011-0.05-0.018-0.099-0.045-0.151c-1.526-3.058-7.287-3.998-8.367-0.061c-0.031-0.045-0.069-0.088-0.12-0.126 c-3.087-2.3-7.983-1.336-9.507,2.357c-0.031,0.075-0.032,0.145-0.022,0.212c-3.494-1.176-8.04,2.56-7.025,6.319 c0.121,0.449,0.843,0.484,0.945,0c0.716-3.395,3.012-5.596,6.588-5.697c0.136-0.004,0.217-0.145,0.185-0.259 c0.054-0.022,0.105-0.053,0.148-0.1c2.095-2.262,5.289-3.406,8.239-2.065c0.246,0.112,0.457,0.023,0.569-0.135 c0.141,0.261,0.518,0.352,0.792,0.127c0.961-0.786,1.799-1.617,3.089-1.775c1.438-0.176,2.757,0.584,3.593,1.723 c0.141,0.192,0.336,0.253,0.514,0.227c-0.108,0.2-0.203,0.413-0.278,0.652c-0.057,0.18,0.195,0.269,0.293,0.123 c0.457-0.68,1.548-1.017,2.346-0.96c0.86,0.061,1.308,0.56,1.995,0.972C720.354,3188.309,720.915,3187.834,720.79,3187.317z"/>
    <path d="M692.892,3196.625c-1.765-0.884-3.807-0.214-4.961,1.354c-1.492,2.029-1.2,5-0.5,7.271 c0.133,0.431,0.776,0.351,0.788-0.106c0.042-1.695-0.255-3.435,0.324-5.077c0.599-1.699,2.195-3.25,4.109-2.873 C692.978,3197.259,693.228,3196.792,692.892,3196.625z"/>
    <path d="M691.198,3212.421c-1.041-0.449-2.013-1.184-2.568-2.192c-0.478-0.868-1.082-3.913,0.684-3.899 c0.109,0.001,0.166-0.166,0.058-0.216c-1.958-0.91-2.736,1.827-2.526,3.265c0.31,2.124,1.931,3.859,4.073,4.071 C691.449,3213.503,691.696,3212.635,691.198,3212.421z"/>
    <path d="M703.285,3239.054c-0.819-1.69-2.712-2.756-4.158-3.861c-2.22-1.696-4.442-3.39-6.663-5.085 c-0.351-0.268-0.814,0.329-0.475,0.616c1.662,1.403,3.324,2.806,4.986,4.209c1.485,1.253,3.396,2.422,4.575,3.96 c1.408,1.836,0.651,4.697,0.43,6.857c-0.187,1.829-0.308,3.682-0.498,5.519c-1.588-2.651-3.28-5.259-4.974-7.83 c-1.68-2.55-3.526-5.189-6.044-6.974c-0.785-0.557-1.641,0.645-1.004,1.302c4.782,4.924,7.919,10.696,11.836,16.277 c0.441,0.629,1.429,0.415,1.461-0.396c0.109-2.794,0.488-5.603,0.722-8.392C703.643,3243.301,704.186,3240.915,703.285,3239.054z"/>
    <path d="M713.055,3240.671c-1.065,1.41-1.567,3.432-2.05,5.291c-1.059-1.898-2.178-3.768-3.238-5.667 c1.281-1.105,2.534-2.247,3.775-3.398c0.434,1.186,0.855,2.535,1.662,3.407c0.216,0.234,0.679,0.061,0.654-0.271 c-0.107-1.44-1.105-2.938-1.692-4.243c-0.134-0.297-0.571-0.305-0.777-0.1c-1.332,1.323-2.654,2.665-3.94,4.036 c-0.035-0.063-0.071-0.126-0.106-0.189c-0.227-0.417-0.833-0.05-0.631,0.369c0.064,0.132,0.124,0.267,0.187,0.4 c-0.055,0.059-0.112,0.116-0.167,0.176c-0.235,0.257,0.117,0.598,0.378,0.378c0.012-0.009,0.022-0.02,0.034-0.029 c1.16,2.473,2.227,4.995,3.448,7.433c0.301,0.601,1.151,0.38,1.34-0.175c0.747-2.202,2.137-4.806,2.1-7.153 C714.026,3240.374,713.354,3240.275,713.055,3240.671z"/>
    <path d="M685.59,3319.058c-0.88-12.997-3.273-26.098-7.944-38.288c-0.164-0.43-0.838-0.267-0.704,0.194 c1.31,4.515,2.507,9.048,3.545,13.609c-0.174,0.054-0.336,0.177-0.429,0.399c-1.759,4.19-2.762,8.801-4.014,13.165 c-1.174,4.095-2.313,8.198-3.41,12.314c-2.215,8.314-4.62,16.74-6.029,25.24c-0.029-0.041-0.052-0.081-0.082-0.121 c-0.385-0.515-1.273-0.24-1.091,0.46c0.722,2.773,0.94,5.198,0.343,8.033c-0.484,2.298-1.32,4.513-1.734,6.826 c-0.38,2.126-0.311,5.118,2.088,5.93c0.205,0.069,0.371-0.179,0.272-0.354c-3.474-6.111,4.094-13.484,0.803-19.805 c0.037-0.042,0.067-0.095,0.089-0.161c2.734-8.386,4.661-17.087,6.968-25.6c1.114-4.111,2.238-8.219,3.377-12.323 c1.082-3.898,2.478-7.817,3.341-11.785c1.612,7.478,2.778,15.037,3.27,22.731c0.406,6.341,0.413,12.707,0.022,19.049 c-0.401,6.501-1.671,12.88-2.2,19.355c-0.041,0.496,0.703,0.559,0.84,0.114c1.855-6.045,2.315-12.72,2.718-19.005 C686.056,3332.384,686.04,3325.707,685.59,3319.058z"/>
    <path d="M703.825,3262.948c-0.057,0-0.057,0.089,0,0.089C703.883,3263.037,703.883,3262.948,703.825,3262.948z"/>
    <path d="M725.456,3270.575c-1.261-2.599-3.943-4.613-3.642-7.748c0.147-1.53,0.844-2.905,1.368-4.338 c0.465-1.065,0.855-2.105,0.889-3.053c0.212-5.816-5.09-11.163-8.197-15.604c-0.415-0.593-1.391-0.045-0.985,0.576 c1.809,2.763,3.657,5.502,5.454,8.272c0.497,0.767,0.972,1.557,1.384,2.378c0.636,2.953,0.163,5.471-1.013,8.384 c-0.68,1.684-1.291,3.248-0.958,5.102c0.258,1.437,1.012,2.645,1.81,3.844c1.241,1.865,2.247,3.429,2.701,5.396 c0.196,1.743-0.08,3.634-0.227,5.254c-0.134,1.482-0.346,2.949-0.621,4.41c-0.029,0.156-0.064,0.311-0.094,0.467 c-0.001-0.011-0.004-0.022-0.005-0.033c-0.181,0.596-0.346,1.2-0.505,1.806c-0.027,0.076-0.045,0.146-0.055,0.212 c-0.712,2.758-1.246,5.587-1.982,8.316c-0.413,1.532-0.86,3.052-1.325,4.567c-0.865,2.216-1.993,4.382-2.592,6.677 c-0.065-0.465-0.121-0.931-0.193-1.396c3.044-16.09,2.228-32.989-2.27-48.72c-0.07-0.244-0.429-0.142-0.378,0.104 c3.156,15.113,3.83,30.334,2.136,45.607c-1.018-5.515-2.466-10.981-4.068-16.321c-1.093-3.642-2.345-7.254-3.718-10.799 c-1.372-3.541-2.679-7.231-4.377-10.625c-0.108-0.215-0.47-0.065-0.391,0.165c1.242,3.593,2.751,7.067,3.95,10.686 c1.196,3.611,2.306,7.243,3.374,10.894c1.536,5.251,2.773,10.556,4.006,15.87c-0.001,0.024,0.003,0.048,0.015,0.073 c0.001,0.002,0.002,0.005,0.003,0.007c0.244,1.05,0.489,2.1,0.735,3.15c-3.192-8.762-8.094-16.853-14.371-23.763 c-1.626-1.79-3.428-3.507-4.604-5.644c-1.432-2.602-0.702-4.635-0.582-7.367c0.06-1.358-0.29-2.43-1.502-3.131 c-1.818-1.05-4.482-1.399-6.622-1.891c1.57-8.09,1.734-16.922-0.72-24.842c-0.144-0.464-0.957-0.41-0.893,0.121 c1.031,8.47,1.525,16.586,0.123,25.061c-0.058,0.352,0.088,0.782,0.49,0.862c2.119,0.422,7.72,0.563,8.075,3.488 c0.201,1.653-0.68,3.314-0.463,5.024c0.47,3.711,3.513,6.508,5.873,9.144c6.427,7.177,11.349,15.475,14.845,24.442 c0.039,0.1,0.107,0.166,0.182,0.212c-0.176,9.763,0.151,19.52-0.215,29.287c-0.375,10.012-1.155,20.009-2.193,29.973 c-0.066,0.633,0.9,0.612,0.98,0c1.306-9.949,2.12-19.947,2.505-29.973c0.355-9.252,0.617-18.669-0.17-27.919 c0.131,0.316,0.707,0.241,0.662-0.136c-0.022-0.18-0.052-0.36-0.075-0.541c0.224,0.171,0.532,0.207,0.754-0.061 c3.097-3.738,4.68-9.404,6.01-13.994c1.486-5.13,2.828-10.733,2.848-16.108C726.632,3274.386,726.341,3272.4,725.456,3270.575z"/>
    <path d="M682.151,3233.931c-5.445,2.742-11.316,4.838-16.05,8.806c-5.118,4.291-6.858,10.309-7.015,16.803 c-0.199,8.242,0.324,16.488,0.062,24.74c-0.277,8.716-0.93,17.419-1.957,26.078c-1.169,9.853-2.855,19.622-4.713,29.365 c-0.481-0.032-0.917,0.612-0.468,0.979c3.734,3.045,9.154,5.162,14.021,4.426c0.492-0.074,0.477-0.892,0-0.979 c-4.687-0.863-8.634-1.728-12.789-4.055c5.118-20.102,7.415-41.023,7.852-61.735c0.108-5.133,0.012-10.257-0.051-15.389 c-0.059-4.824,0.061-9.96,2.59-14.232c4.113-6.947,12.909-9.249,19.282-13.498C683.728,3234.698,683.025,3233.491,682.151,3233.931 z"/>
    <path d="M666.682,3373.209c-2.87,0.337-5.537,0.133-7.845-1.838c-2.356-2.013-3.537-5.091-3.956-8.091 c-0.85-6.089,1.197-12.127,0.87-18.214c-0.015-0.281-0.401-0.338-0.49-0.066c-1.211,3.713-1.686,7.826-2.076,11.707 c-0.366,3.638-0.269,7.432,1.096,10.87c1.849,4.657,7.493,9.44,12.706,6.761C667.499,3374.075,667.286,3373.138,666.682,3373.209z"/>
    <path d="M740.327,3509.538c-3.646,0.701-7.019,1.33-10.747,0.818c-3.117-0.428-5.97-1.534-8.865-2.682 c0.04-0.108,0.066-0.228,0.065-0.366c-0.03-4.676,0.037-9.379-0.322-14.028c0.114-1.106,0.147-2.208,0.129-3.324 c0.105-0.135,0.17-0.311,0.17-0.53c-0.034-17.736-0.363-35.48-0.613-53.214c-0.247-17.553,0.222-35.253-0.882-52.777 c1.723-0.369,3.352-1.016,4.748-2.018c0.718-0.515,0.309-1.691-0.618-1.467c-5.108,1.234-9.205,2.266-14.476,1.002 c-1.072-0.257-1.469,1.268-0.451,1.635c1.141,0.41,2.38,0.73,3.662,0.943c-1.619,8.234-2.366,16.726-3.561,25.028 c-1.238,8.598-2.462,17.198-3.741,25.791c-1.279,8.594-2.597,17.181-3.934,25.766c-0.669,4.293-1.346,8.585-2.033,12.875 c-0.596,3.724-1.625,7.753-1.598,11.556c-0.543,4.014-1.12,8.002-2.192,11.937c-0.081,0.299-0.029,0.556,0.101,0.755 c-1.326,0.094-2.607,0.244-3.779,0.41c-1.196,0.17-0.688,1.987,0.501,1.818c4.508-0.64,10.93-1.221,14.702,1.868 c2.46,2.015,3.295,5.879,0.255,7.846c-1.78,1.153-4.045,1.39-6.107,1.527c-8.731,0.582-17.411-1.966-24.71-6.693 c1.812-7.397,3.088-14.846,4.019-22.404c0.031-0.25-0.087-0.437-0.262-0.557c1.788-9.632,2.648-19.489,3.555-29.235 c0.936-10.057,1.658-20.133,2.145-30.223c0.487-10.087,0.695-20.187,0.695-30.286c0-10.025,0.348-20.425-0.861-30.395 c7.845,4.961,18.494,7.048,27.397,5.129c0.567-0.122,0.446-1.043-0.137-1.015c-5.104,0.249-10.078,0.3-15.105-0.807 c-5.045-1.111-9.577-3.152-14.13-5.533c-0.418-0.219-0.715,0.343-0.36,0.615c0.347,0.266,0.711,0.518,1.073,0.772 c-0.095,0.109-0.165,0.252-0.172,0.448c-0.192,5.271,0.228,10.61,0.328,15.885c0.094,4.966,0.14,9.932,0.131,14.899 c-0.019,9.935-0.283,19.866-0.719,29.791c-0.436,9.922-1.088,19.837-1.973,29.729c-0.914,10.216-2.39,20.378-3.257,30.594 c-0.01,0.114,0.019,0.209,0.062,0.295c-0.312,0.599-0.299,0.69-0.268,1.701c0.004,0.128,0.036,0.234,0.083,0.325 c-1.101,6.869-2.548,13.696-4.205,20.448c-0.104,0.423,0.075,0.819,0.429,1.055c5.545,3.688,11.78,6.094,18.397,6.942 c4.626,0.593,11.52,1.22,15.455-1.975c3.245-2.634,2.629-7.188-0.237-9.869c-2.846-2.663-7.132-3.292-11.221-3.19 c0.022-0.048,0.044-0.096,0.06-0.151c1.229-4.295,2.065-8.71,1.924-13.162c1.084-3.611,1.379-7.678,1.969-11.336 c0.691-4.289,1.373-8.579,2.046-12.87c1.346-8.585,2.636-17.178,3.894-25.776c1.221-8.348,2.424-16.699,3.545-25.061 c1.113-8.303,2.641-16.715,3.194-25.082c1.555,0.155,3.142,0.128,4.679-0.095c-0.716,17.481,0.127,35.103,0.254,52.593 c0.129,17.687,0.18,35.384,0.523,53.068c-0.647,5.959-0.333,12.011-0.177,18.028c0.015,0.575,0.425,0.888,0.867,0.942 c5.515,4.594,14.76,5.637,21.296,2.806C741.88,3510.661,741.189,3509.372,740.327,3509.538z"/>
    <path d="M856.623,3495.968c-3.478-3.611-8.691-4.479-12.997-1.807c-4.769,2.96-8.363,9.36-7.214,15.03 c0.963,4.756,6.367,8.526,10.914,5.794c0.713-0.428,0.236-1.748-0.59-1.401c-2.173,0.913-4.59,0.471-6.368-1.087 c-2.312-2.026-2.685-5.207-2.014-8.07c1.115-4.761,5.208-10.226,10.478-10.499c5.854-0.304,9.61,5.447,10.216,10.616 c0.581,4.954-0.69,10.188-2.867,14.634c-4.473,9.132-12.819,14.211-22.869,14.862c-9.882,0.64-20.175-1.457-28.535-6.904 c-8.922-5.813-15.124-15.728-15.528-26.461c-0.025-0.663-0.973-0.812-1.165-0.158c-3.472,11.847-16.852,19.903-28.911,17.778 c-12.622-2.224-21.194-14.09-21.489-26.51c-0.004-0.165-0.064-0.286-0.15-0.372c0.029-1.555,0.136-3.118,0.299-4.698 c0.611,2.081,1.566,4.033,2.884,5.913c0.269,0.384,0.673,0.491,1.04,0.422c0.365,0.235,0.753,0.445,1.182,0.611 c2.68,1.035,5.449,0.041,7.637-1.613c5.198-3.929,8.714-10.645,10.392-16.817c2.106-7.749,1.02-15.72,0-23.549 c-1.061-8.143-2.461-16.252-4.011-24.316c-1.455-7.573-3.214-15.052-5.261-22.448c-0.001-0.022,0.005-0.04,0.001-0.062 c-0.35-2.091-0.643-4.218-1.143-6.279c-0.046-0.189-0.189-0.297-0.353-0.342c-2.023-18.346-3.927-36.618-4.53-55.112 c-0.333-10.22-0.34-20.439-0.123-30.662c0.181-8.525,0.789-17.039,1.074-25.558c0.141-0.538,0.293-1.073,0.464-1.604 c0.373-1.152,0.925-2.232,1.359-3.353c2.694,1.003,5.621,1.548,8.093,1.895c7.966,1.12,16.889,0.137,24.057-3.692 c0.25-0.134,0.355-0.37,0.356-0.613c0.024-0.012,0.044-0.026,0.066-0.038c0.083,1.954,0.198,3.906,0.248,5.835 c0.037,1.439,0.08,2.879,0.119,4.321c-6.532,8.318-12.369,18.59-14.731,28.973c-1.038,4.564-1.134,9.326,0.7,13.697 c1.109,2.643,3.498,6.313,6.474,7.413c-2.756,10.045-4.953,20.257-3.131,30.577c0.108,0.61,1.127,0.473,1.085-0.147 c-1.124-16.826,5.387-32.159,8.601-48.373c1.589-8.016,2.064-16.13,2.439-24.275c0.377-8.184,0.77-16.908-0.447-25.036 c-0.121-0.807-1.297-0.541-1.348,0.182c-0.122,1.721-0.118,3.463-0.069,5.208c-0.294-0.216-0.688-0.304-1.102-0.115 c-8.029,3.657-17.276,5.111-25.99,3.378c-4.134-0.822-7.706-2.794-9.641-6.668c-1.066-2.135-1.456-4.439-1.612-6.776 c0.185-0.867,0.38-1.731,0.634-2.582c0.56-1.872,1.458-3.405,2.497-4.976c6.168-5.531,14.677,3.234,19.426,7.959 c2.514,2.501,5.011,5.083,7.902,7.159c1.767,1.269,5.362,4.108,7.377,1.863c0.247-0.275,0.073-0.696-0.296-0.715 c-3.514-0.181-7.157-4.08-9.56-6.365c-2.613-2.485-5.032-5.172-7.744-7.554c-0.662-0.581-1.375-1.168-2.127-1.735 c3.319-0.901,6.226-4.062,7.962-6.762c2.343-3.645,2.979-7.723,2.336-11.962c-0.027-0.181-0.143-0.283-0.282-0.33 c1.165-0.807,2.191-1.782,2.999-2.875c0.663-0.897-0.794-2-1.539-1.188c-3.345,3.645-11.369,7.67-14.983,2.084 c-2.516-3.889-1.656-10.414-1.139-14.764c1.3-10.932,7.108-19.723,17.483-23.757c0.56-0.218,0.551-1.184-0.154-1.137 c-13.647,0.897-19.267,16.948-19.587,28.43c-0.135,4.808-0.199,12.035,4.847,14.582c3.601,1.818,7.959,1.146,11.358-0.913 c0,0.001-0.001,0.002-0.001,0.003c0.089,3.764-1.238,7.553-3.334,10.661c-2.104,3.12-4.996,4.445-7.807,6.644 c-4.075-2.616-8.946-4.183-13.242-1.294c-2.272,1.528-3.862,3.968-4.772,6.694c-1.401-6.299-4.74-13.129-8.614-18.189 c-3.275-4.278-7.733-8.065-13.102-9.263c-0.55-0.123-0.981,0.711-0.407,0.964c5.392,2.376,9.755,5.853,13.068,10.768 c3.547,5.262,4.971,11.281,7.742,16.873c0.198,0.399,0.572,0.462,0.891,0.336c-0.667,2.829-0.64,5.835,0.113,8.389 c0.764,2.589,2.563,4.43,4.812,5.765c-0.146,0.099-0.254,0.255-0.285,0.48c-1.387,9.981-1.598,20.161-1.828,30.227 c-0.071,3.095-0.104,6.192-0.117,9.289c-0.274-2.677-0.58-5.351-0.943-8.018c-0.903-6.638-2.082-13.23-3.586-19.758 c-1.478-6.417-2.804-13.303-5.414-19.367c-0.239-0.555-1.026-0.136-0.923,0.389c1.235,6.315,3.439,12.466,4.802,18.773 c1.442,6.674,2.65,13.406,3.567,20.172c0.89,6.567,1.505,13.17,1.844,19.788c0.319,6.221,0.046,12.51,0.506,18.718 c-0.206-0.022-0.421,0.057-0.552,0.281c-1.297,2.198-2.51,4.333-4.327,6.167c-1.527,1.54-3.358,2.719-5.176,3.892 c-0.01-0.069-0.022-0.138-0.032-0.208c-2.456,1.092-4.765,2.267-7.462,2.791c-3.142,0.61-6.225,0.553-9.363-0.047 c-0.668-0.128-0.957,0.849-0.284,1.031c5.306,1.441,12.299,1.028,16.985-2.336c3.121-0.82,6.114-3.06,8.208-5.827 c0.24,5.091,0.423,10.185,0.458,15.283c0.027,3.861-0.396,7.96-0.268,11.912c-0.675,3.167-0.64,6.62-0.893,9.79 c-0.337,4.215-0.654,8.432-0.952,12.649c-0.581,8.226-1.091,16.456-1.531,24.69c-0.805,15.072-1.706,30.262-1.597,45.377 c0.073,0.019,0.146,0.043,0.219,0.063c0.014,1.811,0.123,3.624,0.065,5.436c-0.004,0.251,0.086,0.439,0.224,0.569 c-0.672,4.697-1.376,9.861-0.585,14.626c-0.393,0.065-0.775,0.232-1.08,0.461c-0.278,0.209-0.422,0.558-0.231,0.883 c0.173,0.296,0.586,0.417,0.883,0.232c0.152-0.095,0.313-0.175,0.492-0.205c0.07-0.011,0.14-0.012,0.209-0.009 c0.452,1.935,1.181,3.789,2.305,5.496c0.049,0.075,0.119,0.12,0.195,0.143c3.805,8.09,11.693,14.442,20.526,15.677 c12.196,1.705,23.808-5.671,28.739-16.511c1.893,23.714,29.847,36.41,51.36,31.213c10.988-2.654,18.714-12.234,20.582-23.19 C861.021,3506.169,860.578,3500.075,856.623,3495.968z M781.495,3298.001c-0.09,8.788-1.293,17.529-3.365,26.062 c-1.078,4.438-2.409,8.917-3.68,13.43c-1.109-0.894-2.292-1.671-3.173-2.925c-1.046-1.489-1.788-3.223-2.25-4.975 c-1.223-4.631-0.375-9.435,1.085-13.904c2.699-8.26,6.882-16.015,11.334-23.466 C781.489,3294.151,781.515,3296.078,781.495,3298.001z M738.1,3477.229c0.764-15.311,0.959-30.657,1.784-45.969 c0.444-8.235,0.965-16.465,1.563-24.69c0.307-4.218,0.634-8.434,0.979-12.649c0.143-1.747,0.387-3.548,0.558-5.353 c-0.063-0.2-0.119-0.402-0.18-0.603c0.066-0.206,0.132-0.412,0.197-0.618c0.02-0.062,0.005-0.122-0.023-0.175 c0.992-4.743,0.539-10.182,0.521-14.954c-0.022-5.64-0.203-11.276-0.589-16.902c-0.024-0.348-0.191-0.599-0.416-0.758 c0.306-0.595,0.565-1.201,0.778-1.812c0.21,0.145,0.527,0.128,0.575-0.19c0.003-0.019,0.004-0.038,0.007-0.057 c0.776,17.024,2.173,34.178,5.002,50.939c-0.032,0.117-0.04,0.247-0.009,0.394c0.918,4.262,1.829,9.29,3.764,13.374 c2.63,11.851,4.495,23.827,6.016,35.891c1.063,8.436,1.921,16.849-1.281,24.95c-1.416,3.583-3.49,6.988-6.088,9.836 c-0.526,0.577-1.093,1.166-1.707,1.699c-0.004-0.006-0.008-0.011-0.012-0.017c-0.336,0.298-0.726,0.526-1.142,0.657 c0.044,0.049,0.092,0.093,0.137,0.142c-0.468,0.318-0.963,0.583-1.485,0.784c-0.095-0.099-0.226-0.165-0.388-0.165 c-1.351,0-2.568-0.317-3.657-0.891c-1.83-2.534-3.376-4.988-4.383-8.032c-0.011-0.034-0.035-0.058-0.05-0.089 c-0.037-0.151-0.076-0.301-0.113-0.453c-0.046-0.192-0.17-0.337-0.326-0.436c0.011-0.952-0.009-1.908-0.092-2.857 c-0.006-0.342-0.012-0.684-0.018-1.026C738.049,3477.213,738.075,3477.22,738.1,3477.229z"/>
    <path d="M870.507,3389.673c-3.231-5.387-9.664-8.153-15.819-7.374c-2.944,0.372-5.958,1.521-8.115,3.617 c-2.415,2.347-2.941,6.013-3.272,9.223c-0.667,6.466,4.539,12.744,11.244,12.716c5.51-0.023,10.591-6.468,6.658-11.363 c-0.435-0.542-1.179,0.148-0.91,0.702c1.329,2.731,0.305,6.239-2.326,7.821c-2.979,1.791-6.865,0.611-9.324-1.536 c-3.181-2.776-3.537-6.265-2.781-10.193c0.737-3.832,2.261-6.529,6.055-7.958c5.348-2.014,11.994-0.491,15.751,3.866 c4.031,4.674,4.319,11.512,1.546,16.856c-0.319,0.616,0.536,1.106,0.923,0.54C873.517,3401.648,873.579,3394.797,870.507,3389.673z "/>
    <path d="M959.028,3377.769c-2.342-4.895-7.074-8.409-12.4-9.375c-4.647-0.843-10.581,0.139-13.11,4.622 c-2.312,4.096-0.377,9.965,4.045,11.702c4.549,1.787,9.949-1.313,10.653-6.118c0.11-0.753-0.927-1.086-1.168-0.322 c-1.544,4.874-8.404,7.313-11.561,2.482c-3.205-4.904,0.807-9.568,5.834-10.444c11.171-1.946,20.116,9.475,16.701,19.916 c-2.979,9.107-11.197,17.001-18.879,22.331c-8.022,5.566-17.183,9.268-26.719,11.273c-12.178,2.561-24.618,2.264-36.907,0.795 c8.492-12.249,7.092-30.157-4.462-40.091c-0.43-0.37-1.037,0.215-0.63,0.63c10.159,10.358,11.773,28.075,2.825,39.697 c-0.316,0.411,0.007,1.171,0.509,1.252c25.637,4.152,54.298,0.563,73.923-17.859 C955.692,3400.743,964.459,3389.121,959.028,3377.769z"/>
    <path d="M1064.017,3398.227c-15.832-18.203-44.694-21.224-63.641-5.961c-8.23,6.63-14.34,16.885-13.81,27.714 c0.486,9.959,6.461,19.959,15.941,23.709c11.097,4.39,25.817-1.27,28.998-13.337c1.355-5.138-0.145-10.685-4.772-13.591 c-3.898-2.448-9.141-2.614-12.516,0.78c-0.794,0.8,0.418,2.006,1.235,1.235c3.41-3.217,8.898-2.124,11.965,1.056 c3.934,4.081,2.702,10.549-0.167,14.845c-6.067,9.086-19.458,10.943-28.206,4.813c-8.007-5.611-11.807-16.251-9.927-25.725 c1.963-9.891,8.94-18.243,17.513-23.267c19.097-11.19,44.192-5.856,57.525,11.583c13.634,17.832,10.793,43.147,0.888,62.067 c-11.612,22.182-33.482,35.647-57.939,39.001c-0.601,0.082-0.504,1.015,0.034,1.118c-0.342,0.377-0.332,1.041,0.306,1.19 c3.513,0.824,6.727,1.524,9.82,3.521c3.191,2.061,5.781,4.955,7.676,8.232c3.68,6.365,5.682,15.539,3.508,22.726 c-2.299,7.603-11.676,13.478-19.398,13.785c-7.111,0.282-14.446-5.089-13.604-12.39c0.133,0.585,0.333,1.152,0.611,1.67 c2.556,4.773,9.313,3.925,13.232,1.588c4.45-2.652,7.152-7.943,3.546-12.45c-3.806-4.757-10.84-6.935-16.625-7.752 c-15.206-2.147-30.071,4.192-44.942,6.275c-15.83,2.218-32.241,1.621-47.635-2.869c-15.421-4.498-29.431-12.779-40.589-24.351 c-0.292-0.302-0.712,0.141-0.454,0.453c15.062,18.19,38.294,27.778,61.449,29.72c13.397,1.123,26.878-0.213,39.967-3.157 c12.413-2.792,25.642-6.815,38.222-2.583c3.198,1.076,6.768,2.735,8.99,5.369c3.152,3.735,0.605,7.965-3.131,10.021 c-2.947,1.623-7.972,2.614-10.246-0.695c-1.522-2.214-0.998-6.047,1.739-7.016c0.775-0.274,0.463-1.355-0.337-1.22 c-2.701,0.458-3.983,2.882-3.985,5.372c-1.755,5.02,0.566,10.398,5.127,13.15c5.931,3.578,13.221,2.263,19.001-0.917 c6.3-3.466,10.93-8.458,11.649-15.828c0.7-7.164-0.974-14.998-4.858-21.08c-3.26-5.103-9.329-10.258-15.724-10.996 c23.454-2.377,44.83-17.521,56.053-38.074C1077.88,3445.132,1080.457,3417.128,1064.017,3398.227z"/>
    <path d="M1042.539,3418.462c-3.557-6.072-9.446-10.448-16.478-11.362c-0.331-0.043-0.396,0.501-0.078,0.577 c6.768,1.625,12.428,6.451,15.363,12.736c3.214,6.881,2.697,14.701-0.415,21.522c-6.456,14.156-23.457,20.946-38.317,19.006 c-16.439-2.146-25.984-17.051-29.982-31.942c-4.153-15.47,0.44-31.88-4.471-47.15c-2.107-6.552-6.209-12.681-12.498-15.827 c-5.632-2.817-12.812-3.362-18.011,0.646c-0.737,0.569-0.099,1.803,0.756,1.293c6.484-3.875,14.663-2.635,20.376,2.126 c6.15,5.126,8.619,13.702,9.415,21.372c0.917,8.842-0.135,17.746,0.487,26.603c0.576,8.202,2.715,16.245,6.315,23.64 c3.121,6.411,7.503,12.433,13.425,16.522c6.357,4.39,14.229,5.904,21.849,5.396c14.363-0.957,28.715-8.945,33.778-22.997 C1046.639,3433.445,1046.446,3425.133,1042.539,3418.462z"/>
    <path d="M935.318,3390.859c-3.077-1.37-7.083-1.445-9.866,0.637c-2.414,1.805-3.777,5.103-2.566,7.993 c1.164,2.777,4.571,4.702,7.452,3.322c2.682-1.285,3.803-4.716,2.037-7.171c-0.564-0.784-1.754-0.118-1.308,0.765 c0.929,1.84-0.098,4.246-2.059,4.813c-2.466,0.713-4.829-1.683-4.842-4.09c-0.031-5.371,6.476-6.815,10.424-4.815 c8.57,4.344-1.944,15.072-6.489,18.388c-5.596,4.083-12.233,6.63-18.937,8.216c-7.947,1.88-15.611,1.852-23.674,1.188 c-0.354-0.029-0.392,0.494-0.081,0.595c8.852,2.861,19.097,1.656,27.852-0.924c7.647-2.253,15.301-5.846,20.793-11.776 C938.367,3403.346,943.475,3394.49,935.318,3390.859z"/>
    <path d="M831.455,3379.565c-0.287,0.178-0.196,0.713,0.184,0.681c2.45-0.21,5.104,0.132,5.98,2.873 c0.795,2.486-0.701,5.073-3.217,5.628c-4.47,0.987-7.779-2.917-9.706-6.365c-3.907-6.989-7.674-13.729-12.803-19.934 c-0.178-0.216-0.562,0.075-0.392,0.302c3.911,5.253,7.279,10.862,10.054,16.795c2.111,4.514,4.533,9.844,9.963,10.881 c3.898,0.744,7.979-1.53,7.962-5.826C839.466,3380.788,835.012,3377.353,831.455,3379.565z"/>
    <path d="M985.141,3519.159c-7.586-3.899-17.276-1.641-25.383-1c-9.618,0.761-19.226,2.042-28.861,2.539 c-8.768,0.452-18.5-0.569-25.118-6.985c-2.684-2.602-6.556-9.576-0.683-11.229c5.516-1.552,11.87,4.028,8.587,9.573 c-0.143,0.242,0.211,0.434,0.369,0.216c3.966-5.468-2.047-11.315-7.687-11.122c-6.823,0.234-6.573,7.689-3.441,11.929 c4.471,6.052,12.208,8.762,19.433,9.451c9.745,0.929,19.804-0.875,29.484-1.881c5.45-0.566,10.888-1.22,16.331-1.842 c5.539-0.632,11.342-1.433,16.557,1.059C985.198,3520.092,985.614,3519.402,985.141,3519.159z"/>
    <path d="M1070.338,3501.793c-2.486-3.673-5.778-6.765-10.178-7.855c-5.347-1.324-11.045,0.067-16.176,1.656 c-5.957,1.845-11.616,4.756-16.798,8.196c-0.038,0.025-0.004,0.085,0.036,0.062c6.799-3.891,14.224-6.655,21.928-8.115 c3.802-0.721,8.041-1.104,11.758,0.229c3.673,1.317,6.455,4.02,8.504,7.276c2.047,3.254,4.456,7.588,3.975,11.521 c-0.517,4.236-4.403,6.796-8.171,7.952c-3.471,1.064-8.58,2.299-11.935,0.442c-2.798-1.548-4.268-4.746-4.599-7.816 c-0.417-3.851,1.018-8.25,4.261-10.554c3.56-2.529,8.882-1.05,9.916,3.391c0.096,0.414,0.783,0.333,0.753-0.102 c-0.224-3.189-2.975-5.37-6.022-5.828c-3.494-0.525-6.646,1.553-8.483,4.409c-3.706,5.762-2.63,16.053,4.653,18.569 c4.134,1.427,10.218,0.151,14.111-1.58c3.482-1.548,6.603-4.507,7.167-8.429C1075.696,3510.65,1072.815,3505.451,1070.338,3501.793 z"/>
    <path d="M1087.711,3451.774c-6.221,0.252-9.071,8.408-11.761,12.817c-4.867,7.978-10.718,15.329-17.102,22.14 c-0.236,0.253,0.124,0.61,0.378,0.379c4.607-4.189,8.82-8.776,12.552-13.764c3.725-4.978,6.505-10.489,10.018-15.581 c2.219-3.217,5.339-5.535,9.265-3.426c2.884,1.55,5.097,4.707,5.032,8.053c-0.066,3.409-2.727,6.859-6.241,7.124 c-1.972,0.148-4.467-0.784-5.03-2.912c-0.53-2.003,0.751-3.815,2.579-4.484c0.474-0.173,0.41-0.869-0.12-0.892 c-2.098-0.094-3.684,1.668-4.064,3.653c-0.42,2.198,0.809,4.256,2.688,5.336c5.13,2.949,11.054-1.548,11.7-6.894 C1098.264,3457.872,1093.484,3451.541,1087.711,3451.774z"/>
    <path d="M1082.397,3485.088c-4.413-1.279-9.223-0.235-13.176,1.922c-0.327,0.179-0.04,0.643,0.287,0.493 c4.189-1.926,8.27-2.033,12.763-1.487C1082.812,3486.081,1082.892,3485.231,1082.397,3485.088z"/>
    <path d="M937.395,3538.049c-13.009,3.518-26.822,3.137-39.332-2.114c-12.177-5.11-22.151-13.998-32.103-22.442 c-0.155-0.132-0.377,0.081-0.227,0.227c9.559,9.326,19.711,18.682,32.241,23.807c12.483,5.107,26.87,5.786,39.682,1.466 C938.249,3538.794,938.01,3537.882,937.395,3538.049z"/>
    <path d="M770.812,3432.689c-0.185-0.497-0.951-0.307-0.808,0.223c3.695,13.665,7.285,27.825,3.067,41.841 c-1.722,5.722-4.483,11.188-8.49,15.654c-4.596,5.123-11.433,9.74-18.62,8.278c-0.345-0.07-0.493,0.438-0.147,0.533 c12.91,3.504,24.1-10.42,27.848-21.104C778.781,3463.529,776.088,3446.841,770.812,3432.689z"/>
    <path d="M767.28,3423.812c-4.003-7.286-7.13-14.95-9.463-22.926c-0.071-0.242-0.446-0.14-0.378,0.104 c2.226,8.037,5.467,15.723,9.579,22.974C767.114,3424.135,767.374,3423.983,767.28,3423.812z"/>
    <path d="M834.817,3422.422c-5.742-4.41-11.249-9.121-15.654-14.91c-4.541-5.967-7.507-12.858-10.148-19.829 c-4.529-11.955-8.736-24.631-19.301-32.69c-0.351-0.268-0.823,0.338-0.475,0.615c11.484,9.155,15.087,24.022,20.452,36.986 c5.218,12.61,13.731,22.458,24.866,30.273C834.833,3423.062,835.074,3422.62,834.817,3422.422z"/>
    <path d="M963.482,3394.187c-0.035-0.74-1.036-0.701-1.123,0c-1.384,11.158-6.66,20.583-15.819,27.272 c-9.542,6.969-21.567,10.003-33.145,11.315c-0.112,0.013-0.117,0.184,0,0.178c12.332-0.608,24.865-3.375,34.881-10.979 C956.606,3415.649,963.991,3405.091,963.482,3394.187z"/>
    <path d="M1015.633,3513.789c-0.418-0.291-0.901,0.354-0.54,0.7c2.729,2.613,5.782,5.07,7.762,8.343 c2.077,3.433,2.498,7.533,1.426,11.378c-1.931,6.923-7.994,12.185-14.996,13.503c-0.265,0.05-0.206,0.489,0.064,0.473 c7.684-0.473,14.438-6.116,16.439-13.561C1028.211,3525.598,1022.653,3518.682,1015.633,3513.789z"/>
  </g>
</svg>