
<svg viewBox="730.7778 6586.2412 199.4202 209.7622" xmlns="http://www.w3.org/2000/svg">
  <g id="_x34_5zNzw.tif" transform="matrix(1, 0, 0, 1, 5.684341886080802e-14, 0)">
    <g>
      <path style="fill:none;stroke:#000000;stroke-miterlimit:10;" d="M766.549,6678.269c-10.786-18.54-21.706-37.003-32.305-55.65&#10;&#9;&#9;&#9;c-6.014-10.58-4.227-16.982,5.556-24.1c7.636-5.555,16.717-8.051,24.974-12.278c4.188,0,8.376,0,12.564,0&#10;&#9;&#9;&#9;c4.298,3.301,6.66,7.796,8.382,12.849c6.844,20.08,13.831,40.11,20.765,60.16c-3.431,4.359-8.773,2.362-13.028,3.958&#10;&#9;&#9;&#9;c-2.738,0.742-5.631,0.898-8.242,2.135c-3.231,1.559-6.214,3.487-8.819,5.977C773.391,6674.029,770.806,6677.343,766.549,6678.269&#10;&#9;&#9;&#9;z"/>
      <path style="fill:none;stroke:#000000;stroke-miterlimit:10;" d="M930.197,6743.488c-12.487,12.816-29.345,18.028-46.276,25.95&#10;&#9;&#9;&#9;c8.287,4.808,16.689,4.671,24.241,7.17c6.882,2.277,16.968,4.058,16.527,11.562c-0.378,6.421-10.811,4.879-16.926,5.826&#10;&#9;&#9;&#9;c-20.022,3.101-39.95,3.291-59.233-4.377c-0.409-1.89,0.092-2.854,2.207-2.175c20.648,1.407,41.329,5.448,63.31-0.407&#10;&#9;&#9;&#9;c-8.718-6.401-18.151-6.159-26.545-8.973c-5.718-1.917-14.735-1.989-14.771-8.901c-0.03-5.761,8.798-6.646,14.166-8.712&#10;&#9;&#9;&#9;c8.757-3.37,18.063-5.426,25.922-10.881c10.608-7.363,10.74-13.412,0.421-21.022c-4.765-3.515-10.005-6.415-14.581-10.146&#10;&#9;&#9;&#9;c-7.771-6.338-7.887-11.26-0.641-18.207c6.29-6.029,13.07-11.554,19.254-17.687c5.058-5.017,8.351-11.144,8.455-18.571&#10;&#9;&#9;&#9;c-0.612-2.093,0.217-2.621,2.133-1.967c0.085,0.598,0.222,1.183,0.412,1.756c1.749,4.18,0.436,8.562,0.846,12.82&#10;&#9;&#9;&#9;c0.927,11.402-7.17,17.337-14.514,23.583c-11.122,9.458-10.988,11.885,1.656,18.935c5.43,3.027,11.022,5.854,13.936,11.845&#10;&#9;&#9;&#9;C930.197,6735.101,930.197,6739.294,930.197,6743.488z"/>
      <path style="fill:none;stroke:#000000;stroke-miterlimit:10;" d="M930.197,6678.493c-0.637,0.019-1.273,0.051-1.906,0.099&#10;&#9;&#9;&#9;c-0.006-4.954-0.013-9.909-0.019-14.865c0.641,0.064,1.283,0.095,1.926,0.09C930.197,6668.708,930.197,6673.601,930.197,6678.493z&#10;&#9;&#9;&#9;"/>
      <path style="fill:none;stroke:#000000;stroke-miterlimit:10;" d="M840.341,6784.558c-9.575-8.566-18.771-17.691-31.391-21.855&#10;&#9;&#9;&#9;c-4.406-1.454-5.006-5.503-6.226-9.035c-5.236-15.155-10.355-30.35-15.516-45.531c-1.474-2.3-2.008-4.793-1.562-7.491&#10;&#9;&#9;&#9;c2.007-8.983,9.972-10.032,16.795-12.625c3.472,0.22,6.946,0.453,10.377,1.13c3.471,0.715,4.751,3.633,6.302,6.279&#10;&#9;&#9;&#9;c6.746,15.971,15.133,31.086,24.589,45.559c3.458,5.293,5.047,10.228,3.525,16.494c-2.088,8.595,1.073,17.157,0.951,25.775&#10;&#9;&#9;&#9;c-0.81,0.601-1.673,0.69-2.591,0.274c-2.385-1.77-3.221-4.514-4.408-7.039c-1.678-5.293-3.674-10.423-7.518-14.606&#10;&#9;&#9;&#9;c-0.973-7.954-5.956-14.469-7.927-22.06c2.187,7.718,6.645,14.618,8.184,22.571c3.562,4.068,5.537,8.917,6.909,14.064&#10;&#9;&#9;&#9;c0.762,2.234,2.512,4.182,1.972,6.795C842.165,6784.036,841.343,6784.468,840.341,6784.558z"/>
      <path style="fill:none;stroke:#000000;stroke-miterlimit:10;" d="M802.314,6688.938c-3.992,4.701-12.232,3.561-14.53,10.592&#10;&#9;&#9;&#9;c-2.748,1.754,0.185,8.741-6.397,6.963c-9.796-6.07-14.127-14.78-12.666-26.288c1.358-4.23,4.446-6.985,7.968-9.377&#10;&#9;&#9;&#9;c2.822-2.86,6.339-4.675,9.797-6.592c3.714-0.08,6.92-2.346,10.626-2.458c3.248,0,6.518-0.306,9.67,0.809&#10;&#9;&#9;&#9;c12.073,8.452,16.069,17.65,12.525,28.837c-2.501,1.026-4.183-1.639-6.499-1.445&#10;&#9;&#9;&#9;C809.464,6688.083,805.635,6691.07,802.314,6688.938z"/>
      <path style="fill:none;stroke:#000000;stroke-miterlimit:10;" d="M806.782,6662.588c-3.568,0.309-7.135,0.617-10.703,0.925&#10;&#9;&#9;&#9;c-1.156-1.19-3.271-0.191-4.221-1.852c4.405-3.664,9.788-1.385,14.627-2.412C806.584,6660.363,806.683,6661.475,806.782,6662.588z&#10;&#9;&#9;&#9;"/>
      <path style="fill:none;stroke:#000000;stroke-miterlimit:10;" d="M840.341,6784.558c0.206-0.663,0.65-1.104,1.333-1.324&#10;&#9;&#9;&#9;c1.631,0.027,3.262,0.028,4.893,0.06c0.539-0.015,1.078-0.027,1.618-0.035c0.851,1.395,1.702,2.79,2.553,4.185&#10;&#9;&#9;&#9;c-0.736,0.725-1.471,1.45-2.207,2.175C844.941,6789.325,840.952,6789.682,840.341,6784.558z"/>
      <path style="fill:none;stroke:#000000;stroke-miterlimit:10;" d="M927.861,6661.969c-0.711,0.656-1.421,1.311-2.132,1.967&#10;&#9;&#9;&#9;c-1.908-2.229-2.386-4.636-0.958-7.346C927.571,6657.427,928.18,6659.432,927.861,6661.969z"/>
      <path style="fill:none;stroke:#000000;stroke-miterlimit:10;" d="M812.954,6689.062c2.118,0.788,4.236,1.575,6.354,2.363&#10;&#9;&#9;&#9;c-0.062,1.335-0.125,2.67-0.188,4.005c-2.042-1.539-4.083-3.077-6.125-4.616c-0.743-0.372-0.995-0.755-0.762-1.151&#10;&#9;&#9;&#9;C812.47,6689.263,812.709,6689.062,812.954,6689.062z"/>
      <path style="fill:none;stroke:#000000;stroke-miterlimit:10;" d="M776.928,6672.053c-2.735,2.718-5.471,5.436-8.206,8.154&#10;&#9;&#9;&#9;c-0.724-0.646-1.448-1.292-2.172-1.938c2.319-3.374,4.8-6.582,8.582-8.469C776.041,6670.303,776.656,6671.041,776.928,6672.053z"/>
      <path style="fill:none;stroke:#000000;stroke-miterlimit:10;" d="M781.388,6706.494c4.72,0.062,2.01-6.719,6.397-6.963&#10;&#9;&#9;&#9;c-0.192,2.869-0.384,5.737-0.576,8.606C785.166,6707.952,782.925,6708.473,781.388,6706.494z"/>
      <path style="fill:none;stroke:#000000;stroke-miterlimit:10;" d="M776.928,6672.053c-0.598-0.75-1.197-1.501-1.795-2.252&#10;&#9;&#9;&#9;c2.235-3.102,5.397-4.772,8.961-5.821c1.996-0.144,2.872,0.504,1.787,2.537C782.896,6668.362,779.912,6670.208,776.928,6672.053z"/>
      <path style="fill:none;stroke:#000000;stroke-miterlimit:10;" d="M785.88,6666.517c-0.596-0.846-1.192-1.691-1.787-2.537&#10;&#9;&#9;&#9;c2.09-2.448,5.062-1.935,7.766-2.318c1.407,0.617,2.814,1.234,4.221,1.852C792.68,6664.515,789.28,6665.516,785.88,6666.517z"/>
      <path style="fill:none;stroke:#000000;stroke-miterlimit:10;" d="M833.984,6762.319c-5.261-6.381-6.037-15.327-12.302-21.248&#10;&#9;&#9;&#9;c-1.635-1.545-1.706-4.718,0.297-6.673c1.997-1.949,4.763-0.487,5.052,1.166c1.605,9.155,8.477,16.967,6.823,26.902&#10;&#9;&#9;&#9;L833.984,6762.319z"/>
      <path style="fill:none;stroke:#000000;stroke-miterlimit:10;" d="M840.674,6776.901c-3.971-4.061-5.649-9.176-6.691-14.583&#10;&#9;&#9;&#9;c0.001,0.001-0.131,0.146-0.13,0.147c7.496,1.967,6.612,9.199,9.007,14.37C842.153,6777.566,841.424,6777.588,840.674,6776.901z"/>
      <path style="fill:none;stroke:#000000;stroke-miterlimit:10;" d="M840.674,6776.901c0.726-0.021,1.452-0.043,2.182-0.065&#10;&#9;&#9;&#9;c1.24,2.152,2.475,4.305,3.71,6.458c-1.658,2.252-3.283,1.754-4.892-0.06C841.34,6781.123,841.007,6779.012,840.674,6776.901z"/>
      <path style="fill:none;stroke:#000000;stroke-miterlimit:10;" d="M812.954,6689.062c-0.002,0.584,0.012,1.169,0.041,1.752&#10;&#9;&#9;&#9;c-3.601-0.393-7.694,2.029-10.68-1.876C805.863,6688.799,809.44,6686.199,812.954,6689.062z"/>
    </g>
  </g>
</svg>