<?xml version="1.0" encoding="utf-8"?>
<svg viewBox="131.376 -626.5863 668.9896 1753.1734" xmlns="http://www.w3.org/2000/svg">
  <path class="st2" d="M 391.826 479.387 C 392.126 481.387 392.426 483.387 392.626 485.487 C 392.326 491.387 392.126 497.187 391.926 503.087 C 383.626 461.487 368.226 421.687 338.526 390.187 C 327.026 377.987 313.726 367.687 298.826 359.887 C 296.126 358.487 293.426 360.287 293.626 363.287 C 297.526 427.687 321.226 490.187 360.626 541.187 C 369.926 553.187 380.126 564.487 391.326 574.787 C 391.826 610.887 393.526 647.087 396.526 683.087 C 397.726 697.287 399.026 711.587 400.526 725.787 C 382.726 676.987 358.126 630.887 327.826 588.487 C 316.526 572.687 304.426 557.687 291.526 543.187 C 293.326 540.387 294.126 536.987 293.626 533.287 C 292.126 522.787 280.726 516.887 271.426 522.287 C 261.426 528.087 259.426 542.887 269.726 549.587 C 274.726 552.787 281.326 552.287 285.526 548.287 C 287.026 547.687 288.326 546.787 289.426 545.687 C 334.226 602.287 370.126 665.987 394.726 733.987 C 398.426 744.087 401.826 754.287 405.026 764.587 C 405.526 768.487 406.026 772.287 406.626 776.187 C 401.726 761.687 396.326 747.487 390.026 733.587 C 375.826 702.587 356.026 673.787 327.726 653.987 C 313.426 643.987 297.426 636.787 280.326 633.287 C 278.126 632.887 276.126 635.387 276.626 637.387 C 292.626 703.687 328.526 764.787 378.526 811.087 C 390.426 822.087 403.226 832.687 416.926 841.487 C 427.426 900.087 441.026 958.187 457.426 1015.387 C 465.126 1042.287 473.526 1069.087 482.526 1095.587 L 514.026 1126.587 C 509.926 1115.387 506.026 1104.187 502.126 1092.887 C 488.826 1053.787 476.926 1014.287 466.326 974.287 C 471.826 964.287 479.026 955.287 486.126 946.187 C 496.026 933.387 504.626 919.987 511.026 904.987 C 523.526 875.587 527.626 842.987 523.326 811.387 C 520.926 793.587 515.726 776.287 508.026 760.087 C 506.626 757.087 502.826 757.287 500.926 759.587 C 475.826 789.687 458.926 826.087 451.526 864.287 C 450.826 797.087 474.526 731.887 508.226 673.887 C 518.026 656.987 528.626 640.587 539.226 624.187 C 541.026 626.587 543.226 628.587 546.226 629.387 C 549.226 630.187 552.026 629.487 554.426 627.987 C 564.426 626.687 567.826 613.487 564.326 604.587 C 560.126 593.887 545.426 591.387 537.826 599.987 C 533.626 604.687 533.426 610.787 535.526 616.487 C 536.026 617.787 536.526 619.187 537.226 620.487 C 514.226 651.887 494.026 685.587 477.626 720.887 C 460.826 757.187 447.626 795.687 443.526 835.787 C 442.426 846.787 441.926 857.887 442.226 868.887 C 434.926 831.987 428.726 794.887 423.826 757.587 C 421.926 743.487 420.326 729.387 418.826 715.187 C 429.026 702.987 439.126 690.787 449.126 678.487 C 459.826 665.287 470.626 651.987 478.526 636.887 C 491.726 611.687 496.826 582.487 493.526 554.287 C 491.626 537.987 486.826 522.187 479.226 507.587 C 478.226 505.587 475.026 504.487 473.326 506.387 C 443.326 539.387 421.526 580.687 411.826 624.387 C 409.126 568.587 409.326 512.587 412.526 456.787 C 440.326 439.687 467.526 420.487 487.426 394.187 C 506.726 368.587 516.926 336.687 516.926 304.787 C 516.926 295.987 516.226 287.187 514.626 278.487 C 513.026 269.787 511.126 260.387 507.126 252.387 C 506.026 250.287 503.126 249.587 501.326 251.187 C 491.026 260.287 480.326 268.687 470.826 278.687 C 461.326 288.587 452.726 299.387 445.126 310.787 C 435.726 324.787 427.926 339.787 421.726 355.487 C 423.726 339.187 426.026 322.887 428.526 306.587 C 422.226 306.587 415.826 306.587 409.526 306.587 C 409.826 306.887 410.226 307.187 410.526 307.387 C 407.226 328.187 404.326 348.987 401.826 369.787 C 398.526 397.387 396.026 424.987 394.226 452.687 C 394.126 451.987 393.926 451.187 393.826 450.487 M 358.826 496.487 C 368.926 518.987 379.726 541.187 391.226 562.987 C 391.226 563.987 391.226 564.887 391.226 565.887 C 372.926 546.687 356.526 525.887 343.126 502.987 C 327.226 475.687 315.326 446.187 308.026 415.487 C 304.426 400.087 301.926 384.487 300.726 368.787 C 352.526 399.187 377.526 458.387 388.126 515.387 C 389.326 521.787 390.326 528.187 391.226 534.687 C 391.126 541.087 391.126 547.387 391.126 553.787 C 380.526 534.687 370.626 515.287 361.526 495.387 C 360.726 493.387 358.026 494.687 358.826 496.487 Z M 278.226 536.787 C 278.226 536.787 278.326 536.887 278.326 536.887 C 278.326 536.887 278.326 536.887 278.226 536.787 Z M 278.526 536.987 C 278.526 536.987 278.526 536.987 278.526 536.987 C 278.726 537.187 278.626 537.187 278.526 536.987 Z M 454.426 901.887 C 454.526 901.487 454.526 901.087 454.526 900.687 C 456.626 866.187 465.826 832.287 482.426 801.687 C 488.526 790.487 495.626 779.787 503.526 769.787 C 514.826 796.487 518.926 825.887 515.726 854.787 C 514.026 870.287 510.326 885.487 504.626 899.987 C 498.826 914.887 490.626 928.287 481.226 941.287 C 475.426 949.387 469.326 957.487 464.226 966.087 C 463.726 964.287 463.326 962.487 462.826 960.687 C 467.126 925.087 474.126 889.887 484.126 855.487 C 484.626 853.687 481.826 852.687 481.326 854.487 C 472.026 885.287 464.826 916.587 459.726 948.287 C 457.826 940.387 455.926 932.487 454.026 924.587 C 453.926 916.987 454.026 909.487 454.426 901.887 Z M 419.826 621.887 C 426.326 596.087 436.726 571.287 450.826 548.587 C 457.926 537.087 466.026 526.187 474.926 515.987 C 485.726 539.687 489.726 566.187 486.026 591.987 C 484.026 606.087 479.726 619.987 473.226 632.587 C 465.926 646.687 456.126 659.287 446.226 671.587 C 436.926 683.087 427.626 694.587 418.426 706.187 C 423.026 691.387 427.726 676.587 432.126 661.687 C 432.826 659.487 429.526 658.287 428.726 660.487 C 424.626 671.887 420.626 683.287 416.726 694.687 C 415.526 682.087 414.526 669.387 413.726 656.787 C 415.026 645.187 416.926 633.487 419.826 621.887 Z M 413.326 819.687 C 413.626 821.487 413.926 823.287 414.226 825.087 C 404.626 811.787 394.426 798.987 385.426 785.087 C 374.426 767.987 364.426 750.487 354.326 732.887 C 353.226 730.987 350.426 732.387 351.226 734.387 C 359.226 753.487 369.626 771.887 380.826 789.287 C 388.426 800.987 396.226 813.187 405.026 824.287 C 386.226 809.287 368.726 792.987 353.126 774.287 C 331.926 748.887 314.526 720.487 301.426 690.087 C 294.626 674.287 289.126 657.987 284.826 641.387 C 312.726 648.587 336.526 666.887 354.426 689.187 C 376.926 717.187 390.026 750.987 401.726 784.587 C 405.926 796.287 409.726 807.987 413.326 819.687 Z M 413.826 438.787 C 415.926 433.687 418.226 428.587 420.526 423.587 C 426.126 411.587 433.126 400.287 438.526 388.187 C 439.626 385.787 436.026 384.287 434.526 386.187 C 426.626 396.687 420.826 409.087 415.126 420.787 C 415.126 420.787 415.126 420.887 415.126 420.887 C 416.226 407.587 417.426 394.387 418.826 381.087 C 429.026 346.287 446.526 313.987 471.526 286.887 C 480.526 277.187 490.426 267.087 501.626 259.687 C 503.326 265.187 505.226 270.687 506.426 276.387 C 508.026 283.887 509.126 291.587 509.426 299.287 C 510.126 314.287 508.426 329.487 504.326 343.987 C 495.226 375.987 474.826 401.787 449.226 422.487 C 437.726 431.787 425.426 440.187 413.026 448.287 C 413.326 445.187 413.526 441.987 413.826 438.787 Z" style="fill: rgb(140, 98, 57);" transform="matrix(1, 0, 0, 1, 1.1368683772161603e-13, -1.1368683772161603e-13)"/>
  <path class="st1" d="M 180.926 365.887 C 181.626 367.287 182.426 368.687 183.226 369.987 C 183.126 368.287 182.326 366.487 180.926 365.887 Z" style="fill: rgb(35, 31, 32);" transform="matrix(1, 0, 0, 1, 1.1368683772161603e-13, -1.1368683772161603e-13)"/>
  <path class="st2" d="M 764.326 -301.413 C 763.526 -308.513 759.026 -315.413 752.726 -318.913 C 744.126 -323.713 735.026 -318.413 731.326 -310.213 C 730.426 -308.313 729.826 -306.213 729.326 -304.013 C 651.626 -279.513 577.326 -237.013 524.726 -173.913 C 517.526 -165.213 510.726 -156.213 504.426 -146.813 C 504.126 -146.313 503.726 -145.713 503.426 -145.213 C 512.426 -175.613 522.226 -205.713 532.826 -235.413 C 544.326 -237.313 556.126 -237.413 567.726 -238.913 C 582.426 -240.813 595.026 -246.113 606.526 -255.513 C 628.026 -273.013 650.626 -293.613 661.226 -319.713 C 666.526 -332.813 668.426 -347.313 664.526 -361.013 C 663.826 -363.513 661.026 -365.613 658.326 -364.113 C 644.526 -356.313 629.326 -350.913 615.426 -343.113 C 601.926 -335.513 588.926 -326.813 577.226 -316.613 C 568.926 -309.313 561.126 -301.113 554.426 -292.213 C 570.826 -332.813 588.926 -372.713 609.026 -411.813 C 614.626 -422.813 620.426 -433.613 626.326 -444.413 C 626.726 -445.013 627.026 -445.513 627.426 -446.113 C 628.226 -445.813 629.226 -446.213 629.726 -446.913 C 629.726 -446.913 629.826 -447.013 629.826 -447.013 C 630.126 -447.413 630.226 -447.913 630.126 -448.413 C 643.826 -457.713 657.126 -467.713 670.926 -477.013 C 685.426 -486.813 699.926 -496.513 714.126 -506.713 C 726.326 -515.513 738.526 -525.513 745.926 -538.913 C 752.526 -550.713 754.626 -564.213 754.126 -577.613 C 753.426 -593.413 749.226 -608.713 745.226 -623.913 C 744.726 -625.813 742.626 -627.313 740.726 -626.213 C 691.226 -598.413 653.226 -548.713 634.526 -495.713 C 629.326 -481.013 625.426 -465.813 624.526 -450.213 C 624.126 -449.613 624.026 -448.913 624.126 -448.313 C 624.026 -448.213 623.926 -448.113 623.826 -448.013 C 577.226 -371.713 538.626 -290.613 507.926 -206.613 C 509.226 -227.513 509.626 -248.513 506.726 -269.213 C 502.526 -298.413 490.726 -324.913 470.926 -346.813 C 459.626 -359.313 446.626 -370.213 432.726 -379.713 C 430.026 -381.513 426.426 -379.613 426.226 -376.513 C 420.826 -317.913 435.926 -258.013 468.626 -209.013 C 476.726 -196.813 485.726 -184.413 496.726 -174.613 C 478.126 -119.813 463.226 -63.613 451.826 -6.713 C 450.526 -15.513 448.626 -24.213 446.026 -32.713 C 437.326 -60.913 421.126 -86.713 399.926 -107.213 C 387.826 -119.013 374.026 -128.813 359.026 -136.713 C 356.726 -137.913 353.126 -136.913 353.126 -133.813 C 352.626 -75.413 374.026 -17.113 412.126 27.187 C 420.526 36.887 429.726 45.887 439.726 53.787 C 446.026 53.787 452.426 53.787 458.726 53.787 C 463.026 26.287 468.026 -1.113 473.826 -28.313 C 504.426 -37.113 532.726 -52.913 554.826 -76.113 C 575.626 -98.013 590.026 -125.313 595.926 -155.013 C 599.126 -171.513 599.426 -188.513 596.726 -205.113 C 596.226 -208.113 592.826 -209.713 590.226 -208.413 C 551.526 -189.413 518.826 -158.613 496.826 -121.513 C 497.226 -122.813 497.526 -124.013 497.826 -125.313 C 497.926 -125.613 498.026 -126.013 498.126 -126.313 C 501.026 -131.313 503.926 -136.413 507.126 -141.313 C 512.426 -149.413 518.126 -157.213 524.126 -164.813 C 536.226 -180.013 549.726 -194.013 564.326 -206.913 C 595.526 -234.613 631.026 -256.913 668.726 -274.813 C 688.026 -283.913 707.826 -292.213 727.826 -299.813 C 727.326 -298.113 727.126 -296.413 727.226 -294.613 C 727.726 -288.013 731.926 -281.913 738.226 -279.613 C 752.126 -274.513 766.026 -287.113 764.326 -301.413 Z M 654.926 -526.213 C 667.926 -550.713 684.926 -572.913 705.326 -591.713 C 716.226 -601.713 728.026 -610.313 740.426 -618.413 C 748.026 -594.613 754.226 -566.513 742.026 -543.513 C 735.126 -530.413 723.326 -520.713 711.526 -512.213 C 698.026 -502.513 684.226 -493.413 670.526 -484.013 C 659.526 -476.513 648.226 -469.013 637.626 -460.913 C 650.326 -479.313 663.926 -497.213 677.926 -514.613 C 679.126 -516.113 676.626 -517.713 675.426 -516.313 C 659.226 -497.213 644.226 -477.013 630.426 -456.013 C 636.226 -480.313 643.126 -503.913 654.926 -526.213 Z M 537.226 -247.513 C 552.426 -265.913 571.726 -280.613 593.126 -291.313 C 595.526 -292.513 593.726 -296.113 591.326 -295.013 C 572.726 -286.813 556.326 -275.113 542.226 -260.913 C 542.926 -262.813 543.726 -264.713 544.426 -266.713 C 553.626 -284.313 566.326 -299.813 581.726 -312.813 C 592.926 -322.313 605.326 -330.413 618.326 -337.413 C 630.526 -344.013 643.826 -351.113 657.326 -355.013 C 664.926 -323.213 640.826 -295.913 618.726 -275.813 C 605.426 -263.713 592.326 -251.213 574.126 -247.113 C 561.326 -244.213 548.126 -244.013 535.226 -241.913 C 535.926 -243.813 536.526 -245.613 537.226 -247.513 Z M 443.026 39.887 C 431.126 15.887 419.326 -8.213 407.026 -32.113 C 405.826 -34.413 402.426 -32.713 403.526 -30.413 C 415.426 -4.713 427.826 20.687 439.926 46.287 C 402.426 10.687 375.426 -34.113 365.126 -85.313 C 362.326 -99.013 360.826 -113.013 360.626 -127.013 C 407.926 -98.413 439.326 -48.813 445.726 6.187 C 446.226 10.387 446.526 14.587 446.726 18.787 C 445.426 25.787 444.226 32.887 443.026 39.887 Z M 505.626 -122.813 C 519.426 -143.813 536.726 -162.413 556.826 -177.613 C 566.726 -185.113 577.226 -191.613 588.326 -197.313 C 591.126 -171.913 586.426 -146.213 575.726 -123.013 C 563.026 -95.413 541.626 -73.213 516.326 -56.613 C 503.626 -48.313 489.826 -41.613 475.426 -36.613 C 475.426 -36.813 475.526 -36.913 475.526 -37.113 C 488.326 -59.413 503.426 -80.113 518.826 -100.813 C 520.126 -102.613 517.426 -105.113 515.826 -103.413 C 502.526 -89.113 490.826 -73.313 480.026 -57.013 C 482.626 -68.113 485.326 -79.113 488.126 -90.113 C 493.026 -101.413 498.726 -112.313 505.626 -122.813 Z M 501.726 -190.913 C 490.026 -219.313 478.526 -247.913 465.726 -275.913 C 464.826 -277.913 462.026 -276.413 462.726 -274.413 C 474.126 -243.713 487.026 -213.513 499.526 -183.213 C 499.226 -182.213 498.826 -181.213 498.526 -180.213 C 491.126 -189.713 483.426 -198.813 476.826 -208.913 C 469.226 -220.613 462.426 -232.913 456.726 -245.613 C 445.026 -271.413 437.626 -299.213 434.726 -327.413 C 433.326 -341.113 433.126 -354.813 433.926 -368.513 C 455.326 -353.313 474.626 -335.113 486.726 -311.413 C 499.726 -286.013 503.226 -257.213 503.426 -229.113 C 503.526 -216.413 502.726 -203.613 501.726 -190.913 Z" style="fill: rgb(140, 98, 57);" transform="matrix(1, 0, 0, 1, 1.1368683772161603e-13, -1.1368683772161603e-13)"/>
  <g transform="matrix(1, 0, 0, 1, -394.7740130913867, -1129.3132202852564)">
    <g>
      <path class="st2" d="M566.1,1298.3c1.6,2.7,2.4,6.1,2.4,10c0.1,3.7-0.6,7.4-2,11.1c-0.8,1.8-1.7,3.5-2.9,5s-2.5,2.9-4,4&#10;&#9;&#9;&#9;c-1.5,1-3.1,1.8-4.8,2.4c-1.7,0.6-3.6,0.9-5.7,0.9c-4.5,0.1-8.3-0.7-11.4-2.3c-3.1-1.6-5.6-3.8-7.5-6.5c-1.1-1.5-2-3.2-2.6-5&#10;&#9;&#9;&#9;c-0.6-1.8-1-3.7-1.3-5.6c-0.4-3.9,0-7.8,1.2-11.6c0.9-3,2.4-5.8,4.3-8.4c2-2.6,4.4-4.7,7.3-6.2c-2.5-1.1-4.5-2.6-6.2-4.5&#10;&#9;&#9;&#9;c-1.7-1.9-2.9-4-3.8-6.4c-1-3-1.4-6.2-1.2-9.6c0.2-1.7,0.5-3.4,1-5c0.5-1.6,1.1-3.2,2-4.6c1.9-3.3,4.5-6.1,7.9-8.3&#10;&#9;&#9;&#9;c3.4-2.2,7.5-3.3,12.5-3.3c1.7,0,3.2,0.2,4.5,0.5c2,0.6,3.8,1.5,5.4,2.7c1.5,1.2,2.8,2.6,3.7,4.4c0.3,0.4,0.6,0.9,0.8,1.5&#10;&#9;&#9;&#9;c0.2,0.6,0.4,1.1,0.7,1.6c0.4,1.1,0.7,2.1,0.8,2.9c0.3,1.4,0.5,2.9,0.5,4.6c0,1.6-0.2,3.4-0.6,5.2c-0.6,2-1.5,3.2-2.6,3.6&#10;&#9;&#9;&#9;c-0.6,0.3-1.3,0.4-2,0.1c-0.6-0.3-1-0.7-1.3-1.2c-0.3-0.5-0.6-1.2-0.6-1.9c-0.1-0.8,0.1-1.5,0.5-2.3c0.2-0.4,0.3-0.8,0.5-1.1&#10;&#9;&#9;&#9;c0.2-0.3,0.3-0.7,0.5-1.1c0.4-0.9,0.9-1.8,1.3-2.8c0.5-1,0.6-2,0.4-3.1c-0.3-1.4-0.9-2.9-1.8-4.5c-0.8-1.3-1.7-2.4-2.9-3.4&#10;&#9;&#9;&#9;c-1.2-1-2.6-1.7-4.2-2.1c-1-0.3-2.2-0.4-3.6-0.4c-2,0-3.8,1-5.5,2.9c-1.7,1.9-3.2,4.3-4.3,7.2c-0.5,1.5-1,2.9-1.3,4.5&#10;&#9;&#9;&#9;s-0.7,3.1-0.8,4.6c-0.4,3.4-0.3,6.4,0.5,8.8c0.6,2.2,1.6,4.1,2.9,5.6c1.4,1.5,3.3,2.5,5.8,2.9c2,0.3,3.1,0.8,3.4,1.4&#10;&#9;&#9;&#9;c0.3,0.6-0.8,1.2-3.3,1.9c-2.4,0.6-4.4,1.9-6,4c-1.6,2-2.9,4.5-3.7,7.3c-1.2,3.8-1.7,7.8-1.4,11.9c0.2,2,0.5,4,0.9,5.9&#10;&#9;&#9;&#9;c0.4,1.9,1.1,3.6,1.9,5.1c0.9,2,2.2,3.5,3.7,4.7c1.5,1.2,3.3,1.9,5.2,2c3.2,0,6-0.9,8.3-2.7c1.4-0.9,2.5-2.1,3.5-3.4&#10;&#9;&#9;&#9;c0.9-1.3,1.7-2.7,2.4-4.2c1.4-3.2,2-6.4,1.8-9.7c0-3.2-0.6-5.8-1.8-8.1c-0.3-0.7-0.4-1.3-0.3-1.7c0.1-0.5,0.4-0.8,0.7-1&#10;&#9;&#9;&#9;c0.3-0.2,0.7-0.3,1.2-0.2C565.5,1297.5,565.9,1297.8,566.1,1298.3z" style="fill: rgb(140, 98, 57);"/>
      <path class="st2" d="M595.9,1286.6c-0.1,1.5-0.3,2.5-0.8,3.3c-0.4,0.7-0.9,1.3-1.4,1.7c-0.9,0.5-1.7,0.6-2.7,0.3&#10;&#9;&#9;&#9;c-0.9-0.4-1.5-1.1-1.8-1.9c-0.2-0.6-0.2-1.2-0.1-1.9c0.1-0.6,0.5-1.3,1.2-1.9c0.8-0.8,1.2-1.7,1.4-2.9c0-1.1-0.2-2.1-0.6-2.9&#10;&#9;&#9;&#9;c-0.8-1-1.7-1.8-2.8-2.3c-1.4-0.6-2.6-0.9-3.8-0.9h-1c-0.2,0-0.5,0.1-1,0.3c-0.8,0.3-1.5,1.2-2,2.4c-0.2,0.7-0.3,1.4-0.4,2.1&#10;&#9;&#9;&#9;c-0.1,0.7-0.1,1.5,0.1,2.4c0.2,1.4,0.6,2.7,1.2,4c0.9,1.9,1.9,3.6,3.3,5.3c1.3,1.7,2.8,3.3,4.3,5.1c1.8,2,3.6,4,5.4,6.2&#10;&#9;&#9;&#9;s3.3,4.8,4.6,7.7c0.9,1.9,1.5,4,1.9,6.3c0.4,2.3,0.6,4.8,0.5,7.2c-0.2,4.3-1.2,8.4-2.9,12.2c-1,2-2.3,3.7-3.8,5.2&#10;&#9;&#9;&#9;c-1.5,1.5-3.3,2.7-5.4,3.6c-2.7,1.3-5.9,1.9-9.5,1.8c-1.5,0.1-2.8-0.1-4.1-0.6c-1.3-0.5-2.4-1.1-3.3-2c-1.4-1.1-2.4-2.5-3.2-4.2&#10;&#9;&#9;&#9;c-0.7-1.7-1-3.5-0.9-5.2c0-0.9,0.1-1.9,0.4-2.8c0.3-0.9,0.7-1.9,1.3-2.8c0.4-0.9,0.9-1.5,1.3-1.9c0.9-0.9,1.8-1.8,2.9-2.6&#10;&#9;&#9;&#9;c1.1-0.8,2.4-1.6,4-2.2c0.8-0.4,1.5-0.6,2.2-0.4c0.7,0.1,1.3,0.4,1.8,0.8c0.3,0.3,0.7,0.7,1,1.3c0.2,0.7,0.2,1.3,0,1.8&#10;&#9;&#9;&#9;c-0.3,1.3-1.3,2.2-3.1,2.7c-0.6,0.2-1.2,0.3-1.7,0.3c-0.5,0-1,0.1-1.5,0.1c-0.7,0-1.3,0-1.9,0.1c-0.6,0.1-1.1,0.4-1.5,0.9&#10;&#9;&#9;&#9;c-1.2,1.6-1.8,3.3-1.8,5c-0.1,1.4,0.1,2.6,0.6,3.8c0.5,1.2,1.2,2.2,2.2,2.9c1.1,0.9,2.5,1.5,4,1.7c1.6,0.2,3.3-0.2,5.2-1.1&#10;&#9;&#9;&#9;c1.7-0.8,3.2-2.1,4.5-4s2.3-4.2,2.9-7c0.6-2.4,0.8-4.9,0.7-7.7c-0.1-2.7-0.8-5.6-2-8.6c-0.9-2.3-2.2-4.4-3.6-6.3&#10;&#9;&#9;&#9;c-1.5-1.9-3.1-3.8-4.8-5.6l-1.9-2l-0.5,1.8c-0.3,0.7-0.6,1.1-1.1,1.3c-0.5,0.2-0.9,0.3-1.3,0.1s-0.7-0.4-0.9-0.8&#10;&#9;&#9;&#9;c-0.2-0.4-0.2-1,0.1-1.7l0.9-2.7l0.3-1.2c-1.5-2-2.8-4-3.8-6.3c-1-2.2-1.5-4.8-1.4-7.7c0.2-3,1-5.5,2.5-7.4c1.5-2,3.3-3.3,5.6-4.1&#10;&#9;&#9;&#9;c1-0.4,2.2-0.7,3.6-0.9h1.7c1.6,0,3.4,0.4,5.2,1.3C594.3,1277.3,596.4,1281.1,595.9,1286.6z" style="fill: rgb(140, 98, 57);"/>
      <path class="st2" d="M595.3,1258c-1.5,0.3-2.7,0.8-3.6,1.7c-1.1,1.1-2,2.6-2.7,4.6c-0.4,0.9-0.9,1.7-1.5,2.2&#10;&#9;&#9;&#9;c-0.6,0.6-1.2,0.9-1.9,1.1c-0.6,0.1-1.3,0-2-0.3c-0.5-0.3-1-0.9-1.4-1.7c-0.4-1.2-0.1-2.7,1-4.5c1.5-2.1,3.3-3.7,5.3-4.8&#10;&#9;&#9;&#9;c2-1.1,4.1-1.7,6.4-1.9c2.3-0.2,4.6-0.1,7.1,0.3c2.5,0.4,5,1,7.5,1.7l0.9-5.2c0-1.7,0.8-2.9,2.4-3.5c0.4-0.2,0.8-0.3,1.2-0.3&#10;&#9;&#9;&#9;s0.8,0,1.2,0c0.9,0.2,1.7,0.4,2.3,0.8c0.9,0.5,1.7,1.2,2.2,2.1c0.6,0.9,0.7,1.9,0.6,3.1l-0.9,6c2,0.6,3.8,1.1,5.6,1.5&#10;&#9;&#9;&#9;c1.8,0.4,3.5,0.7,5.2,0.9c1.4,0,2.6-0.2,3.6-0.7c1-0.5,1.9-1.1,2.7-1.8c0.8-0.7,1.4-1.4,1.9-2.2c0.5-0.7,0.8-1.3,1.1-1.7&#10;&#9;&#9;&#9;c0.9-1.5,2-2.2,3.3-2c0.5,0,1,0.1,1.4,0.4c0.6,0.3,1,0.6,1.2,1c0.6,1.2,0.5,2.5-0.3,3.8c-1.7,3.1-3.9,5-6.7,5.9&#10;&#9;&#9;&#9;c-2.7,0.9-5.7,1.1-9,0.6l-1.3-0.3c-1.5-0.2-2.9-0.5-4.5-0.9c-1.5-0.4-3.1-0.9-4.7-1.3c-0.3,2.8-0.7,6-1,9.5&#10;&#9;&#9;&#9;c-0.3,3.5-0.6,7.3-0.8,11.2c-0.3,3.9-0.4,7.8-0.6,11.8c-0.1,3.9-0.1,7.7,0.1,11.3c0.2,5.3,0.6,9.7,1.4,13.2c0.8,3.5,2,5.5,3.6,5.9&#10;&#9;&#9;&#9;c0.9,0.2,1.8-0.5,2.8-1.9c1-1.4,2-3.3,3.1-5.5c1.2-2.4,2.3-4.9,3.2-7.5c0.9-2.6,1.7-4.9,2.4-6.9c0.2-0.5,0.5-0.8,0.9-1&#10;&#9;&#9;&#9;c0.4-0.1,0.8-0.1,1.2,0s0.7,0.4,0.9,0.7c0.2,0.3,0.2,0.8,0.1,1.3c-0.7,2-1.5,4.3-2.4,7c-0.9,2.7-2,5.3-3.2,7.8&#10;&#9;&#9;&#9;c-1.3,2.6-2.6,4.9-4.1,6.7c-1.5,1.8-3,2.7-4.7,2.7c-0.4,0-0.8,0-1.2,0c-0.3,0-0.7,0-1.2-0.1c-2.4-0.5-4.4-1.8-6-3.8&#10;&#9;&#9;&#9;c-1.6-2-2.9-4.5-3.8-7.6c-0.9-2.9-1.6-6.2-2-9.8c-0.4-3.6-0.7-7.4-0.8-11.5c-0.1-3.2-0.1-6.4,0-9.7c0.1-3.3,0.2-6.6,0.4-9.7&#10;&#9;&#9;&#9;c0.2-3.2,0.4-6.2,0.7-9.1c0.3-2.9,0.6-5.5,1-7.9c-2.5-0.7-4.9-1.2-7.2-1.6S597.4,1257.9,595.3,1258z" style="fill: rgb(140, 98, 57);"/>
      <path class="st2" d="M671.3,1324.7c1.3-0.8,2.6-2.1,4.1-4.1c1.6-2.2,3.1-4.8,4.5-7.7c1.4-2.9,2.6-5.9,3.6-8.9&#10;&#9;&#9;&#9;c0.3-0.8,0.6-1.3,1-1.5c0.4-0.3,0.8-0.3,1.2-0.2s0.7,0.4,1,0.9c0.3,0.5,0.3,1,0,1.7c-1,3.1-2.3,6.2-3.8,9.4&#10;&#9;&#9;&#9;c-1.5,3.2-3.1,5.9-4.8,8.3c-1.5,2.1-3,3.8-4.7,4.9c-1.7,1.1-3.5,1.5-5.2,1h-0.3c-0.1-0.1-0.2-0.1-0.3-0.1&#10;&#9;&#9;&#9;c-2.7-0.9-4.8-2.9-6.3-5.9c-1.5-3-2.4-6.7-2.8-11.1c-0.7,2-1.4,4.1-2.2,6.1c-0.8,2-1.7,3.9-2.7,5.5c-1,1.6-2,3-3.2,4&#10;&#9;&#9;&#9;c-1.2,1.1-2.4,1.6-3.6,1.7c-3.1,0.3-5.6-0.5-7.6-2.4c-2-1.8-3.5-4.3-4.4-7.4c-1.3-3.8-1.8-8-1.5-12.7c0.2-2.3,0.5-4.6,0.9-6.9&#10;&#9;&#9;&#9;c0.4-2.3,1-4.5,1.8-6.7c0.9-2.2,1.9-4.3,3.1-6.2c1.2-1.9,2.6-3.5,4.1-4.9c1.5-1.3,3.3-2.3,5.2-3c1.9-0.7,4-0.9,6.2-0.6&#10;&#9;&#9;&#9;c0.6,0.1,1.2,0.2,1.7,0.3s1,0.4,1.5,0.8c1.3,0.9,2.3,2.5,3.2,4.7c0,0.2,0,0.3,0.1,0.4l1-4.1l0.4-1.4c0.2-0.9,0.6-1.6,1.2-2&#10;&#9;&#9;&#9;c0.6-0.4,1.4-0.7,2.2-0.8c0.4,0,0.8,0,1.1,0c0.3,0,0.7,0.1,1.1,0.3c0.8,0.3,1.4,0.7,1.9,1c0.9,0.6,1.6,1.4,2.1,2.3&#10;&#9;&#9;&#9;c0.5,0.9,0.5,2,0.2,3.2c-0.5,1.6-1,3.5-1.5,5.6c-0.5,2.1-0.9,4.3-1.2,6.5c-0.3,2.3-0.6,4.6-0.8,7c-0.3,2.4-0.4,4.7-0.5,7&#10;&#9;&#9;&#9;c-0.3,4.9-0.3,8.9,0,12.2c0.2,1.3,0.4,2.4,0.8,3.3C669.4,1325.3,670.2,1325.4,671.3,1324.7z M653.4,1282.1&#10;&#9;&#9;&#9;c-1.4,0.7-2.6,1.9-3.7,3.8c-1.1,1.8-2.1,4-3.1,6.5c-1.7,4.9-2.8,10.1-3.2,15.5c-0.3,2.6-0.4,5.1-0.3,7.5c0,2.3,0.3,4.4,0.7,6.1&#10;&#9;&#9;&#9;c0.7,2.7,1.6,4.1,2.7,4c1-0.1,2-0.7,3-1.9c1-1.2,1.9-2.6,2.8-4.4c0.9-1.8,1.6-3.8,2.3-5.9c0.7-2.1,1.3-4.2,1.9-6.3&#10;&#9;&#9;&#9;c0.6-2.1,1.1-4,1.5-5.8c0.4-1.7,0.7-3.1,0.8-4c0-0.4,0-0.8,0.1-1.1c0-0.3,0.1-0.7,0.2-1.1c-0.1-1.9-0.2-3.7-0.4-5.4&#10;&#9;&#9;&#9;c-0.2-1.7-0.5-3.2-1-4.5c-0.2-0.4-0.4-0.9-0.6-1.3c-0.2-0.4-0.4-0.8-0.6-1C655.6,1281.6,654.6,1281.4,653.4,1282.1z M657.5,1267.6&#10;&#9;&#9;&#9;c-0.6,0.6-1.2,0.9-1.9,0.9c-0.5,0-0.9-0.1-1.3-0.4c-0.4-0.2-0.8-0.6-1-1.3c-0.2-0.7-0.1-1.4,0.3-2.2c0.3-0.9,0.8-1.9,1.4-3.1&#10;&#9;&#9;&#9;c0.6-1.2,1.3-2.6,2.2-4c0.6-1.1,1.3-2.2,2-3.3c0.7-1.1,1.5-2.2,2.2-3.3c0.8-1.1,1.8-1.5,3.2-1.3c0.6,0.1,1.2,0.5,1.8,1.3&#10;&#9;&#9;&#9;c0.2,0.2,0.3,0.4,0.5,0.6c0.2,0.3,0.3,0.6,0.5,0.9c0.4,1,0.7,2.1,0.7,3.2c0,1.1-0.3,2-1,2.7c-0.5,0.5-1.2,1.2-2.1,2&#10;&#9;&#9;&#9;c-0.9,0.9-1.8,1.8-2.8,2.8L657.5,1267.6z" style="fill: rgb(140, 98, 57);"/>
      <path class="st2" d="M683.4,1304c0.2-0.5,0.4-1.1,0.6-1.9c0.2-0.7,0.4-1.4,0.6-2.1c0.2-0.5,0.3-1,0.4-1.5s0.3-1.1,0.4-1.8&#10;&#9;&#9;&#9;c-0.9-1.4-1.7-3-2.2-4.8c-0.6-1.7-0.8-3.6-0.7-5.7c0.1-3,0.9-5.5,2.4-7.4c1.5-2,3.4-3.3,5.6-4.1c1.9-0.7,3.6-1,5.2-0.9&#10;&#9;&#9;&#9;c1.7,0,3.4,0.4,5.1,1.3c2.3,1.1,4,2.6,5,4.6c1,2,1.4,4.3,1.3,6.9c-0.1,1.4-0.3,2.4-0.8,3.2c-0.4,0.8-0.9,1.3-1.4,1.7&#10;&#9;&#9;&#9;c-0.9,0.6-1.8,0.7-2.8,0.3c-0.7-0.3-1.2-0.9-1.7-1.8c-0.2-0.6-0.2-1.2-0.1-1.9c0.1-0.6,0.5-1.3,1.2-1.9c0.3-0.4,0.6-0.9,0.9-1.3&#10;&#9;&#9;&#9;c0.3-0.5,0.4-1,0.5-1.6c0-1.1-0.2-2.1-0.6-2.9c-0.7-0.9-1.6-1.7-2.8-2.3c-1.4-0.6-2.6-0.9-3.8-0.9c-0.9,0-1.7,0.2-2.4,0.6&#10;&#9;&#9;&#9;c-0.6,0.4-1.1,1-1.5,1.7c-0.3,0.7-0.6,1.5-0.6,2.4c-0.1,0.9-0.1,1.7,0,2.4c0.1,1.3,0.4,2.6,1,4c0.7,1.6,1.8,3.2,3.4,4.8&#10;&#9;&#9;&#9;c1.6,1.6,3.3,3.2,5.1,4.9c2.4,2.2,4.6,4.5,6.8,6.8c2.1,2.3,3.7,4.9,4.6,7.7c1.8-0.9,3.4-1.9,4.8-3.3c1.4-1.3,2.5-3.1,3.3-5.3&#10;&#9;&#9;&#9;c0.3-0.5,0.6-0.9,1-1c0.4-0.2,0.8-0.2,1.2-0.1s0.7,0.4,0.9,0.8c0.2,0.4,0.2,0.8,0.1,1.3c-1,3-2.5,5.3-4.3,7&#10;&#9;&#9;&#9;c-1.8,1.7-3.9,3-6.3,3.9c0.2,2-0.1,4.1-0.7,6.3c-0.6,2.2-1.7,4.3-3.1,6.3c-1.2,1.6-2.7,3.1-4.4,4.5c-1.7,1.4-3.8,2.5-6.1,3.5&#10;&#9;&#9;&#9;c-2.2,1-4.5,1.5-6.9,1.5c-1.8-0.1-3.4-0.4-4.8-1.1s-2.6-1.5-3.5-2.5c-0.9-1.1-1.6-2.5-2-4.1c-0.3-1.4-0.4-2.9-0.1-4.5&#10;&#9;&#9;&#9;c0.4-1.8,1.4-3.5,2.8-5s3.5-2.7,6.1-3.5c1.5-0.4,3.1-0.8,4.7-1.1c1.6-0.3,3.2-0.5,4.9-0.7l1.8-0.3c-0.8-1.5-1.8-2.9-3.1-4.3&#10;&#9;&#9;&#9;c-1.3-1.4-2.8-2.8-4.3-4.3c-1-1-2-2-3-3.1c-1-1-1.9-2.1-2.9-3.2l-0.1,0.5l-1.3,4.1c-0.2,0.5-0.5,0.9-0.9,1.1&#10;&#9;&#9;&#9;c-0.4,0.2-0.8,0.3-1.2,0.2c-0.4-0.1-0.7-0.3-1-0.7S683.3,1304.7,683.4,1304z M702.4,1318.4l-2.3,0.4c-1.6,0.2-3.2,0.4-4.7,0.6&#10;&#9;&#9;&#9;s-3,0.6-4.5,1c-2,0.6-3.5,1.4-4.5,2.5c-1,1.1-1.7,2.2-2,3.5c-0.3,1-0.3,2,0,2.9c0.3,0.9,0.7,1.8,1.4,2.7c0.7,0.7,1.5,1.3,2.4,1.7&#10;&#9;&#9;&#9;c0.9,0.5,2.1,0.7,3.5,0.7c2,0,3.8-0.4,5.4-1.3c1.8-0.9,3.2-2.3,4.1-4c0.8-1.4,1.3-2.9,1.5-4.7s0.2-3.8-0.3-6V1318.4z" style="fill: rgb(140, 98, 57);"/>
      <path class="st2" d="M774.5,1327.4c0.2,1,0.2,2,0.1,2.9c-0.1,0.9-0.8,1.6-2.2,2c-0.7,0.2-1.4,0.2-2.2,0c-0.9-0.2-1.9-0.5-2.9-1&#10;&#9;&#9;&#9;c-1-0.5-1.6-0.9-2-1.3c-0.7-0.8-1.1-1.6-1.3-2.6c-0.2-1-0.4-2.2-0.7-3.5l-0.1-0.8c-0.3-1.4-0.4-3.4-0.6-6.1&#10;&#9;&#9;&#9;c-0.1-2.7-0.2-5.9-0.3-9.4c0-3.5-0.1-7.4-0.1-11.6c0-4.2,0.1-8.4,0.3-12.7c0.3-6.8,0.6-13.4,1.1-19.7c0.5-6.3,1-11.5,1.7-15.6&#10;&#9;&#9;&#9;c-3.4,0.6-6.4,1.6-9.1,2.9c-2.6,1.3-4.9,2.9-6.8,4.7c-2.6,2.8-4.4,5.8-5.4,9.1c-0.6,2.3-0.6,4.6-0.1,6.9c0.4,1.6,1.2,2.7,2.2,3.3&#10;&#9;&#9;&#9;c1.1,0.6,2.1,1.1,3.1,1.5c1.2,0.4,2.1,0.9,2.7,1.3c0.7,0.4,1.2,0.9,1.5,1.5c0.3,0.6,0.6,1.2,0.6,1.7c0,0.7-0.1,1.2-0.4,1.5&#10;&#9;&#9;&#9;c-0.3,0.4-0.7,0.8-1.3,1.2c-1,0.4-2.3,0.2-3.7-0.6c-1.7-1-3.2-2.2-4.4-3.6c-1.2-1.4-2.2-2.8-2.9-4.3c-1.5-3.6-1.7-7.3-0.6-11.1&#10;&#9;&#9;&#9;c0.9-3.8,2.9-7.3,6.3-10.6c2.1-2,4.7-3.8,7.7-5.4c3-1.5,6.5-2.6,10.4-3.2l0.5-0.1c0.9-0.2,1.7-0.3,2.6-0.4c0.9-0.1,1.8,0,2.6,0.1&#10;&#9;&#9;&#9;c1.3,0.2,2.3,0.7,3.1,1.5c0.8,0.8,1,2.1,0.6,3.9c-0.3,2-0.6,4.5-0.8,7.7c-0.2,3.2-0.4,6.8-0.6,10.9c-0.2,4.1-0.3,8.3-0.3,12.9&#10;&#9;&#9;&#9;c0,4.5-0.1,9-0.1,13.6c0,3.5,0,6.9,0.1,10.1c0,3.2,0.1,6.3,0.3,9.1c0.1,2.9,0.3,5.4,0.4,7.7&#10;&#9;&#9;&#9;C774.1,1323.9,774.3,1325.8,774.5,1327.4z" style="fill: rgb(140, 98, 57);"/>
      <path class="st2" d="M822.4,1324.7c0.9-0.7,1.9-1.8,2.8-3.5c0.9-1.6,1.8-3.4,2.6-5.4c0.8-2,1.5-3.9,2.1-5.8s1.2-3.6,1.6-4.9&#10;&#9;&#9;&#9;l0.4-1.2c0.1-0.5,0.3-0.9,0.8-1c0.4-0.2,0.8-0.2,1.2-0.1s0.7,0.4,1,0.8s0.3,0.9,0.1,1.5c0,0.2-0.1,0.5-0.3,1&#10;&#9;&#9;&#9;c-0.4,1.5-1,3.2-1.7,5.2c-0.7,2-1.5,4-2.4,6.1s-1.9,4-2.9,5.8c-1.1,1.8-2.2,3.2-3.5,4.1c-1.5,1.2-2.9,1.7-4.3,1.7&#10;&#9;&#9;&#9;c-1.5-0.1-2.9-0.4-4.3-0.9c-2.5-0.9-4.2-2.4-5.2-4.7c-1-2.3-1.6-4.8-1.7-7.5c-0.2-1.5-0.2-3.1-0.2-4.6c0-1.5,0.1-2.9,0.3-4.2&#10;&#9;&#9;&#9;c0-0.9,0-1.5,0.1-1.8c0.1-1.4,0.1-2.7,0.2-3.9c0-1.2,0.1-2.5,0.3-3.6c0.3-2.8,0.4-5.4,0.5-7.8c0.1-2.4-0.1-4.2-0.5-5.5&#10;&#9;&#9;&#9;c-0.4-1-1.3-1.3-2.7-0.9c-1.9,1.6-3.6,4.1-5.2,7.3c-1.2,2.3-2.2,4.8-3.1,7.4c-0.9,2.6-1.7,5.1-2.4,7.6c-0.7,2.5-1.3,4.8-1.7,6.9&#10;&#9;&#9;&#9;c-0.5,2.1-0.8,3.8-1.1,5.1c0.1,1.7,0.1,3.3,0.2,4.9c0,1.5,0.1,3,0.3,4.5h-0.1l-0.4,0.8c-0.3,0.4-0.5,0.7-0.8,0.8&#10;&#9;&#9;&#9;c-0.3,0.1-0.5,0.2-0.7,0.3c-3,0.6-5.1,0.3-6.3-1c-1.2-1.2-2-2.9-2.4-5.1c-0.3-1.4-0.4-3.2-0.6-5.3c-0.1-2.1-0.2-4.2-0.2-6.3&#10;&#9;&#9;&#9;c0-2.1,0-4.1,0.1-6c0.1-1.9,0.2-3.4,0.3-4.5c0.3-2.9,0.6-5.9,1-9c0.4-3.1,1-6.5,1.8-10c0-1.7,0.8-2.8,2.4-3.2&#10;&#9;&#9;&#9;c0.9-0.3,1.7-0.3,2.7-0.3c1,0.2,1.9,0.5,2.6,0.9c0.9,0.5,1.7,1.2,2.3,2.1c0.6,0.9,0.8,2,0.5,3.3c-1.1,5.7-1.9,11.5-2.3,17.4&#10;&#9;&#9;&#9;c0.7-2.2,1.4-4.4,2.3-6.5c0.9-2.1,1.7-4.2,2.7-6.1c1.5-3.1,3.3-5.6,5.4-7.7c2-2,4.3-3.1,6.8-3.1c1.8,0,3.3,0.4,4.5,1.1&#10;&#9;&#9;&#9;c1.2,0.7,2.2,1.8,2.9,3.1c0.7,1.4,1.2,2.9,1.5,4.7c0.3,1.8,0.5,3.8,0.5,5.9c0.1,2.2,0,4.5-0.2,6.8c-0.2,2.3-0.4,4.8-0.6,7.2&#10;&#9;&#9;&#9;c-0.2,2-0.3,3.8-0.5,5.6c-0.2,1.8-0.3,3.5-0.3,5c0,1.4,0,2.5,0.1,3.5c0.1,1,0.3,1.8,0.5,2.5c0.4,0.8,0.9,1.2,1.5,1.2&#10;&#9;&#9;&#9;C821.2,1325.3,821.8,1325.1,822.4,1324.7z" style="fill: rgb(140, 98, 57);"/>
      <path class="st2" d="M833,1282.7c0.2-1.2,0.6-2.1,1.4-2.7c0.8-0.6,1.6-1,2.6-1.2c0.3-0.1,0.7-0.1,1.1-0.1c0.4,0,0.7,0.1,1.1,0.2&#10;&#9;&#9;&#9;c0.9,0.2,1.6,0.4,2.2,0.8c0.9,0.5,1.7,1.2,2.4,2.2c0.6,0.9,0.8,2,0.6,3.1c-0.3,1.9-0.6,3.8-0.8,5.8c-0.2,2-0.4,4.1-0.4,6.2&#10;&#9;&#9;&#9;c-0.3,3.6-0.3,7.1-0.1,10.5c0.2,3.4,0.6,6.5,1.2,9.2c0.4,1.8,0.9,3.4,1.4,4.7c0.5,1.4,1.1,2.4,1.8,3.1c1,1.1,2.1,1.2,3.2,0.4&#10;&#9;&#9;&#9;c0.9-0.7,1.8-1.6,2.6-2.9c0.8-1.2,1.6-2.7,2.2-4.3c1.1-2.5,2-5,2.6-7.5c-1.6-1.9-2.9-4.3-3.8-7.2c-0.9-2.9-1.3-6.4-1-10.4&#10;&#9;&#9;&#9;c0.2-2.1,0.5-3.9,1.1-5.2c0.6-1.3,1.2-2.3,2-2.9c1-0.7,2-1,2.8-0.9c1,0.2,1.9,0.7,2.7,1.5c0.8,0.9,1.4,2.3,1.8,4.2&#10;&#9;&#9;&#9;c0.4,1.9,0.6,4.2,0.4,7c-0.2,2-0.4,4-0.8,6.2c-0.3,2.2-0.8,4.4-1.3,6.6c0.4,0.4,0.9,0.7,1.4,1c0.5,0.2,1,0.4,1.5,0.6&#10;&#9;&#9;&#9;c1.3,0.3,2.5,0.2,3.7-0.3c1-0.4,2-1.2,2.9-2.2c0.9-1.1,1.7-2.5,2.4-4.3c0.2-0.6,0.5-1,0.9-1.2c0.4-0.2,0.8-0.2,1.2-0.1&#10;&#9;&#9;&#9;s0.7,0.4,0.9,0.8c0.2,0.4,0.2,0.9,0.1,1.4c-0.8,2.3-1.8,4.2-3.1,5.6s-2.7,2.4-4.2,3c-2,0.8-3.9,0.9-5.8,0.4&#10;&#9;&#9;&#9;c-0.5-0.2-1-0.4-1.5-0.6c-0.5-0.2-1-0.4-1.5-0.7c-0.7,2.3-1.5,4.5-2.3,6.5c-0.9,2-1.8,3.7-2.9,5.1c-1.1,1.5-2.2,2.6-3.4,3.5&#10;&#9;&#9;&#9;c-0.7,0.5-1.3,0.9-1.9,1.1c-0.6,0.2-1.2,0.4-1.9,0.6h-1.7c-0.2,0-0.4,0-0.6-0.1c-0.3,0-0.5-0.1-0.6-0.1c-3.8-0.6-6.8-3.1-9.2-7.5&#10;&#9;&#9;&#9;c-2-3.9-3.4-9-4.1-15.2c-0.4-3.6-0.6-7.4-0.4-11.3C831.8,1291.2,832.2,1287.1,833,1282.7z M859,1306c0.3-1.7,0.6-3.4,0.8-5.1&#10;&#9;&#9;&#9;c0.2-1.7,0.4-3.3,0.6-4.8c0.2-2.4,0.1-4.3-0.2-5.7c-0.3-1.4-0.7-2.5-1.2-3.1c-0.3-0.3-0.4-0.4-0.5-0.4c-0.1,0-0.2,0.1-0.4,0.3&#10;&#9;&#9;&#9;c-0.4,0.3-0.8,1-1.2,1.9c-0.3,0.9-0.6,2.1-0.6,3.6c-0.2,2.9,0,5.4,0.5,7.6C857.3,1302.5,858,1304.4,859,1306z" style="fill: rgb(140, 98, 57);"/>
      <path class="st2" d="M886.7,1324.8c0.8-0.7,1.6-1.7,2.4-3.2c0.9-1.4,1.7-3,2.4-4.7c1.1-2.5,2.1-4.9,2.9-7.3&#10;&#9;&#9;&#9;c0.9-2.4,1.5-4.3,1.9-5.6c0.2-0.5,0.5-0.9,0.9-1c0.4-0.2,0.9-0.2,1.3-0.1c0.4,0.1,0.7,0.4,1,0.8c0.2,0.4,0.2,0.9,0.1,1.5&#10;&#9;&#9;&#9;c-0.4,1.5-1.1,3.4-2,5.8s-1.9,4.9-3,7.4c-1.1,2.3-2.3,4.4-3.5,6.3c-1.2,1.9-2.6,3.2-4,4c-0.7,0.3-1.4,0.5-2,0.5&#10;&#9;&#9;&#9;c-0.5,0-0.9,0-1.2-0.1c-3.4-0.5-6-2.9-7.7-7.2c-1.7-4.1-2.6-9.7-2.6-16.8c0-2.5,0.1-5.1,0.3-7.9c0.2-2.8,0.5-5.8,1-9.1&#10;&#9;&#9;&#9;c0-0.9,0.3-1.7,0.8-2.3c0.5-0.6,1.2-1,1.9-1.3c0.4-0.1,0.9-0.1,1.3-0.2c0.4,0,0.9,0,1.3,0.1c0.9,0.2,1.8,0.4,2.6,0.8&#10;&#9;&#9;&#9;c0.9,0.4,1.7,1,2.3,1.9c0.6,0.8,0.8,1.7,0.6,2.6c-0.3,1.5-0.5,2.9-0.7,4.5c-0.2,1.5-0.4,3.1-0.6,4.7c-0.4,3.4-0.6,6.7-0.6,10&#10;&#9;&#9;&#9;c0,3.2,0.1,6.2,0.4,8.8c0.3,3.3,0.9,5.7,1.7,7.2C886,1325.2,886.3,1325.3,886.7,1324.8z M881,1269c0.5,0.3,0.9,0.6,1.3,0.9&#10;&#9;&#9;&#9;l0.9-0.6c0.6-0.3,1.2-0.5,1.7-0.6c0.7-0.2,1.3-0.1,1.9,0.1c0.9,0.3,1.5,0.8,2,1.7c0.7,1.2,0.5,2.4-0.4,3.7c-1,1.3-2.1,2.6-3.4,4&#10;&#9;&#9;&#9;l-2.2,2.3l-1.3,1.5l-1.2-1.7c-0.2-0.2-0.4-0.4-0.6-0.7c-0.2-0.3-0.4-0.6-0.7-1c-1-1.4-2-3-3-4.5c-1-1.6-1.2-2.9-0.6-4&#10;&#9;&#9;&#9;c0.3-0.7,0.9-1.2,1.7-1.4c0.6-0.3,1.3-0.3,2-0.3C879.7,1268.4,880.3,1268.6,881,1269z" style="fill: rgb(140, 98, 57);"/>
      <path class="st2" d="M884.3,1258c-1.5,0.3-2.7,0.8-3.6,1.7c-1.1,1.1-2,2.6-2.7,4.6c-0.4,0.9-0.9,1.7-1.5,2.2&#10;&#9;&#9;&#9;c-0.6,0.6-1.2,0.9-1.9,1.1c-0.6,0.1-1.3,0-2-0.3c-0.5-0.3-1-0.9-1.4-1.7c-0.4-1.2-0.1-2.7,1-4.5c1.5-2.1,3.3-3.7,5.3-4.8&#10;&#9;&#9;&#9;c2-1.1,4.1-1.7,6.4-1.9c2.3-0.2,4.6-0.1,7.1,0.3c2.5,0.4,5,1,7.5,1.7l0.9-5.2c0-1.7,0.8-2.9,2.4-3.5c0.4-0.2,0.8-0.3,1.2-0.3&#10;&#9;&#9;&#9;s0.8,0,1.2,0c0.9,0.2,1.7,0.4,2.3,0.8c0.9,0.5,1.7,1.2,2.2,2.1c0.6,0.9,0.7,1.9,0.6,3.1l-0.9,6c2,0.6,3.8,1.1,5.6,1.5&#10;&#9;&#9;&#9;c1.8,0.4,3.5,0.7,5.2,0.9c1.4,0,2.6-0.2,3.6-0.7c1-0.5,1.9-1.1,2.7-1.8c0.8-0.7,1.4-1.4,1.9-2.2c0.5-0.7,0.8-1.3,1.1-1.7&#10;&#9;&#9;&#9;c0.9-1.5,2-2.2,3.3-2c0.5,0,1,0.1,1.4,0.4c0.6,0.3,1,0.6,1.2,1c0.6,1.2,0.5,2.5-0.3,3.8c-1.7,3.1-3.9,5-6.7,5.9&#10;&#9;&#9;&#9;c-2.7,0.9-5.7,1.1-9,0.6l-1.3-0.3c-1.5-0.2-2.9-0.5-4.5-0.9c-1.5-0.4-3.1-0.9-4.7-1.3c-0.3,2.8-0.7,6-1,9.5&#10;&#9;&#9;&#9;c-0.3,3.5-0.6,7.3-0.8,11.2c-0.3,3.9-0.4,7.8-0.6,11.8c-0.1,3.9-0.1,7.7,0.1,11.3c0.2,5.3,0.6,9.7,1.4,13.2c0.8,3.5,2,5.5,3.6,5.9&#10;&#9;&#9;&#9;c0.9,0.2,1.8-0.5,2.8-1.9c1-1.4,2-3.3,3.1-5.5c1.2-2.4,2.3-4.9,3.2-7.5c0.9-2.6,1.7-4.9,2.4-6.9c0.2-0.5,0.5-0.8,0.9-1&#10;&#9;&#9;&#9;c0.4-0.1,0.8-0.1,1.2,0s0.7,0.4,0.9,0.7c0.2,0.3,0.2,0.8,0.1,1.3c-0.7,2-1.5,4.3-2.4,7c-0.9,2.7-2,5.3-3.2,7.8&#10;&#9;&#9;&#9;c-1.3,2.6-2.6,4.9-4.1,6.7c-1.5,1.8-3,2.7-4.7,2.7c-0.4,0-0.8,0-1.2,0c-0.3,0-0.7,0-1.2-0.1c-2.4-0.5-4.4-1.8-6-3.8&#10;&#9;&#9;&#9;c-1.6-2-2.9-4.5-3.8-7.6c-0.9-2.9-1.6-6.2-2-9.8c-0.4-3.6-0.7-7.4-0.8-11.5c-0.1-3.2-0.1-6.4,0-9.7c0.1-3.3,0.2-6.6,0.4-9.7&#10;&#9;&#9;&#9;c0.2-3.2,0.4-6.2,0.7-9.1c0.3-2.9,0.6-5.5,1-7.9c-2.5-0.7-4.9-1.2-7.2-1.6S886.4,1257.9,884.3,1258z" style="fill: rgb(140, 98, 57);"/>
      <path class="st2" d="M960.3,1324.7c1.3-0.8,2.6-2.1,4.1-4.1c1.6-2.2,3.1-4.8,4.5-7.7c1.4-2.9,2.6-5.9,3.6-8.9&#10;&#9;&#9;&#9;c0.3-0.8,0.6-1.3,1-1.5c0.4-0.3,0.8-0.3,1.2-0.2s0.7,0.4,1,0.9c0.3,0.5,0.3,1,0,1.7c-1,3.1-2.3,6.2-3.8,9.4&#10;&#9;&#9;&#9;c-1.5,3.2-3.1,5.9-4.8,8.3c-1.5,2.1-3,3.8-4.7,4.9c-1.7,1.1-3.5,1.5-5.2,1h-0.3c-0.1-0.1-0.2-0.1-0.3-0.1&#10;&#9;&#9;&#9;c-2.7-0.9-4.8-2.9-6.3-5.9c-1.5-3-2.4-6.7-2.8-11.1c-0.7,2-1.4,4.1-2.2,6.1c-0.8,2-1.7,3.9-2.7,5.5c-1,1.6-2,3-3.2,4&#10;&#9;&#9;&#9;c-1.2,1.1-2.4,1.6-3.6,1.7c-3.1,0.3-5.6-0.5-7.6-2.4c-2-1.8-3.5-4.3-4.4-7.4c-1.3-3.8-1.8-8-1.5-12.7c0.2-2.3,0.5-4.6,0.9-6.9&#10;&#9;&#9;&#9;c0.4-2.3,1-4.5,1.8-6.7c0.9-2.2,1.9-4.3,3.1-6.2c1.2-1.9,2.6-3.5,4.1-4.9c1.5-1.3,3.3-2.3,5.2-3c1.9-0.7,4-0.9,6.2-0.6&#10;&#9;&#9;&#9;c0.6,0.1,1.2,0.2,1.7,0.3s1,0.4,1.5,0.8c1.3,0.9,2.3,2.5,3.2,4.7c0,0.2,0,0.3,0.1,0.4l1-4.1l0.4-1.4c0.2-0.9,0.6-1.6,1.2-2&#10;&#9;&#9;&#9;c0.6-0.4,1.4-0.7,2.2-0.8c0.4,0,0.8,0,1.1,0c0.3,0,0.7,0.1,1.1,0.3c0.8,0.3,1.4,0.7,1.9,1c0.9,0.6,1.6,1.4,2.1,2.3&#10;&#9;&#9;&#9;c0.5,0.9,0.5,2,0.2,3.2c-0.5,1.6-1,3.5-1.5,5.6c-0.5,2.1-0.9,4.3-1.2,6.5c-0.3,2.3-0.6,4.6-0.8,7c-0.3,2.4-0.4,4.7-0.5,7&#10;&#9;&#9;&#9;c-0.3,4.9-0.3,8.9,0,12.2c0.2,1.3,0.4,2.4,0.8,3.3C958.4,1325.3,959.2,1325.4,960.3,1324.7z M942.4,1282.1&#10;&#9;&#9;&#9;c-1.4,0.7-2.6,1.9-3.7,3.8c-1.1,1.8-2.1,4-3.1,6.5c-1.7,4.9-2.8,10.1-3.2,15.5c-0.3,2.6-0.4,5.1-0.3,7.5c0,2.3,0.3,4.4,0.7,6.1&#10;&#9;&#9;&#9;c0.7,2.7,1.6,4.1,2.7,4c1-0.1,2-0.7,3-1.9c1-1.2,1.9-2.6,2.8-4.4c0.9-1.8,1.6-3.8,2.3-5.9c0.7-2.1,1.3-4.2,1.9-6.3&#10;&#9;&#9;&#9;c0.6-2.1,1.1-4,1.5-5.8c0.4-1.7,0.7-3.1,0.8-4c0-0.4,0-0.8,0.1-1.1c0-0.3,0.1-0.7,0.2-1.1c-0.1-1.9-0.2-3.7-0.4-5.4&#10;&#9;&#9;&#9;c-0.2-1.7-0.5-3.2-1-4.5c-0.2-0.4-0.4-0.9-0.6-1.3c-0.2-0.4-0.4-0.8-0.6-1C944.6,1281.6,943.6,1281.4,942.4,1282.1z" style="fill: rgb(140, 98, 57);"/>
      <path class="st2" d="M1007.8,1297.3c-0.2,2.7-0.3,5.4-0.4,7.9c-0.1,2.6,0,5,0.1,7.3c0.2,3.8,0.6,7,1.2,9.4c0.6,2.4,1.4,3.8,2.4,4&#10;&#9;&#9;&#9;c1.4,0.3,2.9-0.4,4.2-1.9c1.4-1.5,2.6-3.3,3.8-5.6c1.4-2.5,2.5-5,3.5-7.7c1-2.6,1.8-4.9,2.5-6.9c0.2-0.6,0.5-1,0.9-1.2&#10;&#9;&#9;&#9;c0.4-0.2,0.8-0.2,1.2-0.1s0.7,0.4,0.9,0.8c0.2,0.4,0.2,0.9,0.1,1.5c-0.7,2-1.5,4.5-2.6,7.2c-1,2.8-2.2,5.4-3.6,7.9&#10;&#9;&#9;&#9;c-1.5,2.7-3.1,5-4.9,6.8c-1.8,1.8-3.9,2.6-6.1,2.4c-3.8-0.3-6.8-2.2-8.8-5.7c-2-3.5-3.3-8-3.9-13.4c0-0.2,0-0.3-0.1-0.3&#10;&#9;&#9;&#9;c0,0-0.1-0.1-0.1-0.3c-0.7,2.2-1.4,4.5-2.2,6.7c-0.8,2.3-1.7,4.3-2.8,6.2c-1.1,1.9-2.2,3.4-3.5,4.7c-1.2,1.2-2.5,1.9-3.9,2&#10;&#9;&#9;&#9;c-3.1,0.2-5.6-0.7-7.6-2.5c-2-1.8-3.5-4.3-4.4-7.4c-0.7-1.8-1.2-3.8-1.4-5.9s-0.3-4.4-0.1-6.7s0.5-4.6,0.9-6.9&#10;&#9;&#9;&#9;c0.4-2.3,1-4.5,1.8-6.5c0.9-2.2,1.9-4.3,3.1-6.2c1.2-1.9,2.6-3.6,4.1-4.9c1.5-1.4,3.3-2.4,5.2-3.1c1.9-0.7,4-0.9,6.2-0.6&#10;&#9;&#9;&#9;c2.7,0.3,4.7,2,5.9,5.1c0.7-4.3,1.6-8.4,2.8-12.3s2.5-7.6,3.9-10.9c2-4.9,4.4-8.7,7.1-11.4c2.7-2.7,5.5-3.7,8.5-2.9&#10;&#9;&#9;&#9;c0.3,0.2,0.7,0.3,1,0.4c0.3,0.1,0.6,0.3,1,0.4c1.4,0.9,2.4,2.4,2.8,4.4c0.4,2,0.4,4.3-0.1,6.8c-0.4,2.3-1.1,4.8-2,7.5&#10;&#9;&#9;&#9;c-0.9,2.7-2,5.4-3.3,8.3c-1.1,2.6-2.3,5.1-3.6,7.5s-2.5,4.7-3.7,6.8c-1.2,2.1-2.3,3.9-3.4,5.6&#10;&#9;&#9;&#9;C1009.3,1295.2,1008.4,1296.5,1007.8,1297.3z M992.9,1282.5c-1.5,0.5-2.8,1.7-4,3.6c-1.2,1.9-2.3,4.1-3.2,6.8&#10;&#9;&#9;&#9;c-0.9,2.4-1.6,4.9-2.1,7.5c-0.6,2.6-1,5.3-1.2,7.9c-0.2,2.6-0.2,5.1-0.2,7.4c0,2.3,0.3,4.3,0.7,6c0.7,2.7,1.6,4.1,2.7,4&#10;&#9;&#9;&#9;c1.1-0.1,2.2-0.7,3.1-2c1-1.2,1.9-2.8,2.8-4.6c0.9-1.8,1.7-3.9,2.4-6.1c0.8-2.3,1.4-4.5,2-6.6c0.6-2.1,1-4,1.3-5.8&#10;&#9;&#9;&#9;c0.3-1.7,0.6-2.9,0.8-3.7c0-0.3,0-0.5,0-0.8c0-0.3,0-0.6,0.1-0.8c-0.1-1.9-0.2-3.7-0.4-5.4c-0.2-1.7-0.5-3.2-1-4.5&#10;&#9;&#9;&#9;c-0.3-0.9-0.6-1.5-1-2c-0.3-0.4-0.7-0.7-1.2-1C994.1,1282.2,993.6,1282.2,992.9,1282.5z M1021.1,1249.2c-1.2,0.1-2.4,1.2-3.5,3.3&#10;&#9;&#9;&#9;c-1.2,2.1-2.3,5-3.4,8.6c-1.2,3.5-2.2,7.4-3.1,11.8c-0.9,4.4-1.6,8.9-2.3,13.5l-0.4,4.2c1.4-2.3,3-5.1,4.8-8.3&#10;&#9;&#9;&#9;c1.7-3.2,3.4-6.5,4.9-10c1.2-2.6,2.2-5.2,3.1-7.8c0.9-2.6,1.5-4.9,1.9-7.2c0.3-2,0.4-3.6,0.3-5c-0.2-1.4-0.7-2.3-1.5-2.8&#10;&#9;&#9;&#9;L1021.1,1249.2z" style="fill: rgb(140, 98, 57);"/>
      <path class="st2" d="M1043.1,1281.5c0.1,0.3,0.2,0.5,0.3,0.8c0.1,0.3,0.1,0.5,0.1,0.6c2.2-0.4,4.1-0.1,5.7,1&#10;&#9;&#9;&#9;c1.6,1.1,2.9,2.6,4,4.6c1.7,3.3,2.8,7.3,3.2,11.9c0.2,2.2,0.2,4.5,0,6.8c-0.2,2.3-0.5,4.6-0.9,6.8c-0.8,3.6-2.1,6.8-4,9.6&#10;&#9;&#9;&#9;c3.7,4.2,8.3,7.3,13.8,9.5s12.1,3.2,19.8,3.2c5.5,0,11-0.9,16.7-2.6c5.7-1.8,11.2-4.6,16.7-8.6c-3.2-2.6-6.2-5.5-9-8.6&#10;&#9;&#9;&#9;c-2.9-3.1-5.5-6.2-8-9.5c-4.9-6.5-8.7-13-11.5-19.7c-2.9-6.7-4.5-12.9-4.7-18.6c-0.2-3.5,0.3-6.7,1.3-9.5s2.8-5.1,5.2-6.9&#10;&#9;&#9;&#9;c0.9-0.7,1.9-1.2,2.9-1.5c1-0.3,2.1-0.6,3.2-0.8c3.3-0.1,6.8,0.9,10.5,3.1c1.7,1.1,3.3,2.4,4.9,3.8c1.6,1.5,3,3,4.3,4.7&#10;&#9;&#9;&#9;c2,2.6,3.7,5.6,4.9,8.8c1-3,2.5-5.8,4.5-8.6c1.4-1.9,2.9-3.6,4.5-5.2c1.7-1.6,3.4-3,5.3-4.2c4-2.4,8-3.5,12-3.2&#10;&#9;&#9;&#9;c2.9,0.2,5.6,1.2,8.1,2.9c2,1.5,3.4,3.2,4.3,5.3c0.9,2.1,1.4,4.5,1.4,7.2c0,2.4-0.4,5-1.1,7.7c-0.7,2.8-1.7,5.7-3,8.6&#10;&#9;&#9;&#9;c-1.2,3-2.7,6-4.5,9c-1.8,3-3.8,6.1-6,9.1c-3.3,4.6-7,9.1-11.1,13.5c-4.1,4.4-8.4,8.4-13,12.1c4.8,3.6,9.7,6.4,14.7,8.4&#10;&#9;&#9;&#9;c5,2,10,3,15,2.8c4.6-0.2,8.8-1.1,12.7-2.7c3.8-1.6,7.3-3.8,10.5-6.5c3.5-3,6.5-6.4,9-10.4c2.5-3.9,4.5-8.1,5.9-12.7&#10;&#9;&#9;&#9;c0.3-0.7,0.6-1.1,1.1-1.3c0.5-0.2,0.9-0.3,1.3-0.1s0.7,0.4,0.9,0.9c0.2,0.5,0.2,1-0.1,1.6c-1.6,4.9-3.8,9.4-6.4,13.6&#10;&#9;&#9;&#9;c-2.6,4.2-5.8,7.8-9.6,11c-3.5,2.9-7.3,5.2-11.5,7c-4.2,1.8-8.7,2.8-13.7,2.9c-5.5,0.2-11-0.9-16.5-3.1c-5.5-2.3-10.9-5.4-16-9.4&#10;&#9;&#9;&#9;c-5.9,4.3-11.9,7.5-18,9.5c-6.1,2-12.2,3-18,3c-8.1,0-15.1-1.2-21-3.5s-10.8-5.6-14.7-10c-2.1,1.9-4.6,2.8-7.4,2.8&#10;&#9;&#9;&#9;c-4.4,0-8.1-1.5-10.9-4.5c-2.1-2.2-3.7-5-4.7-8.3c-0.9-3.3-1.4-6.8-1.4-10.5c0-4.9,0.8-9.7,2.5-14.4s4-8.6,7.1-11.6&#10;&#9;&#9;&#9;c0.7-0.7,1.4-1.1,2.1-1.3c0.7-0.2,1.5-0.2,2.2,0c0.8,0.1,1.6,0.4,2.4,1C1042,1279.9,1042.6,1280.6,1043.1,1281.5z M1036.8,1297.4&#10;&#9;&#9;&#9;c-0.3,1.2-0.6,2.3-0.8,3.5c-0.2,1.1-0.3,2.3-0.5,3.5c-0.3,2.2-0.3,4.4-0.3,6.5c0.1,2.1,0.3,4.1,0.8,6c0.4,1.7,1,3.2,1.7,4.5&#10;&#9;&#9;&#9;c0.7,1.3,1.5,2.3,2.4,3c1,0.7,2.2,1,3.5,0.9v0.1c1.3-0.3,2.5-0.9,3.6-2c-0.5-0.7-1-1.4-1.5-2c-0.5-0.7-0.9-1.4-1.3-2&#10;&#9;&#9;&#9;c-1.7-2.6-3.1-5.2-4.1-7.8c-1-2.6-1.8-5.2-2.4-7.7C1037.2,1301.5,1036.9,1299.3,1036.8,1297.4z M1049.3,1320.7&#10;&#9;&#9;&#9;c0.7-1,1.2-2.2,1.7-3.5c0.4-1.3,0.8-2.6,1.2-4.1c0.5-2,0.8-4,1-6.2s0.1-4.3-0.1-6.3c-0.2-2-0.5-4-1-5.8c-0.5-1.8-1.1-3.4-1.9-4.7&#10;&#9;&#9;&#9;c-0.8-1.4-1.7-2.6-2.8-3.3c-1.1-0.8-2.4-0.9-3.8-0.5c-1.6,0.4-2.7,2-3.2,4.9c-0.3,1.5-0.4,3.3-0.3,5.4s0.4,4.2,1,6.5&#10;&#9;&#9;&#9;c0.6,2.3,1.4,4.7,2.4,7.2c1,2.5,2.2,4.9,3.8,7.3c0.3,0.6,0.7,1.2,1,1.7C1048.5,1319.7,1048.9,1320.2,1049.3,1320.7z M1100,1255.9&#10;&#9;&#9;&#9;c-1,0.7-1.9,1.6-2.5,2.8c-0.6,1.2-1.1,2.6-1.5,4.3c-0.7,3.8-0.6,8.4,0.4,13.6c0.6,3.8,1.6,7.9,3.1,12.1c1.4,4.2,3.2,8.4,5.3,12.5&#10;&#9;&#9;&#9;c2.1,4.1,4.5,8,7.2,11.8c2.7,3.8,5.8,7.1,9.1,10c4.6-3.7,9-7.7,13-12c4.1-4.3,7.8-8.8,11.1-13.4c4.3-6.1,7.6-12,10.1-17.7&#10;&#9;&#9;&#9;c2.5-5.6,3.7-10.6,3.7-15c0-3.6-0.9-6.4-2.6-8.3c-1-1.1-2.2-1.7-3.4-1.8c-1.2-0.1-2.5,0.1-3.9,0.6c-1,0.4-2,1-3.1,1.6&#10;&#9;&#9;&#9;s-2,1.4-3.1,2.2c-1.8,1.5-3.5,3.2-5.2,5.1c-1.7,2-3.3,4-4.8,6.2c-1.5,2.2-2.8,4.4-3.9,6.6c-1.1,2.2-2,4.3-2.6,6.4l-0.1,0.3&#10;&#9;&#9;&#9;c-0.3,0.7-0.9,1.1-1.8,1.3c-0.7,0.2-1.4-0.1-2-0.8c-0.3-0.3-0.6-0.7-0.9-1.4c-0.3-0.6-0.5-1.3-0.7-2c-0.2-0.8-0.3-1.6-0.3-2.6&#10;&#9;&#9;&#9;c-0.2-2.6-0.8-5.1-1.9-7.5c-1.1-2.5-2.4-4.8-4-7c-1.2-1.6-2.5-3.1-3.9-4.3s-2.8-2.4-4.3-3.3c-0.9-0.6-2-0.9-3.3-0.9&#10;&#9;&#9;&#9;S1100.9,1255.4,1100,1255.9z" style="fill: rgb(140, 98, 57);"/>
    </g>
  </g>
</svg>